<?xml version="1.0" encoding="utf-8"?>
<!-- Generator: Adobe Illustrator 22.0.0, SVG Export Plug-In . SVG Version: 6.00 Build 0)  -->
<svg version="1.1" id="Layer_1" xmlns="http://www.w3.org/2000/svg" xmlns:xlink="http://www.w3.org/1999/xlink" x="0px" y="0px"
	 viewBox="0 0 1400 180" style="enable-background:new 0 0 1400 180;" xml:space="preserve">
<style type="text/css">
	.st0{fill:none;stroke:#FFD040;stroke-width:2.776;stroke-linecap:round;stroke-miterlimit:10;}
</style>
<g transform="scale(1,1)">
</g>
<g transform="translate(0,503)">
	<path class="st0" d="M11.3-421.4v16.7"/>
	<path class="st0" d="M16.8-427v27.9"/>
	<path class="st0" d="M22.4-458.4v90.9"/>
	<path class="st0" d="M27.9-430.6v35.2"/>
	<path class="st0" d="M33.5-447.2v68.3"/>
	<path class="st0" d="M39-444.4v62.8"/>
	<path class="st0" d="M44.6-439.6v53.3"/>
	<path class="st0" d="M50.1-425.2v24.5"/>
	<path class="st0" d="M55.7-429.6v33.2"/>
	<path class="st0" d="M61.2-433.9v41.7"/>
	<path class="st0" d="M66.8-452.4v78.9"/>
	<path class="st0" d="M72.3-452v78"/>
	<path class="st0" d="M77.9-455.1v84.1"/>
	<path class="st0" d="M83.4-440.9v55.7"/>
	<path class="st0" d="M89-448.4v70.7"/>
	<path class="st0" d="M94.5-437.5v48.9"/>
	<path class="st0" d="M100.1-435v44"/>
	<path class="st0" d="M105.6-451.5v76.9"/>
	<path class="st0" d="M111.2-424.5v22.9"/>
	<path class="st0" d="M116.8-419.9v13.8"/>
	<path class="st0" d="M122.3-426.7v27.4"/>
	<path class="st0" d="M127.9-429.4v32.9"/>
	<path class="st0" d="M133.4-431.8v37.6"/>
	<path class="st0" d="M139-431.6v37.1"/>
	<path class="st0" d="M144.5-452.7v79.5"/>
	<path class="st0" d="M150.1-434.4v42.8"/>
	<path class="st0" d="M155.6-446.9v67.8"/>
	<path class="st0" d="M161.2-438.2v50.3"/>
	<path class="st0" d="M166.7-420v14"/>
	<path class="st0" d="M172.3-430.2v34.4"/>
	<path class="st0" d="M177.8-449v71.9"/>
	<path class="st0" d="M183.4-457.6v89.1"/>
	<path class="st0" d="M188.9-450.5v75"/>
	<path class="st0" d="M194.5-434.1v42.1"/>
	<path class="st0" d="M200-426.7v27.4"/>
	<path class="st0" d="M205.6-414.1v2.2"/>
	<path class="st0" d="M211.1-414.7v3.4"/>
	<path class="st0" d="M216.7-414.1v2.3"/>
	<path class="st0" d="M222.2-414.9v3.8"/>
	<path class="st0" d="M227.8-464V-362"/>
	<path class="st0" d="M233.3-470.9v115.8"/>
	<path class="st0" d="M238.9-452.3v78.7"/>
	<path class="st0" d="M244.4-444v62"/>
	<path class="st0" d="M250-464.2v102.4"/>
	<path class="st0" d="M255.6-453.8v81.7"/>
	<path class="st0" d="M261.1-441.2v56.3"/>
	<path class="st0" d="M266.7-440.3v54.7"/>
	<path class="st0" d="M272.2-429.7v33.4"/>
	<path class="st0" d="M277.8-441.2v56.4"/>
	<path class="st0" d="M283.3-435.8v45.5"/>
	<path class="st0" d="M288.9-424.1v22.2"/>
	<path class="st0" d="M294.4-433.7v41.3"/>
	<path class="st0" d="M300-413.8v1.6"/>
	<path class="st0" d="M305.5-413.7v1.4"/>
	<path class="st0" d="M311.1-444v61.9"/>
	<path class="st0" d="M316.6-454.2v82.5"/>
	<path class="st0" d="M322.2-437.8v49.6"/>
	<path class="st0" d="M327.7-427v28"/>
	<path class="st0" d="M333.3-417.2v8.4"/>
	<path class="st0" d="M338.8-438.1v50.2"/>
	<path class="st0" d="M344.4-452.9v79.8"/>
	<path class="st0" d="M349.9-453.8v81.6"/>
	<path class="st0" d="M355.5-446.9v67.7"/>
	<path class="st0" d="M361-438.9v51.7"/>
	<path class="st0" d="M366.6-441v56"/>
	<path class="st0" d="M372.1-442.3v58.6"/>
	<path class="st0" d="M377.7-443.6v61.2"/>
	<path class="st0" d="M383.3-427.2v28.4"/>
	<path class="st0" d="M388.8-428.8v31.7"/>
	<path class="st0" d="M394.4-419v12.1"/>
	<path class="st0" d="M399.9-415.7v5.5"/>
	<path class="st0" d="M405.5-413.3v0.6"/>
	<path class="st0" d="M411-413.3v0.5"/>
	<path class="st0" d="M416.6-419.8v13.6"/>
	<path class="st0" d="M422.1-421.9v17.8"/>
	<path class="st0" d="M427.7-448.5v71"/>
	<path class="st0" d="M433.2-448.7v71.5"/>
	<path class="st0" d="M438.8-455v83.9"/>
	<path class="st0" d="M444.3-431.5v37"/>
	<path class="st0" d="M449.9-446.8v67.7"/>
	<path class="st0" d="M455.4-450.4v74.8"/>
	<path class="st0" d="M461-416.3v6.6"/>
	<path class="st0" d="M466.5-429.3v32.5"/>
	<path class="st0" d="M472.1-427.1v28.1"/>
	<path class="st0" d="M477.6-422.1v18.2"/>
	<path class="st0" d="M483.2-416.5v6.9"/>
	<path class="st0" d="M488.7-429.7v33.5"/>
	<path class="st0" d="M494.3-440.6v55.2"/>
	<path class="st0" d="M499.8-428.2v30.4"/>
	<path class="st0" d="M505.4-433.3v40.7"/>
	<path class="st0" d="M510.9-431.8v37.5"/>
	<path class="st0" d="M516.5-426.1v26.1"/>
	<path class="st0" d="M522.1-442.1v58.1"/>
	<path class="st0" d="M527.6-444.8v63.6"/>
	<path class="st0" d="M533.2-424.1v22.2"/>
	<path class="st0" d="M538.7-432.7v39.4"/>
	<path class="st0" d="M544.3-445v63.9"/>
	<path class="st0" d="M549.8-433.9v41.9"/>
	<path class="st0" d="M555.4-438.8v51.6"/>
	<path class="st0" d="M560.9-440.3v54.7"/>
	<path class="st0" d="M566.5-435.2v44.4"/>
	<path class="st0" d="M572-435.7v45.4"/>
	<path class="st0" d="M577.6-429.7v33.4"/>
	<path class="st0" d="M583.1-450.9v75.7"/>
	<path class="st0" d="M588.7-426.7v27.4"/>
	<path class="st0" d="M594.2-417.5v9.1"/>
	<path class="st0" d="M599.8-453.4v80.8"/>
	<path class="st0" d="M605.3-435.4v44.8"/>
	<path class="st0" d="M610.9-441.1v56.2"/>
	<path class="st0" d="M616.4-457.8v89.7"/>
	<path class="st0" d="M622-431.7v37.3"/>
	<path class="st0" d="M627.5-433.3v40.6"/>
	<path class="st0" d="M633.1-432.7v39.4"/>
	<path class="st0" d="M638.6-440.1v54.2"/>
	<path class="st0" d="M644.2-432.9v39.7"/>
	<path class="st0" d="M649.7-426.7v27.4"/>
	<path class="st0" d="M655.3-436.7v47.3"/>
	<path class="st0" d="M660.9-430.9v35.9"/>
	<path class="st0" d="M666.4-441.1v56.2"/>
	<path class="st0" d="M672-433.2v40.5"/>
	<path class="st0" d="M677.5-414.8v3.6"/>
	<path class="st0" d="M683.1-413.5v1"/>
	<path class="st0" d="M688.6-431.8v37.6"/>
	<path class="st0" d="M694.2-427.6v29.3"/>
	<path class="st0" d="M699.7-415.8v5.5"/>
	<path class="st0" d="M705.3-413.2v0.5"/>
	<path class="st0" d="M710.8-413.3v0.5"/>
	<path class="st0" d="M716.4-417v8"/>
	<path class="st0" d="M721.9-437.5v49.1"/>
	<path class="st0" d="M727.5-467.8v109.6"/>
	<path class="st0" d="M733-454.7v83.4"/>
	<path class="st0" d="M738.6-442.1v58.1"/>
	<path class="st0" d="M744.1-439.2v52.3"/>
	<path class="st0" d="M749.7-417.9v9.8"/>
	<path class="st0" d="M755.2-415.5v5.1"/>
	<path class="st0" d="M760.8-461.7v97.4"/>
	<path class="st0" d="M766.3-454.6v83.3"/>
	<path class="st0" d="M771.9-461.7v97.4"/>
	<path class="st0" d="M777.4-442.8v59.6"/>
	<path class="st0" d="M783-433.9v41.9"/>
	<path class="st0" d="M788.5-471v116"/>
	<path class="st0" d="M794.1-419.5v13"/>
	<path class="st0" d="M799.7-425.9v25.8"/>
	<path class="st0" d="M805.2-452.3v78.6"/>
	<path class="st0" d="M810.8-471v116"/>
	<path class="st0" d="M816.3-475.7v125.3"/>
	<path class="st0" d="M821.9-433.3v40.7"/>
	<path class="st0" d="M827.4-457.1v88.2"/>
	<path class="st0" d="M833-445.6v65.1"/>
	<path class="st0" d="M838.5-442.8v59.6"/>
	<path class="st0" d="M844.1-437.6v49.1"/>
	<path class="st0" d="M849.6-443.4v60.8"/>
	<path class="st0" d="M855.2-435.1v44.2"/>
	<path class="st0" d="M860.7-432.9v39.7"/>
	<path class="st0" d="M866.3-431.7v37.4"/>
	<path class="st0" d="M871.8-430.3v34.6"/>
	<path class="st0" d="M877.4-461.3v96.7"/>
	<path class="st0" d="M882.9-424.1v22.1"/>
	<path class="st0" d="M888.5-414.1v2.2"/>
	<path class="st0" d="M894-444.7v63.5"/>
	<path class="st0" d="M899.6-438.9v51.7"/>
	<path class="st0" d="M905.1-445.1v64.2"/>
	<path class="st0" d="M910.7-433.2v40.3"/>
	<path class="st0" d="M916.2-454.4v82.8"/>
	<path class="st0" d="M921.8-456.9v87.9"/>
	<path class="st0" d="M927.3-448.2v70.3"/>
	<path class="st0" d="M932.9-426.1v26.2"/>
	<path class="st0" d="M938.5-424.4v22.9"/>
	<path class="st0" d="M944-423.5v21"/>
	<path class="st0" d="M949.6-413.4v0.8"/>
	<path class="st0" d="M955.1-431.4v36.7"/>
	<path class="st0" d="M960.7-458v89.9"/>
	<path class="st0" d="M966.2-435.1v44.2"/>
	<path class="st0" d="M971.8-417v8"/>
	<path class="st0" d="M977.3-427.6v29.3"/>
	<path class="st0" d="M982.9-447.3v68.5"/>
	<path class="st0" d="M988.4-437v48.1"/>
	<path class="st0" d="M994-442.4v58.8"/>
	<path class="st0" d="M999.5-443.1v60.3"/>
	<path class="st0" d="M1005.1-432.3v38.6"/>
	<path class="st0" d="M1010.6-427.3v28.5"/>
	<path class="st0" d="M1016.2-414v1.9"/>
	<path class="st0" d="M1021.7-413.3v0.6"/>
	<path class="st0" d="M1027.3-425.4v24.8"/>
	<path class="st0" d="M1032.8-429.4v32.8"/>
	<path class="st0" d="M1038.4-429.7v33.3"/>
	<path class="st0" d="M1043.9-441.5v57"/>
	<path class="st0" d="M1049.5-429.1v32.2"/>
	<path class="st0" d="M1055-419.4v12.8"/>
	<path class="st0" d="M1060.6-415.1v4.3"/>
	<path class="st0" d="M1066.1-433.2v40.3"/>
	<path class="st0" d="M1071.7-434.8v43.5"/>
	<path class="st0" d="M1077.3-425.4v24.8"/>
	<path class="st0" d="M1082.8-436.2v46.3"/>
	<path class="st0" d="M1088.4-440.4v54.9"/>
	<path class="st0" d="M1093.9-427.8v29.7"/>
	<path class="st0" d="M1099.5-424.2v22.3"/>
	<path class="st0" d="M1105-413.5v1"/>
	<path class="st0" d="M1110.6-418v10"/>
	<path class="st0" d="M1116.1-424.8v23.6"/>
	<path class="st0" d="M1121.7-431v36.1"/>
	<path class="st0" d="M1127.2-431.2v36.3"/>
	<path class="st0" d="M1132.8-423.9v21.8"/>
	<path class="st0" d="M1138.3-461.7v97.4"/>
	<path class="st0" d="M1143.9-421.6v17.1"/>
	<path class="st0" d="M1149.4-424.7v23.4"/>
	<path class="st0" d="M1155-436.5v47"/>
	<path class="st0" d="M1160.5-414.9v3.8"/>
	<path class="st0" d="M1166.1-458.2v90.4"/>
	<path class="st0" d="M1171.6-446.2v66.4"/>
	<path class="st0" d="M1177.2-444v62"/>
	<path class="st0" d="M1182.7-444.6v63.2"/>
	<path class="st0" d="M1188.3-442.5v59.1"/>
	<path class="st0" d="M1193.8-429v32"/>
	<path class="st0" d="M1199.4-431v36"/>
	<path class="st0" d="M1204.9-431.2v36.5"/>
	<path class="st0" d="M1210.5-431v35.9"/>
	<path class="st0" d="M1216.1-437.8v49.6"/>
	<path class="st0" d="M1221.6-419.4v12.8"/>
	<path class="st0" d="M1227.2-430v33.9"/>
	<path class="st0" d="M1232.7-418v10"/>
	<path class="st0" d="M1238.3-416.1v6.2"/>
	<path class="st0" d="M1243.8-414.8v3.6"/>
	<path class="st0" d="M1249.4-413.6v1.1"/>
	<path class="st0" d="M1254.9-413.2v0.3"/>
	<path class="st0" d="M1260.5-430.5v34.9"/>
	<path class="st0" d="M1266-448.9v71.8"/>
	<path class="st0" d="M1271.6-415.1v4.1"/>
	<path class="st0" d="M1277.1-413.3v0.7"/>
	<path class="st0" d="M1282.7-421.9v17.8"/>
	<path class="st0" d="M1288.2-426.3v26.6"/>
	<path class="st0" d="M1293.8-416.1v6.3"/>
	<path class="st0" d="M1299.3-413.4v0.9"/>
	<path class="st0" d="M1304.9-436.7v47.5"/>
	<path class="st0" d="M1310.4-452.2v78.4"/>
	<path class="st0" d="M1316-432.1v38.2"/>
	<path class="st0" d="M1321.5-415.7v5.4"/>
	<path class="st0" d="M1327.1-418.9v11.8"/>
	<path class="st0" d="M1332.6-430.5v35"/>
	<path class="st0" d="M1338.2-440.7v55.5"/>
	<path class="st0" d="M1343.7-430.2v34.4"/>
	<path class="st0" d="M1349.3-434.9v43.8"/>
	<path class="st0" d="M1354.9-430.5v35"/>
	<path class="st0" d="M1360.4-419.2v12.4"/>
	<path class="st0" d="M1366-413.5v0.9"/>
	<path class="st0" d="M1371.5-423.5v21.1"/>
	<path class="st0" d="M1377.1-421.7v17.4"/>
	<path class="st0" d="M1382.6-416.9v7.8"/>
	<path class="st0" d="M1388.2-413.1v0.3"/>
</g>
</svg>
