<?xml version="1.0" encoding="utf-8"?>
<!-- Generator: Adobe Illustrator 22.0.0, SVG Export Plug-In . SVG Version: 6.00 Build 0)  -->
<svg version="1.1" id="Layer_1" xmlns="http://www.w3.org/2000/svg" xmlns:xlink="http://www.w3.org/1999/xlink" x="0px" y="0px"
	 viewBox="0 0 1400 180" style="enable-background:new 0 0 1400 180;" xml:space="preserve">
<style type="text/css">
	.st0{fill:none;stroke:#FFD040;stroke-width:3.099;stroke-linecap:round;stroke-miterlimit:10;}
</style>
<g transform="scale(1,1)">
</g>
<g transform="translate(0,503)">
	<path class="st0" d="M2.3-447.2v68.4"/>
	<path class="st0" d="M8.5-451.4v76.7"/>
	<path class="st0" d="M14.7-455.4v84.7"/>
	<path class="st0" d="M20.9-438v50"/>
	<path class="st0" d="M27.1-433v40"/>
	<path class="st0" d="M33.3-449.6v73.1"/>
	<path class="st0" d="M39.5-431.4v36.8"/>
	<path class="st0" d="M45.6-423.9v21.8"/>
	<path class="st0" d="M51.8-450.2v74.5"/>
	<path class="st0" d="M58-440.3v54.6"/>
	<path class="st0" d="M64.2-445.9v65.7"/>
	<path class="st0" d="M70.4-446.7v67.4"/>
	<path class="st0" d="M76.6-423.3v20.5"/>
	<path class="st0" d="M82.8-437.6v49.3"/>
	<path class="st0" d="M89-421v15.9"/>
	<path class="st0" d="M95.2-413.2v0.3"/>
	<path class="st0" d="M101.4-420.9v15.8"/>
	<path class="st0" d="M107.6-425.2v24.5"/>
	<path class="st0" d="M113.8-414v2.1"/>
	<path class="st0" d="M120-413.2v0.4"/>
	<path class="st0" d="M126.2-430.5v35"/>
	<path class="st0" d="M132.4-450.8v75.6"/>
	<path class="st0" d="M138.6-458.3v90.5"/>
	<path class="st0" d="M144.8-452.6v79.2"/>
	<path class="st0" d="M151-455.3v84.6"/>
	<path class="st0" d="M157.2-466.5v107"/>
	<path class="st0" d="M163.4-464.7v103.4"/>
	<path class="st0" d="M169.6-442.7v59.5"/>
	<path class="st0" d="M175.8-457v88.1"/>
	<path class="st0" d="M182-445.1v64.2"/>
	<path class="st0" d="M188.2-433.3v40.6"/>
	<path class="st0" d="M194.4-431v36"/>
	<path class="st0" d="M200.6-459v92.1"/>
	<path class="st0" d="M206.8-448.3v70.6"/>
	<path class="st0" d="M213-443.7v61.3"/>
	<path class="st0" d="M219.2-448.5v70.9"/>
	<path class="st0" d="M225.4-437.3v48.6"/>
	<path class="st0" d="M231.6-438v50.1"/>
	<path class="st0" d="M237.8-452v77.9"/>
	<path class="st0" d="M244-434.1v42.2"/>
	<path class="st0" d="M250.2-415v4.1"/>
	<path class="st0" d="M256.4-427.4v28.8"/>
	<path class="st0" d="M262.6-462.5v98.9"/>
	<path class="st0" d="M268.8-440.6v55.2"/>
	<path class="st0" d="M275-434.8v43.7"/>
	<path class="st0" d="M281.2-438.2v50.5"/>
	<path class="st0" d="M287.4-439.4v52.8"/>
	<path class="st0" d="M293.6-447.4v68.8"/>
	<path class="st0" d="M299.8-441v55.9"/>
	<path class="st0" d="M306-432.8v39.6"/>
	<path class="st0" d="M312.2-430.2v34.5"/>
	<path class="st0" d="M318.4-426.1v26.3"/>
	<path class="st0" d="M324.6-419v12"/>
	<path class="st0" d="M330.8-449.7v73.4"/>
	<path class="st0" d="M337-460.6v95.2"/>
	<path class="st0" d="M343.1-462.1v98.3"/>
	<path class="st0" d="M349.3-451v76"/>
	<path class="st0" d="M355.5-460.3v94.7"/>
	<path class="st0" d="M361.7-456v86"/>
	<path class="st0" d="M367.9-427.9v29.8"/>
	<path class="st0" d="M374.1-417.1v8.3"/>
	<path class="st0" d="M380.3-415.6v5.2"/>
	<path class="st0" d="M386.5-471.8v117.7"/>
	<path class="st0" d="M392.7-452.2v78.4"/>
	<path class="st0" d="M398.9-442.1v58.2"/>
	<path class="st0" d="M405.1-425.6v25.3"/>
	<path class="st0" d="M411.3-426.4v26.8"/>
	<path class="st0" d="M417.5-431.4v36.8"/>
	<path class="st0" d="M423.7-450v74.1"/>
	<path class="st0" d="M429.9-449.1v72.3"/>
	<path class="st0" d="M436.1-437.5v49.1"/>
	<path class="st0" d="M442.3-431.2v36.4"/>
	<path class="st0" d="M448.5-428.7v31.5"/>
	<path class="st0" d="M454.7-431.6v37.2"/>
	<path class="st0" d="M460.9-432.2v38.4"/>
	<path class="st0" d="M467.1-434.3v42.6"/>
	<path class="st0" d="M473.3-434.3v42.7"/>
	<path class="st0" d="M479.5-458.7v91.3"/>
	<path class="st0" d="M485.7-449.3v72.5"/>
	<path class="st0" d="M491.9-421.4v16.8"/>
	<path class="st0" d="M498.1-438.3v50.5"/>
	<path class="st0" d="M504.3-444.3v62.5"/>
	<path class="st0" d="M510.5-442.5v58.9"/>
	<path class="st0" d="M516.7-432.4v38.7"/>
	<path class="st0" d="M522.9-441.4v56.8"/>
	<path class="st0" d="M529.1-451.4v76.8"/>
	<path class="st0" d="M535.3-441.4v56.9"/>
	<path class="st0" d="M541.5-440.2v54.4"/>
	<path class="st0" d="M547.7-426.8v27.7"/>
	<path class="st0" d="M553.9-443v59.9"/>
	<path class="st0" d="M560.1-434.1v42.1"/>
	<path class="st0" d="M566.3-441.3v56.7"/>
	<path class="st0" d="M572.5-425.9v25.8"/>
	<path class="st0" d="M578.7-447.3v68.6"/>
	<path class="st0" d="M584.9-453.9v81.7"/>
	<path class="st0" d="M591.1-445.6v65.2"/>
	<path class="st0" d="M597.3-436.7v47.4"/>
	<path class="st0" d="M603.5-444.2v62.3"/>
	<path class="st0" d="M609.7-432.4v38.8"/>
	<path class="st0" d="M615.9-424.1v22.1"/>
	<path class="st0" d="M622.1-431.5v37"/>
	<path class="st0" d="M628.3-427.9v29.9"/>
	<path class="st0" d="M634.5-432.1v38.3"/>
	<path class="st0" d="M640.7-426.1v26.1"/>
	<path class="st0" d="M646.8-426.6v27.1"/>
	<path class="st0" d="M653-425.9v25.7"/>
	<path class="st0" d="M659.2-424.8v23.5"/>
	<path class="st0" d="M665.4-421.7v17.3"/>
	<path class="st0" d="M671.6-432.4v38.8"/>
	<path class="st0" d="M677.8-423.7v21.4"/>
	<path class="st0" d="M684-439.3v52.5"/>
	<path class="st0" d="M690.2-435v43.9"/>
	<path class="st0" d="M696.4-433.2v40.4"/>
	<path class="st0" d="M702.6-429.2v32.3"/>
	<path class="st0" d="M708.8-430.1v34.2"/>
	<path class="st0" d="M715-416.2v6.4"/>
	<path class="st0" d="M721.2-426v26.1"/>
	<path class="st0" d="M727.4-435.9v45.8"/>
	<path class="st0" d="M733.6-438v49.9"/>
	<path class="st0" d="M739.8-436.5v47"/>
	<path class="st0" d="M746-439.2v52.5"/>
	<path class="st0" d="M752.2-438.3v50.6"/>
	<path class="st0" d="M758.4-426.6v27.1"/>
	<path class="st0" d="M764.6-429v32"/>
	<path class="st0" d="M770.8-425.6v25.3"/>
	<path class="st0" d="M777-448.6v71.1"/>
	<path class="st0" d="M783.2-435.2v44.4"/>
	<path class="st0" d="M789.4-429.4v32.8"/>
	<path class="st0" d="M795.6-455.6v85.2"/>
	<path class="st0" d="M801.8-423.5v21.1"/>
	<path class="st0" d="M808-435.7v45.3"/>
	<path class="st0" d="M814.2-440.5v54.9"/>
	<path class="st0" d="M820.4-429.1v32.2"/>
	<path class="st0" d="M826.6-422.7v19.4"/>
	<path class="st0" d="M832.8-438.5v51"/>
	<path class="st0" d="M839-429.6v33.2"/>
	<path class="st0" d="M845.2-424.6v23.2"/>
	<path class="st0" d="M851.4-428.7v31.4"/>
	<path class="st0" d="M857.6-424.9v23.8"/>
	<path class="st0" d="M863.8-419.9v13.8"/>
	<path class="st0" d="M870-419.9v13.8"/>
	<path class="st0" d="M876.2-417.5v9"/>
	<path class="st0" d="M882.4-413.5v0.9"/>
	<path class="st0" d="M888.6-413.3v0.5"/>
	<path class="st0" d="M894.8-432.8v39.5"/>
	<path class="st0" d="M901-435.3v44.6"/>
	<path class="st0" d="M907.2-451.9v77.9"/>
	<path class="st0" d="M913.4-455.5v84.9"/>
	<path class="st0" d="M919.6-456.8v87.6"/>
	<path class="st0" d="M925.8-451.3v76.7"/>
	<path class="st0" d="M932-448.2v70.3"/>
	<path class="st0" d="M938.2-432.1v38.2"/>
	<path class="st0" d="M944.3-413.7v1.3"/>
	<path class="st0" d="M950.5-430.1v34.1"/>
	<path class="st0" d="M956.7-444.9v63.8"/>
	<path class="st0" d="M962.9-433v40"/>
	<path class="st0" d="M969.1-448.9v71.7"/>
	<path class="st0" d="M975.3-427.4v28.8"/>
	<path class="st0" d="M981.5-438.5v51"/>
	<path class="st0" d="M987.7-429.7v33.4"/>
	<path class="st0" d="M993.9-435.2v44.4"/>
	<path class="st0" d="M1000.1-423.6v21.2"/>
	<path class="st0" d="M1006.3-433.3v40.7"/>
	<path class="st0" d="M1012.5-431.5v37"/>
	<path class="st0" d="M1018.7-441.1v56.2"/>
	<path class="st0" d="M1024.9-431.2v36.4"/>
	<path class="st0" d="M1031.1-446.9v67.9"/>
	<path class="st0" d="M1037.3-428.9v31.7"/>
	<path class="st0" d="M1043.5-428.9v31.8"/>
	<path class="st0" d="M1049.7-450.1v74.2"/>
	<path class="st0" d="M1055.9-449.8v73.6"/>
	<path class="st0" d="M1062.1-437.3v48.6"/>
	<path class="st0" d="M1068.3-431.9v37.8"/>
	<path class="st0" d="M1074.5-423.6v21.1"/>
	<path class="st0" d="M1080.7-434.6v43.2"/>
	<path class="st0" d="M1086.9-444.9v63.8"/>
	<path class="st0" d="M1093.1-429.6v33.2"/>
	<path class="st0" d="M1099.3-442v58"/>
	<path class="st0" d="M1105.5-444.7v63.4"/>
	<path class="st0" d="M1111.7-429v32.1"/>
	<path class="st0" d="M1117.9-443.6v61.2"/>
	<path class="st0" d="M1124.1-418.1v10.3"/>
	<path class="st0" d="M1130.3-434.4v42.7"/>
	<path class="st0" d="M1136.5-446.9v67.7"/>
	<path class="st0" d="M1142.7-442.8v59.7"/>
	<path class="st0" d="M1148.9-430.3v34.6"/>
	<path class="st0" d="M1155.1-439.5v53"/>
	<path class="st0" d="M1161.3-436.5v47"/>
	<path class="st0" d="M1167.5-430.1v34.3"/>
	<path class="st0" d="M1173.7-433v40"/>
	<path class="st0" d="M1179.9-431.4v36.8"/>
	<path class="st0" d="M1186.1-436v46.1"/>
	<path class="st0" d="M1192.3-420.7v15.5"/>
	<path class="st0" d="M1198.5-437.5v49.1"/>
	<path class="st0" d="M1204.7-432.1v38.1"/>
	<path class="st0" d="M1210.9-428.1v30.2"/>
	<path class="st0" d="M1217.1-419.8v13.7"/>
	<path class="st0" d="M1223.3-436.2v46.3"/>
	<path class="st0" d="M1229.5-457.6v89.2"/>
	<path class="st0" d="M1235.7-423.7v21.3"/>
	<path class="st0" d="M1241.9-435.9v45.9"/>
	<path class="st0" d="M1248-457.1v88.3"/>
	<path class="st0" d="M1254.2-446.6v67.2"/>
	<path class="st0" d="M1260.4-452.5v79"/>
	<path class="st0" d="M1266.6-435.5v44.9"/>
	<path class="st0" d="M1272.8-431.5v36.9"/>
	<path class="st0" d="M1279-434.5v43.1"/>
	<path class="st0" d="M1285.2-438.3v50.5"/>
	<path class="st0" d="M1291.4-420.2v14.4"/>
	<path class="st0" d="M1297.6-427v28"/>
	<path class="st0" d="M1303.8-444.3v62.6"/>
	<path class="st0" d="M1310-442.9v59.9"/>
	<path class="st0" d="M1316.2-441.8v57.6"/>
	<path class="st0" d="M1322.4-430.1v34.1"/>
	<path class="st0" d="M1328.6-443.5v61"/>
	<path class="st0" d="M1334.8-434.2v42.4"/>
	<path class="st0" d="M1341-434.9v43.8"/>
	<path class="st0" d="M1347.2-422.3v18.6"/>
	<path class="st0" d="M1353.4-431.6v37.1"/>
	<path class="st0" d="M1359.6-428.6v31.2"/>
	<path class="st0" d="M1365.8-425.2v24.4"/>
	<path class="st0" d="M1372-423.8v21.6"/>
	<path class="st0" d="M1378.2-422.3v18.6"/>
	<path class="st0" d="M1384.4-423.9v21.7"/>
	<path class="st0" d="M1390.6-425.2v24.3"/>
	<path class="st0" d="M1396.8-416v6"/>
	<path class="st0" d="M1403-413.3v0.5"/>
	<path class="st0" d="M1409.2-413.1v0.2"/>
</g>
</svg>
