<?xml version="1.0" encoding="utf-8"?>
<!-- Generator: Adobe Illustrator 22.0.0, SVG Export Plug-In . SVG Version: 6.00 Build 0)  -->
<svg version="1.1" id="Layer_1" xmlns="http://www.w3.org/2000/svg" xmlns:xlink="http://www.w3.org/1999/xlink" x="0px" y="0px"
	 viewBox="0 0 1400 180" style="enable-background:new 0 0 1400 180;" xml:space="preserve">
<style type="text/css">
	.st0{fill:none;stroke:#FFD040;stroke-width:3.4155;stroke-linecap:round;stroke-miterlimit:10;}
</style>
<g transform="scale(1,1)">
</g>
<g transform="translate(0,366)">
	<path class="st0" d="M0-276.1v0.2"/>
	<path class="st0" d="M7.3-299.2v46.4"/>
	<path class="st0" d="M14.6-303.8v55.7"/>
	<path class="st0" d="M21.9-350.4v148.9"/>
	<path class="st0" d="M29.1-343.1v134.3"/>
	<path class="st0" d="M36.4-337.9v123.8"/>
	<path class="st0" d="M43.7-326v99.9"/>
	<path class="st0" d="M51-288.4v24.8"/>
	<path class="st0" d="M58.3-277.4v2.7"/>
	<path class="st0" d="M65.6-278.7v5.3"/>
	<path class="st0" d="M72.9-292.4v32.9"/>
	<path class="st0" d="M80.2-324.7v97.4"/>
	<path class="st0" d="M87.4-285.7v19.5"/>
	<path class="st0" d="M94.7-277.9v3.9"/>
	<path class="st0" d="M102-290.8v29.7"/>
	<path class="st0" d="M109.3-298v43.9"/>
	<path class="st0" d="M116.6-299.1v46.2"/>
	<path class="st0" d="M123.9-299v45.9"/>
	<path class="st0" d="M131.2-304v55.9"/>
	<path class="st0" d="M138.4-303.7v55.4"/>
	<path class="st0" d="M145.7-286.4v20.8"/>
	<path class="st0" d="M153-294.4v36.9"/>
	<path class="st0" d="M160.3-292.8v33.7"/>
	<path class="st0" d="M167.6-291.2v30.4"/>
	<path class="st0" d="M174.9-286.2v20.5"/>
	<path class="st0" d="M182.2-286v20"/>
	<path class="st0" d="M189.4-288.4v24.8"/>
	<path class="st0" d="M196.7-300.7v49.4"/>
	<path class="st0" d="M204-289.8v27.6"/>
	<path class="st0" d="M211.3-291.2v30.4"/>
	<path class="st0" d="M218.6-286.9v21.9"/>
	<path class="st0" d="M225.9-277.1v2.3"/>
	<path class="st0" d="M233.2-281.4v10.9"/>
	<path class="st0" d="M240.5-277.5v3"/>
	<path class="st0" d="M247.7-278.5v5"/>
	<path class="st0" d="M255-287.4v22.8"/>
	<path class="st0" d="M262.3-322.3v92.7"/>
	<path class="st0" d="M269.6-352.8v153.5"/>
	<path class="st0" d="M276.9-322.8v93.6"/>
	<path class="st0" d="M284.2-299.8v47.7"/>
	<path class="st0" d="M291.5-348.6v145.2"/>
	<path class="st0" d="M298.7-318.8v85.7"/>
	<path class="st0" d="M306-278.1v4.2"/>
	<path class="st0" d="M313.3-276.4v0.9"/>
	<path class="st0" d="M320.6-296.7v41.4"/>
	<path class="st0" d="M327.9-312.3v72.5"/>
	<path class="st0" d="M335.2-320.2v88.4"/>
	<path class="st0" d="M342.5-281.6v11.2"/>
	<path class="st0" d="M349.7-282v12"/>
	<path class="st0" d="M357-310.1v68.3"/>
	<path class="st0" d="M364.3-314.2v76.3"/>
	<path class="st0" d="M371.6-320.7v89.4"/>
	<path class="st0" d="M378.9-295.5v39"/>
	<path class="st0" d="M386.2-276.7v1.4"/>
	<path class="st0" d="M393.5-276.5v0.9"/>
	<path class="st0" d="M400.8-276.4v0.8"/>
	<path class="st0" d="M408-306.2v60.5"/>
	<path class="st0" d="M415.3-307.2v62.4"/>
	<path class="st0" d="M422.6-339.9v127.7"/>
	<path class="st0" d="M429.9-325.8v99.5"/>
	<path class="st0" d="M437.2-334.5v117"/>
	<path class="st0" d="M444.5-331.9v111.7"/>
	<path class="st0" d="M451.8-328.8v105.7"/>
	<path class="st0" d="M459-322.6v93.3"/>
	<path class="st0" d="M466.3-317.2v82.3"/>
	<path class="st0" d="M473.6-300.1v48.2"/>
	<path class="st0" d="M480.9-276.8v1.6"/>
	<path class="st0" d="M488.2-280.3v8.5"/>
	<path class="st0" d="M495.5-304.7v57.4"/>
	<path class="st0" d="M502.8-306.2v60.4"/>
	<path class="st0" d="M510.1-297.5v43"/>
	<path class="st0" d="M517.3-309.4v66.9"/>
	<path class="st0" d="M524.6-303.8v55.7"/>
	<path class="st0" d="M531.9-301.3v50.6"/>
	<path class="st0" d="M539.2-277.7v3.5"/>
	<path class="st0" d="M546.5-297.7v43.5"/>
	<path class="st0" d="M553.8-314.5v77.1"/>
	<path class="st0" d="M561.1-327.3v102.7"/>
	<path class="st0" d="M568.3-311.7v71.4"/>
	<path class="st0" d="M575.6-287.8v23.7"/>
	<path class="st0" d="M582.9-301.9v51.7"/>
	<path class="st0" d="M590.2-277v2"/>
	<path class="st0" d="M597.5-305.8v59.6"/>
	<path class="st0" d="M604.8-320.9v89.8"/>
	<path class="st0" d="M612.1-286.3v20.6"/>
	<path class="st0" d="M619.3-276.7v1.4"/>
	<path class="st0" d="M626.6-298.8v45.5"/>
	<path class="st0" d="M633.9-278.5v5"/>
	<path class="st0" d="M641.2-318.8v85.6"/>
	<path class="st0" d="M648.5-304v56"/>
	<path class="st0" d="M655.8-305.6v59.1"/>
	<path class="st0" d="M663.1-308v64"/>
	<path class="st0" d="M670.4-280.3v8.6"/>
	<path class="st0" d="M677.6-291v30.1"/>
	<path class="st0" d="M684.9-291.7v31.5"/>
	<path class="st0" d="M692.2-295.7v39.4"/>
	<path class="st0" d="M699.5-305.2v58.4"/>
	<path class="st0" d="M706.8-276.7v1.4"/>
	<path class="st0" d="M714.1-291.5v31.1"/>
	<path class="st0" d="M721.4-308.3v64.6"/>
	<path class="st0" d="M728.6-296.6v41.2"/>
	<path class="st0" d="M735.9-291.5v31.1"/>
	<path class="st0" d="M743.2-315.3v78.6"/>
	<path class="st0" d="M750.5-277.2v2.4"/>
	<path class="st0" d="M757.8-283.3v14.5"/>
	<path class="st0" d="M765.1-337.1v122.2"/>
	<path class="st0" d="M772.4-311.9v71.8"/>
	<path class="st0" d="M779.7-324.9v97.8"/>
	<path class="st0" d="M786.9-291.1v30.2"/>
	<path class="st0" d="M794.2-298.4v44.9"/>
	<path class="st0" d="M801.5-311.2v70.5"/>
	<path class="st0" d="M808.8-289.6v27.2"/>
	<path class="st0" d="M816.1-313.9v75.9"/>
	<path class="st0" d="M823.4-318v83.9"/>
	<path class="st0" d="M830.7-316.9v81.9"/>
	<path class="st0" d="M837.9-285.6v19.3"/>
	<path class="st0" d="M845.2-296.4v40.8"/>
	<path class="st0" d="M852.5-315v78.1"/>
	<path class="st0" d="M859.8-312.8v73.5"/>
	<path class="st0" d="M867.1-293.8v35.6"/>
	<path class="st0" d="M874.4-313.2v74.4"/>
	<path class="st0" d="M881.7-304.1v56.3"/>
	<path class="st0" d="M888.9-318.4v84.8"/>
	<path class="st0" d="M896.2-323.4v94.8"/>
	<path class="st0" d="M903.5-307.4v62.8"/>
	<path class="st0" d="M910.8-318.5v85"/>
	<path class="st0" d="M918.1-300.2v48.5"/>
	<path class="st0" d="M925.4-277.3v2.5"/>
	<path class="st0" d="M932.7-329.2v106.3"/>
	<path class="st0" d="M940-294.7v37.5"/>
	<path class="st0" d="M947.2-276.5v0.9"/>
	<path class="st0" d="M954.5-315.4v78.8"/>
	<path class="st0" d="M961.8-323.3v94.5"/>
	<path class="st0" d="M969.1-308.7v65.3"/>
	<path class="st0" d="M976.4-322.9v93.9"/>
	<path class="st0" d="M983.7-294.3v36.6"/>
	<path class="st0" d="M991-277.1v2.3"/>
	<path class="st0" d="M998.2-277.9v3.7"/>
	<path class="st0" d="M1005.5-320.8v89.6"/>
	<path class="st0" d="M1012.8-308.9v65.8"/>
	<path class="st0" d="M1020.1-327.9v103.8"/>
	<path class="st0" d="M1027.4-307.6v63.2"/>
	<path class="st0" d="M1034.7-294.9v37.9"/>
	<path class="st0" d="M1042-310.1v68.1"/>
	<path class="st0" d="M1049.2-284.9v17.8"/>
	<path class="st0" d="M1056.5-293.2v34.3"/>
	<path class="st0" d="M1063.8-314.7v77.5"/>
	<path class="st0" d="M1071.1-310.4v68.9"/>
	<path class="st0" d="M1078.4-278.6v5.1"/>
	<path class="st0" d="M1085.7-300.6v49.3"/>
	<path class="st0" d="M1093-324.3v96.7"/>
	<path class="st0" d="M1100.3-286.5v20.9"/>
	<path class="st0" d="M1107.5-283.3v14.5"/>
	<path class="st0" d="M1114.8-297v42"/>
	<path class="st0" d="M1122.1-310.9v69.9"/>
	<path class="st0" d="M1129.4-312v72.1"/>
	<path class="st0" d="M1136.7-295v38.1"/>
	<path class="st0" d="M1144-279.8v7.7"/>
	<path class="st0" d="M1151.3-310v68"/>
	<path class="st0" d="M1158.5-298.7v45.5"/>
	<path class="st0" d="M1165.8-295.7v39.5"/>
	<path class="st0" d="M1173.1-282.6v13.3"/>
	<path class="st0" d="M1180.4-284.4v16.8"/>
	<path class="st0" d="M1187.7-276.3v0.5"/>
	<path class="st0" d="M1195-280v8.1"/>
	<path class="st0" d="M1202.3-281v10.1"/>
	<path class="st0" d="M1209.6-284.6v17.3"/>
	<path class="st0" d="M1216.8-288.5v25"/>
	<path class="st0" d="M1224.1-285.9v19.7"/>
	<path class="st0" d="M1231.4-285.1v18.3"/>
	<path class="st0" d="M1238.7-290.6v29.1"/>
	<path class="st0" d="M1246-282.1v12.1"/>
	<path class="st0" d="M1253.3-298.3v44.6"/>
	<path class="st0" d="M1260.6-293.1v34.1"/>
	<path class="st0" d="M1267.8-284.9v17.9"/>
	<path class="st0" d="M1275.1-290.4v28.7"/>
	<path class="st0" d="M1282.4-292.2v32.3"/>
	<path class="st0" d="M1289.7-290.5v29"/>
	<path class="st0" d="M1297-287.7v23.5"/>
	<path class="st0" d="M1304.3-291.6v31.2"/>
	<path class="st0" d="M1311.6-284.8v17.7"/>
	<path class="st0" d="M1318.8-288.6v25.2"/>
	<path class="st0" d="M1326.1-286.6v21.1"/>
	<path class="st0" d="M1333.4-281v10"/>
	<path class="st0" d="M1340.7-292.5v33"/>
	<path class="st0" d="M1348-289.4v26.7"/>
	<path class="st0" d="M1355.3-295.2v38.5"/>
	<path class="st0" d="M1362.6-284.7v17.4"/>
	<path class="st0" d="M1369.9-276.6v1.3"/>
	<path class="st0" d="M1377.1-300.4v48.8"/>
	<path class="st0" d="M1384.4-340.4v128.9"/>
	<path class="st0" d="M1391.7-323.2v94.5"/>
	<path class="st0" d="M1399-279.5v7.1"/>
</g>
</svg>
