<?xml version="1.0" encoding="utf-8"?>
<!-- Generator: Adobe Illustrator 22.0.0, SVG Export Plug-In . SVG Version: 6.00 Build 0)  -->
<svg version="1.1" id="Layer_1" xmlns="http://www.w3.org/2000/svg" xmlns:xlink="http://www.w3.org/1999/xlink" x="0px" y="0px"
	 viewBox="0 0 1400 180" style="enable-background:new 0 0 1400 180;" xml:space="preserve">
<style type="text/css">
	.st0{fill:none;stroke:#FFD040;stroke-width:3.5149;stroke-linecap:round;stroke-miterlimit:10;}
</style>
<g transform="scale(1,1)">
</g>
<g transform="translate(0,366)">
	<path class="st0" d="M0-286.8v21.6"/>
	<path class="st0" d="M7.5-306.2v60.5"/>
	<path class="st0" d="M15-305.1v58.2"/>
	<path class="st0" d="M22.4-312.6v73.2"/>
	<path class="st0" d="M29.9-315.3v78.6"/>
	<path class="st0" d="M37.4-286.1v20.1"/>
	<path class="st0" d="M44.9-313.4v74.8"/>
	<path class="st0" d="M52.3-313.7v75.5"/>
	<path class="st0" d="M59.8-304.3v56.7"/>
	<path class="st0" d="M67.3-282.2v12.4"/>
	<path class="st0" d="M74.8-277.6v3.1"/>
	<path class="st0" d="M82.2-289.8v27.6"/>
	<path class="st0" d="M89.7-301.3v50.6"/>
	<path class="st0" d="M97.2-289.1v26.1"/>
	<path class="st0" d="M104.7-299v46"/>
	<path class="st0" d="M112.1-289.5v27"/>
	<path class="st0" d="M119.6-292v32"/>
	<path class="st0" d="M127.1-292.9v33.9"/>
	<path class="st0" d="M134.6-292.5v33.1"/>
	<path class="st0" d="M142.1-312.2v72.4"/>
	<path class="st0" d="M149.5-288.4v24.8"/>
	<path class="st0" d="M157-288.4v24.9"/>
	<path class="st0" d="M164.5-313.8v75.5"/>
	<path class="st0" d="M172-312.6v73.1"/>
	<path class="st0" d="M179.4-286.8v21.6"/>
	<path class="st0" d="M186.9-278v3.9"/>
	<path class="st0" d="M194.4-291v30"/>
	<path class="st0" d="M201.9-298v44.1"/>
	<path class="st0" d="M209.3-308.4v64.7"/>
	<path class="st0" d="M216.8-299.9v47.8"/>
	<path class="st0" d="M224.3-310.5v69"/>
	<path class="st0" d="M231.8-292.6v33.3"/>
	<path class="st0" d="M239.3-278.2v4.4"/>
	<path class="st0" d="M246.7-279.1v6.3"/>
	<path class="st0" d="M254.2-315v78"/>
	<path class="st0" d="M261.7-303.3v54.5"/>
	<path class="st0" d="M269.2-305.8v59.7"/>
	<path class="st0" d="M276.6-292.3v32.6"/>
	<path class="st0" d="M284.1-313.9v75.8"/>
	<path class="st0" d="M291.6-316.8v81.7"/>
	<path class="st0" d="M299.1-311.6v71.2"/>
	<path class="st0" d="M306.5-325.2v98.3"/>
	<path class="st0" d="M314-316.6v81.2"/>
	<path class="st0" d="M321.5-298.6v45.1"/>
	<path class="st0" d="M329-290.7v29.4"/>
	<path class="st0" d="M336.4-305.6v59.1"/>
	<path class="st0" d="M343.9-299.3v46.7"/>
	<path class="st0" d="M351.4-303.3v54.5"/>
	<path class="st0" d="M358.9-303.5v55.1"/>
	<path class="st0" d="M366.4-299.7v47.5"/>
	<path class="st0" d="M373.8-314.8v77.6"/>
	<path class="st0" d="M381.3-309.6v67.1"/>
	<path class="st0" d="M388.8-311.6v71.2"/>
	<path class="st0" d="M396.3-315.8v79.6"/>
	<path class="st0" d="M403.7-307.8v63.6"/>
	<path class="st0" d="M411.2-280.8v9.6"/>
	<path class="st0" d="M418.7-278.2v4.4"/>
	<path class="st0" d="M426.2-293.6v35.2"/>
	<path class="st0" d="M433.6-317.2v82.4"/>
	<path class="st0" d="M441.1-315.6v79.2"/>
	<path class="st0" d="M448.6-305v58"/>
	<path class="st0" d="M456.1-320v88"/>
	<path class="st0" d="M463.6-299.6v47.2"/>
	<path class="st0" d="M471-278.2v4.3"/>
	<path class="st0" d="M478.5-300.6v49.3"/>
	<path class="st0" d="M486-297.9v43.8"/>
	<path class="st0" d="M493.5-317.7v83.4"/>
	<path class="st0" d="M500.9-321v89.9"/>
	<path class="st0" d="M508.4-310.1v68.1"/>
	<path class="st0" d="M515.9-306.7v61.5"/>
	<path class="st0" d="M523.4-304v56.1"/>
	<path class="st0" d="M530.8-295.4v38.7"/>
	<path class="st0" d="M538.3-299.1v46.3"/>
	<path class="st0" d="M545.8-295.7v39.4"/>
	<path class="st0" d="M553.3-299.9v47.8"/>
	<path class="st0" d="M560.7-284.4v16.8"/>
	<path class="st0" d="M568.2-294.1v36.3"/>
	<path class="st0" d="M575.7-321.8v91.7"/>
	<path class="st0" d="M583.2-299.3v46.6"/>
	<path class="st0" d="M590.7-280.7v9.5"/>
	<path class="st0" d="M598.1-301.7v51.3"/>
	<path class="st0" d="M605.6-323.1v94.2"/>
	<path class="st0" d="M613.1-307.9v63.8"/>
	<path class="st0" d="M620.6-308.3v64.5"/>
	<path class="st0" d="M628-308.5v65"/>
	<path class="st0" d="M635.5-330.7v109.3"/>
	<path class="st0" d="M643-320.9v89.9"/>
	<path class="st0" d="M650.5-328.8v105.5"/>
	<path class="st0" d="M657.9-327.6v103.2"/>
	<path class="st0" d="M665.4-321.9v91.8"/>
	<path class="st0" d="M672.9-286.4v20.8"/>
	<path class="st0" d="M680.4-295.8v39.7"/>
	<path class="st0" d="M687.9-291.7v31.4"/>
	<path class="st0" d="M695.3-308.6v65.1"/>
	<path class="st0" d="M702.8-310.3v68.6"/>
	<path class="st0" d="M710.3-305.1v58.1"/>
	<path class="st0" d="M717.8-307.4v62.8"/>
	<path class="st0" d="M725.2-315.1v78.2"/>
	<path class="st0" d="M732.7-301v50"/>
	<path class="st0" d="M740.2-278.2v4.3"/>
	<path class="st0" d="M747.7-283.7v15.5"/>
	<path class="st0" d="M755.1-312.7v73.3"/>
	<path class="st0" d="M762.6-321.8v91.5"/>
	<path class="st0" d="M770.1-299.8v47.6"/>
	<path class="st0" d="M777.6-287.1v22.3"/>
	<path class="st0" d="M785-297.6v43.2"/>
	<path class="st0" d="M792.5-299.2v46.5"/>
	<path class="st0" d="M800-289.3v26.5"/>
	<path class="st0" d="M807.5-282.3v12.6"/>
	<path class="st0" d="M815-301v49.9"/>
	<path class="st0" d="M822.4-298v43.9"/>
	<path class="st0" d="M829.9-284v16"/>
	<path class="st0" d="M837.4-295.7v39.4"/>
	<path class="st0" d="M844.9-296v39.9"/>
	<path class="st0" d="M852.3-298.3v44.6"/>
	<path class="st0" d="M859.8-295.8v39.6"/>
	<path class="st0" d="M867.3-318v84.1"/>
	<path class="st0" d="M874.8-306.8v61.6"/>
	<path class="st0" d="M882.2-310.9v69.8"/>
	<path class="st0" d="M889.7-302.2v52.5"/>
	<path class="st0" d="M897.2-312.2v72.4"/>
	<path class="st0" d="M904.7-304.5v57.1"/>
	<path class="st0" d="M912.1-319v86.1"/>
	<path class="st0" d="M919.6-321.1v90.2"/>
	<path class="st0" d="M927.1-319.9v87.8"/>
	<path class="st0" d="M934.6-313.5v75.1"/>
	<path class="st0" d="M942.1-308.9v65.8"/>
	<path class="st0" d="M949.5-299.7v47.4"/>
	<path class="st0" d="M957-291.6v31.3"/>
	<path class="st0" d="M964.5-290.8v29.6"/>
	<path class="st0" d="M972-296.2v40.3"/>
	<path class="st0" d="M979.4-293.2v34.4"/>
	<path class="st0" d="M986.9-286.9v21.8"/>
	<path class="st0" d="M994.4-278.2v4.4"/>
	<path class="st0" d="M1001.9-291.7v31.5"/>
	<path class="st0" d="M1009.3-300.5v49"/>
	<path class="st0" d="M1016.8-295.8v39.5"/>
	<path class="st0" d="M1024.3-288.3v24.6"/>
	<path class="st0" d="M1031.8-293.9v35.9"/>
	<path class="st0" d="M1039.3-286.1v20.2"/>
	<path class="st0" d="M1046.7-278.1v4.2"/>
	<path class="st0" d="M1054.2-285.4v18.8"/>
	<path class="st0" d="M1061.7-299.7v47.5"/>
	<path class="st0" d="M1069.2-289.4v26.8"/>
	<path class="st0" d="M1076.6-296.5v40.9"/>
	<path class="st0" d="M1084.1-303.4v54.9"/>
	<path class="st0" d="M1091.6-295.8v39.6"/>
	<path class="st0" d="M1099.1-301.1v50.2"/>
	<path class="st0" d="M1106.5-288.6v25.3"/>
	<path class="st0" d="M1114-296.6v41.2"/>
	<path class="st0" d="M1121.5-316.4v80.8"/>
	<path class="st0" d="M1129-305.1v58.3"/>
	<path class="st0" d="M1136.4-298.7v45.5"/>
	<path class="st0" d="M1143.9-307.6v63.1"/>
	<path class="st0" d="M1151.4-306.4v60.8"/>
	<path class="st0" d="M1158.9-284.8v17.6"/>
	<path class="st0" d="M1166.4-278.4v4.7"/>
	<path class="st0" d="M1173.8-324.2v96.4"/>
	<path class="st0" d="M1181.3-298.6v45.2"/>
	<path class="st0" d="M1188.8-312.3v72.5"/>
	<path class="st0" d="M1196.3-307.7v63.5"/>
	<path class="st0" d="M1203.7-314.5v76.9"/>
	<path class="st0" d="M1211.2-290.9v29.8"/>
	<path class="st0" d="M1218.7-291.1v30.1"/>
	<path class="st0" d="M1226.2-326.1v100.1"/>
	<path class="st0" d="M1233.6-323.4v94.9"/>
	<path class="st0" d="M1241.1-308.5v65"/>
	<path class="st0" d="M1248.6-319.7v87.4"/>
	<path class="st0" d="M1256.1-294.4v36.7"/>
	<path class="st0" d="M1263.6-278.9v5.9"/>
	<path class="st0" d="M1271-306.4v60.7"/>
	<path class="st0" d="M1278.5-312.1v72.1"/>
	<path class="st0" d="M1286-287.1v22.1"/>
	<path class="st0" d="M1293.5-320.5v89"/>
	<path class="st0" d="M1300.9-322.7v93.3"/>
	<path class="st0" d="M1308.4-307.7v63.4"/>
	<path class="st0" d="M1315.9-292.7v33.5"/>
	<path class="st0" d="M1323.4-298.9v45.8"/>
	<path class="st0" d="M1330.8-296.3v40.7"/>
	<path class="st0" d="M1338.3-297.5v42.9"/>
	<path class="st0" d="M1345.8-297v42"/>
	<path class="st0" d="M1353.3-284.2v16.5"/>
	<path class="st0" d="M1360.7-287.6v23.1"/>
	<path class="st0" d="M1368.2-288.7v25.5"/>
	<path class="st0" d="M1375.7-287.7v23.4"/>
	<path class="st0" d="M1383.2-278.4v4.9"/>
	<path class="st0" d="M1390.7-276.3v0.6"/>
</g>
</svg>
