<?xml version="1.0" encoding="utf-8"?>
<!-- Generator: Adobe Illustrator 22.0.0, SVG Export Plug-In . SVG Version: 6.00 Build 0)  -->
<svg version="1.1" id="Layer_1" xmlns="http://www.w3.org/2000/svg" xmlns:xlink="http://www.w3.org/1999/xlink" x="0px" y="0px"
	 viewBox="0 0 1400 180" style="enable-background:new 0 0 1400 180;" xml:space="preserve">
<style type="text/css">
	.st0{fill:none;stroke:#FFD040;stroke-width:3.3955;stroke-linecap:round;stroke-miterlimit:10;}
</style>
<g transform="scale(1,1)">
</g>
<g transform="translate(0,366)">
	<path class="st0" d="M0-276.1v0.2"/>
	<path class="st0" d="M7.2-316.4v80.8"/>
	<path class="st0" d="M14.5-364.3v176.6"/>
	<path class="st0" d="M21.7-313.8v75.5"/>
	<path class="st0" d="M29-312.2v72.5"/>
	<path class="st0" d="M36.2-321.9v91.7"/>
	<path class="st0" d="M43.4-309.1v66.3"/>
	<path class="st0" d="M50.7-289.4v26.7"/>
	<path class="st0" d="M57.9-310.3v68.7"/>
	<path class="st0" d="M65.1-317.3v82.5"/>
	<path class="st0" d="M72.4-302.9v53.8"/>
	<path class="st0" d="M79.6-293.2v34.3"/>
	<path class="st0" d="M86.9-297.4v42.8"/>
	<path class="st0" d="M94.1-297.9v43.8"/>
	<path class="st0" d="M101.3-291.2v30.4"/>
	<path class="st0" d="M108.6-291.9v31.8"/>
	<path class="st0" d="M115.8-282v12"/>
	<path class="st0" d="M123.1-299.8v47.5"/>
	<path class="st0" d="M130.3-294.2v36.3"/>
	<path class="st0" d="M137.5-298.8v45.7"/>
	<path class="st0" d="M144.8-293.7v35.5"/>
	<path class="st0" d="M152-293.8v35.6"/>
	<path class="st0" d="M159.2-291.3v30.6"/>
	<path class="st0" d="M166.5-288.6v25.1"/>
	<path class="st0" d="M173.7-304.8v57.7"/>
	<path class="st0" d="M181-300v47.9"/>
	<path class="st0" d="M188.2-291.5v31"/>
	<path class="st0" d="M195.4-284.6v17.3"/>
	<path class="st0" d="M202.7-307.8v63.7"/>
	<path class="st0" d="M209.9-317.3v82.5"/>
	<path class="st0" d="M217.2-295.9v39.9"/>
	<path class="st0" d="M224.4-313.8v75.6"/>
	<path class="st0" d="M231.6-296.3v40.6"/>
	<path class="st0" d="M238.9-277.6v3.3"/>
	<path class="st0" d="M246.1-277.1v2.2"/>
	<path class="st0" d="M253.3-332.2v112.3"/>
	<path class="st0" d="M260.6-324.8v97.7"/>
	<path class="st0" d="M267.8-284.4v16.7"/>
	<path class="st0" d="M275.1-277.3v2.6"/>
	<path class="st0" d="M282.3-283.1v14.2"/>
	<path class="st0" d="M289.5-341.4v130.9"/>
	<path class="st0" d="M296.8-330.8v109.6"/>
	<path class="st0" d="M304-309.3v66.7"/>
	<path class="st0" d="M311.2-322.1v92.2"/>
	<path class="st0" d="M318.5-313.7v75.3"/>
	<path class="st0" d="M325.7-303.9v55.7"/>
	<path class="st0" d="M333-302.8v53.7"/>
	<path class="st0" d="M340.2-326.8v101.6"/>
	<path class="st0" d="M347.4-319.8v87.5"/>
	<path class="st0" d="M354.7-302.4v52.9"/>
	<path class="st0" d="M361.9-308.5v65"/>
	<path class="st0" d="M369.2-313.7v75.4"/>
	<path class="st0" d="M376.4-293.8v35.5"/>
	<path class="st0" d="M383.6-294.1v36.3"/>
	<path class="st0" d="M390.9-305.6v59.3"/>
	<path class="st0" d="M398.1-309.1v66.2"/>
	<path class="st0" d="M405.3-306.4v60.9"/>
	<path class="st0" d="M412.6-298.1v44.2"/>
	<path class="st0" d="M419.8-280.8v9.6"/>
	<path class="st0" d="M427.1-279.5v7.1"/>
	<path class="st0" d="M434.3-304.1v56.2"/>
	<path class="st0" d="M441.5-293.3v34.5"/>
	<path class="st0" d="M448.8-307.1v62.1"/>
	<path class="st0" d="M456-309.7v67.3"/>
	<path class="st0" d="M463.3-283v14"/>
	<path class="st0" d="M470.5-277v2"/>
	<path class="st0" d="M477.7-277.7v3.4"/>
	<path class="st0" d="M485-316.2v80.3"/>
	<path class="st0" d="M492.2-334.1v116.3"/>
	<path class="st0" d="M499.4-323.8v95.6"/>
	<path class="st0" d="M506.7-318.3v84.5"/>
	<path class="st0" d="M513.9-328.2v104.3"/>
	<path class="st0" d="M521.2-305v57.9"/>
	<path class="st0" d="M528.4-319.8v87.7"/>
	<path class="st0" d="M535.6-299.9v47.9"/>
	<path class="st0" d="M542.9-301.8v51.5"/>
	<path class="st0" d="M550.1-304.2v56.4"/>
	<path class="st0" d="M557.4-321.6v91.1"/>
	<path class="st0" d="M564.6-308.6v65.2"/>
	<path class="st0" d="M571.8-311.6v71.3"/>
	<path class="st0" d="M579.1-300.3v48.6"/>
	<path class="st0" d="M586.3-310.2v68.4"/>
	<path class="st0" d="M593.5-295.1v38.2"/>
	<path class="st0" d="M600.8-288.9v25.8"/>
	<path class="st0" d="M608-298.9v45.7"/>
	<path class="st0" d="M615.3-277.1v2.2"/>
	<path class="st0" d="M622.5-283.6v15.2"/>
	<path class="st0" d="M629.7-307.2v62.5"/>
	<path class="st0" d="M637-320.8v89.6"/>
	<path class="st0" d="M644.2-303.8v55.6"/>
	<path class="st0" d="M651.5-324.3v96.5"/>
	<path class="st0" d="M658.7-325v98"/>
	<path class="st0" d="M665.9-307.8v63.7"/>
	<path class="st0" d="M673.2-301.4v50.8"/>
	<path class="st0" d="M680.4-300.3v48.6"/>
	<path class="st0" d="M687.6-290.9v29.7"/>
	<path class="st0" d="M694.9-304.8v57.6"/>
	<path class="st0" d="M702.1-301v49.9"/>
	<path class="st0" d="M709.4-280.9v9.7"/>
	<path class="st0" d="M716.6-310.3v68.5"/>
	<path class="st0" d="M723.8-296v40.1"/>
	<path class="st0" d="M731.1-304.1v56.1"/>
	<path class="st0" d="M738.3-306v59.9"/>
	<path class="st0" d="M745.5-299.1v46.2"/>
	<path class="st0" d="M752.8-319.1v86.3"/>
	<path class="st0" d="M760-311.6v71.2"/>
	<path class="st0" d="M767.3-284.2v16.4"/>
	<path class="st0" d="M774.5-315.2v78.4"/>
	<path class="st0" d="M781.7-305.1v58.2"/>
	<path class="st0" d="M789-302.7v53.3"/>
	<path class="st0" d="M796.2-318.6v85.2"/>
	<path class="st0" d="M803.5-287.4v22.9"/>
	<path class="st0" d="M810.7-314.3v76.5"/>
	<path class="st0" d="M817.9-315.1v78.2"/>
	<path class="st0" d="M825.2-312.5v73"/>
	<path class="st0" d="M832.4-319.5v87.1"/>
	<path class="st0" d="M839.6-308v64.1"/>
	<path class="st0" d="M846.9-293.2v34.4"/>
	<path class="st0" d="M854.1-319.3v86.6"/>
	<path class="st0" d="M861.4-306.8v61.5"/>
	<path class="st0" d="M868.6-305.1v58.3"/>
	<path class="st0" d="M875.8-301.6v51.1"/>
	<path class="st0" d="M883.1-310.7v69.3"/>
	<path class="st0" d="M890.3-283.5v15"/>
	<path class="st0" d="M897.6-306.8v61.7"/>
	<path class="st0" d="M904.8-309.6v67.2"/>
	<path class="st0" d="M912-306.2v60.4"/>
	<path class="st0" d="M919.3-276.7v1.5"/>
	<path class="st0" d="M926.5-319.5v87"/>
	<path class="st0" d="M933.7-318.2v84.4"/>
	<path class="st0" d="M941-294.7v37.4"/>
	<path class="st0" d="M948.2-297.4v42.7"/>
	<path class="st0" d="M955.5-292.4v32.9"/>
	<path class="st0" d="M962.7-316.9v81.7"/>
	<path class="st0" d="M969.9-296.2v40.3"/>
	<path class="st0" d="M977.2-296.9v41.7"/>
	<path class="st0" d="M984.4-296.9v41.8"/>
	<path class="st0" d="M991.7-285.7v19.4"/>
	<path class="st0" d="M998.9-298.8v45.6"/>
	<path class="st0" d="M1006.1-283.1v14.2"/>
	<path class="st0" d="M1013.4-295v37.9"/>
	<path class="st0" d="M1020.6-301v49.9"/>
	<path class="st0" d="M1027.8-278.6v5.2"/>
	<path class="st0" d="M1035.1-280.8v9.6"/>
	<path class="st0" d="M1042.3-326.7v101.4"/>
	<path class="st0" d="M1049.6-325.6v99.2"/>
	<path class="st0" d="M1056.8-300.6v49.2"/>
	<path class="st0" d="M1064-320.2v88.4"/>
	<path class="st0" d="M1071.3-308.9v65.8"/>
	<path class="st0" d="M1078.5-303.2v54.4"/>
	<path class="st0" d="M1085.8-306.1v60.2"/>
	<path class="st0" d="M1093-283.7v15.4"/>
	<path class="st0" d="M1100.2-321.4v90.9"/>
	<path class="st0" d="M1107.5-290v28"/>
	<path class="st0" d="M1114.7-325.3v98.6"/>
	<path class="st0" d="M1121.9-309.6v67.2"/>
	<path class="st0" d="M1129.2-303.2v54.4"/>
	<path class="st0" d="M1136.4-325.3v98.7"/>
	<path class="st0" d="M1143.7-308.5v64.9"/>
	<path class="st0" d="M1150.9-297.2v42.5"/>
	<path class="st0" d="M1158.1-298.2v44.3"/>
	<path class="st0" d="M1165.4-278.4v4.8"/>
	<path class="st0" d="M1172.6-317.5v83"/>
	<path class="st0" d="M1179.8-291.8v31.5"/>
	<path class="st0" d="M1187.1-282.7v13.5"/>
	<path class="st0" d="M1194.3-285v18"/>
	<path class="st0" d="M1201.6-327.3v102.6"/>
	<path class="st0" d="M1208.8-311.9v71.8"/>
	<path class="st0" d="M1216-298.2v44.4"/>
	<path class="st0" d="M1223.3-291.2v30.4"/>
	<path class="st0" d="M1230.5-290.5v29.1"/>
	<path class="st0" d="M1237.8-284.5v16.9"/>
	<path class="st0" d="M1245-295.1v38.1"/>
	<path class="st0" d="M1252.2-320.7v89.4"/>
	<path class="st0" d="M1259.5-309.9v67.7"/>
	<path class="st0" d="M1266.7-302.1v52.2"/>
	<path class="st0" d="M1273.9-290.8v29.5"/>
	<path class="st0" d="M1281.2-301.3v50.7"/>
	<path class="st0" d="M1288.4-301.6v51.2"/>
	<path class="st0" d="M1295.7-295.2v38.4"/>
	<path class="st0" d="M1302.9-286.9v21.8"/>
	<path class="st0" d="M1310.1-281.1v10.2"/>
	<path class="st0" d="M1317.4-302.7v53.3"/>
	<path class="st0" d="M1324.6-307.9v63.7"/>
	<path class="st0" d="M1331.9-315.1v78.3"/>
	<path class="st0" d="M1339.1-306.2v60.4"/>
	<path class="st0" d="M1346.3-281.9v11.8"/>
	<path class="st0" d="M1353.6-311.5v71.1"/>
	<path class="st0" d="M1360.8-304.6v57.2"/>
	<path class="st0" d="M1368-279.3v6.6"/>
	<path class="st0" d="M1375.3-278.2v4.4"/>
	<path class="st0" d="M1382.5-330.1v108.3"/>
	<path class="st0" d="M1389.8-327.8v103.7"/>
	<path class="st0" d="M1397-322.9v93.9"/>
</g>
</svg>
