<?xml version="1.0" encoding="utf-8"?>
<!-- Generator: Adobe Illustrator 22.0.0, SVG Export Plug-In . SVG Version: 6.00 Build 0)  -->
<svg version="1.1" id="Layer_1" xmlns="http://www.w3.org/2000/svg" xmlns:xlink="http://www.w3.org/1999/xlink" x="0px" y="0px"
	 viewBox="0 0 1400 180" style="enable-background:new 0 0 1400 180;" xml:space="preserve">
<style type="text/css">
	.st0{fill:none;stroke:#FFD040;stroke-width:3.5821;stroke-linecap:round;stroke-miterlimit:10;}
</style>
<g transform="scale(1,1)">
</g>
<g transform="translate(0,366)">
	<path class="st0" d="M0-326.8v101.6"/>
	<path class="st0" d="M7.2-328.6v105.1"/>
	<path class="st0" d="M14.3-321.7v91.4"/>
	<path class="st0" d="M21.5-287.2v22.4"/>
	<path class="st0" d="M28.7-300.2v48.4"/>
	<path class="st0" d="M35.8-301.7v51.5"/>
	<path class="st0" d="M43-302.1v52.1"/>
	<path class="st0" d="M50.1-287.2v22.4"/>
	<path class="st0" d="M57.3-293.9v35.8"/>
	<path class="st0" d="M64.5-290.6v29.3"/>
	<path class="st0" d="M71.6-290.9v29.9"/>
	<path class="st0" d="M78.8-294.1v36.3"/>
	<path class="st0" d="M86-291.4v30.9"/>
	<path class="st0" d="M93.1-284.2v16.5"/>
	<path class="st0" d="M100.3-277.4v2.8"/>
	<path class="st0" d="M107.5-278.5v5"/>
	<path class="st0" d="M114.6-310.8v69.5"/>
	<path class="st0" d="M121.8-278.1v4.3"/>
	<path class="st0" d="M129-304.7v57.5"/>
	<path class="st0" d="M136.1-296.7v41.4"/>
	<path class="st0" d="M143.3-338.2v124.3"/>
	<path class="st0" d="M150.4-325.8v99.5"/>
	<path class="st0" d="M157.6-307.3v62.5"/>
	<path class="st0" d="M164.8-306v60.1"/>
	<path class="st0" d="M171.9-298.8v45.6"/>
	<path class="st0" d="M179.1-289.1v26.3"/>
	<path class="st0" d="M186.3-287v22"/>
	<path class="st0" d="M193.4-279.9v7.7"/>
	<path class="st0" d="M200.6-309.6v67.2"/>
	<path class="st0" d="M207.8-319v86.1"/>
	<path class="st0" d="M214.9-301.5v50.9"/>
	<path class="st0" d="M222.1-312.7v73.4"/>
	<path class="st0" d="M229.3-288.1v24.2"/>
	<path class="st0" d="M236.4-301.8v51.7"/>
	<path class="st0" d="M243.6-289.5v27.1"/>
	<path class="st0" d="M250.7-277v1.9"/>
	<path class="st0" d="M257.9-319.7v87.5"/>
	<path class="st0" d="M265.1-311.1v70.3"/>
	<path class="st0" d="M272.2-334.7v117.5"/>
	<path class="st0" d="M279.4-305.1v58.2"/>
	<path class="st0" d="M286.6-304.9v57.8"/>
	<path class="st0" d="M293.7-328.9v105.9"/>
	<path class="st0" d="M300.9-311.2v70.4"/>
	<path class="st0" d="M308.1-313.1v74.2"/>
	<path class="st0" d="M315.2-278.3v4.6"/>
	<path class="st0" d="M322.4-326.3v100.7"/>
	<path class="st0" d="M329.5-332v112"/>
	<path class="st0" d="M336.7-320.6v89.3"/>
	<path class="st0" d="M343.9-286.2v20.4"/>
	<path class="st0" d="M351-302.1v52.1"/>
	<path class="st0" d="M358.2-294.4v36.8"/>
	<path class="st0" d="M365.4-300.7v49.4"/>
	<path class="st0" d="M372.5-297.6v43.2"/>
	<path class="st0" d="M379.7-284.3v16.7"/>
	<path class="st0" d="M386.9-291.2v30.4"/>
	<path class="st0" d="M394-299.6v47.2"/>
	<path class="st0" d="M401.2-301.1v50.1"/>
	<path class="st0" d="M408.4-287.9v23.9"/>
	<path class="st0" d="M415.5-279.8v7.6"/>
	<path class="st0" d="M422.7-325.9v99.9"/>
	<path class="st0" d="M429.8-323.6v95.2"/>
	<path class="st0" d="M437-296.5v40.9"/>
	<path class="st0" d="M444.2-327.8v103.6"/>
	<path class="st0" d="M451.3-321.9v91.8"/>
	<path class="st0" d="M458.5-299.9v47.9"/>
	<path class="st0" d="M465.7-297.9v43.9"/>
	<path class="st0" d="M472.8-317.3v82.5"/>
	<path class="st0" d="M480-306.8v61.6"/>
	<path class="st0" d="M487.2-298.9v45.7"/>
	<path class="st0" d="M494.3-279.7v7.4"/>
	<path class="st0" d="M501.5-317.2v82.4"/>
	<path class="st0" d="M508.7-310.7v69.4"/>
	<path class="st0" d="M515.8-295.3v38.7"/>
	<path class="st0" d="M523-317.6v83.2"/>
	<path class="st0" d="M530.1-307.6v63.3"/>
	<path class="st0" d="M537.3-311.8v71.5"/>
	<path class="st0" d="M544.5-295.7v39.4"/>
	<path class="st0" d="M551.6-291.3v30.5"/>
	<path class="st0" d="M558.8-299.1v46.2"/>
	<path class="st0" d="M566-288v24"/>
	<path class="st0" d="M573.1-303v54"/>
	<path class="st0" d="M580.3-301.3v50.6"/>
	<path class="st0" d="M587.5-314.6v77.1"/>
	<path class="st0" d="M594.6-295.9v39.9"/>
	<path class="st0" d="M601.8-300.5v49.1"/>
	<path class="st0" d="M608.9-304.5v57"/>
	<path class="st0" d="M616.1-314.2v76.4"/>
	<path class="st0" d="M623.3-301.3v50.5"/>
	<path class="st0" d="M630.4-299.4v46.7"/>
	<path class="st0" d="M637.6-283.9v15.8"/>
	<path class="st0" d="M644.8-312v72"/>
	<path class="st0" d="M651.9-324.1v96.2"/>
	<path class="st0" d="M659.1-325.8v99.6"/>
	<path class="st0" d="M666.3-291.9v31.8"/>
	<path class="st0" d="M673.4-293.2v34.4"/>
	<path class="st0" d="M680.6-299.8v47.7"/>
	<path class="st0" d="M687.8-304.2v56.4"/>
	<path class="st0" d="M694.9-298.4v44.8"/>
	<path class="st0" d="M702.1-328.8v105.6"/>
	<path class="st0" d="M709.2-285.3v18.5"/>
	<path class="st0" d="M716.4-326.9v101.7"/>
	<path class="st0" d="M723.6-323.2v94.3"/>
	<path class="st0" d="M730.7-303.2v54.3"/>
	<path class="st0" d="M737.9-299.9v47.9"/>
	<path class="st0" d="M745.1-295.2v38.4"/>
	<path class="st0" d="M752.2-297.2v42.4"/>
	<path class="st0" d="M759.4-302.4v52.8"/>
	<path class="st0" d="M766.6-300.5v49.1"/>
	<path class="st0" d="M773.7-280.5v9.1"/>
	<path class="st0" d="M780.9-288.3v24.7"/>
	<path class="st0" d="M788.1-299.1v46.3"/>
	<path class="st0" d="M795.2-287.2v22.4"/>
	<path class="st0" d="M802.4-291.9v31.8"/>
	<path class="st0" d="M809.5-312.3v72.7"/>
	<path class="st0" d="M816.7-307.4v62.8"/>
	<path class="st0" d="M823.9-299.1v46.2"/>
	<path class="st0" d="M831-281.5v11"/>
	<path class="st0" d="M838.2-285.3v18.5"/>
	<path class="st0" d="M845.4-283.4v14.8"/>
	<path class="st0" d="M852.5-279.1v6.3"/>
	<path class="st0" d="M859.7-304.2v56.5"/>
	<path class="st0" d="M866.9-341.3v130.6"/>
	<path class="st0" d="M874-323.5v95"/>
	<path class="st0" d="M881.2-293.7v35.4"/>
	<path class="st0" d="M888.3-312.6v73.2"/>
	<path class="st0" d="M895.5-294.4v36.8"/>
	<path class="st0" d="M902.7-288.7v25.4"/>
	<path class="st0" d="M909.8-289.5v27.1"/>
	<path class="st0" d="M917-310.8v69.7"/>
	<path class="st0" d="M924.2-286.4v20.9"/>
	<path class="st0" d="M931.3-278.7v5.5"/>
	<path class="st0" d="M938.5-320.3v88.6"/>
	<path class="st0" d="M945.7-306.5v60.9"/>
	<path class="st0" d="M952.8-297v42"/>
	<path class="st0" d="M960-300.2v48.4"/>
	<path class="st0" d="M967.2-288.5v25.1"/>
	<path class="st0" d="M974.3-302.4v52.9"/>
	<path class="st0" d="M981.5-299.8v47.7"/>
	<path class="st0" d="M988.6-319v86"/>
	<path class="st0" d="M995.8-299v46"/>
	<path class="st0" d="M1003-288v23.9"/>
	<path class="st0" d="M1010.1-316.4v80.8"/>
	<path class="st0" d="M1017.3-307v61.9"/>
	<path class="st0" d="M1024.5-307v62"/>
	<path class="st0" d="M1031.6-283.9v15.7"/>
	<path class="st0" d="M1038.8-292.9v33.8"/>
	<path class="st0" d="M1046-282.7v13.5"/>
	<path class="st0" d="M1053.1-304.2v56.4"/>
	<path class="st0" d="M1060.3-310.1v68.1"/>
	<path class="st0" d="M1067.5-305.1v58.2"/>
	<path class="st0" d="M1074.6-341v130"/>
	<path class="st0" d="M1081.8-308.3v64.7"/>
	<path class="st0" d="M1088.9-332.4v112.7"/>
	<path class="st0" d="M1096.1-326.4v100.7"/>
	<path class="st0" d="M1103.3-314.4v76.8"/>
	<path class="st0" d="M1110.4-314.1v76.3"/>
	<path class="st0" d="M1117.6-309.5v67.1"/>
	<path class="st0" d="M1124.8-309.4v66.8"/>
	<path class="st0" d="M1131.9-303.5v55.1"/>
	<path class="st0" d="M1139.1-304.7v57.4"/>
	<path class="st0" d="M1146.3-285.7v19.4"/>
	<path class="st0" d="M1153.4-319v86.1"/>
	<path class="st0" d="M1160.6-320.7v89.3"/>
	<path class="st0" d="M1167.7-301v50"/>
	<path class="st0" d="M1174.9-293.3v34.5"/>
	<path class="st0" d="M1182.1-287.7v23.4"/>
	<path class="st0" d="M1189.2-282.4v12.9"/>
	<path class="st0" d="M1196.4-296.3v40.6"/>
	<path class="st0" d="M1203.6-293.7v35.4"/>
	<path class="st0" d="M1210.7-314.2v76.5"/>
	<path class="st0" d="M1217.9-334.6v117.3"/>
	<path class="st0" d="M1225.1-299.9v47.8"/>
	<path class="st0" d="M1232.2-292.3v32.7"/>
	<path class="st0" d="M1239.4-288.9v25.7"/>
	<path class="st0" d="M1246.6-287.4v22.8"/>
	<path class="st0" d="M1253.7-289.3v26.6"/>
	<path class="st0" d="M1260.9-291.4v30.8"/>
	<path class="st0" d="M1268-330.3v108.6"/>
	<path class="st0" d="M1275.2-313.9v75.8"/>
	<path class="st0" d="M1282.4-309.8v67.5"/>
	<path class="st0" d="M1289.5-287.3v22.5"/>
	<path class="st0" d="M1296.7-315.9v79.9"/>
	<path class="st0" d="M1303.9-304.1v56.2"/>
	<path class="st0" d="M1311-292.1v32.3"/>
	<path class="st0" d="M1318.2-282.1v12.3"/>
	<path class="st0" d="M1325.4-282.7v13.4"/>
	<path class="st0" d="M1332.5-289.4v26.8"/>
	<path class="st0" d="M1339.7-284.9v17.9"/>
	<path class="st0" d="M1346.9-314.6v77.1"/>
	<path class="st0" d="M1354-290.3v28.6"/>
	<path class="st0" d="M1361.2-300.2v48.4"/>
	<path class="st0" d="M1368.3-287.2v22.4"/>
	<path class="st0" d="M1375.5-312.9v73.9"/>
	<path class="st0" d="M1382.7-314.7v77.4"/>
	<path class="st0" d="M1389.8-295.3v38.7"/>
	<path class="st0" d="M1397-293.2v34.4"/>
</g>
</svg>
