<?xml version="1.0" encoding="utf-8"?>
<!-- Generator: Adobe Illustrator 22.0.0, SVG Export Plug-In . SVG Version: 6.00 Build 0)  -->
<svg version="1.1" id="Layer_1" xmlns="http://www.w3.org/2000/svg" xmlns:xlink="http://www.w3.org/1999/xlink" x="0px" y="0px"
	 viewBox="0 0 1400 180" style="enable-background:new 0 0 1400 180;" xml:space="preserve">
<style type="text/css">
	.st0{fill:none;stroke:#FFD040;stroke-width:3.6962;stroke-linecap:round;stroke-miterlimit:10;}
</style>
<g transform="scale(1,1)">
</g>
<g transform="translate(0,366)">
	<path class="st0" d="M4-276L4-276"/>
	<path class="st0" d="M11.9-276.2v0.5"/>
	<path class="st0" d="M19.7-298.7v45.3"/>
	<path class="st0" d="M27.6-315.4v78.7"/>
	<path class="st0" d="M35.5-313.5v75"/>
	<path class="st0" d="M43.4-319.4v86.8"/>
	<path class="st0" d="M51.2-279v6"/>
	<path class="st0" d="M59.1-322.8v93.6"/>
	<path class="st0" d="M67-298.3v44.7"/>
	<path class="st0" d="M74.8-319.7v87.4"/>
	<path class="st0" d="M82.7-318.3v84.7"/>
	<path class="st0" d="M90.6-322.2v92.3"/>
	<path class="st0" d="M98.4-300.5v49.1"/>
	<path class="st0" d="M106.3-299.7v47.4"/>
	<path class="st0" d="M114.2-280.9v9.8"/>
	<path class="st0" d="M122.1-301.4v50.8"/>
	<path class="st0" d="M129.9-299.1v46.3"/>
	<path class="st0" d="M137.8-303.2v54.4"/>
	<path class="st0" d="M145.7-306.3v60.6"/>
	<path class="st0" d="M153.5-316.2v80.4"/>
	<path class="st0" d="M161.4-303.9v55.8"/>
	<path class="st0" d="M169.3-293.3v34.5"/>
	<path class="st0" d="M177.1-279.7v7.5"/>
	<path class="st0" d="M185-300.5v49.1"/>
	<path class="st0" d="M192.9-289.4v26.7"/>
	<path class="st0" d="M200.8-301.2v50.5"/>
	<path class="st0" d="M208.6-284.6v17.2"/>
	<path class="st0" d="M216.5-277.2v2.4"/>
	<path class="st0" d="M224.4-277.3v2.6"/>
	<path class="st0" d="M232.2-290.5v29"/>
	<path class="st0" d="M240.1-283.6v15.1"/>
	<path class="st0" d="M248-299.5v47"/>
	<path class="st0" d="M255.8-302.8v53.6"/>
	<path class="st0" d="M263.7-301.8v51.5"/>
	<path class="st0" d="M271.6-301.7v51.5"/>
	<path class="st0" d="M279.5-288.9v25.8"/>
	<path class="st0" d="M287.3-300.1v48.2"/>
	<path class="st0" d="M295.2-293.7v35.3"/>
	<path class="st0" d="M303.1-291.8v31.6"/>
	<path class="st0" d="M310.9-317.2v82.4"/>
	<path class="st0" d="M318.8-314.5v76.9"/>
	<path class="st0" d="M326.7-302.2v52.3"/>
	<path class="st0" d="M334.5-317v81.9"/>
	<path class="st0" d="M342.4-298v44"/>
	<path class="st0" d="M350.3-289.3v26.6"/>
	<path class="st0" d="M358.2-304.3v56.6"/>
	<path class="st0" d="M366-312.4v72.9"/>
	<path class="st0" d="M373.9-283.5v15"/>
	<path class="st0" d="M381.8-289.7v27.3"/>
	<path class="st0" d="M389.6-308.4v64.8"/>
	<path class="st0" d="M397.5-298.1v44.2"/>
	<path class="st0" d="M405.4-287v22.1"/>
	<path class="st0" d="M413.2-277.1v2.3"/>
	<path class="st0" d="M421.1-289.7v27.4"/>
	<path class="st0" d="M429-306.4v60.8"/>
	<path class="st0" d="M436.9-314.5v77"/>
	<path class="st0" d="M444.7-281v10"/>
	<path class="st0" d="M452.6-277.2v2.4"/>
	<path class="st0" d="M460.5-289.4v26.9"/>
	<path class="st0" d="M468.3-303.7v55.5"/>
	<path class="st0" d="M476.2-311.3v70.7"/>
	<path class="st0" d="M484.1-302v52.1"/>
	<path class="st0" d="M491.9-278.1v4.2"/>
	<path class="st0" d="M499.8-284.7v17.3"/>
	<path class="st0" d="M507.7-302.9v53.9"/>
	<path class="st0" d="M515.6-292.5v33"/>
	<path class="st0" d="M523.4-277.7v3.5"/>
	<path class="st0" d="M531.3-283.9v15.7"/>
	<path class="st0" d="M539.2-292.2v32.5"/>
	<path class="st0" d="M547-300.3v48.6"/>
	<path class="st0" d="M554.9-299.1v46.1"/>
	<path class="st0" d="M562.8-293.9v35.8"/>
	<path class="st0" d="M570.6-293.2v34.4"/>
	<path class="st0" d="M578.5-291.1v30.1"/>
	<path class="st0" d="M586.4-279.8v7.5"/>
	<path class="st0" d="M594.3-305.6v59.1"/>
	<path class="st0" d="M602.1-302.7v53.5"/>
	<path class="st0" d="M610-293.7v35.5"/>
	<path class="st0" d="M617.9-294.7v37.4"/>
	<path class="st0" d="M625.7-277.6v3.1"/>
	<path class="st0" d="M633.6-295.5v39.1"/>
	<path class="st0" d="M641.5-295.4v38.8"/>
	<path class="st0" d="M649.3-277.4v2.8"/>
	<path class="st0" d="M657.2-295.5v39"/>
	<path class="st0" d="M665.1-317.7v83.3"/>
	<path class="st0" d="M673-288.7v25.4"/>
	<path class="st0" d="M680.8-308.1v64.2"/>
	<path class="st0" d="M688.7-288.8v25.5"/>
	<path class="st0" d="M696.6-299.8v47.7"/>
	<path class="st0" d="M704.4-299.9v47.7"/>
	<path class="st0" d="M712.3-277.6v3.2"/>
	<path class="st0" d="M720.2-277.3v2.5"/>
	<path class="st0" d="M728-296.6v41.2"/>
	<path class="st0" d="M735.9-295v37.9"/>
	<path class="st0" d="M743.8-305.4v58.9"/>
	<path class="st0" d="M751.7-310v68"/>
	<path class="st0" d="M759.5-300.5v48.9"/>
	<path class="st0" d="M767.4-291.3v30.5"/>
	<path class="st0" d="M775.3-289.2v26.4"/>
	<path class="st0" d="M783.1-281.9v11.9"/>
	<path class="st0" d="M791-309.1v66.3"/>
	<path class="st0" d="M798.9-323.4v94.9"/>
	<path class="st0" d="M806.7-329.9v107.9"/>
	<path class="st0" d="M814.6-300.4v48.8"/>
	<path class="st0" d="M822.5-305.6v59.2"/>
	<path class="st0" d="M830.4-317.1v82.3"/>
	<path class="st0" d="M838.2-302.2v52.4"/>
	<path class="st0" d="M846.1-286.3v20.7"/>
	<path class="st0" d="M854-311.9v71.8"/>
	<path class="st0" d="M861.8-310.9v69.9"/>
	<path class="st0" d="M869.7-305.8v59.6"/>
	<path class="st0" d="M877.6-300.5v48.9"/>
	<path class="st0" d="M885.4-293.6v35.2"/>
	<path class="st0" d="M893.3-300.7v49.4"/>
	<path class="st0" d="M901.2-284.1v16.1"/>
	<path class="st0" d="M909.1-278.9v5.8"/>
	<path class="st0" d="M916.9-292v32"/>
	<path class="st0" d="M924.8-294.7v37.4"/>
	<path class="st0" d="M932.7-296v40.1"/>
	<path class="st0" d="M940.5-293.4v34.9"/>
	<path class="st0" d="M948.4-286.2v20.4"/>
	<path class="st0" d="M956.3-315.3v78.5"/>
	<path class="st0" d="M964.1-317.2v82.4"/>
	<path class="st0" d="M972-295v38"/>
	<path class="st0" d="M979.9-298.9v45.8"/>
	<path class="st0" d="M987.8-301.8v51.6"/>
	<path class="st0" d="M995.6-306.1v60.3"/>
	<path class="st0" d="M1003.5-291.7v31.3"/>
	<path class="st0" d="M1011.4-286.5v21"/>
	<path class="st0" d="M1019.2-303.5v54.9"/>
	<path class="st0" d="M1027.1-284.8v17.6"/>
	<path class="st0" d="M1035-283.7v15.4"/>
	<path class="st0" d="M1042.8-306.1v60.3"/>
	<path class="st0" d="M1050.7-288.1v24.1"/>
	<path class="st0" d="M1058.6-287v21.9"/>
	<path class="st0" d="M1066.5-289.1v26.1"/>
	<path class="st0" d="M1074.3-279v6.1"/>
	<path class="st0" d="M1082.2-299.3v46.7"/>
	<path class="st0" d="M1090.1-299.7v47.4"/>
	<path class="st0" d="M1097.9-289.8v27.6"/>
	<path class="st0" d="M1105.8-278.1v4.3"/>
	<path class="st0" d="M1113.7-304.6v57.2"/>
	<path class="st0" d="M1121.5-278.7v5.4"/>
	<path class="st0" d="M1129.4-292.6v33.3"/>
	<path class="st0" d="M1137.3-314.1v76.2"/>
	<path class="st0" d="M1145.2-297.2v42.3"/>
	<path class="st0" d="M1153-307.6v63.3"/>
	<path class="st0" d="M1160.9-296v40"/>
	<path class="st0" d="M1168.8-277.1v2.2"/>
	<path class="st0" d="M1176.6-294.6v37.2"/>
	<path class="st0" d="M1184.5-306.5v60.9"/>
	<path class="st0" d="M1192.4-313.5v75"/>
	<path class="st0" d="M1200.2-300.7v49.3"/>
	<path class="st0" d="M1208.1-301.8v51.6"/>
	<path class="st0" d="M1216-303.3v54.5"/>
	<path class="st0" d="M1223.9-302.3v52.7"/>
	<path class="st0" d="M1231.7-305.1v58.3"/>
	<path class="st0" d="M1239.6-307.1v62.2"/>
	<path class="st0" d="M1247.5-298.3v44.6"/>
	<path class="st0" d="M1255.3-278.5v4.9"/>
	<path class="st0" d="M1263.2-298.4v44.9"/>
	<path class="st0" d="M1271.1-295.8v39.5"/>
	<path class="st0" d="M1278.9-316.9v81.9"/>
	<path class="st0" d="M1286.8-301.9v51.8"/>
	<path class="st0" d="M1294.7-300.8v49.6"/>
	<path class="st0" d="M1302.6-292v32.1"/>
	<path class="st0" d="M1310.4-277.6v3.1"/>
	<path class="st0" d="M1318.3-295.9v39.9"/>
	<path class="st0" d="M1326.2-321.4v90.8"/>
	<path class="st0" d="M1334-326.9v101.8"/>
	<path class="st0" d="M1341.9-332.8v113.7"/>
	<path class="st0" d="M1349.8-319.2v86.5"/>
	<path class="st0" d="M1357.6-293.2v34.4"/>
	<path class="st0" d="M1365.5-281.7v11.4"/>
	<path class="st0" d="M1373.4-317.1v82.1"/>
	<path class="st0" d="M1381.3-340.7v129.5"/>
	<path class="st0" d="M1389.1-308.2v64.4"/>
	<path class="st0" d="M1397-318.2v84.3"/>
</g>
</svg>
