<?xml version="1.0" encoding="utf-8"?>
<!-- Generator: Adobe Illustrator 22.0.0, SVG Export Plug-In . SVG Version: 6.00 Build 0)  -->
<svg version="1.1" id="Layer_1" xmlns="http://www.w3.org/2000/svg" xmlns:xlink="http://www.w3.org/1999/xlink" x="0px" y="0px"
	 viewBox="0 0 1400 180" style="enable-background:new 0 0 1400 180;" xml:space="preserve">
<style type="text/css">
	.st0{fill:none;stroke:#FFD040;stroke-width:4.1206;stroke-linecap:round;stroke-miterlimit:10;}
</style>
<g transform="scale(1,1)">
</g>
<g transform="translate(0,366)">
	<path class="st0" d="M-0.9-276.1v0.3"/>
	<path class="st0" d="M7.9-276.4v0.8"/>
	<path class="st0" d="M16.7-293.4v34.8"/>
	<path class="st0" d="M25.4-300.7v49.3"/>
	<path class="st0" d="M34.2-317.6v83.2"/>
	<path class="st0" d="M43-320.2v88.5"/>
	<path class="st0" d="M51.8-324.2v96.4"/>
	<path class="st0" d="M60.6-327.7v103.3"/>
	<path class="st0" d="M69.4-323.2v94.3"/>
	<path class="st0" d="M78.2-297.4v42.8"/>
	<path class="st0" d="M87-301.4v50.8"/>
	<path class="st0" d="M95.8-319.1v86.2"/>
	<path class="st0" d="M104.6-318.6v85.2"/>
	<path class="st0" d="M113.4-308.3v64.6"/>
	<path class="st0" d="M122.2-300.5v49"/>
	<path class="st0" d="M130.9-296.8v41.5"/>
	<path class="st0" d="M139.7-303.6v55.3"/>
	<path class="st0" d="M148.5-311.8v71.5"/>
	<path class="st0" d="M157.3-302.4v52.8"/>
	<path class="st0" d="M166.1-309.3v66.6"/>
	<path class="st0" d="M174.9-313.7v75.4"/>
	<path class="st0" d="M183.7-308.8v65.7"/>
	<path class="st0" d="M192.5-299.5v46.9"/>
	<path class="st0" d="M201.3-285.8v19.7"/>
	<path class="st0" d="M210.1-282.2v12.3"/>
	<path class="st0" d="M218.9-278.2v4.4"/>
	<path class="st0" d="M227.7-277v2"/>
	<path class="st0" d="M236.5-282.9v13.8"/>
	<path class="st0" d="M245.2-283.3v14.7"/>
	<path class="st0" d="M254-288.2v24.4"/>
	<path class="st0" d="M262.8-298.6v45.3"/>
	<path class="st0" d="M271.6-295v37.9"/>
	<path class="st0" d="M280.4-310.2v68.3"/>
	<path class="st0" d="M289.2-283.8v15.6"/>
	<path class="st0" d="M298-278.8v5.6"/>
	<path class="st0" d="M306.8-290.7v29.3"/>
	<path class="st0" d="M315.6-313.3v74.6"/>
	<path class="st0" d="M324.4-309v66"/>
	<path class="st0" d="M333.2-293.7v35.3"/>
	<path class="st0" d="M342-294v36"/>
	<path class="st0" d="M350.7-304.1v56.2"/>
	<path class="st0" d="M359.5-311.7v71.5"/>
	<path class="st0" d="M368.3-316.4v80.8"/>
	<path class="st0" d="M377.1-307.1v62.2"/>
	<path class="st0" d="M385.9-284.4v16.7"/>
	<path class="st0" d="M394.7-299.6v47.3"/>
	<path class="st0" d="M403.5-291.2v30.4"/>
	<path class="st0" d="M412.3-291.4v30.7"/>
	<path class="st0" d="M421.1-293.8v35.5"/>
	<path class="st0" d="M429.9-285.8v19.6"/>
	<path class="st0" d="M438.7-309.5v67.1"/>
	<path class="st0" d="M447.5-306.8v61.7"/>
	<path class="st0" d="M456.3-308v64"/>
	<path class="st0" d="M465-303.6v55.2"/>
	<path class="st0" d="M473.8-281.8v11.6"/>
	<path class="st0" d="M482.6-279.9v7.9"/>
	<path class="st0" d="M491.4-323.1v94.3"/>
	<path class="st0" d="M500.2-312.6v73.1"/>
	<path class="st0" d="M509-282.8v13.6"/>
	<path class="st0" d="M517.8-279.7v7.4"/>
	<path class="st0" d="M526.6-287.1v22.2"/>
	<path class="st0" d="M535.4-318.4v84.9"/>
	<path class="st0" d="M544.2-317.6v83.1"/>
	<path class="st0" d="M553-318.7v85.3"/>
	<path class="st0" d="M561.8-299.1v46.1"/>
	<path class="st0" d="M570.6-281.6v11.3"/>
	<path class="st0" d="M579.3-281.1v10.1"/>
	<path class="st0" d="M588.1-279.6v7.2"/>
	<path class="st0" d="M596.9-278.1v4.2"/>
	<path class="st0" d="M605.7-277.2v2.3"/>
	<path class="st0" d="M614.5-291.9v31.8"/>
	<path class="st0" d="M623.3-304.6v57.2"/>
	<path class="st0" d="M632.1-298v44"/>
	<path class="st0" d="M640.9-280.3v8.6"/>
	<path class="st0" d="M649.7-321.8v91.6"/>
	<path class="st0" d="M658.5-298.3v44.6"/>
	<path class="st0" d="M667.3-291.8v31.6"/>
	<path class="st0" d="M676.1-316.4v80.9"/>
	<path class="st0" d="M684.8-296.6v41.2"/>
	<path class="st0" d="M693.6-306v60"/>
	<path class="st0" d="M702.4-309.6v67.2"/>
	<path class="st0" d="M711.2-315.3v78.7"/>
	<path class="st0" d="M720-319v86.1"/>
	<path class="st0" d="M728.8-312.7v73.5"/>
	<path class="st0" d="M737.6-304.1v56.1"/>
	<path class="st0" d="M746.4-302.2v52.4"/>
	<path class="st0" d="M755.2-299.3v46.6"/>
	<path class="st0" d="M764-294.3v36.7"/>
	<path class="st0" d="M772.8-314.5v77.1"/>
	<path class="st0" d="M781.6-317.5v83.1"/>
	<path class="st0" d="M790.4-307.4v62.9"/>
	<path class="st0" d="M799.1-297.2v42.4"/>
	<path class="st0" d="M807.9-295v38.1"/>
	<path class="st0" d="M816.7-287.7v23.4"/>
	<path class="st0" d="M825.5-287.5v22.9"/>
	<path class="st0" d="M834.3-279.3v6.6"/>
	<path class="st0" d="M843.1-277.4v2.8"/>
	<path class="st0" d="M851.9-277v2.1"/>
	<path class="st0" d="M860.7-277.1v2.2"/>
	<path class="st0" d="M869.5-277.1v2.2"/>
	<path class="st0" d="M878.3-278.6v5.3"/>
	<path class="st0" d="M887.1-280.1v8.2"/>
	<path class="st0" d="M895.9-279.5v7.1"/>
	<path class="st0" d="M904.6-288.9v25.7"/>
	<path class="st0" d="M913.4-307.5v63"/>
	<path class="st0" d="M922.2-315.4v78.8"/>
	<path class="st0" d="M931-305.2v58.5"/>
	<path class="st0" d="M939.8-321.3v90.6"/>
	<path class="st0" d="M948.6-313.2v74.4"/>
	<path class="st0" d="M957.4-299.1v46.2"/>
	<path class="st0" d="M966.2-307.9v63.8"/>
	<path class="st0" d="M975-322.2v92.3"/>
	<path class="st0" d="M983.8-320v87.9"/>
	<path class="st0" d="M992.6-285.1v18.2"/>
	<path class="st0" d="M1001.4-281v9.9"/>
	<path class="st0" d="M1010.2-312v72"/>
	<path class="st0" d="M1018.9-297.4v42.7"/>
	<path class="st0" d="M1027.7-285.4v18.7"/>
	<path class="st0" d="M1036.5-308.2v64.5"/>
	<path class="st0" d="M1045.3-301.9v51.8"/>
	<path class="st0" d="M1054.1-296.7v41.5"/>
	<path class="st0" d="M1062.9-281.3v10.6"/>
	<path class="st0" d="M1071.7-314.5v77"/>
	<path class="st0" d="M1080.5-314.6v77.2"/>
	<path class="st0" d="M1089.3-314.7v77.5"/>
	<path class="st0" d="M1098.1-324.7v97.4"/>
	<path class="st0" d="M1106.9-326.1v100.2"/>
	<path class="st0" d="M1115.7-296.8v41.7"/>
	<path class="st0" d="M1124.4-282v11.9"/>
	<path class="st0" d="M1133.2-306.3v60.7"/>
	<path class="st0" d="M1142-283.6v15.2"/>
	<path class="st0" d="M1150.8-295.5v39"/>
	<path class="st0" d="M1159.6-313.2v74.5"/>
	<path class="st0" d="M1168.4-294.7v37.4"/>
	<path class="st0" d="M1177.2-295.9v39.8"/>
	<path class="st0" d="M1186-286.3v20.7"/>
	<path class="st0" d="M1194.8-301v50.1"/>
	<path class="st0" d="M1203.6-293.7v35.3"/>
	<path class="st0" d="M1212.4-289.9v27.7"/>
	<path class="st0" d="M1221.2-297.7v43.3"/>
	<path class="st0" d="M1230-324.2v96.4"/>
	<path class="st0" d="M1238.7-320.2v88.3"/>
	<path class="st0" d="M1247.5-304.7v57.5"/>
	<path class="st0" d="M1256.3-281v9.9"/>
	<path class="st0" d="M1265.1-281.8v11.6"/>
	<path class="st0" d="M1273.9-282.2v12.5"/>
	<path class="st0" d="M1282.7-282.7v13.4"/>
	<path class="st0" d="M1291.5-280.6v9.3"/>
	<path class="st0" d="M1300.3-295.1v38.1"/>
	<path class="st0" d="M1309.1-319.8v87.6"/>
	<path class="st0" d="M1317.9-319.4v86.7"/>
	<path class="st0" d="M1326.7-307.7v63.3"/>
	<path class="st0" d="M1335.5-280.3v8.7"/>
	<path class="st0" d="M1344.2-297.5v43.1"/>
	<path class="st0" d="M1353-309.1v66.2"/>
	<path class="st0" d="M1361.8-325.4v98.8"/>
	<path class="st0" d="M1370.6-324.9v97.8"/>
	<path class="st0" d="M1379.4-301.9v51.8"/>
	<path class="st0" d="M1388.2-306.3v60.6"/>
	<path class="st0" d="M1397-309.8v67.6"/>
</g>
</svg>
