<?xml version="1.0" encoding="utf-8"?>
<!-- Generator: Adobe Illustrator 22.0.0, SVG Export Plug-In . SVG Version: 6.00 Build 0)  -->
<svg version="1.1" id="Layer_1" xmlns="http://www.w3.org/2000/svg" xmlns:xlink="http://www.w3.org/1999/xlink" x="0px" y="0px"
	 viewBox="0 0 1400 180" style="enable-background:new 0 0 1400 180;" xml:space="preserve">
<style type="text/css">
	.st0{fill:none;stroke:#FFD040;stroke-width:3.3554;stroke-linecap:round;stroke-miterlimit:10;}
</style>
<g transform="scale(1,1)">
</g>
<g transform="translate(0,366)">
	<path class="st0" d="M4.4-280.3v8.7"/>
	<path class="st0" d="M11.6-320.8v89.6"/>
	<path class="st0" d="M18.7-328.3v104.6"/>
	<path class="st0" d="M25.8-328.8v105.6"/>
	<path class="st0" d="M33-323.9v95.8"/>
	<path class="st0" d="M40.1-314.8v77.7"/>
	<path class="st0" d="M47.3-294.8v37.5"/>
	<path class="st0" d="M54.4-310.1v68.1"/>
	<path class="st0" d="M61.6-313v74"/>
	<path class="st0" d="M68.7-301.6v51.2"/>
	<path class="st0" d="M75.8-297.7v43.3"/>
	<path class="st0" d="M83-310.3v68.6"/>
	<path class="st0" d="M90.1-317.9v83.8"/>
	<path class="st0" d="M97.3-315.4v78.7"/>
	<path class="st0" d="M104.4-309.6v67.2"/>
	<path class="st0" d="M111.5-304.5v56.9"/>
	<path class="st0" d="M118.7-303.3v54.6"/>
	<path class="st0" d="M125.8-283.1v14.2"/>
	<path class="st0" d="M133-277.1v2.1"/>
	<path class="st0" d="M140.1-292.9v33.8"/>
	<path class="st0" d="M147.3-308.8v65.7"/>
	<path class="st0" d="M154.4-297.9v43.8"/>
	<path class="st0" d="M161.5-293.1v34.1"/>
	<path class="st0" d="M168.7-297v42"/>
	<path class="st0" d="M175.8-294.9v37.7"/>
	<path class="st0" d="M183-277.1v2.2"/>
	<path class="st0" d="M190.1-282.1v12.3"/>
	<path class="st0" d="M197.2-317.4v82.8"/>
	<path class="st0" d="M204.4-318.8v85.6"/>
	<path class="st0" d="M211.5-315.6v79.2"/>
	<path class="st0" d="M218.7-306.6v61.2"/>
	<path class="st0" d="M225.8-318.5v84.9"/>
	<path class="st0" d="M232.9-315.1v78.2"/>
	<path class="st0" d="M240.1-301.2v50.4"/>
	<path class="st0" d="M247.2-290v28"/>
	<path class="st0" d="M254.4-283.9v15.8"/>
	<path class="st0" d="M261.5-277.3v2.6"/>
	<path class="st0" d="M268.7-287.3v22.6"/>
	<path class="st0" d="M275.8-308v64"/>
	<path class="st0" d="M282.9-298.2v44.4"/>
	<path class="st0" d="M290.1-303.3v54.6"/>
	<path class="st0" d="M297.2-300.4v48.8"/>
	<path class="st0" d="M304.4-293v34.1"/>
	<path class="st0" d="M311.5-287.7v23.5"/>
	<path class="st0" d="M318.6-280.8v9.5"/>
	<path class="st0" d="M325.8-277.2v2.4"/>
	<path class="st0" d="M332.9-298.1v44.1"/>
	<path class="st0" d="M340.1-301v50"/>
	<path class="st0" d="M347.2-295.5v39"/>
	<path class="st0" d="M354.4-314.5v77.1"/>
	<path class="st0" d="M361.5-312.8v73.6"/>
	<path class="st0" d="M368.6-305.5v59"/>
	<path class="st0" d="M375.8-297.8v43.5"/>
	<path class="st0" d="M382.9-293.4v34.9"/>
	<path class="st0" d="M390.1-295.7v39.3"/>
	<path class="st0" d="M397.2-302.1v52.3"/>
	<path class="st0" d="M404.3-281.7v11.4"/>
	<path class="st0" d="M411.5-313.2v74.5"/>
	<path class="st0" d="M418.6-317.2v82.4"/>
	<path class="st0" d="M425.8-292.8v33.7"/>
	<path class="st0" d="M432.9-298.5v44.9"/>
	<path class="st0" d="M440-280v8"/>
	<path class="st0" d="M447.2-294.1v36.2"/>
	<path class="st0" d="M454.3-300.3v48.6"/>
	<path class="st0" d="M461.5-309.6v67.3"/>
	<path class="st0" d="M468.6-307.2v62.5"/>
	<path class="st0" d="M475.8-279.1v6.3"/>
	<path class="st0" d="M482.9-283.6v15.3"/>
	<path class="st0" d="M490-305.5v59"/>
	<path class="st0" d="M497.2-281.4v10.8"/>
	<path class="st0" d="M504.3-277.3v2.6"/>
	<path class="st0" d="M511.5-303.7v55.3"/>
	<path class="st0" d="M518.6-301.1v50.2"/>
	<path class="st0" d="M525.7-295.7v39.4"/>
	<path class="st0" d="M532.9-315.9v79.9"/>
	<path class="st0" d="M540-299.2v46.4"/>
	<path class="st0" d="M547.2-295.3v38.6"/>
	<path class="st0" d="M554.3-293.3v34.6"/>
	<path class="st0" d="M561.5-277.6v3.1"/>
	<path class="st0" d="M568.6-289.7v27.4"/>
	<path class="st0" d="M575.7-308.3v64.5"/>
	<path class="st0" d="M582.9-289.1v26.2"/>
	<path class="st0" d="M590-280.4v8.7"/>
	<path class="st0" d="M597.2-278.2v4.4"/>
	<path class="st0" d="M604.3-310.3v68.6"/>
	<path class="st0" d="M611.4-319.6v87.3"/>
	<path class="st0" d="M618.6-311v70"/>
	<path class="st0" d="M625.7-315.2v78.4"/>
	<path class="st0" d="M632.9-313.9v75.9"/>
	<path class="st0" d="M640-313.4v74.8"/>
	<path class="st0" d="M647.2-304.6v57.2"/>
	<path class="st0" d="M654.3-305.7v59.4"/>
	<path class="st0" d="M661.4-297.8v43.5"/>
	<path class="st0" d="M668.6-278v4"/>
	<path class="st0" d="M675.7-302.9v53.9"/>
	<path class="st0" d="M682.9-300.1v48.1"/>
	<path class="st0" d="M690-312.5v73"/>
	<path class="st0" d="M697.1-300.6v49.2"/>
	<path class="st0" d="M704.3-304.9v57.8"/>
	<path class="st0" d="M711.4-305.3v58.6"/>
	<path class="st0" d="M718.6-291.9v31.7"/>
	<path class="st0" d="M725.7-304v56"/>
	<path class="st0" d="M732.8-285.7v19.5"/>
	<path class="st0" d="M740-290.4v28.8"/>
	<path class="st0" d="M747.1-304.2v56.3"/>
	<path class="st0" d="M754.3-310.1v68.1"/>
	<path class="st0" d="M761.4-296v40"/>
	<path class="st0" d="M768.6-298.5v44.9"/>
	<path class="st0" d="M775.7-278.2v4.5"/>
	<path class="st0" d="M782.8-296v40"/>
	<path class="st0" d="M790-309.3v66.6"/>
	<path class="st0" d="M797.1-310.4v68.7"/>
	<path class="st0" d="M804.3-296.6v41.1"/>
	<path class="st0" d="M811.4-279.2v6.3"/>
	<path class="st0" d="M818.5-289.5v27"/>
	<path class="st0" d="M825.7-307v62.1"/>
	<path class="st0" d="M832.8-295.6v39.1"/>
	<path class="st0" d="M840-292.1v32.2"/>
	<path class="st0" d="M847.1-286.5v21"/>
	<path class="st0" d="M854.3-283.1v14.2"/>
	<path class="st0" d="M861.4-293.6v35.2"/>
	<path class="st0" d="M868.5-299.2v46.3"/>
	<path class="st0" d="M875.7-285.2v18.4"/>
	<path class="st0" d="M882.8-300.3v48.7"/>
	<path class="st0" d="M890-298.1v44.3"/>
	<path class="st0" d="M897.1-296.3v40.5"/>
	<path class="st0" d="M904.2-314v76"/>
	<path class="st0" d="M911.4-299v46.1"/>
	<path class="st0" d="M918.5-299.9v47.9"/>
	<path class="st0" d="M925.7-279.6v7.2"/>
	<path class="st0" d="M932.8-281.1v10.2"/>
	<path class="st0" d="M939.9-326.1v100.3"/>
	<path class="st0" d="M947.1-305.5v59"/>
	<path class="st0" d="M954.2-290.3v28.5"/>
	<path class="st0" d="M961.4-278.1v4.1"/>
	<path class="st0" d="M968.5-290.6v29.1"/>
	<path class="st0" d="M975.7-282v11.9"/>
	<path class="st0" d="M982.8-307.2v62.4"/>
	<path class="st0" d="M989.9-291.2v30.4"/>
	<path class="st0" d="M997.1-294.7v37.4"/>
	<path class="st0" d="M1004.2-296.3v40.5"/>
	<path class="st0" d="M1011.4-294.4v36.8"/>
	<path class="st0" d="M1018.5-292.4v32.8"/>
	<path class="st0" d="M1025.6-297.5v42.9"/>
	<path class="st0" d="M1032.8-288.8v25.6"/>
	<path class="st0" d="M1039.9-281.9v11.7"/>
	<path class="st0" d="M1047.1-294.5v37.1"/>
	<path class="st0" d="M1054.2-287.9v23.7"/>
	<path class="st0" d="M1061.4-293.2v34.4"/>
	<path class="st0" d="M1068.5-280v7.9"/>
	<path class="st0" d="M1075.6-281.6v11.1"/>
	<path class="st0" d="M1082.8-291.9v31.8"/>
	<path class="st0" d="M1089.9-283.4v14.8"/>
	<path class="st0" d="M1097.1-277.6v3.2"/>
	<path class="st0" d="M1104.2-289.3v26.6"/>
	<path class="st0" d="M1111.3-300.9v49.7"/>
	<path class="st0" d="M1118.5-292.5v32.9"/>
	<path class="st0" d="M1125.6-296.2v40.5"/>
	<path class="st0" d="M1132.8-304.3v56.5"/>
	<path class="st0" d="M1139.9-298v44.1"/>
	<path class="st0" d="M1147.1-286.7v21.3"/>
	<path class="st0" d="M1154.2-287.5v23"/>
	<path class="st0" d="M1161.3-289.7v27.4"/>
	<path class="st0" d="M1168.5-277.5v3"/>
	<path class="st0" d="M1175.6-296.7v41.5"/>
	<path class="st0" d="M1182.8-296.8v41.6"/>
	<path class="st0" d="M1189.9-281.7v11.3"/>
	<path class="st0" d="M1197-282.3v12.7"/>
	<path class="st0" d="M1204.2-303.6v55.2"/>
	<path class="st0" d="M1211.3-307.1v62.3"/>
	<path class="st0" d="M1218.5-298v43.9"/>
	<path class="st0" d="M1225.6-284.8v17.7"/>
	<path class="st0" d="M1232.7-281.1v10.2"/>
	<path class="st0" d="M1239.9-286.9v21.7"/>
	<path class="st0" d="M1247-279v6"/>
	<path class="st0" d="M1254.2-294.9v37.7"/>
	<path class="st0" d="M1261.3-287.3v22.6"/>
	<path class="st0" d="M1268.5-282.6v13.3"/>
	<path class="st0" d="M1275.6-287.2v22.5"/>
	<path class="st0" d="M1282.7-308.4v64.9"/>
	<path class="st0" d="M1289.9-288.1v24.2"/>
	<path class="st0" d="M1297-292.1v32.2"/>
	<path class="st0" d="M1304.2-297.4v42.8"/>
	<path class="st0" d="M1311.3-300.7v49.4"/>
	<path class="st0" d="M1318.4-281.4v10.7"/>
	<path class="st0" d="M1325.6-286.7v21.3"/>
	<path class="st0" d="M1332.7-284.1v16.1"/>
	<path class="st0" d="M1339.9-287.5v23"/>
	<path class="st0" d="M1347-290.2v28.3"/>
	<path class="st0" d="M1354.2-277.2v2.3"/>
	<path class="st0" d="M1361.3-299.8v47.6"/>
	<path class="st0" d="M1368.4-291.9v31.8"/>
	<path class="st0" d="M1375.6-295.4v38.8"/>
	<path class="st0" d="M1382.7-289.9v27.7"/>
	<path class="st0" d="M1389.9-285.6v19.3"/>
	<path class="st0" d="M1397-279.7v7.4"/>
</g>
</svg>
