<?xml version="1.0" encoding="utf-8"?>
<!-- Generator: Adobe Illustrator 22.0.0, SVG Export Plug-In . SVG Version: 6.00 Build 0)  -->
<svg version="1.1" id="Layer_1" xmlns="http://www.w3.org/2000/svg" xmlns:xlink="http://www.w3.org/1999/xlink" x="0px" y="0px"
	 viewBox="0 0 1400 180" style="enable-background:new 0 0 1400 180;" xml:space="preserve">
<style type="text/css">
	.st0{fill:none;stroke:#FFD040;stroke-width:3.8307;stroke-linecap:round;stroke-miterlimit:10;}
</style>
<g transform="scale(1,1)">
</g>
<g transform="translate(0,366)">
	<path class="st0" d="M3.2-276.1v0.2"/>
	<path class="st0" d="M11.4-290.3v28.7"/>
	<path class="st0" d="M19.5-300.1v48.2"/>
	<path class="st0" d="M27.7-319.3v86.5"/>
	<path class="st0" d="M35.9-322.2v92.3"/>
	<path class="st0" d="M44-323.6v95.2"/>
	<path class="st0" d="M52.2-326.7v101.4"/>
	<path class="st0" d="M60.4-296.9v41.9"/>
	<path class="st0" d="M68.6-277.9v3.8"/>
	<path class="st0" d="M76.7-277.3v2.6"/>
	<path class="st0" d="M84.9-306.8v61.5"/>
	<path class="st0" d="M93.1-306.6v61.1"/>
	<path class="st0" d="M101.2-301.1v50.1"/>
	<path class="st0" d="M109.4-306.1v60.1"/>
	<path class="st0" d="M117.6-291.5v31"/>
	<path class="st0" d="M125.7-280.9v9.8"/>
	<path class="st0" d="M133.9-288.4v24.8"/>
	<path class="st0" d="M142.1-302.4v52.9"/>
	<path class="st0" d="M150.2-324.5v97"/>
	<path class="st0" d="M158.4-322.5v93"/>
	<path class="st0" d="M166.6-300.7v49.3"/>
	<path class="st0" d="M174.7-293.1v34.3"/>
	<path class="st0" d="M182.9-283.2v14.4"/>
	<path class="st0" d="M191.1-277.3v2.6"/>
	<path class="st0" d="M199.2-278.8v5.6"/>
	<path class="st0" d="M207.4-307.8v63.5"/>
	<path class="st0" d="M215.6-309.6v67.2"/>
	<path class="st0" d="M223.8-322.5v92.9"/>
	<path class="st0" d="M231.9-298.6v45.2"/>
	<path class="st0" d="M240.1-311.7v71.4"/>
	<path class="st0" d="M248.3-299.1v46.2"/>
	<path class="st0" d="M256.4-281.5v11"/>
	<path class="st0" d="M264.6-279.1v6.2"/>
	<path class="st0" d="M272.8-312.4v72.7"/>
	<path class="st0" d="M280.9-323.4v94.7"/>
	<path class="st0" d="M289.1-330.8v109.7"/>
	<path class="st0" d="M297.3-301.3v50.5"/>
	<path class="st0" d="M305.4-327.2v102.4"/>
	<path class="st0" d="M313.6-303.8v55.7"/>
	<path class="st0" d="M321.8-308.7v65.5"/>
	<path class="st0" d="M329.9-315.7v79.3"/>
	<path class="st0" d="M338.1-303.1v54.3"/>
	<path class="st0" d="M346.3-298.8v45.6"/>
	<path class="st0" d="M354.4-305.9v59.9"/>
	<path class="st0" d="M362.6-308.2v64.5"/>
	<path class="st0" d="M370.8-291.3v30.6"/>
	<path class="st0" d="M379-317.7v83.5"/>
	<path class="st0" d="M387.1-294v36.1"/>
	<path class="st0" d="M395.3-301.1v50.2"/>
	<path class="st0" d="M403.5-295.5v39"/>
	<path class="st0" d="M411.6-302.6v53.2"/>
	<path class="st0" d="M419.8-290.5v29"/>
	<path class="st0" d="M428-313.5v74.9"/>
	<path class="st0" d="M436.1-297.6v43.2"/>
	<path class="st0" d="M444.3-290.6v29.3"/>
	<path class="st0" d="M452.5-277.7v3.4"/>
	<path class="st0" d="M460.6-277.5v3"/>
	<path class="st0" d="M468.8-277.1v2.3"/>
	<path class="st0" d="M477-300.7v49.3"/>
	<path class="st0" d="M485.1-304.8v57.5"/>
	<path class="st0" d="M493.3-316.6v81.2"/>
	<path class="st0" d="M501.5-279.7v7.3"/>
	<path class="st0" d="M509.6-308.8v65.6"/>
	<path class="st0" d="M517.8-330.7v109.4"/>
	<path class="st0" d="M526-305.8v59.5"/>
	<path class="st0" d="M534.2-314.1v76.2"/>
	<path class="st0" d="M542.3-319.2v86.4"/>
	<path class="st0" d="M550.5-304v56"/>
	<path class="st0" d="M558.7-308.8v65.5"/>
	<path class="st0" d="M566.8-305.5v58.9"/>
	<path class="st0" d="M575-310.1v68.1"/>
	<path class="st0" d="M583.2-317v82"/>
	<path class="st0" d="M591.3-289.8v27.6"/>
	<path class="st0" d="M599.5-310.1v68.2"/>
	<path class="st0" d="M607.7-310.4v68.9"/>
	<path class="st0" d="M615.8-294.8v37.5"/>
	<path class="st0" d="M624-295v38.1"/>
	<path class="st0" d="M632.2-294.6v37.2"/>
	<path class="st0" d="M640.3-307.8v63.6"/>
	<path class="st0" d="M648.5-286.2v20.4"/>
	<path class="st0" d="M656.7-277.2v2.4"/>
	<path class="st0" d="M664.8-277.3v2.7"/>
	<path class="st0" d="M673-277.8v3.5"/>
	<path class="st0" d="M681.2-281.5v10.9"/>
	<path class="st0" d="M689.4-315v78.1"/>
	<path class="st0" d="M697.5-295.1v38.1"/>
	<path class="st0" d="M705.7-296v40"/>
	<path class="st0" d="M713.9-305.4v58.7"/>
	<path class="st0" d="M722-306.7v61.3"/>
	<path class="st0" d="M730.2-307.3v62.6"/>
	<path class="st0" d="M738.4-311.8v71.7"/>
	<path class="st0" d="M746.5-299.4v46.7"/>
	<path class="st0" d="M754.7-302.9v53.8"/>
	<path class="st0" d="M762.9-277.5v3.1"/>
	<path class="st0" d="M771-277.6v3.2"/>
	<path class="st0" d="M779.2-277.4v2.7"/>
	<path class="st0" d="M787.4-292.6v33.1"/>
	<path class="st0" d="M795.5-299.6v47.3"/>
	<path class="st0" d="M803.7-321.3v90.6"/>
	<path class="st0" d="M811.9-326.3v100.6"/>
	<path class="st0" d="M820-285.5v18.9"/>
	<path class="st0" d="M828.2-307.8v63.6"/>
	<path class="st0" d="M836.4-285.5v19"/>
	<path class="st0" d="M844.6-297.1v42.1"/>
	<path class="st0" d="M852.7-319.7v87.4"/>
	<path class="st0" d="M860.9-311v70"/>
	<path class="st0" d="M869.1-285.2v18.3"/>
	<path class="st0" d="M877.2-277v2"/>
	<path class="st0" d="M885.4-300.9v49.9"/>
	<path class="st0" d="M893.6-320.7v89.3"/>
	<path class="st0" d="M901.7-315.2v78.5"/>
	<path class="st0" d="M909.9-315.6v79.2"/>
	<path class="st0" d="M918.1-302.5v53"/>
	<path class="st0" d="M926.2-282.2v12.4"/>
	<path class="st0" d="M934.4-310.4v68.8"/>
	<path class="st0" d="M942.6-299.9v47.9"/>
	<path class="st0" d="M950.7-315.1v78.2"/>
	<path class="st0" d="M958.9-290.5v28.9"/>
	<path class="st0" d="M967.1-277.6v3.1"/>
	<path class="st0" d="M975.2-299.1v46.3"/>
	<path class="st0" d="M983.4-312.2v72.3"/>
	<path class="st0" d="M991.6-309.2v66.3"/>
	<path class="st0" d="M999.8-309.2v66.5"/>
	<path class="st0" d="M1007.9-306.4v60.7"/>
	<path class="st0" d="M1016.1-279.5v7"/>
	<path class="st0" d="M1024.3-286.6v21.2"/>
	<path class="st0" d="M1032.4-305.8v59.7"/>
	<path class="st0" d="M1040.6-310v68.1"/>
	<path class="st0" d="M1048.8-310.3v68.7"/>
	<path class="st0" d="M1056.9-287.5v22.9"/>
	<path class="st0" d="M1065.1-323.6v95.2"/>
	<path class="st0" d="M1073.3-321.1v90.3"/>
	<path class="st0" d="M1081.4-298.3v44.6"/>
	<path class="st0" d="M1089.6-296v39.9"/>
	<path class="st0" d="M1097.8-284.3v16.6"/>
	<path class="st0" d="M1105.9-277.7v3.4"/>
	<path class="st0" d="M1114.1-304v56"/>
	<path class="st0" d="M1122.3-293.5v34.9"/>
	<path class="st0" d="M1130.4-310.9v69.8"/>
	<path class="st0" d="M1138.6-326.9v101.9"/>
	<path class="st0" d="M1146.8-316.5v80.9"/>
	<path class="st0" d="M1155-298.2v44.4"/>
	<path class="st0" d="M1163.1-292.7v33.5"/>
	<path class="st0" d="M1171.3-312.2v72.4"/>
	<path class="st0" d="M1179.5-321.9v91.7"/>
	<path class="st0" d="M1187.6-313.2v74.4"/>
	<path class="st0" d="M1195.8-303v54.1"/>
	<path class="st0" d="M1204-285.8v19.6"/>
	<path class="st0" d="M1212.1-288.1v24.1"/>
	<path class="st0" d="M1220.3-306.6v61.3"/>
	<path class="st0" d="M1228.5-321.7v91.4"/>
	<path class="st0" d="M1236.6-306v60"/>
	<path class="st0" d="M1244.8-293.2v34.4"/>
	<path class="st0" d="M1253-284.5v17.1"/>
	<path class="st0" d="M1261.1-277.5v3"/>
	<path class="st0" d="M1269.3-285v18.1"/>
	<path class="st0" d="M1277.5-299.6v47.3"/>
	<path class="st0" d="M1285.6-308.5v65"/>
	<path class="st0" d="M1293.8-304.5v57.1"/>
	<path class="st0" d="M1302-324.9v97.8"/>
	<path class="st0" d="M1310.2-311.9v71.7"/>
	<path class="st0" d="M1318.3-309.2v66.3"/>
	<path class="st0" d="M1326.5-281v9.9"/>
	<path class="st0" d="M1334.7-295.5v39"/>
	<path class="st0" d="M1342.8-307.3v62.6"/>
	<path class="st0" d="M1351-311.2v70.4"/>
	<path class="st0" d="M1359.2-313.1v74.1"/>
	<path class="st0" d="M1367.3-297.8v43.5"/>
	<path class="st0" d="M1375.5-285.1v18.1"/>
	<path class="st0" d="M1383.7-295v38.1"/>
	<path class="st0" d="M1391.8-288.7v25.4"/>
	<path class="st0" d="M1400-277.8v3.5"/>
</g>
</svg>
