<?xml version="1.0" encoding="utf-8"?>
<!-- Generator: Adobe Illustrator 22.0.0, SVG Export Plug-In . SVG Version: 6.00 Build 0)  -->
<svg version="1.1" id="Layer_1" xmlns="http://www.w3.org/2000/svg" xmlns:xlink="http://www.w3.org/1999/xlink" x="0px" y="0px"
	 viewBox="0 0 1400 180" style="enable-background:new 0 0 1400 180;" xml:space="preserve">
<style type="text/css">
	.st0{fill:none;stroke:#FFD040;stroke-width:3.3231;stroke-linecap:round;stroke-miterlimit:10;}
</style>
<g transform="scale(1,1)">
</g>
<g transform="translate(0,428)">
	<path class="st0" d="M0-343.2v10.4"/>
	<path class="st0" d="M6.6-358.8v41.6"/>
	<path class="st0" d="M13.3-402v128"/>
	<path class="st0" d="M19.9-399.6v123.1"/>
	<path class="st0" d="M26.6-414.4v152.7"/>
	<path class="st0" d="M33.2-390.6v105.2"/>
	<path class="st0" d="M39.9-404.3v132.7"/>
	<path class="st0" d="M46.5-405.8v135.6"/>
	<path class="st0" d="M53.2-413.4v150.8"/>
	<path class="st0" d="M59.8-422.4v168.9"/>
	<path class="st0" d="M66.5-425.4v174.8"/>
	<path class="st0" d="M73.1-420.4v164.8"/>
	<path class="st0" d="M79.8-410.8v145.6"/>
	<path class="st0" d="M86.4-411.5v147"/>
	<path class="st0" d="M93-407.5v138.9"/>
	<path class="st0" d="M99.7-391V-285"/>
	<path class="st0" d="M106.3-362.2v48.3"/>
	<path class="st0" d="M113-350.4v24.9"/>
	<path class="st0" d="M119.6-356v35.9"/>
	<path class="st0" d="M126.3-375.2v74.4"/>
	<path class="st0" d="M132.9-379.6v83.2"/>
	<path class="st0" d="M139.6-380.9v85.7"/>
	<path class="st0" d="M146.2-374.2v72.3"/>
	<path class="st0" d="M152.9-369.5v63"/>
	<path class="st0" d="M159.5-365.1v54.2"/>
	<path class="st0" d="M166.2-378.2v80.4"/>
	<path class="st0" d="M172.8-388.9v101.7"/>
	<path class="st0" d="M179.4-377.9v79.7"/>
	<path class="st0" d="M186.1-366.5v57"/>
	<path class="st0" d="M192.7-375.1v74.3"/>
	<path class="st0" d="M199.4-375.2v74.4"/>
	<path class="st0" d="M206-341v5.9"/>
	<path class="st0" d="M212.7-339.6v3.1"/>
	<path class="st0" d="M219.3-338.9v1.8"/>
	<path class="st0" d="M226-338.7v1.4"/>
	<path class="st0" d="M232.6-338.8v1.6"/>
	<path class="st0" d="M239.3-338.8v1.6"/>
	<path class="st0" d="M245.9-345.7v15.5"/>
	<path class="st0" d="M252.6-390v104"/>
	<path class="st0" d="M259.2-424.2v172.4"/>
	<path class="st0" d="M265.8-419.3v162.6"/>
	<path class="st0" d="M272.5-391.1v106.2"/>
	<path class="st0" d="M279.1-401.4v126.8"/>
	<path class="st0" d="M285.8-413.8v151.7"/>
	<path class="st0" d="M292.4-405.1v134.2"/>
	<path class="st0" d="M299.1-395V-281"/>
	<path class="st0" d="M305.7-421.6v167.1"/>
	<path class="st0" d="M312.4-401.7v127.3"/>
	<path class="st0" d="M319-363v50"/>
	<path class="st0" d="M325.7-360.4v44.9"/>
	<path class="st0" d="M332.3-372v68"/>
	<path class="st0" d="M339-368.9v61.8"/>
	<path class="st0" d="M345.6-362v48"/>
	<path class="st0" d="M352.2-360.1v44.3"/>
	<path class="st0" d="M358.9-365.5v54.9"/>
	<path class="st0" d="M365.5-355.5v35"/>
	<path class="st0" d="M372.2-355.5v34.9"/>
	<path class="st0" d="M378.8-350v24"/>
	<path class="st0" d="M385.5-341.5v7.1"/>
	<path class="st0" d="M392.1-339.7v3.4"/>
	<path class="st0" d="M398.8-339.3v2.5"/>
	<path class="st0" d="M405.4-339.5v2.9"/>
	<path class="st0" d="M412.1-346.9v17.8"/>
	<path class="st0" d="M418.7-381.2v86.3"/>
	<path class="st0" d="M425.4-380.9v85.9"/>
	<path class="st0" d="M432-355.2v34.4"/>
	<path class="st0" d="M438.7-352.3v28.6"/>
	<path class="st0" d="M445.3-358v40"/>
	<path class="st0" d="M451.9-354.1v32.2"/>
	<path class="st0" d="M458.6-348.6v21.1"/>
	<path class="st0" d="M465.2-343.5v11.1"/>
	<path class="st0" d="M471.9-342.5v9"/>
	<path class="st0" d="M478.5-341v6"/>
	<path class="st0" d="M485.2-351.9v27.8"/>
	<path class="st0" d="M491.8-374v72"/>
	<path class="st0" d="M498.5-376v76.1"/>
	<path class="st0" d="M505.1-390.4v104.8"/>
	<path class="st0" d="M511.8-368v59.9"/>
	<path class="st0" d="M518.4-384v92"/>
	<path class="st0" d="M525.1-347.6v19.2"/>
	<path class="st0" d="M531.7-348.6v21.3"/>
	<path class="st0" d="M538.3-348.9v21.8"/>
	<path class="st0" d="M545-342.4v8.8"/>
	<path class="st0" d="M551.6-343.2v10.4"/>
	<path class="st0" d="M558.3-393.7v111.4"/>
	<path class="st0" d="M564.9-412.5v148.9"/>
	<path class="st0" d="M571.6-437.1v198.2"/>
	<path class="st0" d="M578.2-407.8v139.6"/>
	<path class="st0" d="M584.9-374.4v72.8"/>
	<path class="st0" d="M591.5-367v58"/>
	<path class="st0" d="M598.2-416.4v156.9"/>
	<path class="st0" d="M604.8-420.5v165"/>
	<path class="st0" d="M611.5-406v136"/>
	<path class="st0" d="M618.1-393.6v111.2"/>
	<path class="st0" d="M624.7-355.4v34.8"/>
	<path class="st0" d="M631.4-342.9v9.8"/>
	<path class="st0" d="M638-340.9v5.9"/>
	<path class="st0" d="M644.7-339.5v3"/>
	<path class="st0" d="M651.3-339.4v2.8"/>
	<path class="st0" d="M658-339.2v2.3"/>
	<path class="st0" d="M664.6-339.1v2.1"/>
	<path class="st0" d="M671.3-339.4v2.8"/>
	<path class="st0" d="M677.9-413.9v151.7"/>
	<path class="st0" d="M684.6-412.3v148.7"/>
	<path class="st0" d="M691.2-378.2v80.4"/>
	<path class="st0" d="M697.9-397.9v119.8"/>
	<path class="st0" d="M704.5-417.4v158.7"/>
	<path class="st0" d="M711.1-369.3v62.6"/>
	<path class="st0" d="M717.8-376.2v76.3"/>
	<path class="st0" d="M724.4-394.1v112.3"/>
	<path class="st0" d="M731.1-387.1v98.1"/>
	<path class="st0" d="M737.7-367.3v58.6"/>
	<path class="st0" d="M744.4-369.2v62.4"/>
	<path class="st0" d="M751-366.2v56.5"/>
	<path class="st0" d="M757.7-357v38"/>
	<path class="st0" d="M764.3-350.9v25.8"/>
	<path class="st0" d="M771-359.1v42.2"/>
	<path class="st0" d="M777.6-358.2v40.4"/>
	<path class="st0" d="M784.3-352.3v28.5"/>
	<path class="st0" d="M790.9-352.2v28.4"/>
	<path class="st0" d="M797.5-349.5v23.1"/>
	<path class="st0" d="M804.2-344.1v12.2"/>
	<path class="st0" d="M810.8-339.7v3.3"/>
	<path class="st0" d="M817.5-338.6v1.2"/>
	<path class="st0" d="M824.1-338.5v1"/>
	<path class="st0" d="M830.8-338.4v0.8"/>
	<path class="st0" d="M837.4-338.5v0.9"/>
	<path class="st0" d="M844.1-338.7v1.4"/>
	<path class="st0" d="M850.7-347.6v19.2"/>
	<path class="st0" d="M857.4-404.5v133"/>
	<path class="st0" d="M864-401.2v126.4"/>
	<path class="st0" d="M870.7-419.5v163"/>
	<path class="st0" d="M877.3-399.9v123.7"/>
	<path class="st0" d="M883.9-403.4v130.8"/>
	<path class="st0" d="M890.6-432.2v188.5"/>
	<path class="st0" d="M897.2-417.2v158.3"/>
	<path class="st0" d="M903.9-385.1v94.2"/>
	<path class="st0" d="M910.5-351.8v27.7"/>
	<path class="st0" d="M917.2-342.6v9.2"/>
	<path class="st0" d="M923.8-339.8v3.6"/>
	<path class="st0" d="M930.5-339v2.1"/>
	<path class="st0" d="M937.1-339v2"/>
	<path class="st0" d="M943.8-339.2v2.4"/>
	<path class="st0" d="M950.4-340.1v4.2"/>
	<path class="st0" d="M957.1-390.2v104.4"/>
	<path class="st0" d="M963.7-380.2v84.4"/>
	<path class="st0" d="M970.3-372.5v68.9"/>
	<path class="st0" d="M977-354.3v32.7"/>
	<path class="st0" d="M983.6-384.4v92.9"/>
	<path class="st0" d="M990.3-378.6v81.2"/>
	<path class="st0" d="M996.9-374.9v73.9"/>
	<path class="st0" d="M1003.6-361.9v47.8"/>
	<path class="st0" d="M1010.2-358v40"/>
	<path class="st0" d="M1016.9-387v98"/>
	<path class="st0" d="M1023.5-381.2v86.5"/>
	<path class="st0" d="M1030.2-355.8v35.7"/>
	<path class="st0" d="M1036.8-379.3v82.6"/>
	<path class="st0" d="M1043.5-376v76"/>
	<path class="st0" d="M1050.1-378v79.9"/>
	<path class="st0" d="M1056.8-387.7v99.3"/>
	<path class="st0" d="M1063.4-378.3v80.6"/>
	<path class="st0" d="M1070-392.1v108.3"/>
	<path class="st0" d="M1076.7-362.5v48.9"/>
	<path class="st0" d="M1083.3-374.9v73.8"/>
	<path class="st0" d="M1090-360.1v44.3"/>
	<path class="st0" d="M1096.6-404.2v132.4"/>
	<path class="st0" d="M1103.3-399.4v122.8"/>
	<path class="st0" d="M1109.9-394.6v113.1"/>
	<path class="st0" d="M1116.6-389.9v103.8"/>
	<path class="st0" d="M1123.2-392V-284"/>
	<path class="st0" d="M1129.9-360.7v45.4"/>
	<path class="st0" d="M1136.5-354.7v33.4"/>
	<path class="st0" d="M1143.2-367.3v58.7"/>
	<path class="st0" d="M1149.8-375.9v75.8"/>
	<path class="st0" d="M1156.4-360.6v45.2"/>
	<path class="st0" d="M1163.1-359.3v42.7"/>
	<path class="st0" d="M1169.7-369.4v62.8"/>
	<path class="st0" d="M1176.4-366.2v56.4"/>
	<path class="st0" d="M1183-347.6v19.2"/>
	<path class="st0" d="M1189.7-365.8v55.7"/>
	<path class="st0" d="M1196.3-403.6v131.1"/>
	<path class="st0" d="M1203-409.8v143.6"/>
	<path class="st0" d="M1209.6-409.6v143.2"/>
	<path class="st0" d="M1216.3-411.2v146.5"/>
	<path class="st0" d="M1222.9-388.3v100.6"/>
	<path class="st0" d="M1229.6-418.4v160.8"/>
	<path class="st0" d="M1236.2-412.8v149.5"/>
	<path class="st0" d="M1242.8-394.4v112.7"/>
	<path class="st0" d="M1249.5-388.2v100.4"/>
	<path class="st0" d="M1256.1-383.1v90.1"/>
	<path class="st0" d="M1262.8-353.9v31.9"/>
	<path class="st0" d="M1269.4-379.3v82.5"/>
	<path class="st0" d="M1276.1-365.4v54.8"/>
	<path class="st0" d="M1282.7-360v44.1"/>
	<path class="st0" d="M1289.4-358.1v40.2"/>
	<path class="st0" d="M1296-353.7v31.4"/>
	<path class="st0" d="M1302.7-349.5v23.1"/>
	<path class="st0" d="M1309.3-359.4v42.9"/>
	<path class="st0" d="M1316-361.7v47.5"/>
	<path class="st0" d="M1322.6-366.3v56.6"/>
	<path class="st0" d="M1329.2-360.3v44.7"/>
	<path class="st0" d="M1335.9-355.1v34.1"/>
	<path class="st0" d="M1342.5-345.8v15.6"/>
	<path class="st0" d="M1349.2-345.5v15"/>
	<path class="st0" d="M1355.8-386.2v96.4"/>
	<path class="st0" d="M1362.5-390.1v104.2"/>
	<path class="st0" d="M1369.1-362.4v48.8"/>
	<path class="st0" d="M1375.8-363.4v50.9"/>
	<path class="st0" d="M1382.4-354.4v32.8"/>
	<path class="st0" d="M1389.1-346.6v17.2"/>
	<path class="st0" d="M1395.7-406v136"/>
	<path class="st0" d="M1402.4-405.7v135.5"/>
</g>
</svg>
