<?xml version="1.0" encoding="utf-8"?>
<!-- Generator: Adobe Illustrator 22.0.0, SVG Export Plug-In . SVG Version: 6.00 Build 0)  -->
<svg version="1.1" id="Layer_1" xmlns="http://www.w3.org/2000/svg" xmlns:xlink="http://www.w3.org/1999/xlink" x="0px" y="0px"
	 viewBox="0 0 1400 180" style="enable-background:new 0 0 1400 180;" xml:space="preserve">
<style type="text/css">
	.st0{fill:none;stroke:#FFD040;stroke-width:3.7594;stroke-linecap:round;stroke-miterlimit:10;}
</style>
<g transform="scale(1,1)">
</g>
<g transform="translate(0,503)">
	<path class="st0" d="M7.7-415.5v5"/>
	<path class="st0" d="M15.2-418.6v11.3"/>
	<path class="st0" d="M22.7-429.2v32.5"/>
	<path class="st0" d="M30.2-456.5v87"/>
	<path class="st0" d="M37.7-449.8v73.6"/>
	<path class="st0" d="M45.3-439.6v53.3"/>
	<path class="st0" d="M52.8-456.4v86.8"/>
	<path class="st0" d="M60.3-457.9v89.9"/>
	<path class="st0" d="M67.8-440.8v55.5"/>
	<path class="st0" d="M75.3-448.4v70.8"/>
	<path class="st0" d="M82.9-428.4v30.8"/>
	<path class="st0" d="M90.4-419.3v12.6"/>
	<path class="st0" d="M97.9-417v7.9"/>
	<path class="st0" d="M105.4-420.2v14.5"/>
	<path class="st0" d="M112.9-450.6v75.2"/>
	<path class="st0" d="M120.4-439.8v53.7"/>
	<path class="st0" d="M128-445.8v65.5"/>
	<path class="st0" d="M135.5-422v18"/>
	<path class="st0" d="M143-428.9v31.7"/>
	<path class="st0" d="M150.5-459.3v92.6"/>
	<path class="st0" d="M158-449.5v73"/>
	<path class="st0" d="M165.6-447.1v68.2"/>
	<path class="st0" d="M173.1-429.5v32.9"/>
	<path class="st0" d="M180.6-417.8v9.6"/>
	<path class="st0" d="M188.1-416.8v7.6"/>
	<path class="st0" d="M195.6-416.5v7.1"/>
	<path class="st0" d="M203.2-418.6v11.3"/>
	<path class="st0" d="M210.7-417.4v8.7"/>
	<path class="st0" d="M218.2-420.5v14.9"/>
	<path class="st0" d="M225.7-420.1v14.2"/>
	<path class="st0" d="M233.2-418.7v11.5"/>
	<path class="st0" d="M240.7-419.7v13.4"/>
	<path class="st0" d="M248.3-418.6v11.3"/>
	<path class="st0" d="M255.8-420.8v15.6"/>
	<path class="st0" d="M263.3-426.2v26.4"/>
	<path class="st0" d="M270.8-435.3v44.6"/>
	<path class="st0" d="M278.3-460.6v95.3"/>
	<path class="st0" d="M285.9-496.1v166.3"/>
	<path class="st0" d="M293.4-462v98"/>
	<path class="st0" d="M300.9-462v97.9"/>
	<path class="st0" d="M308.4-460.4v94.8"/>
	<path class="st0" d="M315.9-476.6v127.2"/>
	<path class="st0" d="M323.5-464.6v103.1"/>
	<path class="st0" d="M331-436.3v46.7"/>
	<path class="st0" d="M338.5-451.9v77.7"/>
	<path class="st0" d="M346-454.3v82.6"/>
	<path class="st0" d="M353.5-462.3v98.5"/>
	<path class="st0" d="M361.1-454v82"/>
	<path class="st0" d="M368.6-449.4v72.8"/>
	<path class="st0" d="M376.1-464.1v102.3"/>
	<path class="st0" d="M383.6-442.3v58.7"/>
	<path class="st0" d="M391.1-421.4v16.7"/>
	<path class="st0" d="M398.6-419v12"/>
	<path class="st0" d="M406.2-414.2v2.5"/>
	<path class="st0" d="M413.7-413.9v1.7"/>
	<path class="st0" d="M421.2-455.5v85"/>
	<path class="st0" d="M428.7-485.8v145.6"/>
	<path class="st0" d="M436.2-489.5v153.1"/>
	<path class="st0" d="M443.8-483.2v140.4"/>
	<path class="st0" d="M451.3-452.3v78.5"/>
	<path class="st0" d="M458.8-447.2v68.4"/>
	<path class="st0" d="M466.3-459.2v92.3"/>
	<path class="st0" d="M473.8-455.1v84.3"/>
	<path class="st0" d="M481.4-433.8v41.6"/>
	<path class="st0" d="M488.9-428.8v31.5"/>
	<path class="st0" d="M496.4-436.4v46.8"/>
	<path class="st0" d="M503.9-426.8v27.5"/>
	<path class="st0" d="M511.4-426.3v26.5"/>
	<path class="st0" d="M518.9-445.4v64.7"/>
	<path class="st0" d="M526.5-424.3v22.6"/>
	<path class="st0" d="M534-434.5v43.1"/>
	<path class="st0" d="M541.5-432.9v39.7"/>
	<path class="st0" d="M549-438.9v51.7"/>
	<path class="st0" d="M556.5-424.7v23.5"/>
	<path class="st0" d="M564.1-420.7v15.5"/>
	<path class="st0" d="M571.6-430.3v34.6"/>
	<path class="st0" d="M579.1-433.1v40.2"/>
	<path class="st0" d="M586.6-447.7v69.4"/>
	<path class="st0" d="M594.1-433.1v40.2"/>
	<path class="st0" d="M601.7-423.3v20.6"/>
	<path class="st0" d="M609.2-424.5v22.9"/>
	<path class="st0" d="M616.7-425.2v24.4"/>
	<path class="st0" d="M624.2-414.5v2.9"/>
	<path class="st0" d="M631.7-414v2"/>
	<path class="st0" d="M639.2-413.4v0.9"/>
	<path class="st0" d="M646.8-438.2v50.3"/>
	<path class="st0" d="M654.3-423.7v21.4"/>
	<path class="st0" d="M661.8-421.3v16.7"/>
	<path class="st0" d="M669.3-422.6v19.2"/>
	<path class="st0" d="M676.8-413.7v1.4"/>
	<path class="st0" d="M684.4-413.2v0.5"/>
	<path class="st0" d="M691.9-413.1v0.3"/>
	<path class="st0" d="M699.4-413.1v0.3"/>
	<path class="st0" d="M706.9-413.1v0.3"/>
	<path class="st0" d="M714.4-431.9v37.7"/>
	<path class="st0" d="M722-482.6v139.2"/>
	<path class="st0" d="M729.5-449.8v73.7"/>
	<path class="st0" d="M737-437.9v49.8"/>
	<path class="st0" d="M744.5-416.5v6.9"/>
	<path class="st0" d="M752-413.6v1.3"/>
	<path class="st0" d="M759.6-413.4v0.8"/>
	<path class="st0" d="M767.1-413.4v0.9"/>
	<path class="st0" d="M774.6-413.4v0.7"/>
	<path class="st0" d="M782.1-416.9v7.8"/>
	<path class="st0" d="M789.6-421.3v16.7"/>
	<path class="st0" d="M797.1-414.8v3.6"/>
	<path class="st0" d="M804.7-413.6v1.2"/>
	<path class="st0" d="M812.2-413.6v1.1"/>
	<path class="st0" d="M819.7-413.5v1.1"/>
	<path class="st0" d="M827.2-417v8.1"/>
	<path class="st0" d="M834.7-451.8v77.6"/>
	<path class="st0" d="M842.3-447.1v68.2"/>
	<path class="st0" d="M849.8-469v112"/>
	<path class="st0" d="M857.3-469.6v113.2"/>
	<path class="st0" d="M864.8-435.1v44.3"/>
	<path class="st0" d="M872.3-463.5v100.9"/>
	<path class="st0" d="M879.9-445.7v65.5"/>
	<path class="st0" d="M887.4-465.7v105.5"/>
	<path class="st0" d="M894.9-449.3v72.7"/>
	<path class="st0" d="M902.4-431.7v37.4"/>
	<path class="st0" d="M909.9-470v114"/>
	<path class="st0" d="M917.4-452.2v78.4"/>
	<path class="st0" d="M925-456.5v87"/>
	<path class="st0" d="M932.5-475.7v125.4"/>
	<path class="st0" d="M940-429.8v33.6"/>
	<path class="st0" d="M947.5-460v94.1"/>
	<path class="st0" d="M955-442.3v58.6"/>
	<path class="st0" d="M962.6-434.3v42.5"/>
	<path class="st0" d="M970.1-443.5v60.9"/>
	<path class="st0" d="M977.6-461.9v97.7"/>
	<path class="st0" d="M985.1-429.8v33.5"/>
	<path class="st0" d="M992.6-444.9v63.8"/>
	<path class="st0" d="M1000.2-425.3v24.5"/>
	<path class="st0" d="M1007.7-441.1v56.1"/>
	<path class="st0" d="M1015.2-435v44.1"/>
	<path class="st0" d="M1022.7-414.4v2.8"/>
	<path class="st0" d="M1030.2-414.1v2.1"/>
	<path class="st0" d="M1037.7-413.9v1.9"/>
	<path class="st0" d="M1045.3-413.5v1"/>
	<path class="st0" d="M1052.8-451.9v77.7"/>
	<path class="st0" d="M1060.3-476.1v126.3"/>
	<path class="st0" d="M1067.8-451.1v76.1"/>
	<path class="st0" d="M1075.3-479V-347"/>
	<path class="st0" d="M1082.9-444.6v63.3"/>
	<path class="st0" d="M1090.4-415v4"/>
	<path class="st0" d="M1097.9-413.7v1.4"/>
	<path class="st0" d="M1105.4-413.4v0.9"/>
	<path class="st0" d="M1112.9-413.4v0.8"/>
	<path class="st0" d="M1120.5-453.7v81.4"/>
	<path class="st0" d="M1128-477.4v128.8"/>
	<path class="st0" d="M1135.5-465.2v104.4"/>
	<path class="st0" d="M1143-447.4v68.8"/>
	<path class="st0" d="M1150.5-455v84"/>
	<path class="st0" d="M1158-446.9v67.9"/>
	<path class="st0" d="M1165.6-459.9v93.8"/>
	<path class="st0" d="M1173.1-436.9v47.9"/>
	<path class="st0" d="M1180.6-419.9v13.7"/>
	<path class="st0" d="M1188.1-414.3v2.6"/>
	<path class="st0" d="M1195.6-431.3v36.5"/>
	<path class="st0" d="M1203.2-451.9v77.7"/>
	<path class="st0" d="M1210.7-428v29.9"/>
	<path class="st0" d="M1218.2-415.6v5.2"/>
	<path class="st0" d="M1225.7-416.5v7"/>
	<path class="st0" d="M1233.2-414v2"/>
	<path class="st0" d="M1240.8-414.9v3.8"/>
	<path class="st0" d="M1248.3-443.7v61.4"/>
	<path class="st0" d="M1255.8-465.3v104.6"/>
	<path class="st0" d="M1263.3-442.9v59.7"/>
	<path class="st0" d="M1270.8-467.5v109"/>
	<path class="st0" d="M1278.4-451.2v76.3"/>
	<path class="st0" d="M1285.9-473V-353"/>
	<path class="st0" d="M1293.4-446.2v66.4"/>
	<path class="st0" d="M1300.9-437.8v49.5"/>
	<path class="st0" d="M1308.4-442.6v59.3"/>
	<path class="st0" d="M1315.9-428.7v31.3"/>
	<path class="st0" d="M1323.5-418.1v10.2"/>
	<path class="st0" d="M1331-419.8v13.6"/>
	<path class="st0" d="M1338.5-427v28"/>
	<path class="st0" d="M1346-427.6v29.2"/>
	<path class="st0" d="M1353.5-429.5v33"/>
	<path class="st0" d="M1361.1-426.2v26.4"/>
	<path class="st0" d="M1368.6-420.1v14.3"/>
	<path class="st0" d="M1376.1-417.6v9.2"/>
	<path class="st0" d="M1383.6-415v3.9"/>
	<path class="st0" d="M1391.1-413.2v0.4"/>
</g>
</svg>
