<?xml version="1.0" encoding="utf-8"?>
<!-- Generator: Adobe Illustrator 22.0.0, SVG Export Plug-In . SVG Version: 6.00 Build 0)  -->
<svg version="1.1" id="Layer_1" xmlns="http://www.w3.org/2000/svg" xmlns:xlink="http://www.w3.org/1999/xlink" x="0px" y="0px"
	 viewBox="0 0 1400 180" style="enable-background:new 0 0 1400 180;" xml:space="preserve">
<style type="text/css">
	.st0{fill:none;stroke:#FFD040;stroke-width:3.9955;stroke-linecap:round;stroke-miterlimit:10;}
</style>
<g transform="scale(1,1)">
</g>
<g transform="translate(0,503)">
	<path class="st0" d="M0-420.1v14.2"/>
	<path class="st0" d="M8-452.2v78.5"/>
	<path class="st0" d="M16-463.7v101.4"/>
	<path class="st0" d="M24-450.4v74.9"/>
	<path class="st0" d="M32-447.4v68.9"/>
	<path class="st0" d="M40-461.3v96.5"/>
	<path class="st0" d="M47.9-455.6v85.2"/>
	<path class="st0" d="M55.9-451.8v77.6"/>
	<path class="st0" d="M63.9-434v42.1"/>
	<path class="st0" d="M71.9-437.9v49.8"/>
	<path class="st0" d="M79.9-430.5v34.9"/>
	<path class="st0" d="M87.9-426.3v26.6"/>
	<path class="st0" d="M95.9-444.7v63.3"/>
	<path class="st0" d="M103.9-450.8v75.7"/>
	<path class="st0" d="M111.9-447.6v69.2"/>
	<path class="st0" d="M119.9-448.9v71.8"/>
	<path class="st0" d="M127.9-429v31.9"/>
	<path class="st0" d="M135.8-424.8v23.6"/>
	<path class="st0" d="M143.8-422.1v18.2"/>
	<path class="st0" d="M151.8-423.9v21.9"/>
	<path class="st0" d="M159.8-423.7v21.4"/>
	<path class="st0" d="M167.8-424.1v22.1"/>
	<path class="st0" d="M175.8-443.9v61.7"/>
	<path class="st0" d="M183.8-460.1v94.1"/>
	<path class="st0" d="M191.8-457v88.1"/>
	<path class="st0" d="M199.8-429.4v32.8"/>
	<path class="st0" d="M207.8-431.5v37"/>
	<path class="st0" d="M215.8-437.3v48.7"/>
	<path class="st0" d="M223.7-459.2v92.4"/>
	<path class="st0" d="M231.7-452v78"/>
	<path class="st0" d="M239.7-447.5v69"/>
	<path class="st0" d="M247.7-434.5v43.1"/>
	<path class="st0" d="M255.7-424.3v22.6"/>
	<path class="st0" d="M263.7-421.2v16.4"/>
	<path class="st0" d="M271.7-424.5v23.1"/>
	<path class="st0" d="M279.7-445v64"/>
	<path class="st0" d="M287.7-442.2v58.4"/>
	<path class="st0" d="M295.7-420.5v15"/>
	<path class="st0" d="M303.7-413.8v1.7"/>
	<path class="st0" d="M311.7-413.2v0.5"/>
	<path class="st0" d="M319.6-413.1v0.3"/>
	<path class="st0" d="M327.6-413.1v0.1"/>
	<path class="st0" d="M335.6-413L335.6-413"/>
	<path class="st0" d="M343.6-426.2v26.4"/>
	<path class="st0" d="M351.6-432.7v39.4"/>
	<path class="st0" d="M359.6-426.1v26.1"/>
	<path class="st0" d="M367.6-415.6v5.2"/>
	<path class="st0" d="M375.6-414.3v2.7"/>
	<path class="st0" d="M383.6-413.6v1.2"/>
	<path class="st0" d="M391.6-413.3v0.6"/>
	<path class="st0" d="M399.6-413.2v0.4"/>
	<path class="st0" d="M407.5-413.1v0.2"/>
	<path class="st0" d="M415.5-413.1v0.1"/>
	<path class="st0" d="M423.5-413L423.5-413"/>
	<path class="st0" d="M431.5-413L431.5-413"/>
	<path class="st0" d="M439.5-413L439.5-413"/>
	<path class="st0" d="M447.5-413L447.5-413"/>
	<path class="st0" d="M455.5-413L455.5-413"/>
	<path class="st0" d="M463.5-413.7v1.3"/>
	<path class="st0" d="M471.5-418.3v10.6"/>
	<path class="st0" d="M479.5-452.7v79.3"/>
	<path class="st0" d="M487.5-439.1v52.1"/>
	<path class="st0" d="M495.4-458.9v91.7"/>
	<path class="st0" d="M503.4-465.8v105.6"/>
	<path class="st0" d="M511.4-450.4v74.7"/>
	<path class="st0" d="M519.4-453.3v80.6"/>
	<path class="st0" d="M527.4-460.9v95.7"/>
	<path class="st0" d="M535.4-472.6v119.2"/>
	<path class="st0" d="M543.4-473.7v121.3"/>
	<path class="st0" d="M551.4-473.4v120.9"/>
	<path class="st0" d="M559.4-476V-350"/>
	<path class="st0" d="M567.4-475.9v125.9"/>
	<path class="st0" d="M575.4-450.7v75.4"/>
	<path class="st0" d="M583.3-463.8v101.7"/>
	<path class="st0" d="M591.3-460.7v95.3"/>
	<path class="st0" d="M599.3-456.9v87.8"/>
	<path class="st0" d="M607.3-479V-347"/>
	<path class="st0" d="M615.3-471.9v117.8"/>
	<path class="st0" d="M623.3-473.7v121.5"/>
	<path class="st0" d="M631.3-470.2v114.4"/>
	<path class="st0" d="M639.3-471V-355"/>
	<path class="st0" d="M647.3-474.9v123.8"/>
	<path class="st0" d="M655.3-478.2v130.4"/>
	<path class="st0" d="M663.3-470.8v115.7"/>
	<path class="st0" d="M671.2-475.9v125.9"/>
	<path class="st0" d="M679.2-457v88"/>
	<path class="st0" d="M687.2-444.8v63.7"/>
	<path class="st0" d="M695.2-437.4v48.8"/>
	<path class="st0" d="M703.2-469.4v112.7"/>
	<path class="st0" d="M711.2-452.1v78.3"/>
	<path class="st0" d="M719.2-429.4v32.8"/>
	<path class="st0" d="M727.2-439.5v53.1"/>
	<path class="st0" d="M735.2-480.9v135.7"/>
	<path class="st0" d="M743.2-476.1v126.3"/>
	<path class="st0" d="M751.2-439v51.9"/>
	<path class="st0" d="M759.2-433.5v41"/>
	<path class="st0" d="M767.1-456.5v87"/>
	<path class="st0" d="M775.1-432.8v39.6"/>
	<path class="st0" d="M783.1-430.7v35.4"/>
	<path class="st0" d="M791.1-455v84.1"/>
	<path class="st0" d="M799.1-459.4v92.8"/>
	<path class="st0" d="M807.1-442.1v58.2"/>
	<path class="st0" d="M815.1-419.3v12.5"/>
	<path class="st0" d="M823.1-422.4v18.8"/>
	<path class="st0" d="M831.1-419.2v12.4"/>
	<path class="st0" d="M839.1-460.3v94.5"/>
	<path class="st0" d="M847.1-470.6v115.1"/>
	<path class="st0" d="M855-447.9v69.7"/>
	<path class="st0" d="M863-443.3v60.6"/>
	<path class="st0" d="M871-445.4v64.8"/>
	<path class="st0" d="M879-430.7v35.4"/>
	<path class="st0" d="M887-419.4v12.7"/>
	<path class="st0" d="M895-437.6v49.3"/>
	<path class="st0" d="M903-437.2v48.3"/>
	<path class="st0" d="M911-455.5v85.1"/>
	<path class="st0" d="M919-450.9v75.9"/>
	<path class="st0" d="M927-455.8v85.6"/>
	<path class="st0" d="M935-428v29.9"/>
	<path class="st0" d="M942.9-460.2v94.5"/>
	<path class="st0" d="M950.9-466.8v107.6"/>
	<path class="st0" d="M958.9-454.3v82.7"/>
	<path class="st0" d="M966.9-468.9v111.8"/>
	<path class="st0" d="M974.9-458.2v90.5"/>
	<path class="st0" d="M982.9-467.8v109.6"/>
	<path class="st0" d="M990.9-455.8v85.6"/>
	<path class="st0" d="M998.9-451.2v76.5"/>
	<path class="st0" d="M1006.9-436.9v47.8"/>
	<path class="st0" d="M1014.9-433.6v41.3"/>
	<path class="st0" d="M1022.9-438.7v51.3"/>
	<path class="st0" d="M1030.8-469.5v113"/>
	<path class="st0" d="M1038.8-453.4v80.8"/>
	<path class="st0" d="M1046.8-444.5v63"/>
	<path class="st0" d="M1054.8-443.6v61.2"/>
	<path class="st0" d="M1062.8-472.4v118.8"/>
	<path class="st0" d="M1070.8-468.4v110.9"/>
	<path class="st0" d="M1078.8-466.9v107.8"/>
	<path class="st0" d="M1086.8-465V-361"/>
	<path class="st0" d="M1094.8-458.2v90.3"/>
	<path class="st0" d="M1102.8-429.3v32.6"/>
	<path class="st0" d="M1110.8-428.2v30.4"/>
	<path class="st0" d="M1118.7-446.1v66.3"/>
	<path class="st0" d="M1126.7-442.5v59.1"/>
	<path class="st0" d="M1134.7-457.4v88.7"/>
	<path class="st0" d="M1142.7-469.3v112.7"/>
	<path class="st0" d="M1150.7-441.2v56.3"/>
	<path class="st0" d="M1158.7-430.5v34.9"/>
	<path class="st0" d="M1166.7-432.5v39"/>
	<path class="st0" d="M1174.7-437.6v49.1"/>
	<path class="st0" d="M1182.7-461.9v97.8"/>
	<path class="st0" d="M1190.7-462.7v99.5"/>
	<path class="st0" d="M1198.7-458.8v91.6"/>
	<path class="st0" d="M1206.6-431.9v37.9"/>
	<path class="st0" d="M1214.6-437.9v49.8"/>
	<path class="st0" d="M1222.6-441.3v56.6"/>
	<path class="st0" d="M1230.6-429.2v32.5"/>
	<path class="st0" d="M1238.6-442v58.1"/>
	<path class="st0" d="M1246.6-443v60.1"/>
	<path class="st0" d="M1254.6-434.4v42.9"/>
	<path class="st0" d="M1262.6-443.2v60.4"/>
	<path class="st0" d="M1270.6-442.9v59.7"/>
	<path class="st0" d="M1278.6-446.6v67.3"/>
	<path class="st0" d="M1286.6-456.6v87.3"/>
	<path class="st0" d="M1294.6-452.5v79"/>
	<path class="st0" d="M1302.5-439v52"/>
	<path class="st0" d="M1310.5-440.6v55.2"/>
	<path class="st0" d="M1318.5-438.1v50.2"/>
	<path class="st0" d="M1326.5-435.5v44.9"/>
	<path class="st0" d="M1334.5-442.2v58.3"/>
	<path class="st0" d="M1342.5-454.3v82.6"/>
	<path class="st0" d="M1350.5-445.6v65.1"/>
	<path class="st0" d="M1358.5-426.9v27.8"/>
	<path class="st0" d="M1366.5-415.7v5.5"/>
	<path class="st0" d="M1374.5-416.4v6.8"/>
	<path class="st0" d="M1382.5-413.5v1"/>
	<path class="st0" d="M1390.4-413.1v0.2"/>
</g>
</svg>
