<?xml version="1.0" encoding="utf-8"?>
<!-- Generator: Adobe Illustrator 22.0.0, SVG Export Plug-In . SVG Version: 6.00 Build 0)  -->
<svg version="1.1" id="Layer_1" xmlns="http://www.w3.org/2000/svg" xmlns:xlink="http://www.w3.org/1999/xlink" x="0px" y="0px"
	 viewBox="0 0 1400 180" style="enable-background:new 0 0 1400 180;" xml:space="preserve">
<style type="text/css">
	.st0{fill:none;stroke:#FFD040;stroke-width:3.3548;stroke-linecap:round;stroke-miterlimit:10;}
</style>
<g transform="scale(1,1)">
</g>
<g transform="translate(0,428)">
	<path class="st0" d="M-1.1-338.2v0.4"/>
	<path class="st0" d="M5.6-369v62"/>
	<path class="st0" d="M12.3-374.1v72.2"/>
	<path class="st0" d="M19-393.1v110.2"/>
	<path class="st0" d="M25.7-385.9v95.8"/>
	<path class="st0" d="M32.4-397v118"/>
	<path class="st0" d="M39.1-370.4v64.8"/>
	<path class="st0" d="M45.8-378v80"/>
	<path class="st0" d="M52.5-363.2v50.4"/>
	<path class="st0" d="M59.2-373.2v70.4"/>
	<path class="st0" d="M66-354.3v32.5"/>
	<path class="st0" d="M72.7-345.3v14.6"/>
	<path class="st0" d="M79.4-375.2v74.4"/>
	<path class="st0" d="M86.1-353.6v31.2"/>
	<path class="st0" d="M92.8-364.7v53.4"/>
	<path class="st0" d="M99.5-362.5v49"/>
	<path class="st0" d="M106.2-338.8v1.6"/>
	<path class="st0" d="M112.9-338.4v0.8"/>
	<path class="st0" d="M119.6-355.9v35.7"/>
	<path class="st0" d="M126.3-388v99.9"/>
	<path class="st0" d="M133-379.3v82.6"/>
	<path class="st0" d="M139.8-382.5v88.9"/>
	<path class="st0" d="M146.5-361.9v47.8"/>
	<path class="st0" d="M153.2-354.5v32.9"/>
	<path class="st0" d="M159.9-349.7v23.3"/>
	<path class="st0" d="M166.6-365.5v55.1"/>
	<path class="st0" d="M173.3-356.7v37.5"/>
	<path class="st0" d="M180-374.3v72.7"/>
	<path class="st0" d="M186.7-375v74"/>
	<path class="st0" d="M193.4-340.5v4.9"/>
	<path class="st0" d="M200.1-338.7v1.4"/>
	<path class="st0" d="M206.9-342.3v8.6"/>
	<path class="st0" d="M213.6-391.9v107.8"/>
	<path class="st0" d="M220.3-378.9v81.7"/>
	<path class="st0" d="M227-339.7v3.4"/>
	<path class="st0" d="M233.7-358.7v41.5"/>
	<path class="st0" d="M240.4-387v98"/>
	<path class="st0" d="M247.1-371.5v66.9"/>
	<path class="st0" d="M253.8-363.7v51.5"/>
	<path class="st0" d="M260.5-346.2v16.5"/>
	<path class="st0" d="M267.2-339v2"/>
	<path class="st0" d="M273.9-338.8v1.6"/>
	<path class="st0" d="M280.7-338.8v1.5"/>
	<path class="st0" d="M287.4-340.3v4.6"/>
	<path class="st0" d="M294.1-340.1v4.1"/>
	<path class="st0" d="M300.8-367.5v59.1"/>
	<path class="st0" d="M307.5-390.2v104.5"/>
	<path class="st0" d="M314.2-408V-268"/>
	<path class="st0" d="M320.9-345.7v15.4"/>
	<path class="st0" d="M327.6-351.1v26.2"/>
	<path class="st0" d="M334.3-390.9v105.9"/>
	<path class="st0" d="M341-395.7v115.5"/>
	<path class="st0" d="M347.8-374.8v73.6"/>
	<path class="st0" d="M354.5-396V-280"/>
	<path class="st0" d="M361.2-355.7v35.4"/>
	<path class="st0" d="M367.9-339.2v2.5"/>
	<path class="st0" d="M374.6-340v4.1"/>
	<path class="st0" d="M381.3-339.2v2.3"/>
	<path class="st0" d="M388-338.8v1.6"/>
	<path class="st0" d="M394.7-338.9v1.9"/>
	<path class="st0" d="M401.4-358.3v40.5"/>
	<path class="st0" d="M408.1-392.3v108.7"/>
	<path class="st0" d="M414.8-397.6v119.3"/>
	<path class="st0" d="M421.6-411.9v147.8"/>
	<path class="st0" d="M428.3-417.1v158.2"/>
	<path class="st0" d="M435-381.3v86.7"/>
	<path class="st0" d="M441.7-341.1v6.2"/>
	<path class="st0" d="M448.4-339.5v3"/>
	<path class="st0" d="M455.1-377v77.9"/>
	<path class="st0" d="M461.8-381.4v86.7"/>
	<path class="st0" d="M468.5-376.1v76.2"/>
	<path class="st0" d="M475.2-341.8v7.6"/>
	<path class="st0" d="M481.9-340.2v4.4"/>
	<path class="st0" d="M488.7-379.9v83.9"/>
	<path class="st0" d="M495.4-403.3v130.6"/>
	<path class="st0" d="M502.1-357.9v39.7"/>
	<path class="st0" d="M508.8-367.9v59.8"/>
	<path class="st0" d="M515.5-340.3v4.5"/>
	<path class="st0" d="M522.2-338.7v1.4"/>
	<path class="st0" d="M528.9-338.6v1.3"/>
	<path class="st0" d="M535.6-361.1v46.1"/>
	<path class="st0" d="M542.3-407.8v139.7"/>
	<path class="st0" d="M549-369.1v62.2"/>
	<path class="st0" d="M555.7-349.5v22.9"/>
	<path class="st0" d="M562.5-348.2v20.4"/>
	<path class="st0" d="M569.2-358.2v40.4"/>
	<path class="st0" d="M575.9-367.1v58.2"/>
	<path class="st0" d="M582.6-347.9v19.9"/>
	<path class="st0" d="M589.3-343.9v11.9"/>
	<path class="st0" d="M596-338.7v1.5"/>
	<path class="st0" d="M602.7-369.7v63.4"/>
	<path class="st0" d="M609.4-376.1v76.2"/>
	<path class="st0" d="M616.1-394.1v112.1"/>
	<path class="st0" d="M622.8-352.8v29.5"/>
	<path class="st0" d="M629.6-355.6v35.1"/>
	<path class="st0" d="M636.3-383.3v90.6"/>
	<path class="st0" d="M643-403.7v131.5"/>
	<path class="st0" d="M649.7-404.5v133"/>
	<path class="st0" d="M656.4-374.6v73.2"/>
	<path class="st0" d="M663.1-370v64.1"/>
	<path class="st0" d="M669.8-379.9v83.9"/>
	<path class="st0" d="M676.5-340.4v4.8"/>
	<path class="st0" d="M683.2-338.7v1.3"/>
	<path class="st0" d="M689.9-365.2v54.5"/>
	<path class="st0" d="M696.6-387.5v99"/>
	<path class="st0" d="M703.4-369.4v62.8"/>
	<path class="st0" d="M710.1-347.4v18.8"/>
	<path class="st0" d="M716.8-341.9v7.9"/>
	<path class="st0" d="M723.5-387.7v99.4"/>
	<path class="st0" d="M730.2-365.4v54.9"/>
	<path class="st0" d="M736.9-363.8v51.6"/>
	<path class="st0" d="M743.6-369.4v62.7"/>
	<path class="st0" d="M750.3-393v110"/>
	<path class="st0" d="M757-379.7v83.3"/>
	<path class="st0" d="M763.7-390.6v105.1"/>
	<path class="st0" d="M770.5-388v99.9"/>
	<path class="st0" d="M777.2-370v64"/>
	<path class="st0" d="M783.9-348.2v20.3"/>
	<path class="st0" d="M790.6-357.7v39.4"/>
	<path class="st0" d="M797.3-371.8v67.7"/>
	<path class="st0" d="M804-377.8v79.5"/>
	<path class="st0" d="M810.7-394.7v113.4"/>
	<path class="st0" d="M817.4-400.3v124.6"/>
	<path class="st0" d="M824.1-369.2v62.4"/>
	<path class="st0" d="M830.8-381.5v87"/>
	<path class="st0" d="M837.5-371.8v67.5"/>
	<path class="st0" d="M844.3-399.6v123.2"/>
	<path class="st0" d="M851-387.4v98.8"/>
	<path class="st0" d="M857.7-401.2v126.4"/>
	<path class="st0" d="M864.4-357.9v39.8"/>
	<path class="st0" d="M871.1-349v22"/>
	<path class="st0" d="M877.8-373.1v70.2"/>
	<path class="st0" d="M884.5-383.4v90.9"/>
	<path class="st0" d="M891.2-376.6v77.1"/>
	<path class="st0" d="M897.9-382.9v89.9"/>
	<path class="st0" d="M904.6-388.5v101.1"/>
	<path class="st0" d="M911.4-365.3v54.6"/>
	<path class="st0" d="M918.1-341.1v6.2"/>
	<path class="st0" d="M924.8-338.5v0.9"/>
	<path class="st0" d="M931.5-338.4v0.8"/>
	<path class="st0" d="M938.2-338.4v0.8"/>
	<path class="st0" d="M944.9-350.4v24.7"/>
	<path class="st0" d="M951.6-372.5v69"/>
	<path class="st0" d="M958.3-394.9v113.7"/>
	<path class="st0" d="M965-376.5v77.1"/>
	<path class="st0" d="M971.7-372.1v68.2"/>
	<path class="st0" d="M978.4-346.8v17.5"/>
	<path class="st0" d="M985.2-354.2v32.4"/>
	<path class="st0" d="M991.9-343.9v11.8"/>
	<path class="st0" d="M998.6-341.6v7.2"/>
	<path class="st0" d="M1005.3-340.2v4.4"/>
	<path class="st0" d="M1012-340.6v5.3"/>
	<path class="st0" d="M1018.7-361.6v47.3"/>
	<path class="st0" d="M1025.4-396.9v117.8"/>
	<path class="st0" d="M1032.1-408.5v141"/>
	<path class="st0" d="M1038.8-364.4v52.9"/>
	<path class="st0" d="M1045.5-354.1v32.2"/>
	<path class="st0" d="M1052.3-372.4v68.9"/>
	<path class="st0" d="M1059-366.6v57.2"/>
	<path class="st0" d="M1065.7-339.8v3.5"/>
	<path class="st0" d="M1072.4-370.4v64.9"/>
	<path class="st0" d="M1079.1-372v68"/>
	<path class="st0" d="M1085.8-353.8v31.6"/>
	<path class="st0" d="M1092.5-341.7v7.3"/>
	<path class="st0" d="M1099.2-338.8v1.5"/>
	<path class="st0" d="M1105.9-359.1v42.2"/>
	<path class="st0" d="M1112.6-359.8v43.6"/>
	<path class="st0" d="M1119.3-360.6v45.1"/>
	<path class="st0" d="M1126.1-351.3v26.6"/>
	<path class="st0" d="M1132.8-345.1v14.3"/>
	<path class="st0" d="M1139.5-343.1v10.2"/>
	<path class="st0" d="M1146.2-338.7v1.4"/>
	<path class="st0" d="M1152.9-338.8v1.7"/>
	<path class="st0" d="M1159.6-349.2v22.4"/>
	<path class="st0" d="M1166.3-367.1v58.2"/>
	<path class="st0" d="M1173-345.5v14.9"/>
	<path class="st0" d="M1179.7-366.9v57.8"/>
	<path class="st0" d="M1186.4-348.9v21.9"/>
	<path class="st0" d="M1193.2-357.9v39.7"/>
	<path class="st0" d="M1199.9-375.5v74.9"/>
	<path class="st0" d="M1206.6-345.3v14.7"/>
	<path class="st0" d="M1213.3-341.1v6.2"/>
	<path class="st0" d="M1220-371.9v67.9"/>
	<path class="st0" d="M1226.7-362v48"/>
	<path class="st0" d="M1233.4-362.2v48.4"/>
	<path class="st0" d="M1240.1-339.4v2.8"/>
	<path class="st0" d="M1246.8-338.5v1.1"/>
	<path class="st0" d="M1253.5-346.9v17.9"/>
	<path class="st0" d="M1260.2-373.8v71.6"/>
	<path class="st0" d="M1267-343.4v10.8"/>
	<path class="st0" d="M1273.7-354.5v33.1"/>
	<path class="st0" d="M1280.4-360.6v45.2"/>
	<path class="st0" d="M1287.1-383.7v91.5"/>
	<path class="st0" d="M1293.8-397.8v119.6"/>
	<path class="st0" d="M1300.5-368v60"/>
	<path class="st0" d="M1307.2-388v100"/>
	<path class="st0" d="M1313.9-353.5v31.1"/>
	<path class="st0" d="M1320.6-338.9v1.8"/>
	<path class="st0" d="M1327.3-338.4v0.8"/>
	<path class="st0" d="M1334.1-338.5v1"/>
	<path class="st0" d="M1340.8-338.5v1"/>
	<path class="st0" d="M1347.5-356.4v36.8"/>
	<path class="st0" d="M1354.2-361.8v47.7"/>
	<path class="st0" d="M1360.9-365.2v54.4"/>
	<path class="st0" d="M1367.6-353.4v30.7"/>
	<path class="st0" d="M1374.3-340.6v5.3"/>
	<path class="st0" d="M1381-338.3v0.6"/>
	<path class="st0" d="M1387.7-338.2v0.5"/>
	<path class="st0" d="M1394.4-338.1v0.3"/>
	<path class="st0" d="M1401.1-338.1v0.1"/>
</g>
</svg>
