<?xml version="1.0" encoding="utf-8"?>
<!-- Generator: Adobe Illustrator 22.0.0, SVG Export Plug-In . SVG Version: 6.00 Build 0)  -->
<svg version="1.1" id="Layer_1" xmlns="http://www.w3.org/2000/svg" xmlns:xlink="http://www.w3.org/1999/xlink" x="0px" y="0px"
	 viewBox="0 0 1400 180" style="enable-background:new 0 0 1400 180;" xml:space="preserve">
<style type="text/css">
	.st0{fill:none;stroke:#FFD040;stroke-width:3.2536;stroke-linecap:round;stroke-miterlimit:10;}
</style>
<g transform="scale(1,1)">
</g>
<g transform="translate(0,366)">
	<path class="st0" d="M7-276L7-276"/>
	<path class="st0" d="M14-276.1v0.2"/>
	<path class="st0" d="M20.9-276.2v0.4"/>
	<path class="st0" d="M27.8-276.3v0.7"/>
	<path class="st0" d="M34.7-276.5v1.1"/>
	<path class="st0" d="M41.6-283.5v15"/>
	<path class="st0" d="M48.6-296.8v41.6"/>
	<path class="st0" d="M55.5-312.8v73.6"/>
	<path class="st0" d="M62.4-311.4v70.9"/>
	<path class="st0" d="M69.3-304.9v57.7"/>
	<path class="st0" d="M76.2-308.3v64.6"/>
	<path class="st0" d="M83.2-301.3v50.6"/>
	<path class="st0" d="M90.1-285v18"/>
	<path class="st0" d="M97-286.2v20.4"/>
	<path class="st0" d="M103.9-294.2v36.4"/>
	<path class="st0" d="M110.8-291.7v31.5"/>
	<path class="st0" d="M117.8-287.8v23.5"/>
	<path class="st0" d="M124.7-281.2v10.4"/>
	<path class="st0" d="M131.6-281.2v10.3"/>
	<path class="st0" d="M138.5-277.9v3.9"/>
	<path class="st0" d="M145.4-276.8v1.5"/>
	<path class="st0" d="M152.4-276.8v1.6"/>
	<path class="st0" d="M159.3-276.7v1.5"/>
	<path class="st0" d="M166.2-276.7v1.3"/>
	<path class="st0" d="M173.1-276.7v1.3"/>
	<path class="st0" d="M180-276.7v1.3"/>
	<path class="st0" d="M187-278.1v4.2"/>
	<path class="st0" d="M193.9-288.7v25.4"/>
	<path class="st0" d="M200.8-289.3v26.6"/>
	<path class="st0" d="M207.7-279.4v6.7"/>
	<path class="st0" d="M214.6-280.1v8.2"/>
	<path class="st0" d="M221.6-279.8v7.6"/>
	<path class="st0" d="M228.5-278v4.1"/>
	<path class="st0" d="M235.4-276.7v1.4"/>
	<path class="st0" d="M242.3-276.7v1.5"/>
	<path class="st0" d="M249.2-276.7v1.5"/>
	<path class="st0" d="M256.2-276.7v1.4"/>
	<path class="st0" d="M263.1-276.6v1.2"/>
	<path class="st0" d="M270-276.6v1.2"/>
	<path class="st0" d="M276.9-276.7v1.4"/>
	<path class="st0" d="M283.8-280.6v9.1"/>
	<path class="st0" d="M290.8-290.1v28.1"/>
	<path class="st0" d="M297.7-288.3v24.6"/>
	<path class="st0" d="M304.6-283.9v15.9"/>
	<path class="st0" d="M311.5-291.2v30.4"/>
	<path class="st0" d="M318.4-291.7v31.4"/>
	<path class="st0" d="M325.4-278.3v4.6"/>
	<path class="st0" d="M332.3-277.9v3.7"/>
	<path class="st0" d="M339.2-283.4v14.8"/>
	<path class="st0" d="M346.1-298.1v44.3"/>
	<path class="st0" d="M353-288.2v24.5"/>
	<path class="st0" d="M360-278.9v5.8"/>
	<path class="st0" d="M366.9-282.8v13.6"/>
	<path class="st0" d="M373.8-286.1v20.2"/>
	<path class="st0" d="M380.7-282.1v12.3"/>
	<path class="st0" d="M387.7-285v18"/>
	<path class="st0" d="M394.6-285.3v18.7"/>
	<path class="st0" d="M401.5-285.5v18.9"/>
	<path class="st0" d="M408.4-284.1v16.2"/>
	<path class="st0" d="M415.3-284.4v16.8"/>
	<path class="st0" d="M422.3-286.4v20.7"/>
	<path class="st0" d="M429.2-284.3v16.5"/>
	<path class="st0" d="M436.1-282.5v13.1"/>
	<path class="st0" d="M443-282.7v13.5"/>
	<path class="st0" d="M449.9-278.3v4.5"/>
	<path class="st0" d="M456.9-280.5v9.1"/>
	<path class="st0" d="M463.8-284v16.1"/>
	<path class="st0" d="M470.7-284.1v16.3"/>
	<path class="st0" d="M477.6-279.6v7.3"/>
	<path class="st0" d="M484.5-276.7v1.4"/>
	<path class="st0" d="M491.5-276.7v1.4"/>
	<path class="st0" d="M498.4-288.4v24.8"/>
	<path class="st0" d="M505.3-291v29.9"/>
	<path class="st0" d="M512.2-278.7v5.3"/>
	<path class="st0" d="M519.1-286.2v20.5"/>
	<path class="st0" d="M526.1-295.3v38.6"/>
	<path class="st0" d="M533-280.8v9.6"/>
	<path class="st0" d="M539.9-277.3v2.5"/>
	<path class="st0" d="M546.8-298.1v44.3"/>
	<path class="st0" d="M553.7-290.2v28.3"/>
	<path class="st0" d="M560.7-278.3v4.6"/>
	<path class="st0" d="M567.6-278.4v4.7"/>
	<path class="st0" d="M574.5-292.2v32.5"/>
	<path class="st0" d="M581.4-285.6v19.3"/>
	<path class="st0" d="M588.3-289.5v27.1"/>
	<path class="st0" d="M595.3-289.9v27.8"/>
	<path class="st0" d="M602.2-284.3v16.6"/>
	<path class="st0" d="M609.1-281.6v11.3"/>
	<path class="st0" d="M616-281.3v10.5"/>
	<path class="st0" d="M622.9-289.2v26.3"/>
	<path class="st0" d="M629.9-288.4v24.9"/>
	<path class="st0" d="M636.8-288v24"/>
	<path class="st0" d="M643.7-288v24"/>
	<path class="st0" d="M650.6-285.5v18.9"/>
	<path class="st0" d="M657.5-279.4v6.8"/>
	<path class="st0" d="M664.5-276.9v1.8"/>
	<path class="st0" d="M671.4-276.8v1.6"/>
	<path class="st0" d="M678.3-279.3v6.6"/>
	<path class="st0" d="M685.2-285.1v18.1"/>
	<path class="st0" d="M692.1-279.8v7.6"/>
	<path class="st0" d="M699.1-285.8v19.7"/>
	<path class="st0" d="M706-282.8v13.5"/>
	<path class="st0" d="M712.9-277.7v3.4"/>
	<path class="st0" d="M719.8-276.8v1.5"/>
	<path class="st0" d="M726.7-276.7v1.3"/>
	<path class="st0" d="M733.7-276.9v1.9"/>
	<path class="st0" d="M740.6-276.6v1.2"/>
	<path class="st0" d="M747.5-276.7v1.3"/>
	<path class="st0" d="M754.4-282.9v13.8"/>
	<path class="st0" d="M761.3-279.8v7.5"/>
	<path class="st0" d="M768.3-281v10"/>
	<path class="st0" d="M775.2-279.7v7.4"/>
	<path class="st0" d="M782.1-285.3v18.5"/>
	<path class="st0" d="M789-293.2v34.5"/>
	<path class="st0" d="M795.9-281.5v10.9"/>
	<path class="st0" d="M802.9-283.6v15.2"/>
	<path class="st0" d="M809.8-282v12.1"/>
	<path class="st0" d="M816.7-280.7v9.4"/>
	<path class="st0" d="M823.6-286.6v21.3"/>
	<path class="st0" d="M830.5-286.6v21.2"/>
	<path class="st0" d="M837.5-286v20"/>
	<path class="st0" d="M844.4-281.2v10.5"/>
	<path class="st0" d="M851.3-284.6v17.1"/>
	<path class="st0" d="M858.2-286.2v20.5"/>
	<path class="st0" d="M865.1-286.5v21"/>
	<path class="st0" d="M872.1-285.5v18.9"/>
	<path class="st0" d="M879-279.6v7.3"/>
	<path class="st0" d="M885.9-276.7v1.4"/>
	<path class="st0" d="M892.8-276.9v1.9"/>
	<path class="st0" d="M899.7-288.2v24.4"/>
	<path class="st0" d="M906.7-294.2v36.4"/>
	<path class="st0" d="M913.6-284.7v17.3"/>
	<path class="st0" d="M920.5-286.7v21.5"/>
	<path class="st0" d="M927.4-280.6v9.3"/>
	<path class="st0" d="M934.3-283.8v15.5"/>
	<path class="st0" d="M941.3-286.4v20.7"/>
	<path class="st0" d="M948.2-285.1v18.1"/>
	<path class="st0" d="M955.1-283.5v14.9"/>
	<path class="st0" d="M962-279.7v7.4"/>
	<path class="st0" d="M968.9-277v1.9"/>
	<path class="st0" d="M975.9-280.7v9.4"/>
	<path class="st0" d="M982.8-285.2v18.3"/>
	<path class="st0" d="M989.7-288.2v24.4"/>
	<path class="st0" d="M996.6-286.9v21.7"/>
	<path class="st0" d="M1003.5-280.8v9.5"/>
	<path class="st0" d="M1010.5-282.2v12.3"/>
	<path class="st0" d="M1017.4-279.3v6.6"/>
	<path class="st0" d="M1024.3-279.3v6.7"/>
	<path class="st0" d="M1031.2-279.6v7.3"/>
	<path class="st0" d="M1038.1-282.1v12.2"/>
	<path class="st0" d="M1045.1-281.2v10.5"/>
	<path class="st0" d="M1052-278.6v5.3"/>
	<path class="st0" d="M1058.9-281.9v11.9"/>
	<path class="st0" d="M1065.8-282.9v13.8"/>
	<path class="st0" d="M1072.8-279.8v7.5"/>
	<path class="st0" d="M1079.7-279.1v6.2"/>
	<path class="st0" d="M1086.6-278.3v4.5"/>
	<path class="st0" d="M1093.5-280v7.9"/>
	<path class="st0" d="M1100.4-281.8v11.6"/>
	<path class="st0" d="M1107.4-282.3v12.5"/>
	<path class="st0" d="M1114.3-280.3v8.6"/>
	<path class="st0" d="M1121.2-277.2v2.4"/>
	<path class="st0" d="M1128.1-279.2v6.5"/>
	<path class="st0" d="M1135-279.3v6.6"/>
	<path class="st0" d="M1142-280.7v9.4"/>
	<path class="st0" d="M1148.9-277.2v2.3"/>
	<path class="st0" d="M1155.8-276.7v1.4"/>
	<path class="st0" d="M1162.7-276.6v1.1"/>
	<path class="st0" d="M1169.6-296v40"/>
	<path class="st0" d="M1176.6-309.3v66.6"/>
	<path class="st0" d="M1183.5-295.8v39.6"/>
	<path class="st0" d="M1190.4-281.8v11.6"/>
	<path class="st0" d="M1197.3-286.9v21.7"/>
	<path class="st0" d="M1204.2-298.7v45.5"/>
	<path class="st0" d="M1211.2-294.2v36.4"/>
	<path class="st0" d="M1218.1-293.4v34.9"/>
	<path class="st0" d="M1225-280.6v9.2"/>
	<path class="st0" d="M1231.9-296.4v40.9"/>
	<path class="st0" d="M1238.8-283.8v15.6"/>
	<path class="st0" d="M1245.8-282.5v13.1"/>
	<path class="st0" d="M1252.7-282.7v13.4"/>
	<path class="st0" d="M1259.6-291.4v30.8"/>
	<path class="st0" d="M1266.5-279.1v6.2"/>
	<path class="st0" d="M1273.4-289.1v26.1"/>
	<path class="st0" d="M1280.4-281.6v11.1"/>
	<path class="st0" d="M1287.3-277.2v2.3"/>
	<path class="st0" d="M1294.2-282.6v13.2"/>
	<path class="st0" d="M1301.1-283.9v15.9"/>
	<path class="st0" d="M1308-279.5v7"/>
	<path class="st0" d="M1315-276.7v1.4"/>
	<path class="st0" d="M1321.9-283.5v15.1"/>
	<path class="st0" d="M1328.8-286v20"/>
	<path class="st0" d="M1335.7-281.8v11.6"/>
	<path class="st0" d="M1342.6-280.1v8.2"/>
	<path class="st0" d="M1349.6-281.7v11.4"/>
	<path class="st0" d="M1356.5-280.3v8.6"/>
	<path class="st0" d="M1363.4-287.7v23.4"/>
	<path class="st0" d="M1370.3-279.8v7.6"/>
	<path class="st0" d="M1377.2-281.9v11.8"/>
	<path class="st0" d="M1384.2-284.8v17.5"/>
	<path class="st0" d="M1391.1-282.3v12.5"/>
	<path class="st0" d="M1398-277.6v3.2"/>
</g>
</svg>
