<?xml version="1.0" encoding="utf-8"?>
<!-- Generator: Adobe Illustrator 22.0.0, SVG Export Plug-In . SVG Version: 6.00 Build 0)  -->
<svg version="1.1" id="Layer_1" xmlns="http://www.w3.org/2000/svg" xmlns:xlink="http://www.w3.org/1999/xlink" x="0px" y="0px"
	 viewBox="0 0 1400 180" style="enable-background:new 0 0 1400 180;" xml:space="preserve">
<style type="text/css">
	.st0{fill:none;stroke:#FFD040;stroke-width:4.1296;stroke-linecap:round;stroke-miterlimit:10;}
</style>
<g transform="scale(1,1)">
</g>
<g transform="translate(0,366)">
	<path class="st0" d="M0.2-276L0.2-276"/>
	<path class="st0" d="M8.4-276L8.4-276"/>
	<path class="st0" d="M16.7-276L16.7-276"/>
	<path class="st0" d="M25-276.1v0.1"/>
	<path class="st0" d="M33.2-277v2.1"/>
	<path class="st0" d="M41.5-278v4"/>
	<path class="st0" d="M49.7-283.4v14.8"/>
	<path class="st0" d="M58-285.6v19.2"/>
	<path class="st0" d="M66.3-285.3v18.6"/>
	<path class="st0" d="M74.5-285v18"/>
	<path class="st0" d="M82.8-280v7.9"/>
	<path class="st0" d="M91-279.9v7.8"/>
	<path class="st0" d="M99.3-279.8v7.6"/>
	<path class="st0" d="M107.6-290.7v29.4"/>
	<path class="st0" d="M115.8-289.6v27.3"/>
	<path class="st0" d="M124.1-290.1v28.2"/>
	<path class="st0" d="M132.3-290.6v29.1"/>
	<path class="st0" d="M140.6-286.2v20.4"/>
	<path class="st0" d="M148.8-283.1v14.1"/>
	<path class="st0" d="M157.1-278.4v4.7"/>
	<path class="st0" d="M165.4-276.8v1.7"/>
	<path class="st0" d="M173.6-284.4v16.7"/>
	<path class="st0" d="M181.9-285.7v19.4"/>
	<path class="st0" d="M190.1-287v22"/>
	<path class="st0" d="M198.4-284.7v17.4"/>
	<path class="st0" d="M206.7-284.2v16.4"/>
	<path class="st0" d="M214.9-283.9v15.7"/>
	<path class="st0" d="M223.2-284v16"/>
	<path class="st0" d="M231.4-286.7v21.4"/>
	<path class="st0" d="M239.7-285.7v19.5"/>
	<path class="st0" d="M248-284.8v17.6"/>
	<path class="st0" d="M256.2-285.7v19.4"/>
	<path class="st0" d="M264.5-285.3v18.6"/>
	<path class="st0" d="M272.7-284.3v16.6"/>
	<path class="st0" d="M281-283.7v15.4"/>
	<path class="st0" d="M289.3-279.4v6.8"/>
	<path class="st0" d="M297.5-278.3v4.6"/>
	<path class="st0" d="M305.8-277.2v2.3"/>
	<path class="st0" d="M314-277v2"/>
	<path class="st0" d="M322.3-276.7v1.5"/>
	<path class="st0" d="M330.6-276.6v1.1"/>
	<path class="st0" d="M338.8-276.4v0.7"/>
	<path class="st0" d="M347.1-276.2v0.5"/>
	<path class="st0" d="M355.3-276.4v0.8"/>
	<path class="st0" d="M363.6-276.6v1.2"/>
	<path class="st0" d="M371.8-284.5v17.1"/>
	<path class="st0" d="M380.1-284.1v16.1"/>
	<path class="st0" d="M388.4-283.5v15"/>
	<path class="st0" d="M396.6-282.9v13.9"/>
	<path class="st0" d="M404.9-281.1v10.3"/>
	<path class="st0" d="M413.1-279.3v6.6"/>
	<path class="st0" d="M421.4-277.3v2.6"/>
	<path class="st0" d="M429.7-277.2v2.3"/>
	<path class="st0" d="M437.9-276.4v0.7"/>
	<path class="st0" d="M446.2-276.3v0.6"/>
	<path class="st0" d="M454.4-276.2v0.5"/>
	<path class="st0" d="M462.7-282.3v12.7"/>
	<path class="st0" d="M471-283.1v14.2"/>
	<path class="st0" d="M479.2-284.5v17"/>
	<path class="st0" d="M487.5-285.1v18.3"/>
	<path class="st0" d="M495.7-285.8v19.6"/>
	<path class="st0" d="M504-286.2v20.5"/>
	<path class="st0" d="M512.3-286.7v21.4"/>
	<path class="st0" d="M520.5-281.1v10.3"/>
	<path class="st0" d="M528.8-280.1v8.2"/>
	<path class="st0" d="M537-280.4v8.9"/>
	<path class="st0" d="M545.3-281.8v11.6"/>
	<path class="st0" d="M553.6-283.8v15.6"/>
	<path class="st0" d="M561.8-284.4v16.9"/>
	<path class="st0" d="M570.1-285.1v18.2"/>
	<path class="st0" d="M578.3-283.4v14.9"/>
	<path class="st0" d="M586.6-283.1v14.2"/>
	<path class="st0" d="M594.9-282.7v13.4"/>
	<path class="st0" d="M603.1-282.6v13.3"/>
	<path class="st0" d="M611.4-277.9v3.8"/>
	<path class="st0" d="M619.6-277.2v2.4"/>
	<path class="st0" d="M627.9-276.5v1"/>
	<path class="st0" d="M636.1-276.4v0.7"/>
	<path class="st0" d="M644.4-283.2v14.5"/>
	<path class="st0" d="M652.7-283.3v14.6"/>
	<path class="st0" d="M660.9-283.4v14.8"/>
	<path class="st0" d="M669.2-280v8"/>
	<path class="st0" d="M677.4-280.1v8.1"/>
	<path class="st0" d="M685.7-280.1v8.2"/>
	<path class="st0" d="M694-278.5v5.1"/>
	<path class="st0" d="M702.2-276.2v0.5"/>
	<path class="st0" d="M710.5-276.2v0.4"/>
	<path class="st0" d="M718.7-276.2v0.4"/>
	<path class="st0" d="M727-278.3v4.6"/>
	<path class="st0" d="M735.3-279.5v6.9"/>
	<path class="st0" d="M743.5-280.6v9.3"/>
	<path class="st0" d="M751.8-282.6v13.2"/>
	<path class="st0" d="M760-282.8v13.7"/>
	<path class="st0" d="M768.3-280.4v8.9"/>
	<path class="st0" d="M776.6-278v4.1"/>
	<path class="st0" d="M784.8-277.5v3"/>
	<path class="st0" d="M793.1-278.9v5.8"/>
	<path class="st0" d="M801.3-280v7.9"/>
	<path class="st0" d="M809.6-279.7v7.3"/>
	<path class="st0" d="M817.9-277.7v3.3"/>
	<path class="st0" d="M826.1-277.2v2.4"/>
	<path class="st0" d="M834.4-276.8v1.5"/>
	<path class="st0" d="M842.6-276.2v0.5"/>
	<path class="st0" d="M850.9-276.2v0.4"/>
	<path class="st0" d="M859.1-276.2v0.4"/>
	<path class="st0" d="M867.4-276.2v0.4"/>
	<path class="st0" d="M875.7-276.2v0.3"/>
	<path class="st0" d="M883.9-276.2v0.3"/>
	<path class="st0" d="M892.2-276.1v0.3"/>
	<path class="st0" d="M900.4-276.2v0.3"/>
	<path class="st0" d="M908.7-276.2v0.4"/>
	<path class="st0" d="M917-276.2v0.5"/>
	<path class="st0" d="M925.2-276.3v0.5"/>
	<path class="st0" d="M933.5-276.3v0.6"/>
	<path class="st0" d="M941.7-276.3v0.7"/>
	<path class="st0" d="M950-276.4v0.7"/>
	<path class="st0" d="M958.3-276.4v0.7"/>
	<path class="st0" d="M966.5-276.3v0.6"/>
	<path class="st0" d="M974.8-276.2v0.5"/>
	<path class="st0" d="M983-276.2v0.4"/>
	<path class="st0" d="M991.3-276.2v0.3"/>
	<path class="st0" d="M999.6-282.4v12.9"/>
	<path class="st0" d="M1007.8-284.4v16.8"/>
	<path class="st0" d="M1016.1-286.6v21.2"/>
	<path class="st0" d="M1024.3-287.8v23.6"/>
	<path class="st0" d="M1032.6-288.8v25.6"/>
	<path class="st0" d="M1040.9-289.4v26.7"/>
	<path class="st0" d="M1049.1-285.9v19.9"/>
	<path class="st0" d="M1057.4-280.5v9.1"/>
	<path class="st0" d="M1065.6-277.9v3.8"/>
	<path class="st0" d="M1073.9-277.2v2.4"/>
	<path class="st0" d="M1082.1-279.3v6.5"/>
	<path class="st0" d="M1090.4-283.6v15.3"/>
	<path class="st0" d="M1098.7-288v24.1"/>
	<path class="st0" d="M1106.9-287.9v23.9"/>
	<path class="st0" d="M1115.2-286.3v20.6"/>
	<path class="st0" d="M1123.4-285.9v19.8"/>
	<path class="st0" d="M1131.7-285.5v19"/>
	<path class="st0" d="M1140-282.4v12.7"/>
	<path class="st0" d="M1148.2-280.5v9"/>
	<path class="st0" d="M1156.5-288v24"/>
	<path class="st0" d="M1164.7-292.7v33.3"/>
	<path class="st0" d="M1173-289.8v27.6"/>
	<path class="st0" d="M1181.3-283.6v15.2"/>
	<path class="st0" d="M1189.5-287.2v22.5"/>
	<path class="st0" d="M1197.8-286.8v21.5"/>
	<path class="st0" d="M1206-286.3v20.6"/>
	<path class="st0" d="M1214.3-285.1v18.3"/>
	<path class="st0" d="M1222.6-284.8v17.6"/>
	<path class="st0" d="M1230.8-282.6v13.2"/>
	<path class="st0" d="M1239.1-280.3v8.7"/>
	<path class="st0" d="M1247.3-278.1v4.1"/>
	<path class="st0" d="M1255.6-277.4v2.8"/>
	<path class="st0" d="M1263.9-276.5v0.9"/>
	<path class="st0" d="M1272.1-280.7v9.3"/>
	<path class="st0" d="M1280.4-284v16.1"/>
	<path class="st0" d="M1288.6-287.4v22.8"/>
	<path class="st0" d="M1296.9-279.9v7.8"/>
	<path class="st0" d="M1305.1-278.5v5"/>
	<path class="st0" d="M1313.4-276.5v1.1"/>
	<path class="st0" d="M1321.7-276.4v0.8"/>
	<path class="st0" d="M1329.9-276.3v0.6"/>
	<path class="st0" d="M1338.2-276.2v0.4"/>
	<path class="st0" d="M1346.4-276.2v0.4"/>
	<path class="st0" d="M1354.7-279.6v7.2"/>
	<path class="st0" d="M1363-283.8v15.6"/>
	<path class="st0" d="M1371.2-284.6v17.1"/>
	<path class="st0" d="M1379.5-285.2v18.5"/>
	<path class="st0" d="M1387.7-286v20.1"/>
	<path class="st0" d="M1396-283.5v15.1"/>
</g>
</svg>
