<?xml version="1.0" encoding="utf-8"?>
<!-- Generator: Adobe Illustrator 22.0.0, SVG Export Plug-In . SVG Version: 6.00 Build 0)  -->
<svg version="1.1" id="Layer_1" xmlns="http://www.w3.org/2000/svg" xmlns:xlink="http://www.w3.org/1999/xlink" x="0px" y="0px"
	 viewBox="0 0 1400 180" style="enable-background:new 0 0 1400 180;" xml:space="preserve">
<style type="text/css">
	.st0{fill:none;stroke:#FFD040;stroke-width:3.3564;stroke-linecap:round;stroke-miterlimit:10;}
</style>
<g transform="scale(1,1)">
</g>
<g transform="translate(0,366)">
	<path class="st0" d="M0.6-276L0.6-276"/>
	<path class="st0" d="M7.7-278.2v4.3"/>
	<path class="st0" d="M14.9-281.8v11.6"/>
	<path class="st0" d="M22-279.9v7.8"/>
	<path class="st0" d="M29.2-288.9v25.8"/>
	<path class="st0" d="M36.3-309.1v66.2"/>
	<path class="st0" d="M43.5-289.6v27.3"/>
	<path class="st0" d="M50.6-280.3v8.6"/>
	<path class="st0" d="M57.8-291.8v31.6"/>
	<path class="st0" d="M64.9-290.6v29.2"/>
	<path class="st0" d="M72-282.6v13.3"/>
	<path class="st0" d="M79.2-296.3v40.6"/>
	<path class="st0" d="M86.3-298.3v44.6"/>
	<path class="st0" d="M93.5-288.6v25.3"/>
	<path class="st0" d="M100.6-279.9v7.7"/>
	<path class="st0" d="M107.8-280.6v9.2"/>
	<path class="st0" d="M114.9-283.1v14.3"/>
	<path class="st0" d="M122.1-289.7v27.5"/>
	<path class="st0" d="M129.2-286.1v20.2"/>
	<path class="st0" d="M136.4-282.6v13.3"/>
	<path class="st0" d="M143.5-287.6v23.2"/>
	<path class="st0" d="M150.7-284.6v17.1"/>
	<path class="st0" d="M157.8-280.8v9.6"/>
	<path class="st0" d="M164.9-285.1v18.1"/>
	<path class="st0" d="M172.1-289.3v26.5"/>
	<path class="st0" d="M179.2-293.1v34.2"/>
	<path class="st0" d="M186.4-289.6v27.3"/>
	<path class="st0" d="M193.5-279.2v6.4"/>
	<path class="st0" d="M200.7-278.2v4.5"/>
	<path class="st0" d="M207.8-277.7v3.4"/>
	<path class="st0" d="M215-279.5v6.9"/>
	<path class="st0" d="M222.1-283.8v15.6"/>
	<path class="st0" d="M229.3-284.1v16.2"/>
	<path class="st0" d="M236.4-283.7v15.4"/>
	<path class="st0" d="M243.5-283.2v14.4"/>
	<path class="st0" d="M250.7-281v9.9"/>
	<path class="st0" d="M257.8-283.9v15.7"/>
	<path class="st0" d="M265-286.3v20.7"/>
	<path class="st0" d="M272.1-281.3v10.6"/>
	<path class="st0" d="M279.3-276.9v1.7"/>
	<path class="st0" d="M286.4-276.7v1.4"/>
	<path class="st0" d="M293.6-276.6v1.1"/>
	<path class="st0" d="M300.7-276.6v1.2"/>
	<path class="st0" d="M307.9-276.5v1"/>
	<path class="st0" d="M315-276.4v0.9"/>
	<path class="st0" d="M322.1-276.3v0.6"/>
	<path class="st0" d="M329.3-276.4v0.8"/>
	<path class="st0" d="M336.4-276.4v0.7"/>
	<path class="st0" d="M343.6-276.3v0.7"/>
	<path class="st0" d="M350.7-276.4v0.9"/>
	<path class="st0" d="M357.9-276.3v0.7"/>
	<path class="st0" d="M365-276.3v0.7"/>
	<path class="st0" d="M372.2-276.3v0.7"/>
	<path class="st0" d="M379.3-278.1v4.2"/>
	<path class="st0" d="M386.5-284.5v17.1"/>
	<path class="st0" d="M393.6-289.3v26.5"/>
	<path class="st0" d="M400.8-288.3v24.6"/>
	<path class="st0" d="M407.9-290.3v28.6"/>
	<path class="st0" d="M415-289.9v27.8"/>
	<path class="st0" d="M422.2-290.8v29.7"/>
	<path class="st0" d="M429.3-284.1v16.1"/>
	<path class="st0" d="M436.5-285.1v18.3"/>
	<path class="st0" d="M443.6-284.1v16.3"/>
	<path class="st0" d="M450.8-281.4v10.7"/>
	<path class="st0" d="M457.9-281.7v11.5"/>
	<path class="st0" d="M465.1-281.5v11"/>
	<path class="st0" d="M472.2-278.5v5"/>
	<path class="st0" d="M479.4-280.5v9"/>
	<path class="st0" d="M486.5-280.6v9.1"/>
	<path class="st0" d="M493.6-280.1v8.1"/>
	<path class="st0" d="M500.8-283.2v14.4"/>
	<path class="st0" d="M507.9-281.8v11.7"/>
	<path class="st0" d="M515.1-278.2v4.5"/>
	<path class="st0" d="M522.2-276.7v1.5"/>
	<path class="st0" d="M529.4-276.4v0.8"/>
	<path class="st0" d="M536.5-276.3v0.5"/>
	<path class="st0" d="M543.7-276.3v0.6"/>
	<path class="st0" d="M550.8-288.2v24.5"/>
	<path class="st0" d="M558-286.1v20.2"/>
	<path class="st0" d="M565.1-284.8v17.7"/>
	<path class="st0" d="M572.2-283.8v15.6"/>
	<path class="st0" d="M579.4-286.8v21.6"/>
	<path class="st0" d="M586.5-284.6v17.2"/>
	<path class="st0" d="M593.7-282.8v13.6"/>
	<path class="st0" d="M600.8-282.4v12.8"/>
	<path class="st0" d="M608-285.2v18.4"/>
	<path class="st0" d="M615.1-281v10"/>
	<path class="st0" d="M622.3-278.9v5.8"/>
	<path class="st0" d="M629.4-276.6v1.2"/>
	<path class="st0" d="M636.6-278.5v5"/>
	<path class="st0" d="M643.7-284.5v16.9"/>
	<path class="st0" d="M650.8-284.7v17.5"/>
	<path class="st0" d="M658-281v10"/>
	<path class="st0" d="M665.1-278.9v5.8"/>
	<path class="st0" d="M672.3-280v8.1"/>
	<path class="st0" d="M679.4-282.3v12.6"/>
	<path class="st0" d="M686.6-306.8v61.7"/>
	<path class="st0" d="M693.7-311.3v70.7"/>
	<path class="st0" d="M700.9-295.4v38.7"/>
	<path class="st0" d="M708-284.4v16.7"/>
	<path class="st0" d="M715.2-288.4v24.8"/>
	<path class="st0" d="M722.3-306.9v61.8"/>
	<path class="st0" d="M729.5-297v41.9"/>
	<path class="st0" d="M736.6-288.2v24.5"/>
	<path class="st0" d="M743.7-287.2v22.4"/>
	<path class="st0" d="M750.9-286v20"/>
	<path class="st0" d="M758-285v17.9"/>
	<path class="st0" d="M765.2-282.3v12.6"/>
	<path class="st0" d="M772.3-278.8v5.7"/>
	<path class="st0" d="M779.5-276.8v1.5"/>
	<path class="st0" d="M786.6-290.8v29.6"/>
	<path class="st0" d="M793.8-295.5v38.9"/>
	<path class="st0" d="M800.9-292.1v32.1"/>
	<path class="st0" d="M808.1-283.5v14.9"/>
	<path class="st0" d="M815.2-281.5v10.9"/>
	<path class="st0" d="M822.3-285.7v19.4"/>
	<path class="st0" d="M829.5-287.8v23.5"/>
	<path class="st0" d="M836.6-283.6v15.1"/>
	<path class="st0" d="M843.8-286.8v21.5"/>
	<path class="st0" d="M850.9-289.5v27"/>
	<path class="st0" d="M858.1-288.6v25.3"/>
	<path class="st0" d="M865.2-286.9v21.8"/>
	<path class="st0" d="M872.4-284.6v17.3"/>
	<path class="st0" d="M879.5-284.6v17.2"/>
	<path class="st0" d="M886.7-283.1v14.1"/>
	<path class="st0" d="M893.8-281.1v10.2"/>
	<path class="st0" d="M900.9-278.7v5.4"/>
	<path class="st0" d="M908.1-276.8v1.6"/>
	<path class="st0" d="M915.2-281v9.9"/>
	<path class="st0" d="M922.4-287.6v23.1"/>
	<path class="st0" d="M929.5-285.1v18.2"/>
	<path class="st0" d="M936.7-281.6v11.3"/>
	<path class="st0" d="M943.8-287.8v23.7"/>
	<path class="st0" d="M951-287.2v22.5"/>
	<path class="st0" d="M958.1-281.3v10.6"/>
	<path class="st0" d="M965.3-279.7v7.4"/>
	<path class="st0" d="M972.4-285.6v19.1"/>
	<path class="st0" d="M979.6-286.1v20.1"/>
	<path class="st0" d="M986.7-284.5v16.9"/>
	<path class="st0" d="M993.8-283.7v15.4"/>
	<path class="st0" d="M1001-283.9v15.9"/>
	<path class="st0" d="M1008.1-283.7v15.4"/>
	<path class="st0" d="M1015.3-282.5v13.1"/>
	<path class="st0" d="M1022.4-280v8"/>
	<path class="st0" d="M1029.6-286.7v21.4"/>
	<path class="st0" d="M1036.7-288.2v24.4"/>
	<path class="st0" d="M1043.9-287.2v22.4"/>
	<path class="st0" d="M1051-283.8v15.6"/>
	<path class="st0" d="M1058.2-278.9v5.9"/>
	<path class="st0" d="M1065.3-276.9v1.8"/>
	<path class="st0" d="M1072.4-277.6v3.1"/>
	<path class="st0" d="M1079.6-280.5v9"/>
	<path class="st0" d="M1086.7-283.1v14.2"/>
	<path class="st0" d="M1093.9-280.7v9.4"/>
	<path class="st0" d="M1101-279.5v7"/>
	<path class="st0" d="M1108.2-282.4v12.8"/>
	<path class="st0" d="M1115.3-279.4v6.8"/>
	<path class="st0" d="M1122.5-278.6v5.1"/>
	<path class="st0" d="M1129.6-283.7v15.5"/>
	<path class="st0" d="M1136.8-285v18"/>
	<path class="st0" d="M1143.9-283.3v14.7"/>
	<path class="st0" d="M1151-279.3v6.6"/>
	<path class="st0" d="M1158.2-279.3v6.7"/>
	<path class="st0" d="M1165.3-281.2v10.3"/>
	<path class="st0" d="M1172.5-286.8v21.7"/>
	<path class="st0" d="M1179.6-287.8v23.6"/>
	<path class="st0" d="M1186.8-287.2v22.5"/>
	<path class="st0" d="M1193.9-288.2v24.4"/>
	<path class="st0" d="M1201.1-280.3v8.6"/>
	<path class="st0" d="M1208.2-279.5v7"/>
	<path class="st0" d="M1215.4-279.1v6.2"/>
	<path class="st0" d="M1222.5-278v4"/>
	<path class="st0" d="M1229.6-293.4v34.8"/>
	<path class="st0" d="M1236.8-294.7v37.3"/>
	<path class="st0" d="M1243.9-295.9v39.8"/>
	<path class="st0" d="M1251.1-298.7v45.5"/>
	<path class="st0" d="M1258.2-292.5v33.1"/>
	<path class="st0" d="M1265.4-280v8"/>
	<path class="st0" d="M1272.5-281.4v10.7"/>
	<path class="st0" d="M1279.7-297v42"/>
	<path class="st0" d="M1286.8-289.9v27.7"/>
	<path class="st0" d="M1294-282.1v12.2"/>
	<path class="st0" d="M1301.1-297.1v42.2"/>
	<path class="st0" d="M1308.3-294.3v36.7"/>
	<path class="st0" d="M1315.4-285.4v18.7"/>
	<path class="st0" d="M1322.5-280.2v8.3"/>
	<path class="st0" d="M1329.7-279.8v7.7"/>
	<path class="st0" d="M1336.8-279.4v6.7"/>
	<path class="st0" d="M1344-278.9v5.9"/>
	<path class="st0" d="M1351.1-278.9v5.8"/>
	<path class="st0" d="M1358.3-278.8v5.6"/>
	<path class="st0" d="M1365.4-278.9v5.8"/>
	<path class="st0" d="M1372.6-278.9v5.7"/>
	<path class="st0" d="M1379.7-282v12"/>
	<path class="st0" d="M1386.9-283.7v15.3"/>
	<path class="st0" d="M1394-277.4v2.7"/>
</g>
</svg>
