<?xml version="1.0" encoding="utf-8"?>
<!-- Generator: Adobe Illustrator 22.0.0, SVG Export Plug-In . SVG Version: 6.00 Build 0)  -->
<svg version="1.1" id="Layer_1" xmlns="http://www.w3.org/2000/svg" xmlns:xlink="http://www.w3.org/1999/xlink" x="0px" y="0px"
	 viewBox="0 0 1400 180" style="enable-background:new 0 0 1400 180;" xml:space="preserve">
<style type="text/css">
	.st0{fill:none;stroke:#FFD040;stroke-width:4.0729;stroke-linecap:round;stroke-miterlimit:10;}
</style>
<g transform="scale(1,1)">
</g>
<g transform="translate(0,366)">
	<path class="st0" d="M12.1-276L12.1-276"/>
	<path class="st0" d="M20.7-276L20.7-276"/>
	<path class="st0" d="M29.4-276.1v0.2"/>
	<path class="st0" d="M38-276.1v0.3"/>
	<path class="st0" d="M46.7-276.4v0.8"/>
	<path class="st0" d="M55.3-282v12"/>
	<path class="st0" d="M63.9-293.4v34.9"/>
	<path class="st0" d="M72.6-304.4v56.9"/>
	<path class="st0" d="M81.2-331.7v111.4"/>
	<path class="st0" d="M89.9-342.2v132.3"/>
	<path class="st0" d="M98.5-352.3v152.5"/>
	<path class="st0" d="M107.2-341.3v130.7"/>
	<path class="st0" d="M115.8-349v146"/>
	<path class="st0" d="M124.4-332.5v113.1"/>
	<path class="st0" d="M133.1-300.7v49.5"/>
	<path class="st0" d="M141.7-298v43.9"/>
	<path class="st0" d="M150.4-322.3v92.6"/>
	<path class="st0" d="M159-326.7v101.5"/>
	<path class="st0" d="M167.7-318.9v85.7"/>
	<path class="st0" d="M176.3-325.9v99.8"/>
	<path class="st0" d="M184.9-316.8v81.6"/>
	<path class="st0" d="M193.6-328.8v105.7"/>
	<path class="st0" d="M202.2-339.5v127.1"/>
	<path class="st0" d="M210.9-310.4v68.7"/>
	<path class="st0" d="M219.5-283.4v14.8"/>
	<path class="st0" d="M228.2-320.7v89.4"/>
	<path class="st0" d="M236.8-351.3v150.6"/>
	<path class="st0" d="M245.4-360.4v168.8"/>
	<path class="st0" d="M254.1-363.7v175.3"/>
	<path class="st0" d="M262.7-362.3v172.7"/>
	<path class="st0" d="M271.4-353.8v155.5"/>
	<path class="st0" d="M280-329.6v107.2"/>
	<path class="st0" d="M288.7-326.1v100.2"/>
	<path class="st0" d="M297.3-323.1v94.1"/>
	<path class="st0" d="M306-349.5v147"/>
	<path class="st0" d="M314.6-364.5v177.1"/>
	<path class="st0" d="M323.2-347.2v142.3"/>
	<path class="st0" d="M331.9-339.7v127.3"/>
	<path class="st0" d="M340.5-304.3v56.5"/>
	<path class="st0" d="M349.2-296.6v41.2"/>
	<path class="st0" d="M357.8-325.9v99.8"/>
	<path class="st0" d="M366.5-325.2v98.3"/>
	<path class="st0" d="M375.1-291.2v30.4"/>
	<path class="st0" d="M383.7-286.3v20.6"/>
	<path class="st0" d="M392.4-288.7v25.4"/>
	<path class="st0" d="M401-280v8.1"/>
	<path class="st0" d="M409.7-277.6v3.2"/>
	<path class="st0" d="M418.3-277.5v3.1"/>
	<path class="st0" d="M427-277.4v2.8"/>
	<path class="st0" d="M435.6-277.6v3.2"/>
	<path class="st0" d="M444.2-277.5v3.1"/>
	<path class="st0" d="M452.9-277v2"/>
	<path class="st0" d="M461.5-287.7v23.4"/>
	<path class="st0" d="M470.2-339.5v127.1"/>
	<path class="st0" d="M478.8-320.4v88.8"/>
	<path class="st0" d="M487.5-304.2v56.4"/>
	<path class="st0" d="M496.1-301.2v50.4"/>
	<path class="st0" d="M504.7-307.1v62.3"/>
	<path class="st0" d="M513.4-341.5v130.9"/>
	<path class="st0" d="M522-326.4v100.7"/>
	<path class="st0" d="M530.7-306.5v60.9"/>
	<path class="st0" d="M539.3-301v49.9"/>
	<path class="st0" d="M548-319.8v87.6"/>
	<path class="st0" d="M556.6-304.4v56.9"/>
	<path class="st0" d="M565.2-305v57.9"/>
	<path class="st0" d="M573.9-319.6v87.2"/>
	<path class="st0" d="M582.5-328.4v104.8"/>
	<path class="st0" d="M591.2-329.5v107.1"/>
	<path class="st0" d="M599.8-303.3v54.6"/>
	<path class="st0" d="M608.5-304.7v57.3"/>
	<path class="st0" d="M617.1-311.5v71.1"/>
	<path class="st0" d="M625.8-331.3v110.7"/>
	<path class="st0" d="M634.4-317.2v82.4"/>
	<path class="st0" d="M643-301.2v50.4"/>
	<path class="st0" d="M651.7-290.7v29.4"/>
	<path class="st0" d="M660.3-290.6v29.2"/>
	<path class="st0" d="M669-290.6v29.3"/>
	<path class="st0" d="M677.6-312.6v73.2"/>
	<path class="st0" d="M686.3-312.1v72.2"/>
	<path class="st0" d="M694.9-291.8v31.5"/>
	<path class="st0" d="M703.5-280.2v8.5"/>
	<path class="st0" d="M712.2-277.1v2.3"/>
	<path class="st0" d="M720.8-276.9v1.8"/>
	<path class="st0" d="M729.5-285v18"/>
	<path class="st0" d="M738.1-300v48.1"/>
	<path class="st0" d="M746.8-298v43.9"/>
	<path class="st0" d="M755.4-313.8v75.6"/>
	<path class="st0" d="M764-312.8v73.6"/>
	<path class="st0" d="M772.7-308.4v64.9"/>
	<path class="st0" d="M781.3-289v26"/>
	<path class="st0" d="M790-289v26"/>
	<path class="st0" d="M798.6-302.2v52.4"/>
	<path class="st0" d="M807.3-301.7v51.5"/>
	<path class="st0" d="M815.9-293.9v35.7"/>
	<path class="st0" d="M824.5-289.3v26.6"/>
	<path class="st0" d="M833.2-284.5v17"/>
	<path class="st0" d="M841.8-290.9v29.8"/>
	<path class="st0" d="M850.5-294.9v37.8"/>
	<path class="st0" d="M859.1-295.5v39.1"/>
	<path class="st0" d="M867.8-301.7v51.3"/>
	<path class="st0" d="M876.4-319.1v86.3"/>
	<path class="st0" d="M885-299.2v46.3"/>
	<path class="st0" d="M893.7-291.7v31.4"/>
	<path class="st0" d="M902.3-290.8v29.6"/>
	<path class="st0" d="M911-278.8v5.5"/>
	<path class="st0" d="M919.6-277.1v2.2"/>
	<path class="st0" d="M928.3-276.8v1.7"/>
	<path class="st0" d="M936.9-285v18.1"/>
	<path class="st0" d="M945.6-286.9v21.8"/>
	<path class="st0" d="M954.2-286.5v21"/>
	<path class="st0" d="M962.8-285.8v19.6"/>
	<path class="st0" d="M971.5-312.3v72.7"/>
	<path class="st0" d="M980.1-319.8v87.5"/>
	<path class="st0" d="M988.8-288.6v25.1"/>
	<path class="st0" d="M997.4-284v16"/>
	<path class="st0" d="M1006.1-282.1v12.1"/>
	<path class="st0" d="M1014.7-279.8v7.6"/>
	<path class="st0" d="M1023.3-280.2v8.4"/>
	<path class="st0" d="M1032-281.8v11.6"/>
	<path class="st0" d="M1040.6-278v3.9"/>
	<path class="st0" d="M1049.3-276.8v1.7"/>
	<path class="st0" d="M1057.9-277.2v2.4"/>
	<path class="st0" d="M1066.6-276.9v1.7"/>
	<path class="st0" d="M1075.2-276.6v1.2"/>
	<path class="st0" d="M1083.8-276.5v1"/>
	<path class="st0" d="M1092.5-277.6v3.1"/>
	<path class="st0" d="M1101.1-290v28"/>
	<path class="st0" d="M1109.8-290.7v29.4"/>
	<path class="st0" d="M1118.4-284.7v17.4"/>
	<path class="st0" d="M1127.1-298.8v45.6"/>
	<path class="st0" d="M1135.7-323.5v94.9"/>
	<path class="st0" d="M1144.3-308.2v64.5"/>
	<path class="st0" d="M1153-281.3v10.7"/>
	<path class="st0" d="M1161.6-297.9v43.8"/>
	<path class="st0" d="M1170.3-291.5v31"/>
	<path class="st0" d="M1178.9-281.7v11.4"/>
	<path class="st0" d="M1187.6-289.9v27.8"/>
	<path class="st0" d="M1196.2-295.9v39.9"/>
	<path class="st0" d="M1204.8-283v13.9"/>
	<path class="st0" d="M1213.5-279.9v7.9"/>
	<path class="st0" d="M1222.1-277.2v2.3"/>
	<path class="st0" d="M1230.8-276.5v1"/>
	<path class="st0" d="M1239.4-276.4v0.8"/>
	<path class="st0" d="M1248.1-276.4v0.8"/>
	<path class="st0" d="M1256.7-276.4v0.9"/>
	<path class="st0" d="M1265.4-276.4v0.8"/>
	<path class="st0" d="M1274-276.4v0.7"/>
	<path class="st0" d="M1282.6-276.3v0.6"/>
	<path class="st0" d="M1291.3-276.3v0.7"/>
	<path class="st0" d="M1299.9-276.3v0.6"/>
	<path class="st0" d="M1308.6-288.7v25.5"/>
	<path class="st0" d="M1317.2-301.8v51.6"/>
	<path class="st0" d="M1325.9-309.2v66.3"/>
	<path class="st0" d="M1334.5-332.9v113.9"/>
	<path class="st0" d="M1343.1-322v91.9"/>
	<path class="st0" d="M1351.8-297.7v43.3"/>
	<path class="st0" d="M1360.4-291.7v31.3"/>
	<path class="st0" d="M1369.1-316.2v80.3"/>
	<path class="st0" d="M1377.7-298.4v44.7"/>
	<path class="st0" d="M1386.4-289.9v27.9"/>
	<path class="st0" d="M1395-281v9.9"/>
</g>
</svg>
