<?xml version="1.0" encoding="utf-8"?>
<!-- Generator: Adobe Illustrator 22.0.0, SVG Export Plug-In . SVG Version: 6.00 Build 0)  -->
<svg version="1.1" id="Layer_1" xmlns="http://www.w3.org/2000/svg" xmlns:xlink="http://www.w3.org/1999/xlink" x="0px" y="0px"
	 viewBox="0 0 1400 180" style="enable-background:new 0 0 1400 180;" xml:space="preserve">
<style type="text/css">
	.st0{fill:none;stroke:#FFD040;stroke-width:4.0877;stroke-linecap:round;stroke-miterlimit:10;}
</style>
<g transform="scale(1,1)">
</g>
<g transform="translate(0,366)">
	<path class="st0" d="M1-312.5v73"/>
	<path class="st0" d="M9.2-286.9v21.9"/>
	<path class="st0" d="M17.4-304v56.1"/>
	<path class="st0" d="M25.5-318.4v84.9"/>
	<path class="st0" d="M33.7-326.9v101.9"/>
	<path class="st0" d="M41.9-302.5v53"/>
	<path class="st0" d="M50.1-337.9v123.8"/>
	<path class="st0" d="M58.2-309.3v66.7"/>
	<path class="st0" d="M66.4-321.3v90.7"/>
	<path class="st0" d="M74.6-317.3v82.6"/>
	<path class="st0" d="M82.8-307.2v62.5"/>
	<path class="st0" d="M90.9-293.8v35.6"/>
	<path class="st0" d="M99.1-277.7v3.4"/>
	<path class="st0" d="M107.3-277.6v3.2"/>
	<path class="st0" d="M115.5-303.2v54.4"/>
	<path class="st0" d="M123.6-310.1v68.2"/>
	<path class="st0" d="M131.8-312.2v72.5"/>
	<path class="st0" d="M140-319.7v87.4"/>
	<path class="st0" d="M148.2-299.8v47.6"/>
	<path class="st0" d="M156.3-321.7v91.4"/>
	<path class="st0" d="M164.5-314.9v77.9"/>
	<path class="st0" d="M172.7-315.2v78.3"/>
	<path class="st0" d="M180.9-293.7v35.4"/>
	<path class="st0" d="M189-310.9v69.8"/>
	<path class="st0" d="M197.2-294.3v36.5"/>
	<path class="st0" d="M205.4-302.7v53.4"/>
	<path class="st0" d="M213.6-281.8v11.5"/>
	<path class="st0" d="M221.7-278.3v4.6"/>
	<path class="st0" d="M229.9-305.6v59.3"/>
	<path class="st0" d="M238.1-320.1v88.2"/>
	<path class="st0" d="M246.3-311.7v71.4"/>
	<path class="st0" d="M254.4-333.1v114.2"/>
	<path class="st0" d="M262.6-337.4v122.7"/>
	<path class="st0" d="M270.8-317.8v83.5"/>
	<path class="st0" d="M279-319.7v87.5"/>
	<path class="st0" d="M287.1-310.4v68.9"/>
	<path class="st0" d="M295.3-284.9v17.8"/>
	<path class="st0" d="M303.5-289.1v26.2"/>
	<path class="st0" d="M311.7-301.5v50.9"/>
	<path class="st0" d="M319.8-312.8v73.6"/>
	<path class="st0" d="M328-313.9v75.8"/>
	<path class="st0" d="M336.2-313.1v74.3"/>
	<path class="st0" d="M344.4-326.2v100.4"/>
	<path class="st0" d="M352.5-314.7v77.3"/>
	<path class="st0" d="M360.7-301.6v51.2"/>
	<path class="st0" d="M368.9-302.2v52.4"/>
	<path class="st0" d="M377.1-302.9v53.8"/>
	<path class="st0" d="M385.2-305.8v59.6"/>
	<path class="st0" d="M393.4-293.6v35.3"/>
	<path class="st0" d="M401.6-300.3v48.7"/>
	<path class="st0" d="M409.8-289.6v27.2"/>
	<path class="st0" d="M417.9-306.2v60.3"/>
	<path class="st0" d="M426.1-288.4v24.8"/>
	<path class="st0" d="M434.3-283.6v15.1"/>
	<path class="st0" d="M442.5-298.3v44.6"/>
	<path class="st0" d="M450.6-313.1v74.1"/>
	<path class="st0" d="M458.8-302.9v53.9"/>
	<path class="st0" d="M467-322.6v93.3"/>
	<path class="st0" d="M475.2-318.1v84.3"/>
	<path class="st0" d="M483.4-310.6v69.1"/>
	<path class="st0" d="M491.5-297.3v42.6"/>
	<path class="st0" d="M499.7-323.1v94.2"/>
	<path class="st0" d="M507.9-328.5v104.9"/>
	<path class="st0" d="M516.1-290.1v28.1"/>
	<path class="st0" d="M524.2-280v8"/>
	<path class="st0" d="M532.4-297.4v42.8"/>
	<path class="st0" d="M540.6-312.4v72.9"/>
	<path class="st0" d="M548.8-315.4v78.8"/>
	<path class="st0" d="M556.9-297v42"/>
	<path class="st0" d="M565.1-307.7v63.5"/>
	<path class="st0" d="M573.3-294.3v36.7"/>
	<path class="st0" d="M581.5-306.1v60.3"/>
	<path class="st0" d="M589.6-294.1v36.2"/>
	<path class="st0" d="M597.8-289.5v27.1"/>
	<path class="st0" d="M606-293.6v35.2"/>
	<path class="st0" d="M614.2-297.4v42.8"/>
	<path class="st0" d="M622.3-295.2v38.3"/>
	<path class="st0" d="M630.5-293v34"/>
	<path class="st0" d="M638.7-299.4v46.8"/>
	<path class="st0" d="M646.9-299.8v47.7"/>
	<path class="st0" d="M655-295.6v39.3"/>
	<path class="st0" d="M663.2-308.1v64.3"/>
	<path class="st0" d="M671.4-314v76.1"/>
	<path class="st0" d="M679.6-282.3v12.6"/>
	<path class="st0" d="M687.7-282.3v12.5"/>
	<path class="st0" d="M695.9-317.5v82.9"/>
	<path class="st0" d="M704.1-307.1v62.3"/>
	<path class="st0" d="M712.3-321.7v91.4"/>
	<path class="st0" d="M720.4-343.3v134.5"/>
	<path class="st0" d="M728.6-324.5v97"/>
	<path class="st0" d="M736.8-325.9v99.9"/>
	<path class="st0" d="M745-303.5v54.9"/>
	<path class="st0" d="M753.1-321.9v91.7"/>
	<path class="st0" d="M761.3-336.1v120.3"/>
	<path class="st0" d="M769.5-338.2v124.5"/>
	<path class="st0" d="M777.7-315.5v79"/>
	<path class="st0" d="M785.8-319.8v87.7"/>
	<path class="st0" d="M794-302.7v53.4"/>
	<path class="st0" d="M802.2-288.9v25.7"/>
	<path class="st0" d="M810.4-294.6v37.2"/>
	<path class="st0" d="M818.5-285.2v18.5"/>
	<path class="st0" d="M826.7-296.6v41.1"/>
	<path class="st0" d="M834.9-286.1v20.2"/>
	<path class="st0" d="M843.1-283.3v14.6"/>
	<path class="st0" d="M851.2-282.6v13.3"/>
	<path class="st0" d="M859.4-278.8v5.5"/>
	<path class="st0" d="M867.6-278.6v5.3"/>
	<path class="st0" d="M875.8-277.6v3.1"/>
	<path class="st0" d="M883.9-316.3v80.7"/>
	<path class="st0" d="M892.1-316v80"/>
	<path class="st0" d="M900.3-330.7v109.4"/>
	<path class="st0" d="M908.5-304.6v57.3"/>
	<path class="st0" d="M916.6-285.8v19.6"/>
	<path class="st0" d="M924.8-326.4v100.8"/>
	<path class="st0" d="M933-298.5v45.1"/>
	<path class="st0" d="M941.2-317.7v83.4"/>
	<path class="st0" d="M949.4-287.4v22.7"/>
	<path class="st0" d="M957.5-278.6v5.2"/>
	<path class="st0" d="M965.7-292.4v32.8"/>
	<path class="st0" d="M973.9-305.9v59.8"/>
	<path class="st0" d="M982.1-326.2v100.3"/>
	<path class="st0" d="M990.2-324.2v96.4"/>
	<path class="st0" d="M998.4-326.6v101.3"/>
	<path class="st0" d="M1006.6-313.1v74.2"/>
	<path class="st0" d="M1014.8-294.7v37.3"/>
	<path class="st0" d="M1022.9-287.5v23"/>
	<path class="st0" d="M1031.1-278.8v5.6"/>
	<path class="st0" d="M1039.3-277.6v3.2"/>
	<path class="st0" d="M1047.5-335.5v119"/>
	<path class="st0" d="M1055.6-299.8v47.6"/>
	<path class="st0" d="M1063.8-289.6v27.1"/>
	<path class="st0" d="M1072-304.8v57.6"/>
	<path class="st0" d="M1080.2-291.4v30.7"/>
	<path class="st0" d="M1088.3-305.2v58.3"/>
	<path class="st0" d="M1096.5-317.8v83.6"/>
	<path class="st0" d="M1104.7-324v96.1"/>
	<path class="st0" d="M1112.9-299.8v47.7"/>
	<path class="st0" d="M1121-293.3v34.6"/>
	<path class="st0" d="M1129.2-286.1v20.2"/>
	<path class="st0" d="M1137.4-291.5v31.1"/>
	<path class="st0" d="M1145.6-294.4v36.8"/>
	<path class="st0" d="M1153.7-285.7v19.3"/>
	<path class="st0" d="M1161.9-297.1v42.3"/>
	<path class="st0" d="M1170.1-284v16"/>
	<path class="st0" d="M1178.3-278.4v4.8"/>
	<path class="st0" d="M1186.4-298.9v45.7"/>
	<path class="st0" d="M1194.6-311.9v71.9"/>
	<path class="st0" d="M1202.8-347.7v143.5"/>
	<path class="st0" d="M1211-332.4v112.7"/>
	<path class="st0" d="M1219.1-320.7v89.4"/>
	<path class="st0" d="M1227.3-303v53.9"/>
	<path class="st0" d="M1235.5-298.8v45.5"/>
	<path class="st0" d="M1243.7-290.7v29.3"/>
	<path class="st0" d="M1251.8-298.1v44.3"/>
	<path class="st0" d="M1260-294.5v37"/>
	<path class="st0" d="M1268.2-289.2v26.3"/>
	<path class="st0" d="M1276.4-294.2v36.3"/>
	<path class="st0" d="M1284.5-317.1v82.2"/>
	<path class="st0" d="M1292.7-299.2v46.4"/>
	<path class="st0" d="M1300.9-292.7v33.3"/>
	<path class="st0" d="M1309.1-302.7v53.5"/>
	<path class="st0" d="M1317.2-294.6v37.1"/>
	<path class="st0" d="M1325.4-278.5v5.1"/>
	<path class="st0" d="M1333.6-278.6v5.2"/>
	<path class="st0" d="M1341.8-288.1v24.1"/>
	<path class="st0" d="M1349.9-309.3v66.7"/>
	<path class="st0" d="M1358.1-299.6v47.1"/>
	<path class="st0" d="M1366.3-298.2v44.5"/>
	<path class="st0" d="M1374.5-287.6v23.2"/>
	<path class="st0" d="M1382.6-285.7v19.3"/>
	<path class="st0" d="M1390.8-279v6"/>
	<path class="st0" d="M1399-277.2v2.4"/>
</g>
</svg>
