<?xml version="1.0" encoding="utf-8"?>
<!-- Generator: Adobe Illustrator 22.0.0, SVG Export Plug-In . SVG Version: 6.00 Build 0)  -->
<svg version="1.1" id="Layer_1" xmlns="http://www.w3.org/2000/svg" xmlns:xlink="http://www.w3.org/1999/xlink" x="0px" y="0px"
	 viewBox="0 0 1400 180" style="enable-background:new 0 0 1400 180;" xml:space="preserve">
<style type="text/css">
	.st0{fill:none;stroke:#FFD040;stroke-width:3.6931;stroke-linecap:round;stroke-miterlimit:10;}
</style>
<g transform="scale(1,1)">
</g>
<g transform="translate(0,366)">
	<path class="st0" d="M2-276.2v0.4"/>
	<path class="st0" d="M9.4-298.8v45.6"/>
	<path class="st0" d="M16.8-328.6v105.1"/>
	<path class="st0" d="M24.2-308.5v65"/>
	<path class="st0" d="M31.5-294.8v37.7"/>
	<path class="st0" d="M38.9-317.1v82.2"/>
	<path class="st0" d="M46.3-303.8v55.7"/>
	<path class="st0" d="M53.7-289v25.9"/>
	<path class="st0" d="M61.1-306.4v60.8"/>
	<path class="st0" d="M68.5-292.4v32.8"/>
	<path class="st0" d="M75.9-293.9v35.8"/>
	<path class="st0" d="M83.2-323.4v94.9"/>
	<path class="st0" d="M90.6-291.4v30.9"/>
	<path class="st0" d="M98-307.2v62.3"/>
	<path class="st0" d="M105.4-301.5v51"/>
	<path class="st0" d="M112.8-295.1v38.2"/>
	<path class="st0" d="M120.2-288.8v25.7"/>
	<path class="st0" d="M127.6-300.6v49.2"/>
	<path class="st0" d="M135-284.3v16.6"/>
	<path class="st0" d="M142.3-306.5v60.9"/>
	<path class="st0" d="M149.7-295.4v38.8"/>
	<path class="st0" d="M157.1-292.6v33.2"/>
	<path class="st0" d="M164.5-280.4v8.8"/>
	<path class="st0" d="M171.9-277.9v3.9"/>
	<path class="st0" d="M179.3-288.8v25.7"/>
	<path class="st0" d="M186.7-291.8v31.5"/>
	<path class="st0" d="M194-287.5v23.1"/>
	<path class="st0" d="M201.4-287v21.9"/>
	<path class="st0" d="M208.8-290v28"/>
	<path class="st0" d="M216.2-290.2v28.4"/>
	<path class="st0" d="M223.6-287.9v23.8"/>
	<path class="st0" d="M231-293.6v35.3"/>
	<path class="st0" d="M238.4-282.7v13.3"/>
	<path class="st0" d="M245.7-289.7v27.4"/>
	<path class="st0" d="M253.1-296v40"/>
	<path class="st0" d="M260.5-291.6v31.2"/>
	<path class="st0" d="M267.9-289.5v27"/>
	<path class="st0" d="M275.3-291v29.9"/>
	<path class="st0" d="M282.7-291.6v31.3"/>
	<path class="st0" d="M290.1-301.2v50.5"/>
	<path class="st0" d="M297.4-286.3v20.7"/>
	<path class="st0" d="M304.8-288.3v24.7"/>
	<path class="st0" d="M312.2-294.9v37.9"/>
	<path class="st0" d="M319.6-293.7v35.4"/>
	<path class="st0" d="M327-289.9v27.9"/>
	<path class="st0" d="M334.4-288.9v25.9"/>
	<path class="st0" d="M341.8-293.5v35"/>
	<path class="st0" d="M349.2-294.1v36.2"/>
	<path class="st0" d="M356.5-287v22"/>
	<path class="st0" d="M363.9-286.9v21.9"/>
	<path class="st0" d="M371.3-289.1v26.2"/>
	<path class="st0" d="M378.7-284.4v16.9"/>
	<path class="st0" d="M386.1-277.7v3.3"/>
	<path class="st0" d="M393.5-277.4v2.8"/>
	<path class="st0" d="M400.9-277.9v3.7"/>
	<path class="st0" d="M408.2-299.9v47.9"/>
	<path class="st0" d="M415.6-298.9v45.8"/>
	<path class="st0" d="M423-302v51.9"/>
	<path class="st0" d="M430.4-332.5v113"/>
	<path class="st0" d="M437.8-297.1v42.1"/>
	<path class="st0" d="M445.2-315v78"/>
	<path class="st0" d="M452.6-300.3v48.5"/>
	<path class="st0" d="M459.9-291.8v31.5"/>
	<path class="st0" d="M467.3-284.2v16.5"/>
	<path class="st0" d="M474.7-278.4v4.7"/>
	<path class="st0" d="M482.1-287.2v22.4"/>
	<path class="st0" d="M489.5-345.7v139.4"/>
	<path class="st0" d="M496.9-335.5v119"/>
	<path class="st0" d="M504.3-312.1v72.2"/>
	<path class="st0" d="M511.7-293.8v35.7"/>
	<path class="st0" d="M519-293.2v34.5"/>
	<path class="st0" d="M526.4-292.5v33"/>
	<path class="st0" d="M533.8-294.4v36.8"/>
	<path class="st0" d="M541.2-291.5v31"/>
	<path class="st0" d="M548.6-286.4v20.8"/>
	<path class="st0" d="M556-305.4v58.7"/>
	<path class="st0" d="M563.4-285.5v19.1"/>
	<path class="st0" d="M570.7-277.3v2.6"/>
	<path class="st0" d="M578.1-308.1v64.1"/>
	<path class="st0" d="M585.5-280.8v9.6"/>
	<path class="st0" d="M592.9-279.9v7.8"/>
	<path class="st0" d="M600.3-323.1v94.1"/>
	<path class="st0" d="M607.7-314.9v77.9"/>
	<path class="st0" d="M615.1-300.6v49.3"/>
	<path class="st0" d="M622.4-299v45.9"/>
	<path class="st0" d="M629.8-309v66.1"/>
	<path class="st0" d="M637.2-297.8v43.6"/>
	<path class="st0" d="M644.6-300.2v48.4"/>
	<path class="st0" d="M652-306.4v60.9"/>
	<path class="st0" d="M659.4-303v54"/>
	<path class="st0" d="M666.8-310.1v68.1"/>
	<path class="st0" d="M674.1-282v11.9"/>
	<path class="st0" d="M681.5-294v36"/>
	<path class="st0" d="M688.9-299.2v46.4"/>
	<path class="st0" d="M696.3-299.2v46.5"/>
	<path class="st0" d="M703.7-288v24"/>
	<path class="st0" d="M711.1-284.9v17.7"/>
	<path class="st0" d="M718.5-286.6v21.2"/>
	<path class="st0" d="M725.9-293.1v34.3"/>
	<path class="st0" d="M733.2-287.2v22.4"/>
	<path class="st0" d="M740.6-290.1v28.3"/>
	<path class="st0" d="M748-277.4v2.8"/>
	<path class="st0" d="M755.4-299.5v47"/>
	<path class="st0" d="M762.8-295v38"/>
	<path class="st0" d="M770.2-307.1v62.1"/>
	<path class="st0" d="M777.6-341.8v131.6"/>
	<path class="st0" d="M784.9-342.8v133.7"/>
	<path class="st0" d="M792.3-319.8v87.6"/>
	<path class="st0" d="M799.7-310.1v68.3"/>
	<path class="st0" d="M807.1-296.3v40.5"/>
	<path class="st0" d="M814.5-298.6v45.2"/>
	<path class="st0" d="M821.9-289.7v27.4"/>
	<path class="st0" d="M829.3-280.6v9.2"/>
	<path class="st0" d="M836.6-293v34"/>
	<path class="st0" d="M844-322.9v93.7"/>
	<path class="st0" d="M851.4-302.4v52.9"/>
	<path class="st0" d="M858.8-319.3v86.7"/>
	<path class="st0" d="M866.2-307.1v62.1"/>
	<path class="st0" d="M873.6-318.4v84.7"/>
	<path class="st0" d="M881-300.5v48.9"/>
	<path class="st0" d="M888.3-311.4v70.8"/>
	<path class="st0" d="M895.7-290v28"/>
	<path class="st0" d="M903.1-292.1v32.2"/>
	<path class="st0" d="M910.5-289.9v27.7"/>
	<path class="st0" d="M917.9-301.6v51.2"/>
	<path class="st0" d="M925.3-279.3v6.7"/>
	<path class="st0" d="M932.7-315.2v78.3"/>
	<path class="st0" d="M940.1-336.3v120.5"/>
	<path class="st0" d="M947.4-310v68"/>
	<path class="st0" d="M954.8-319.5v86.9"/>
	<path class="st0" d="M962.2-291.2v30.4"/>
	<path class="st0" d="M969.6-287.2v22.5"/>
	<path class="st0" d="M977-281.1v10.2"/>
	<path class="st0" d="M984.4-290.7v29.5"/>
	<path class="st0" d="M991.8-312v71.9"/>
	<path class="st0" d="M999.1-294.9v37.7"/>
	<path class="st0" d="M1006.5-311.8v71.6"/>
	<path class="st0" d="M1013.9-295.5v38.9"/>
	<path class="st0" d="M1021.3-295.2v38.5"/>
	<path class="st0" d="M1028.7-289.2v26.3"/>
	<path class="st0" d="M1036.1-301.4v50.8"/>
	<path class="st0" d="M1043.5-285.2v18.3"/>
	<path class="st0" d="M1050.8-283.6v15.3"/>
	<path class="st0" d="M1058.2-279.3v6.6"/>
	<path class="st0" d="M1065.6-286.1v20.3"/>
	<path class="st0" d="M1073-310v67.9"/>
	<path class="st0" d="M1080.4-313.7v75.5"/>
	<path class="st0" d="M1087.8-315.9v79.8"/>
	<path class="st0" d="M1095.2-291.3v30.6"/>
	<path class="st0" d="M1102.6-297.8v43.7"/>
	<path class="st0" d="M1109.9-315.9v79.8"/>
	<path class="st0" d="M1117.3-295.3v38.7"/>
	<path class="st0" d="M1124.7-282.4v12.8"/>
	<path class="st0" d="M1132.1-290.7v29.5"/>
	<path class="st0" d="M1139.5-315.2v78.4"/>
	<path class="st0" d="M1146.9-291.4v30.9"/>
	<path class="st0" d="M1154.3-288.1v24.3"/>
	<path class="st0" d="M1161.6-294.2v36.4"/>
	<path class="st0" d="M1169-296.1v40.3"/>
	<path class="st0" d="M1176.4-286.2v20.4"/>
	<path class="st0" d="M1183.8-295.6v39.2"/>
	<path class="st0" d="M1191.2-310.7v69.4"/>
	<path class="st0" d="M1198.6-306.9v61.9"/>
	<path class="st0" d="M1206-295.7v39.4"/>
	<path class="st0" d="M1213.3-278.4v4.8"/>
	<path class="st0" d="M1220.7-341.7v131.5"/>
	<path class="st0" d="M1228.1-316.8v81.5"/>
	<path class="st0" d="M1235.5-314.3v76.6"/>
	<path class="st0" d="M1242.9-297.4v42.7"/>
	<path class="st0" d="M1250.3-288.3v24.6"/>
	<path class="st0" d="M1257.7-299.5v47.1"/>
	<path class="st0" d="M1265-285.8v19.5"/>
	<path class="st0" d="M1272.4-289.7v27.3"/>
	<path class="st0" d="M1279.8-277.4v2.9"/>
	<path class="st0" d="M1287.2-285.6v19.1"/>
	<path class="st0" d="M1294.6-285.3v18.6"/>
	<path class="st0" d="M1302-280.2v8.4"/>
	<path class="st0" d="M1309.4-299.7v47.5"/>
	<path class="st0" d="M1316.8-290.7v29.3"/>
	<path class="st0" d="M1324.1-279.9v7.9"/>
	<path class="st0" d="M1331.5-305v58.1"/>
	<path class="st0" d="M1338.9-283.6v15.2"/>
	<path class="st0" d="M1346.3-300.4v48.8"/>
	<path class="st0" d="M1353.7-295.3v38.5"/>
	<path class="st0" d="M1361.1-297.6v43.2"/>
	<path class="st0" d="M1368.5-288.5v25.1"/>
	<path class="st0" d="M1375.8-303.4v54.8"/>
	<path class="st0" d="M1383.2-293.4v34.7"/>
	<path class="st0" d="M1390.6-279.4v6.9"/>
	<path class="st0" d="M1398-276.6v1.1"/>
</g>
</svg>
