<?xml version="1.0" encoding="utf-8"?>
<!-- Generator: Adobe Illustrator 22.0.0, SVG Export Plug-In . SVG Version: 6.00 Build 0)  -->
<svg version="1.1" id="Layer_1" xmlns="http://www.w3.org/2000/svg" xmlns:xlink="http://www.w3.org/1999/xlink" x="0px" y="0px"
	 viewBox="0 0 1400 180" style="enable-background:new 0 0 1400 180;" xml:space="preserve">
<style type="text/css">
	.st0{fill:none;stroke:#FFD040;stroke-width:3.1395;stroke-linecap:round;stroke-miterlimit:10;}
</style>
<g transform="scale(1,1)">
</g>
<g transform="translate(0,366)">
	<path class="st0" d="M0-276L0-276"/>
	<path class="st0" d="M6.7-276.2v0.4"/>
	<path class="st0" d="M13.4-288.2v24.5"/>
	<path class="st0" d="M20.1-295.9v39.8"/>
	<path class="st0" d="M26.8-294.5v37.1"/>
	<path class="st0" d="M33.5-293.8v35.5"/>
	<path class="st0" d="M40.2-286.9v21.9"/>
	<path class="st0" d="M46.9-284.6v17.2"/>
	<path class="st0" d="M53.6-282.2v12.4"/>
	<path class="st0" d="M60.3-278v4"/>
	<path class="st0" d="M67-276.3v0.6"/>
	<path class="st0" d="M73.7-276.3v0.6"/>
	<path class="st0" d="M80.4-277.8v3.7"/>
	<path class="st0" d="M87.1-299.3v46.6"/>
	<path class="st0" d="M93.8-287.6v23.2"/>
	<path class="st0" d="M100.5-283.6v15.3"/>
	<path class="st0" d="M107.2-285.2v18.4"/>
	<path class="st0" d="M113.9-277.1v2.1"/>
	<path class="st0" d="M120.6-277.2v2.4"/>
	<path class="st0" d="M127.3-294.9v37.7"/>
	<path class="st0" d="M134-295.6v39.2"/>
	<path class="st0" d="M140.7-283.2v14.3"/>
	<path class="st0" d="M147.4-297.1v42.2"/>
	<path class="st0" d="M154.1-336.3v120.5"/>
	<path class="st0" d="M160.8-342.7v133.3"/>
	<path class="st0" d="M167.5-325.1v98.1"/>
	<path class="st0" d="M174.2-325.3v98.6"/>
	<path class="st0" d="M180.9-333v114"/>
	<path class="st0" d="M187.6-307.1v62.3"/>
	<path class="st0" d="M194.3-303.9v55.8"/>
	<path class="st0" d="M201-319.4v86.7"/>
	<path class="st0" d="M207.7-280.3v8.6"/>
	<path class="st0" d="M214.4-276.8v1.6"/>
	<path class="st0" d="M221.1-330V-222"/>
	<path class="st0" d="M227.8-317.8v83.5"/>
	<path class="st0" d="M234.4-336v120"/>
	<path class="st0" d="M241.1-311.3v70.6"/>
	<path class="st0" d="M247.8-326.7v101.3"/>
	<path class="st0" d="M254.5-304.9v57.8"/>
	<path class="st0" d="M261.2-296.6v41.2"/>
	<path class="st0" d="M267.9-298.3v44.5"/>
	<path class="st0" d="M274.6-309.3v66.5"/>
	<path class="st0" d="M281.3-326.9v101.9"/>
	<path class="st0" d="M288-286.7v21.4"/>
	<path class="st0" d="M294.7-308.4v64.8"/>
	<path class="st0" d="M301.4-303.1v54.2"/>
	<path class="st0" d="M308.1-305.7v59.3"/>
	<path class="st0" d="M314.8-296.4v40.8"/>
	<path class="st0" d="M321.5-278.3v4.6"/>
	<path class="st0" d="M328.2-277.2v2.4"/>
	<path class="st0" d="M334.9-307.2v62.4"/>
	<path class="st0" d="M341.6-318.4v84.8"/>
	<path class="st0" d="M348.3-316.9v81.8"/>
	<path class="st0" d="M355-312.5v73.1"/>
	<path class="st0" d="M361.7-289.9v27.8"/>
	<path class="st0" d="M368.4-277.6v3.2"/>
	<path class="st0" d="M375.1-292.7v33.4"/>
	<path class="st0" d="M381.8-299.2v46.4"/>
	<path class="st0" d="M388.5-276.9v1.8"/>
	<path class="st0" d="M395.2-292.4v32.9"/>
	<path class="st0" d="M401.9-330.1v108.2"/>
	<path class="st0" d="M408.6-323.8v95.7"/>
	<path class="st0" d="M415.3-334.2v116.3"/>
	<path class="st0" d="M422-303.5v55"/>
	<path class="st0" d="M428.7-277.4v2.9"/>
	<path class="st0" d="M435.4-316.6v81.2"/>
	<path class="st0" d="M442.1-323.7v95.4"/>
	<path class="st0" d="M448.8-323.9v95.9"/>
	<path class="st0" d="M455.5-330.8v109.7"/>
	<path class="st0" d="M462.2-309.5v67.1"/>
	<path class="st0" d="M468.9-316.6v81.2"/>
	<path class="st0" d="M475.6-326.6v101.2"/>
	<path class="st0" d="M482.3-305.2v58.3"/>
	<path class="st0" d="M489-314.2v76.3"/>
	<path class="st0" d="M495.7-282.4v12.8"/>
	<path class="st0" d="M502.4-288.5v25"/>
	<path class="st0" d="M509.1-315.9v79.9"/>
	<path class="st0" d="M515.8-334.1v116.3"/>
	<path class="st0" d="M522.5-329.3v106.5"/>
	<path class="st0" d="M529.2-281.5v10.9"/>
	<path class="st0" d="M535.9-276.9v1.8"/>
	<path class="st0" d="M542.6-276.6v1.3"/>
	<path class="st0" d="M549.3-276.7v1.4"/>
	<path class="st0" d="M556-278.5v5"/>
	<path class="st0" d="M562.7-318.8v85.6"/>
	<path class="st0" d="M569.4-348.5v145"/>
	<path class="st0" d="M576.1-349.4v146.9"/>
	<path class="st0" d="M582.8-325.2v98.4"/>
	<path class="st0" d="M589.5-327v102"/>
	<path class="st0" d="M596.2-287.5v23"/>
	<path class="st0" d="M602.9-277.5v2.9"/>
	<path class="st0" d="M609.6-279.9v7.7"/>
	<path class="st0" d="M616.3-324.1v96.1"/>
	<path class="st0" d="M623-293.5v35"/>
	<path class="st0" d="M629.7-291.6v31.2"/>
	<path class="st0" d="M636.4-332.1v112.3"/>
	<path class="st0" d="M643.1-342.8v133.5"/>
	<path class="st0" d="M649.8-317.3v82.5"/>
	<path class="st0" d="M656.5-279.2v6.3"/>
	<path class="st0" d="M663.2-304.7v57.5"/>
	<path class="st0" d="M669.9-335v118"/>
	<path class="st0" d="M676.6-329.7v107.3"/>
	<path class="st0" d="M683.3-315.7v79.3"/>
	<path class="st0" d="M690-332.8v113.6"/>
	<path class="st0" d="M696.7-321.6v91.3"/>
	<path class="st0" d="M703.3-282.9v13.8"/>
	<path class="st0" d="M710-315v78"/>
	<path class="st0" d="M716.7-313.6v75.2"/>
	<path class="st0" d="M723.4-305.1v58.3"/>
	<path class="st0" d="M730.1-308.2v64.4"/>
	<path class="st0" d="M736.8-279.1v6.1"/>
	<path class="st0" d="M743.5-305v57.9"/>
	<path class="st0" d="M750.2-285.9v19.8"/>
	<path class="st0" d="M756.9-337V-215"/>
	<path class="st0" d="M763.6-292.6v33.2"/>
	<path class="st0" d="M770.3-307.3v62.7"/>
	<path class="st0" d="M777-304.5v57"/>
	<path class="st0" d="M783.7-288.6v25.1"/>
	<path class="st0" d="M790.4-277.4v2.7"/>
	<path class="st0" d="M797.1-296.7v41.3"/>
	<path class="st0" d="M803.8-317.6v83.1"/>
	<path class="st0" d="M810.5-330.4v108.8"/>
	<path class="st0" d="M817.2-341.7v131.4"/>
	<path class="st0" d="M823.9-325.5v99.1"/>
	<path class="st0" d="M830.6-328.9v105.8"/>
	<path class="st0" d="M837.3-311.5v70.9"/>
	<path class="st0" d="M844-329.7v107.5"/>
	<path class="st0" d="M850.7-298.1v44.2"/>
	<path class="st0" d="M857.4-292.9v33.7"/>
	<path class="st0" d="M864.1-319.8v87.5"/>
	<path class="st0" d="M870.8-304.5v57"/>
	<path class="st0" d="M877.5-310.7v69.4"/>
	<path class="st0" d="M884.2-317.3v82.6"/>
	<path class="st0" d="M890.9-286.2v20.3"/>
	<path class="st0" d="M897.6-323v94.1"/>
	<path class="st0" d="M904.3-333.6v115.3"/>
	<path class="st0" d="M911-285v17.9"/>
	<path class="st0" d="M917.7-324.1v96.3"/>
	<path class="st0" d="M924.4-333.9v115.9"/>
	<path class="st0" d="M931.1-309.2v66.3"/>
	<path class="st0" d="M937.8-326.3v100.6"/>
	<path class="st0" d="M944.5-314.9v77.8"/>
	<path class="st0" d="M951.2-318.5v85"/>
	<path class="st0" d="M957.9-327.7v103.3"/>
	<path class="st0" d="M964.6-300.3v48.7"/>
	<path class="st0" d="M971.3-284.3v16.6"/>
	<path class="st0" d="M978-303.1v54.3"/>
	<path class="st0" d="M984.7-285.7v19.3"/>
	<path class="st0" d="M991.4-311.7v71.3"/>
	<path class="st0" d="M998.1-281v10"/>
	<path class="st0" d="M1004.8-276.7v1.5"/>
	<path class="st0" d="M1011.5-276.7v1.4"/>
	<path class="st0" d="M1018.2-296.6v41.1"/>
	<path class="st0" d="M1024.9-298.7v45.3"/>
	<path class="st0" d="M1031.6-284.7v17.4"/>
	<path class="st0" d="M1038.3-289.8v27.5"/>
	<path class="st0" d="M1045-280.4v8.7"/>
	<path class="st0" d="M1051.7-276.5v1"/>
	<path class="st0" d="M1058.4-276.4v0.8"/>
	<path class="st0" d="M1065.1-276.4v0.9"/>
	<path class="st0" d="M1071.8-305.9v59.7"/>
	<path class="st0" d="M1078.5-316.2v80.5"/>
	<path class="st0" d="M1085.2-327V-225"/>
	<path class="st0" d="M1091.9-343.1v134.3"/>
	<path class="st0" d="M1098.6-330.4v108.7"/>
	<path class="st0" d="M1105.3-292.2v32.3"/>
	<path class="st0" d="M1112-299.5v47"/>
	<path class="st0" d="M1118.7-308.9v65.8"/>
	<path class="st0" d="M1125.4-299.9v47.8"/>
	<path class="st0" d="M1132.1-301.1v50.1"/>
	<path class="st0" d="M1138.8-280.4v8.8"/>
	<path class="st0" d="M1145.5-296.3v40.5"/>
	<path class="st0" d="M1152.2-306.3v60.6"/>
	<path class="st0" d="M1158.9-283.5v14.9"/>
	<path class="st0" d="M1165.6-276.5v1"/>
	<path class="st0" d="M1172.2-276.8v1.6"/>
	<path class="st0" d="M1178.9-319v85.9"/>
	<path class="st0" d="M1185.6-334.9v117.8"/>
	<path class="st0" d="M1192.3-301.4v50.9"/>
	<path class="st0" d="M1199-319.3v86.6"/>
	<path class="st0" d="M1205.7-306.5v61"/>
	<path class="st0" d="M1212.4-290.9v29.9"/>
	<path class="st0" d="M1219.1-286.8v21.6"/>
	<path class="st0" d="M1225.8-290.5v29"/>
	<path class="st0" d="M1232.5-285v18.1"/>
	<path class="st0" d="M1239.2-286.3v20.7"/>
	<path class="st0" d="M1245.9-297.3v42.6"/>
	<path class="st0" d="M1252.6-284.4v16.7"/>
	<path class="st0" d="M1259.3-288.3v24.5"/>
	<path class="st0" d="M1266-287.9v23.7"/>
	<path class="st0" d="M1272.7-278.1v4.2"/>
	<path class="st0" d="M1279.4-291.8v31.7"/>
	<path class="st0" d="M1286.1-304.8v57.7"/>
	<path class="st0" d="M1292.8-295.1v38.1"/>
	<path class="st0" d="M1299.5-323.6v95.2"/>
	<path class="st0" d="M1306.2-319.1v86.2"/>
	<path class="st0" d="M1312.9-306.7v61.3"/>
	<path class="st0" d="M1319.6-279.9v7.8"/>
	<path class="st0" d="M1326.3-276.5v1.1"/>
	<path class="st0" d="M1333-276.4v0.8"/>
	<path class="st0" d="M1339.7-276.3v0.7"/>
	<path class="st0" d="M1346.4-276.3v0.6"/>
	<path class="st0" d="M1353.1-277.5v3"/>
	<path class="st0" d="M1359.8-311.8v71.6"/>
	<path class="st0" d="M1366.5-316.7v81.4"/>
	<path class="st0" d="M1373.2-319.4v86.7"/>
	<path class="st0" d="M1379.9-304v56.1"/>
	<path class="st0" d="M1386.6-297.9v43.8"/>
	<path class="st0" d="M1393.3-291.1v30.2"/>
	<path class="st0" d="M1400-331.1v110.2"/>
</g>
</svg>
