<?xml version="1.0" encoding="utf-8"?>
<!-- Generator: Adobe Illustrator 22.0.0, SVG Export Plug-In . SVG Version: 6.00 Build 0)  -->
<svg version="1.1" id="Layer_1" xmlns="http://www.w3.org/2000/svg" xmlns:xlink="http://www.w3.org/1999/xlink" x="0px" y="0px"
	 viewBox="0 0 1400 180" style="enable-background:new 0 0 1400 180;" xml:space="preserve">
<style type="text/css">
	.st0{fill:none;stroke:#FFD040;stroke-width:3.861;stroke-linecap:round;stroke-miterlimit:10;}
</style>
<g transform="scale(1,1)">
</g>
<g transform="translate(0,503)">
	<path class="st0" d="M0-413.4v0.9"/>
	<path class="st0" d="M7.7-432.6v39.3"/>
	<path class="st0" d="M15.4-449.1v72.3"/>
	<path class="st0" d="M23.2-436.5v47"/>
	<path class="st0" d="M30.9-438.3v50.5"/>
	<path class="st0" d="M38.6-426.3v26.6"/>
	<path class="st0" d="M46.3-421v15.9"/>
	<path class="st0" d="M54.1-421.3v16.5"/>
	<path class="st0" d="M61.8-443.9v61.8"/>
	<path class="st0" d="M69.5-445.5v65"/>
	<path class="st0" d="M77.2-440.3v54.5"/>
	<path class="st0" d="M84.9-430.5v35"/>
	<path class="st0" d="M92.7-436.1v46.2"/>
	<path class="st0" d="M100.4-436.7v47.4"/>
	<path class="st0" d="M108.1-417v8"/>
	<path class="st0" d="M115.8-416.8v7.5"/>
	<path class="st0" d="M123.6-416.3v6.6"/>
	<path class="st0" d="M131.3-416v6"/>
	<path class="st0" d="M139-416.1v6.1"/>
	<path class="st0" d="M146.7-419.3v12.7"/>
	<path class="st0" d="M154.4-462.8v99.5"/>
	<path class="st0" d="M162.2-458.1v90.1"/>
	<path class="st0" d="M169.9-444.8v63.7"/>
	<path class="st0" d="M177.6-457.3v88.6"/>
	<path class="st0" d="M185.3-447v68"/>
	<path class="st0" d="M193-416.7v7.3"/>
	<path class="st0" d="M200.8-418.5v11"/>
	<path class="st0" d="M208.5-418.6v11.2"/>
	<path class="st0" d="M216.2-419.2v12.4"/>
	<path class="st0" d="M223.9-437.7v49.5"/>
	<path class="st0" d="M231.7-449.1v72.3"/>
	<path class="st0" d="M239.4-452.9v79.7"/>
	<path class="st0" d="M247.1-467.2v108.4"/>
	<path class="st0" d="M254.8-458.5v91.1"/>
	<path class="st0" d="M262.5-438.1v50.2"/>
	<path class="st0" d="M270.3-435v44"/>
	<path class="st0" d="M278-434.2v42.3"/>
	<path class="st0" d="M285.7-448.7v71.5"/>
	<path class="st0" d="M293.4-442.7v59.4"/>
	<path class="st0" d="M301.2-445.1v64.1"/>
	<path class="st0" d="M308.9-442.9v59.7"/>
	<path class="st0" d="M316.6-432.5v39.1"/>
	<path class="st0" d="M324.3-429.7v33.5"/>
	<path class="st0" d="M332-432.5v39"/>
	<path class="st0" d="M339.8-433.6v41.2"/>
	<path class="st0" d="M347.5-437.5v49"/>
	<path class="st0" d="M355.2-434.8v43.7"/>
	<path class="st0" d="M362.9-455.7v85.5"/>
	<path class="st0" d="M370.7-444.1v62.3"/>
	<path class="st0" d="M378.4-429.5v33"/>
	<path class="st0" d="M386.1-429.8v33.5"/>
	<path class="st0" d="M393.8-432.6v39.2"/>
	<path class="st0" d="M401.5-435.5v45.1"/>
	<path class="st0" d="M409.3-443.8v61.6"/>
	<path class="st0" d="M417-416.8v7.7"/>
	<path class="st0" d="M424.7-415.6v5.2"/>
	<path class="st0" d="M432.4-445.2v64.4"/>
	<path class="st0" d="M440.1-439v51.9"/>
	<path class="st0" d="M447.9-455v84"/>
	<path class="st0" d="M455.6-438.1v50.1"/>
	<path class="st0" d="M463.3-438.5v51"/>
	<path class="st0" d="M471-439.8v53.6"/>
	<path class="st0" d="M478.8-432.3v38.6"/>
	<path class="st0" d="M486.5-424.3v22.7"/>
	<path class="st0" d="M494.2-438.2v50.5"/>
	<path class="st0" d="M501.9-438.8v51.6"/>
	<path class="st0" d="M509.6-441v55.9"/>
	<path class="st0" d="M517.4-446v66.1"/>
	<path class="st0" d="M525.1-424v22"/>
	<path class="st0" d="M532.8-413.7v1.4"/>
	<path class="st0" d="M540.5-436v46.1"/>
	<path class="st0" d="M548.3-445.3v64.7"/>
	<path class="st0" d="M556-424.3v22.5"/>
	<path class="st0" d="M563.7-450.1v74.2"/>
	<path class="st0" d="M571.4-425.6v25.1"/>
	<path class="st0" d="M579.1-431v36.1"/>
	<path class="st0" d="M586.9-414.5v3"/>
	<path class="st0" d="M594.6-414.9v3.8"/>
	<path class="st0" d="M602.3-436.6v47.2"/>
	<path class="st0" d="M610-438.8v51.6"/>
	<path class="st0" d="M617.8-474.4v122.9"/>
	<path class="st0" d="M625.5-457.5v89"/>
	<path class="st0" d="M633.2-469.4v112.8"/>
	<path class="st0" d="M640.9-470.1v114.3"/>
	<path class="st0" d="M648.6-451.4v76.7"/>
	<path class="st0" d="M656.4-444.2v62.5"/>
	<path class="st0" d="M664.1-448.3v70.6"/>
	<path class="st0" d="M671.8-450.4v74.8"/>
	<path class="st0" d="M679.5-447.3v68.7"/>
	<path class="st0" d="M687.3-438.9v51.8"/>
	<path class="st0" d="M695-414.9v3.7"/>
	<path class="st0" d="M702.7-434.6v43.3"/>
	<path class="st0" d="M710.4-446v65.9"/>
	<path class="st0" d="M718.1-466.9v107.8"/>
	<path class="st0" d="M725.9-435.6v45.2"/>
	<path class="st0" d="M733.6-414.3v2.6"/>
	<path class="st0" d="M741.3-443.7v61.4"/>
	<path class="st0" d="M749-470.9v115.8"/>
	<path class="st0" d="M756.7-444.8v63.7"/>
	<path class="st0" d="M764.5-415.2v4.3"/>
	<path class="st0" d="M772.2-438v50"/>
	<path class="st0" d="M779.9-447.2v68.4"/>
	<path class="st0" d="M787.6-441.5v57"/>
	<path class="st0" d="M795.4-442.7v59.3"/>
	<path class="st0" d="M803.1-438.6v51.2"/>
	<path class="st0" d="M810.8-438.7v51.4"/>
	<path class="st0" d="M818.5-442.3v58.6"/>
	<path class="st0" d="M826.2-446.1v66.3"/>
	<path class="st0" d="M834-424.7v23.4"/>
	<path class="st0" d="M841.7-415.6v5.2"/>
	<path class="st0" d="M849.4-432v38.1"/>
	<path class="st0" d="M857.1-459.5v93.1"/>
	<path class="st0" d="M864.9-436.6v47.2"/>
	<path class="st0" d="M872.6-451.1v76.3"/>
	<path class="st0" d="M880.3-437.7v49.4"/>
	<path class="st0" d="M888-460.9v95.8"/>
	<path class="st0" d="M895.7-441.9v57.9"/>
	<path class="st0" d="M903.5-454.1v82.1"/>
	<path class="st0" d="M911.2-458.7v91.3"/>
	<path class="st0" d="M918.9-431.9v37.8"/>
	<path class="st0" d="M926.6-434.8v43.5"/>
	<path class="st0" d="M934.4-437.6v49.2"/>
	<path class="st0" d="M942.1-415.6v5.1"/>
	<path class="st0" d="M949.8-435.4v44.8"/>
	<path class="st0" d="M957.5-453.8v81.6"/>
	<path class="st0" d="M965.2-416.6v7.2"/>
	<path class="st0" d="M973-416.3v6.5"/>
	<path class="st0" d="M980.7-457.2v88.3"/>
	<path class="st0" d="M988.4-455.2v84.3"/>
	<path class="st0" d="M996.1-435.2v44.4"/>
	<path class="st0" d="M1003.8-449.9v73.8"/>
	<path class="st0" d="M1011.6-445.1v64.2"/>
	<path class="st0" d="M1019.3-428.2v30.4"/>
	<path class="st0" d="M1027-447.2v68.3"/>
	<path class="st0" d="M1034.7-448v70"/>
	<path class="st0" d="M1042.5-458.2v90.3"/>
	<path class="st0" d="M1050.2-441.2v56.4"/>
	<path class="st0" d="M1057.9-446.2v66.5"/>
	<path class="st0" d="M1065.6-442.5v59.1"/>
	<path class="st0" d="M1073.3-449.3v72.7"/>
	<path class="st0" d="M1081.1-447.8v69.6"/>
	<path class="st0" d="M1088.8-433.5v41"/>
	<path class="st0" d="M1096.5-439.1v52.1"/>
	<path class="st0" d="M1104.2-430.8v35.7"/>
	<path class="st0" d="M1112-439.9v53.8"/>
	<path class="st0" d="M1119.7-415.9v5.9"/>
	<path class="st0" d="M1127.4-424.9v23.9"/>
	<path class="st0" d="M1135.1-462.1v98.3"/>
	<path class="st0" d="M1142.8-444.1v62.1"/>
	<path class="st0" d="M1150.6-444.6v63.3"/>
	<path class="st0" d="M1158.3-425.5v25"/>
	<path class="st0" d="M1166-421.1v16.2"/>
	<path class="st0" d="M1173.7-467.4v108.7"/>
	<path class="st0" d="M1181.5-452v78.1"/>
	<path class="st0" d="M1189.2-441.7v57.4"/>
	<path class="st0" d="M1196.9-451.6v77.1"/>
	<path class="st0" d="M1204.6-441.9v57.8"/>
	<path class="st0" d="M1212.3-433.3v40.5"/>
	<path class="st0" d="M1220.1-438v50"/>
	<path class="st0" d="M1227.8-424.4v22.8"/>
	<path class="st0" d="M1235.5-424.2v22.3"/>
	<path class="st0" d="M1243.2-455.6v85.2"/>
	<path class="st0" d="M1251-428.3v30.6"/>
	<path class="st0" d="M1258.7-442v58"/>
	<path class="st0" d="M1266.4-449.8v73.7"/>
	<path class="st0" d="M1274.1-443v60.1"/>
	<path class="st0" d="M1281.8-419.6v13.1"/>
	<path class="st0" d="M1289.6-432.9v39.8"/>
	<path class="st0" d="M1297.3-452.4v78.7"/>
	<path class="st0" d="M1305-434.1v42.2"/>
	<path class="st0" d="M1312.7-446.9v67.8"/>
	<path class="st0" d="M1320.4-444.3v62.6"/>
	<path class="st0" d="M1328.2-415.4v4.8"/>
	<path class="st0" d="M1335.9-449.2v72.4"/>
	<path class="st0" d="M1343.6-449.7v73.4"/>
	<path class="st0" d="M1351.3-418.6v11.2"/>
	<path class="st0" d="M1359.1-422.8v19.6"/>
	<path class="st0" d="M1366.8-439v52"/>
	<path class="st0" d="M1374.5-415.8v5.6"/>
	<path class="st0" d="M1382.2-413.4v0.7"/>
</g>
</svg>
