<?xml version="1.0" encoding="utf-8"?>
<!-- Generator: Adobe Illustrator 22.0.0, SVG Export Plug-In . SVG Version: 6.00 Build 0)  -->
<svg version="1.1" id="Layer_1" xmlns="http://www.w3.org/2000/svg" xmlns:xlink="http://www.w3.org/1999/xlink" x="0px" y="0px"
	 viewBox="0 0 1400 180" style="enable-background:new 0 0 1400 180;" xml:space="preserve">
<style type="text/css">
	.st0{fill:none;stroke:#FFD040;stroke-width:3.0749;stroke-linecap:round;stroke-miterlimit:10;}
</style>
<g transform="scale(1,1)">
</g>
<g transform="translate(0,366)">
	<path class="st0" d="M-3.2-276L-3.2-276"/>
	<path class="st0" d="M3-276.1v0.2"/>
	<path class="st0" d="M9.1-276.8v1.6"/>
	<path class="st0" d="M15.3-292v32"/>
	<path class="st0" d="M21.4-286.7v21.3"/>
	<path class="st0" d="M27.6-281.6v11.1"/>
	<path class="st0" d="M33.7-279.3v6.7"/>
	<path class="st0" d="M39.9-278.2v4.5"/>
	<path class="st0" d="M46-300.6v49.2"/>
	<path class="st0" d="M52.2-300.8v49.5"/>
	<path class="st0" d="M58.3-282v12"/>
	<path class="st0" d="M64.5-284.3v16.5"/>
	<path class="st0" d="M70.6-289.5v27"/>
	<path class="st0" d="M76.8-287.7v23.4"/>
	<path class="st0" d="M82.9-279.9v7.8"/>
	<path class="st0" d="M89.1-285.6v19.2"/>
	<path class="st0" d="M95.2-289.8v27.7"/>
	<path class="st0" d="M101.4-285.6v19.3"/>
	<path class="st0" d="M107.5-277.6v3.1"/>
	<path class="st0" d="M113.7-276.7v1.4"/>
	<path class="st0" d="M119.8-276.2v0.3"/>
	<path class="st0" d="M126-278.7v5.4"/>
	<path class="st0" d="M132.1-281.9v11.7"/>
	<path class="st0" d="M138.3-288.8v25.7"/>
	<path class="st0" d="M144.4-288.3v24.6"/>
	<path class="st0" d="M150.6-285.7v19.4"/>
	<path class="st0" d="M156.7-281.5v11.1"/>
	<path class="st0" d="M162.9-279.5v6.9"/>
	<path class="st0" d="M169-282.9v13.8"/>
	<path class="st0" d="M175.2-282.5v12.9"/>
	<path class="st0" d="M181.3-282.3v12.5"/>
	<path class="st0" d="M187.5-284.1v16.3"/>
	<path class="st0" d="M193.6-282.5v13"/>
	<path class="st0" d="M199.8-290v28"/>
	<path class="st0" d="M205.9-288.2v24.3"/>
	<path class="st0" d="M212.1-279.6v7.3"/>
	<path class="st0" d="M218.2-278.5v4.9"/>
	<path class="st0" d="M224.4-286.1v20.2"/>
	<path class="st0" d="M230.5-284.2v16.3"/>
	<path class="st0" d="M236.7-281.6v11.2"/>
	<path class="st0" d="M242.8-279.4v6.7"/>
	<path class="st0" d="M249-278.7v5.5"/>
	<path class="st0" d="M255.1-281.2v10.4"/>
	<path class="st0" d="M261.3-281v10.1"/>
	<path class="st0" d="M267.4-277.7v3.3"/>
	<path class="st0" d="M273.6-276.3v0.7"/>
	<path class="st0" d="M279.7-276.4v0.9"/>
	<path class="st0" d="M285.9-277.5v2.9"/>
	<path class="st0" d="M292-281.6v11.3"/>
	<path class="st0" d="M298.2-293.1v34.2"/>
	<path class="st0" d="M304.3-280.5v9.1"/>
	<path class="st0" d="M310.5-289.2v26.5"/>
	<path class="st0" d="M316.6-285.2v18.4"/>
	<path class="st0" d="M322.8-291.6v31.2"/>
	<path class="st0" d="M328.9-294.8v37.6"/>
	<path class="st0" d="M335.1-285.4v18.8"/>
	<path class="st0" d="M341.2-283.5v14.9"/>
	<path class="st0" d="M347.4-283.9v15.7"/>
	<path class="st0" d="M353.5-284.9v17.8"/>
	<path class="st0" d="M359.7-279v5.9"/>
	<path class="st0" d="M365.8-290.2v28.4"/>
	<path class="st0" d="M372-282.9v13.9"/>
	<path class="st0" d="M378.1-282.1v12.2"/>
	<path class="st0" d="M384.3-279v5.9"/>
	<path class="st0" d="M390.4-285.9v19.9"/>
	<path class="st0" d="M396.6-286.8v21.5"/>
	<path class="st0" d="M402.7-283.1v14.1"/>
	<path class="st0" d="M408.9-280.6v9.2"/>
	<path class="st0" d="M415-284.9v17.7"/>
	<path class="st0" d="M421.2-281.5v10.9"/>
	<path class="st0" d="M427.3-286.9v21.8"/>
	<path class="st0" d="M433.5-289.3v26.6"/>
	<path class="st0" d="M439.6-282.8v13.6"/>
	<path class="st0" d="M445.8-287.9v23.8"/>
	<path class="st0" d="M451.9-277.9v3.9"/>
	<path class="st0" d="M458.1-292.1v32.2"/>
	<path class="st0" d="M464.2-287v22.1"/>
	<path class="st0" d="M470.4-281.9v11.8"/>
	<path class="st0" d="M476.5-283.6v15.2"/>
	<path class="st0" d="M482.7-283.2v14.4"/>
	<path class="st0" d="M488.8-280.2v8.3"/>
	<path class="st0" d="M495-282.3v12.6"/>
	<path class="st0" d="M501.1-279.7v7.5"/>
	<path class="st0" d="M507.3-278.8v5.6"/>
	<path class="st0" d="M513.4-276.4v0.8"/>
	<path class="st0" d="M519.6-276.2v0.3"/>
	<path class="st0" d="M525.7-285.3v18.6"/>
	<path class="st0" d="M531.9-283.9v15.9"/>
	<path class="st0" d="M538-285.9v19.8"/>
	<path class="st0" d="M544.2-281.7v11.5"/>
	<path class="st0" d="M550.3-286v20"/>
	<path class="st0" d="M556.5-284.4v16.9"/>
	<path class="st0" d="M562.6-281.5v11.1"/>
	<path class="st0" d="M568.8-280.8v9.6"/>
	<path class="st0" d="M574.9-280.4v8.7"/>
	<path class="st0" d="M581.1-283v14.1"/>
	<path class="st0" d="M587.2-280.1v8.2"/>
	<path class="st0" d="M593.4-284.9v17.7"/>
	<path class="st0" d="M599.5-283.8v15.6"/>
	<path class="st0" d="M605.7-277.4v2.8"/>
	<path class="st0" d="M611.8-277.1v2.2"/>
	<path class="st0" d="M618-276.2v0.3"/>
	<path class="st0" d="M624.1-276.2v0.3"/>
	<path class="st0" d="M630.3-278.1v4.2"/>
	<path class="st0" d="M636.4-287v22.1"/>
	<path class="st0" d="M642.6-285v18.1"/>
	<path class="st0" d="M648.7-285.8v19.6"/>
	<path class="st0" d="M654.9-283.8v15.6"/>
	<path class="st0" d="M661-282.7v13.4"/>
	<path class="st0" d="M667.2-278.8v5.7"/>
	<path class="st0" d="M673.3-276.6v1.2"/>
	<path class="st0" d="M679.5-276.2v0.4"/>
	<path class="st0" d="M685.6-277.1v2.3"/>
	<path class="st0" d="M691.8-279.9v7.7"/>
	<path class="st0" d="M697.9-280.5v9"/>
	<path class="st0" d="M704.1-282.2v12.3"/>
	<path class="st0" d="M710.2-280v8.1"/>
	<path class="st0" d="M716.4-283.2v14.4"/>
	<path class="st0" d="M722.5-278.4v4.9"/>
	<path class="st0" d="M728.7-277.7v3.3"/>
	<path class="st0" d="M734.8-292.1v32.2"/>
	<path class="st0" d="M741-292.4v32.9"/>
	<path class="st0" d="M747.1-285.3v18.6"/>
	<path class="st0" d="M753.3-278.7v5.4"/>
	<path class="st0" d="M759.4-285.3v18.5"/>
	<path class="st0" d="M765.6-281.8v11.7"/>
	<path class="st0" d="M771.7-283.1v14.2"/>
	<path class="st0" d="M777.9-281v10"/>
	<path class="st0" d="M784-283.3v14.7"/>
	<path class="st0" d="M790.2-282.7v13.4"/>
	<path class="st0" d="M796.3-283.9v15.9"/>
	<path class="st0" d="M802.5-284.1v16.2"/>
	<path class="st0" d="M808.6-282v12"/>
	<path class="st0" d="M814.8-279.1v6.2"/>
	<path class="st0" d="M820.9-284.5v16.9"/>
	<path class="st0" d="M827.1-282.8v13.6"/>
	<path class="st0" d="M833.2-281.8v11.6"/>
	<path class="st0" d="M839.4-280.7v9.4"/>
	<path class="st0" d="M845.5-280v8.1"/>
	<path class="st0" d="M851.7-282v12"/>
	<path class="st0" d="M857.8-279.5v7.1"/>
	<path class="st0" d="M864-281.6v11.2"/>
	<path class="st0" d="M870.1-280.1v8.3"/>
	<path class="st0" d="M876.3-280v8"/>
	<path class="st0" d="M882.4-281.7v11.5"/>
	<path class="st0" d="M888.6-280.3v8.5"/>
	<path class="st0" d="M894.7-277.3v2.6"/>
	<path class="st0" d="M900.9-276.7v1.3"/>
	<path class="st0" d="M907-276.6v1.2"/>
	<path class="st0" d="M913.2-281.4v10.8"/>
	<path class="st0" d="M919.3-281.9v11.9"/>
	<path class="st0" d="M925.5-277.1v2.1"/>
	<path class="st0" d="M931.6-282.9v13.8"/>
	<path class="st0" d="M937.8-286v20.1"/>
	<path class="st0" d="M943.9-280.8v9.6"/>
	<path class="st0" d="M950.1-279.2v6.4"/>
	<path class="st0" d="M956.2-279v6.1"/>
	<path class="st0" d="M962.4-282.6v13.1"/>
	<path class="st0" d="M968.5-282.4v12.7"/>
	<path class="st0" d="M974.7-281.7v11.5"/>
	<path class="st0" d="M980.8-284.1v16.1"/>
	<path class="st0" d="M987-287.3v22.5"/>
	<path class="st0" d="M993.1-281.9v11.9"/>
	<path class="st0" d="M999.3-276.7v1.4"/>
	<path class="st0" d="M1005.4-276.8v1.6"/>
	<path class="st0" d="M1011.6-282.9v13.8"/>
	<path class="st0" d="M1017.7-288.9v25.8"/>
	<path class="st0" d="M1023.9-288.3v24.6"/>
	<path class="st0" d="M1030-288v24.1"/>
	<path class="st0" d="M1036.2-293.1v34.1"/>
	<path class="st0" d="M1042.3-291.3v30.6"/>
	<path class="st0" d="M1048.5-282.7v13.3"/>
	<path class="st0" d="M1054.6-281.8v11.6"/>
	<path class="st0" d="M1060.8-287.9v23.9"/>
	<path class="st0" d="M1066.9-287.8v23.6"/>
	<path class="st0" d="M1073.1-287.6v23.2"/>
	<path class="st0" d="M1079.2-287.7v23.4"/>
	<path class="st0" d="M1085.4-291.9v31.8"/>
	<path class="st0" d="M1091.5-290.3v28.7"/>
	<path class="st0" d="M1097.7-284v16"/>
	<path class="st0" d="M1103.8-278.5v4.9"/>
	<path class="st0" d="M1110-277.6v3.2"/>
	<path class="st0" d="M1116.1-286.4v20.8"/>
	<path class="st0" d="M1122.3-288.7v25.4"/>
	<path class="st0" d="M1128.4-283.1v14.2"/>
	<path class="st0" d="M1134.6-284v16"/>
	<path class="st0" d="M1140.7-282.7v13.4"/>
	<path class="st0" d="M1146.9-287.9v23.7"/>
	<path class="st0" d="M1153-284.2v16.4"/>
	<path class="st0" d="M1159.2-281.6v11.1"/>
	<path class="st0" d="M1165.3-279.3v6.6"/>
	<path class="st0" d="M1171.5-289.3v26.6"/>
	<path class="st0" d="M1177.6-291.8v31.6"/>
	<path class="st0" d="M1183.8-289.3v26.7"/>
	<path class="st0" d="M1189.9-277v2"/>
	<path class="st0" d="M1196.1-276.6v1.2"/>
	<path class="st0" d="M1202.2-276.5v1"/>
	<path class="st0" d="M1208.4-276.3v0.7"/>
	<path class="st0" d="M1214.5-280v8.1"/>
	<path class="st0" d="M1220.7-287.3v22.6"/>
	<path class="st0" d="M1226.8-288.4v24.8"/>
	<path class="st0" d="M1233-290.4v28.9"/>
	<path class="st0" d="M1239.1-290.2v28.5"/>
	<path class="st0" d="M1245.3-280.9v9.8"/>
	<path class="st0" d="M1251.4-279.1v6.2"/>
	<path class="st0" d="M1257.6-287.6v23.2"/>
	<path class="st0" d="M1263.7-278.9v5.8"/>
	<path class="st0" d="M1269.9-284.7v17.3"/>
	<path class="st0" d="M1276-280v8"/>
	<path class="st0" d="M1282.2-287.3v22.7"/>
	<path class="st0" d="M1288.3-281.8v11.5"/>
	<path class="st0" d="M1294.5-281.5v11.1"/>
	<path class="st0" d="M1300.6-280.3v8.7"/>
	<path class="st0" d="M1306.8-280.5v9"/>
	<path class="st0" d="M1312.9-285v18"/>
	<path class="st0" d="M1319.1-283.6v15.2"/>
	<path class="st0" d="M1325.2-283.4v14.8"/>
	<path class="st0" d="M1331.4-283.5v15"/>
	<path class="st0" d="M1337.5-286.4v20.7"/>
	<path class="st0" d="M1343.7-284.6v17.3"/>
	<path class="st0" d="M1349.8-281.4v10.8"/>
	<path class="st0" d="M1356-281.5v11.1"/>
	<path class="st0" d="M1362.1-281.6v11.2"/>
	<path class="st0" d="M1368.3-280.1v8.2"/>
	<path class="st0" d="M1374.4-277.2v2.4"/>
	<path class="st0" d="M1380.6-276.4v0.9"/>
	<path class="st0" d="M1386.7-276.7v1.4"/>
	<path class="st0" d="M1392.9-276.8v1.7"/>
	<path class="st0" d="M1399-276.7v1.4"/>
</g>
</svg>
