<?xml version="1.0" encoding="utf-8"?>
<!-- Generator: Adobe Illustrator 22.0.0, SVG Export Plug-In . SVG Version: 6.00 Build 0)  -->
<svg version="1.1" id="Layer_1" xmlns="http://www.w3.org/2000/svg" xmlns:xlink="http://www.w3.org/1999/xlink" x="0px" y="0px"
	 viewBox="0 0 1400 180" style="enable-background:new 0 0 1400 180;" xml:space="preserve">
<style type="text/css">
	.st0{fill:none;stroke:#FFD040;stroke-width:3.7065;stroke-linecap:round;stroke-miterlimit:10;}
</style>
<g transform="scale(1,1)">
</g>
<g transform="translate(0,366)">
	<path class="st0" d="M0-276.2v0.4"/>
	<path class="st0" d="M7.9-276.7v1.5"/>
	<path class="st0" d="M15.8-277.3v2.6"/>
	<path class="st0" d="M23.7-285v17.9"/>
	<path class="st0" d="M31.7-282v12"/>
	<path class="st0" d="M39.6-277.6v3.2"/>
	<path class="st0" d="M47.5-295.8v39.6"/>
	<path class="st0" d="M55.4-285.4v18.8"/>
	<path class="st0" d="M63.3-326.2v100.3"/>
	<path class="st0" d="M71.2-291.4v30.9"/>
	<path class="st0" d="M79.1-327.6v103.2"/>
	<path class="st0" d="M87.1-307.8v63.6"/>
	<path class="st0" d="M95-301.1v50.1"/>
	<path class="st0" d="M102.9-314.9v77.8"/>
	<path class="st0" d="M110.8-293.4v34.7"/>
	<path class="st0" d="M118.7-298.8v45.7"/>
	<path class="st0" d="M126.6-287.9v23.8"/>
	<path class="st0" d="M134.5-296.1v40.1"/>
	<path class="st0" d="M142.4-282.5v13"/>
	<path class="st0" d="M150.4-277.4v2.9"/>
	<path class="st0" d="M158.3-298.3v44.5"/>
	<path class="st0" d="M166.2-351.7v151.3"/>
	<path class="st0" d="M174.1-339.4v126.8"/>
	<path class="st0" d="M182-327.6v103.3"/>
	<path class="st0" d="M189.9-322.9v93.8"/>
	<path class="st0" d="M197.8-323.1v94.1"/>
	<path class="st0" d="M205.8-335.5v119"/>
	<path class="st0" d="M213.7-304.8v57.6"/>
	<path class="st0" d="M221.6-314.5v77"/>
	<path class="st0" d="M229.5-322.5v92.9"/>
	<path class="st0" d="M237.4-314v76"/>
	<path class="st0" d="M245.3-287.6v23.2"/>
	<path class="st0" d="M253.2-277.1v2.2"/>
	<path class="st0" d="M261.2-289.4v26.8"/>
	<path class="st0" d="M269.1-309.6v67.1"/>
	<path class="st0" d="M277-305.3v58.6"/>
	<path class="st0" d="M284.9-303.1v54.2"/>
	<path class="st0" d="M292.8-321.2v90.5"/>
	<path class="st0" d="M300.7-298.6v45.2"/>
	<path class="st0" d="M308.6-277.5v3.1"/>
	<path class="st0" d="M316.6-301.1v50.2"/>
	<path class="st0" d="M324.5-306.4v60.8"/>
	<path class="st0" d="M332.4-286.4v20.7"/>
	<path class="st0" d="M340.3-294v36.1"/>
	<path class="st0" d="M348.2-296.5v40.9"/>
	<path class="st0" d="M356.1-278.9v5.7"/>
	<path class="st0" d="M364-330.2v108.4"/>
	<path class="st0" d="M371.9-328.4v104.8"/>
	<path class="st0" d="M379.9-333.4v114.8"/>
	<path class="st0" d="M387.8-305.4v58.8"/>
	<path class="st0" d="M395.7-316.9v81.8"/>
	<path class="st0" d="M403.6-290.9v29.9"/>
	<path class="st0" d="M411.5-298.5v45"/>
	<path class="st0" d="M419.4-286.5v21"/>
	<path class="st0" d="M427.3-288.2v24.5"/>
	<path class="st0" d="M435.3-304.9v57.8"/>
	<path class="st0" d="M443.2-292.8v33.5"/>
	<path class="st0" d="M451.1-285.2v18.4"/>
	<path class="st0" d="M459-286.1v20.2"/>
	<path class="st0" d="M466.9-281.7v11.4"/>
	<path class="st0" d="M474.8-278.1v4.2"/>
	<path class="st0" d="M482.7-277.9v3.7"/>
	<path class="st0" d="M490.7-327.7v103.3"/>
	<path class="st0" d="M498.6-345.1v138.3"/>
	<path class="st0" d="M506.5-315.3v78.6"/>
	<path class="st0" d="M514.4-326.5v100.9"/>
	<path class="st0" d="M522.3-316.5v81"/>
	<path class="st0" d="M530.2-324.1v96.3"/>
	<path class="st0" d="M538.1-305.3v58.6"/>
	<path class="st0" d="M546-291.9v31.9"/>
	<path class="st0" d="M554-289.2v26.5"/>
	<path class="st0" d="M561.9-288.6v25.3"/>
	<path class="st0" d="M569.8-285.9v19.8"/>
	<path class="st0" d="M577.7-285.2v18.4"/>
	<path class="st0" d="M585.6-291.2v30.4"/>
	<path class="st0" d="M593.5-289.1v26.2"/>
	<path class="st0" d="M601.4-279.3v6.5"/>
	<path class="st0" d="M609.4-291.8v31.5"/>
	<path class="st0" d="M617.3-296.4v40.8"/>
	<path class="st0" d="M625.2-302.6v53.3"/>
	<path class="st0" d="M633.1-295.6v39.2"/>
	<path class="st0" d="M641-293.7v35.4"/>
	<path class="st0" d="M648.9-277.4v2.7"/>
	<path class="st0" d="M656.8-277.2v2.4"/>
	<path class="st0" d="M664.8-292v32.1"/>
	<path class="st0" d="M672.7-312.1v72.3"/>
	<path class="st0" d="M680.6-322.9v93.9"/>
	<path class="st0" d="M688.5-307.1v62.1"/>
	<path class="st0" d="M696.4-320.7v89.4"/>
	<path class="st0" d="M704.3-300.2v48.3"/>
	<path class="st0" d="M712.2-278.5v5.1"/>
	<path class="st0" d="M720.2-314.2v76.3"/>
	<path class="st0" d="M728.1-319.5v87.1"/>
	<path class="st0" d="M736-289.7v27.5"/>
	<path class="st0" d="M743.9-283.6v15.1"/>
	<path class="st0" d="M751.8-316v79.9"/>
	<path class="st0" d="M759.7-317v82"/>
	<path class="st0" d="M767.6-307.6v63.2"/>
	<path class="st0" d="M775.5-278.2v4.4"/>
	<path class="st0" d="M783.5-290.2v28.5"/>
	<path class="st0" d="M791.4-308.1v64.2"/>
	<path class="st0" d="M799.3-305.7v59.5"/>
	<path class="st0" d="M807.2-292.1v32.1"/>
	<path class="st0" d="M815.1-302.1v52.3"/>
	<path class="st0" d="M823-307.7v63.4"/>
	<path class="st0" d="M830.9-280.7v9.4"/>
	<path class="st0" d="M838.9-278v3.9"/>
	<path class="st0" d="M846.8-309.9v67.8"/>
	<path class="st0" d="M854.7-300.2v48.4"/>
	<path class="st0" d="M862.6-297.4v42.7"/>
	<path class="st0" d="M870.5-294v36"/>
	<path class="st0" d="M878.4-299v46"/>
	<path class="st0" d="M886.3-298.6v45.2"/>
	<path class="st0" d="M894.3-297.4v42.9"/>
	<path class="st0" d="M902.2-299.2v46.5"/>
	<path class="st0" d="M910.1-288.2v24.4"/>
	<path class="st0" d="M918-298.4v44.9"/>
	<path class="st0" d="M925.9-297v42"/>
	<path class="st0" d="M933.8-310.4v68.8"/>
	<path class="st0" d="M941.7-307.6v63.2"/>
	<path class="st0" d="M949.7-281.4v10.8"/>
	<path class="st0" d="M957.6-278.2v4.4"/>
	<path class="st0" d="M965.5-279.1v6.1"/>
	<path class="st0" d="M973.4-306v60"/>
	<path class="st0" d="M981.3-285.2v18.4"/>
	<path class="st0" d="M989.2-301.1v50.3"/>
	<path class="st0" d="M997.1-279v6"/>
	<path class="st0" d="M1005-311v69.9"/>
	<path class="st0" d="M1013-278.1v4.3"/>
	<path class="st0" d="M1020.9-304.6v57.2"/>
	<path class="st0" d="M1028.8-295.7v39.3"/>
	<path class="st0" d="M1036.7-308.5v65"/>
	<path class="st0" d="M1044.6-289.6v27.2"/>
	<path class="st0" d="M1052.5-277.3v2.6"/>
	<path class="st0" d="M1060.4-277.1v2.3"/>
	<path class="st0" d="M1068.4-284v16"/>
	<path class="st0" d="M1076.3-294.1v36.3"/>
	<path class="st0" d="M1084.2-286.1v20.2"/>
	<path class="st0" d="M1092.1-300.5v49.1"/>
	<path class="st0" d="M1100-286.1v20.2"/>
	<path class="st0" d="M1107.9-283.5v15"/>
	<path class="st0" d="M1115.8-278.4v4.7"/>
	<path class="st0" d="M1123.8-276.9v1.9"/>
	<path class="st0" d="M1131.7-288.2v24.4"/>
	<path class="st0" d="M1139.6-330.1v108.3"/>
	<path class="st0" d="M1147.5-322.1v92.3"/>
	<path class="st0" d="M1155.4-327.2v102.4"/>
	<path class="st0" d="M1163.3-307.1v62.3"/>
	<path class="st0" d="M1171.2-301.7v51.3"/>
	<path class="st0" d="M1179.2-321.2v90.4"/>
	<path class="st0" d="M1187.1-329.6v107.2"/>
	<path class="st0" d="M1195-337.7v123.3"/>
	<path class="st0" d="M1202.9-318.1v84.2"/>
	<path class="st0" d="M1210.8-309.3v66.7"/>
	<path class="st0" d="M1218.7-310.3v68.7"/>
	<path class="st0" d="M1226.6-295.9v39.9"/>
	<path class="st0" d="M1234.5-286.6v21.3"/>
	<path class="st0" d="M1242.5-286.5v21"/>
	<path class="st0" d="M1250.4-290.6v29.2"/>
	<path class="st0" d="M1258.3-309.5v67"/>
	<path class="st0" d="M1266.2-301.4v50.8"/>
	<path class="st0" d="M1274.1-294.7v37.3"/>
	<path class="st0" d="M1282-288.3v24.6"/>
	<path class="st0" d="M1289.9-288.9v25.8"/>
	<path class="st0" d="M1297.9-286.7v21.5"/>
	<path class="st0" d="M1305.8-281.2v10.3"/>
	<path class="st0" d="M1313.7-277v2"/>
	<path class="st0" d="M1321.6-286.1v20.1"/>
	<path class="st0" d="M1329.5-300.6v49.3"/>
	<path class="st0" d="M1337.4-290.6v29.1"/>
	<path class="st0" d="M1345.3-300.3v48.7"/>
	<path class="st0" d="M1353.3-307.2v62.5"/>
	<path class="st0" d="M1361.2-313v74.1"/>
	<path class="st0" d="M1369.1-299.5v47.1"/>
	<path class="st0" d="M1377-299.5v47.1"/>
	<path class="st0" d="M1384.9-302.5v53"/>
	<path class="st0" d="M1392.8-298.3v44.7"/>
	<path class="st0" d="M1400.7-288.3v24.6"/>
</g>
</svg>
