<?xml version="1.0" encoding="utf-8"?>
<!-- Generator: Adobe Illustrator 22.0.0, SVG Export Plug-In . SVG Version: 6.00 Build 0)  -->
<svg version="1.1" id="Layer_1" xmlns="http://www.w3.org/2000/svg" xmlns:xlink="http://www.w3.org/1999/xlink" x="0px" y="0px"
	 viewBox="0 0 1400 180" style="enable-background:new 0 0 1400 180;" xml:space="preserve">
<style type="text/css">
	.st0{fill:none;stroke:#FFD040;stroke-width:2.7465;stroke-linecap:round;stroke-miterlimit:10;}
</style>
<g transform="scale(1,1)">
</g>
<g transform="translate(0,366)">
	<path class="st0" d="M4.8-276.1v0.2"/>
	<path class="st0" d="M10.3-277.5v3.1"/>
	<path class="st0" d="M15.8-295.5v39"/>
	<path class="st0" d="M21.3-284.6v17.1"/>
	<path class="st0" d="M26.8-294.6v37.2"/>
	<path class="st0" d="M32.3-292v32"/>
	<path class="st0" d="M37.7-281.1v10.2"/>
	<path class="st0" d="M43.2-282.1v12.2"/>
	<path class="st0" d="M48.7-289.8v27.6"/>
	<path class="st0" d="M54.2-286.4v20.8"/>
	<path class="st0" d="M59.7-279v5.9"/>
	<path class="st0" d="M65.2-276.7v1.5"/>
	<path class="st0" d="M70.7-276.6v1.1"/>
	<path class="st0" d="M76.2-276.6v1.3"/>
	<path class="st0" d="M81.7-291.2v30.4"/>
	<path class="st0" d="M87.2-285.4v18.7"/>
	<path class="st0" d="M92.7-294.5v36.9"/>
	<path class="st0" d="M98.2-286.6v21.2"/>
	<path class="st0" d="M103.7-286.8v21.6"/>
	<path class="st0" d="M109.2-284.6v17.1"/>
	<path class="st0" d="M114.6-286.9v21.8"/>
	<path class="st0" d="M120.1-279.3v6.5"/>
	<path class="st0" d="M125.6-289v26.1"/>
	<path class="st0" d="M131.1-288.5v25"/>
	<path class="st0" d="M136.6-288.7v25.5"/>
	<path class="st0" d="M142.1-283.7v15.3"/>
	<path class="st0" d="M147.6-276.6v1.1"/>
	<path class="st0" d="M153.1-276.5v1.1"/>
	<path class="st0" d="M158.6-277.3v2.5"/>
	<path class="st0" d="M164.1-300v48.1"/>
	<path class="st0" d="M169.6-282.2v12.3"/>
	<path class="st0" d="M175.1-279.9v7.7"/>
	<path class="st0" d="M180.6-282.9v13.9"/>
	<path class="st0" d="M186.1-287.8v23.7"/>
	<path class="st0" d="M191.5-278.9v5.8"/>
	<path class="st0" d="M197-283.6v15.3"/>
	<path class="st0" d="M202.5-286.3v20.7"/>
	<path class="st0" d="M208-282.5v13.1"/>
	<path class="st0" d="M213.5-301.8v51.6"/>
	<path class="st0" d="M219-282.6v13.2"/>
	<path class="st0" d="M224.5-290.2v28.5"/>
	<path class="st0" d="M230-292.4v32.8"/>
	<path class="st0" d="M235.5-279.1v6.2"/>
	<path class="st0" d="M241-280.7v9.5"/>
	<path class="st0" d="M246.5-286.5v20.9"/>
	<path class="st0" d="M252-285.9v19.9"/>
	<path class="st0" d="M257.5-283.2v14.5"/>
	<path class="st0" d="M263-299.3v46.6"/>
	<path class="st0" d="M268.5-283.8v15.7"/>
	<path class="st0" d="M273.9-292v32"/>
	<path class="st0" d="M279.4-291.9v31.9"/>
	<path class="st0" d="M284.9-281v10"/>
	<path class="st0" d="M290.4-276.5v1.1"/>
	<path class="st0" d="M295.9-276.7v1.5"/>
	<path class="st0" d="M301.4-288.6v25.3"/>
	<path class="st0" d="M306.9-284.5v17"/>
	<path class="st0" d="M312.4-301.6v51.2"/>
	<path class="st0" d="M317.9-285.6v19.2"/>
	<path class="st0" d="M323.4-284.8v17.7"/>
	<path class="st0" d="M328.9-291.6v31.2"/>
	<path class="st0" d="M334.4-287.7v23.3"/>
	<path class="st0" d="M339.9-291.4v30.8"/>
	<path class="st0" d="M345.4-289.5v27"/>
	<path class="st0" d="M350.8-283v14.1"/>
	<path class="st0" d="M356.3-276.9v1.9"/>
	<path class="st0" d="M361.8-278.5v5"/>
	<path class="st0" d="M367.3-294.5v37.1"/>
	<path class="st0" d="M372.8-295.2v38.5"/>
	<path class="st0" d="M378.3-291.4v30.8"/>
	<path class="st0" d="M383.8-294.3v36.7"/>
	<path class="st0" d="M389.3-280.9v9.7"/>
	<path class="st0" d="M394.8-290v28.1"/>
	<path class="st0" d="M400.3-304.1v56.2"/>
	<path class="st0" d="M405.8-302.4v52.7"/>
	<path class="st0" d="M411.3-293.3v34.6"/>
	<path class="st0" d="M416.8-285.6v19.1"/>
	<path class="st0" d="M422.3-286.3v20.7"/>
	<path class="st0" d="M427.7-288v24.1"/>
	<path class="st0" d="M433.2-285.4v18.7"/>
	<path class="st0" d="M438.7-278v4"/>
	<path class="st0" d="M444.2-282.9v13.7"/>
	<path class="st0" d="M449.7-292.9v33.9"/>
	<path class="st0" d="M455.2-295.2v38.4"/>
	<path class="st0" d="M460.7-299.5v47"/>
	<path class="st0" d="M466.2-291.7v31.4"/>
	<path class="st0" d="M471.7-281.5v10.9"/>
	<path class="st0" d="M477.2-297v42"/>
	<path class="st0" d="M482.7-291.5v31.1"/>
	<path class="st0" d="M488.2-284.6v17.2"/>
	<path class="st0" d="M493.7-286.3v20.5"/>
	<path class="st0" d="M499.2-283.7v15.4"/>
	<path class="st0" d="M504.6-280.8v9.7"/>
	<path class="st0" d="M510.1-289.5v27"/>
	<path class="st0" d="M515.6-296.2v40.4"/>
	<path class="st0" d="M521.1-286.9v21.8"/>
	<path class="st0" d="M526.6-278.4v4.9"/>
	<path class="st0" d="M532.1-280.6v9.2"/>
	<path class="st0" d="M537.6-290.5v28.9"/>
	<path class="st0" d="M543.1-292.2v32.3"/>
	<path class="st0" d="M548.6-282.6v13.2"/>
	<path class="st0" d="M554.1-283.7v15.4"/>
	<path class="st0" d="M559.6-290.8v29.6"/>
	<path class="st0" d="M565.1-286.8v21.5"/>
	<path class="st0" d="M570.6-279.9v7.9"/>
	<path class="st0" d="M576.1-281v10"/>
	<path class="st0" d="M581.5-286.4v20.8"/>
	<path class="st0" d="M587-283.3v14.7"/>
	<path class="st0" d="M592.5-284.6v17.1"/>
	<path class="st0" d="M598-289.7v27.4"/>
	<path class="st0" d="M603.5-290.1v28.3"/>
	<path class="st0" d="M609-283.9v15.9"/>
	<path class="st0" d="M614.5-281.6v11.3"/>
	<path class="st0" d="M620-281.7v11.3"/>
	<path class="st0" d="M625.5-280.6v9.2"/>
	<path class="st0" d="M631-280.6v9.3"/>
	<path class="st0" d="M636.5-289.1v26.2"/>
	<path class="st0" d="M642-290.9v29.8"/>
	<path class="st0" d="M647.5-283.5v15"/>
	<path class="st0" d="M653-291.4v30.9"/>
	<path class="st0" d="M658.5-289v25.9"/>
	<path class="st0" d="M663.9-281.7v11.4"/>
	<path class="st0" d="M669.4-281.1v10.1"/>
	<path class="st0" d="M674.9-286.4v20.9"/>
	<path class="st0" d="M680.4-283.6v15.1"/>
	<path class="st0" d="M685.9-279v6.1"/>
	<path class="st0" d="M691.4-302.4v52.7"/>
	<path class="st0" d="M696.9-302v52"/>
	<path class="st0" d="M702.4-287.1v22.3"/>
	<path class="st0" d="M707.9-286.5v21.1"/>
	<path class="st0" d="M713.4-283.5v14.9"/>
	<path class="st0" d="M718.9-287.9v23.8"/>
	<path class="st0" d="M724.4-283v13.9"/>
	<path class="st0" d="M729.9-282.7v13.4"/>
	<path class="st0" d="M735.4-282.5v12.9"/>
	<path class="st0" d="M740.8-277.5v3.1"/>
	<path class="st0" d="M746.3-284.4v16.9"/>
	<path class="st0" d="M751.8-296.9v41.7"/>
	<path class="st0" d="M757.3-296.2v40.5"/>
	<path class="st0" d="M762.8-298.5v45"/>
	<path class="st0" d="M768.3-286.2v20.3"/>
	<path class="st0" d="M773.8-279.2v6.3"/>
	<path class="st0" d="M779.3-279.2v6.4"/>
	<path class="st0" d="M784.8-286.7v21.4"/>
	<path class="st0" d="M790.3-293.3v34.5"/>
	<path class="st0" d="M795.8-283.9v15.8"/>
	<path class="st0" d="M801.3-279.6v7.2"/>
	<path class="st0" d="M806.8-292.3v32.7"/>
	<path class="st0" d="M812.3-297.5v43"/>
	<path class="st0" d="M817.7-287.7v23.3"/>
	<path class="st0" d="M823.2-284.9v17.8"/>
	<path class="st0" d="M828.7-277.8v3.7"/>
	<path class="st0" d="M834.2-292.1v32.3"/>
	<path class="st0" d="M839.7-288.3v24.7"/>
	<path class="st0" d="M845.2-285.8v19.6"/>
	<path class="st0" d="M850.7-280.2v8.4"/>
	<path class="st0" d="M856.2-280.2v8.5"/>
	<path class="st0" d="M861.7-292.1v32.2"/>
	<path class="st0" d="M867.2-288.8v25.5"/>
	<path class="st0" d="M872.7-289.9v27.7"/>
	<path class="st0" d="M878.2-287.8v23.6"/>
	<path class="st0" d="M883.7-284.2v16.4"/>
	<path class="st0" d="M889.2-278.5v5.1"/>
	<path class="st0" d="M894.6-291.4v30.9"/>
	<path class="st0" d="M900.1-293.9v35.8"/>
	<path class="st0" d="M905.6-284.1v16.2"/>
	<path class="st0" d="M911.1-287.8v23.6"/>
	<path class="st0" d="M916.6-288.2v24.3"/>
	<path class="st0" d="M922.1-283.4v14.7"/>
	<path class="st0" d="M927.6-278.1v4.3"/>
	<path class="st0" d="M933.1-287.6v23.2"/>
	<path class="st0" d="M938.6-286.3v20.6"/>
	<path class="st0" d="M944.1-296.1v40.2"/>
	<path class="st0" d="M949.6-290v28.1"/>
	<path class="st0" d="M955.1-289.1v26.2"/>
	<path class="st0" d="M960.6-283.7v15.3"/>
	<path class="st0" d="M966.1-291.1v30.2"/>
	<path class="st0" d="M971.5-281.6v11.2"/>
	<path class="st0" d="M977-288.9v25.7"/>
	<path class="st0" d="M982.5-299v45.9"/>
	<path class="st0" d="M988-281.9v11.8"/>
	<path class="st0" d="M993.5-287.2v22.4"/>
	<path class="st0" d="M999-292.3v32.7"/>
	<path class="st0" d="M1004.5-288v24"/>
	<path class="st0" d="M1010-282v12"/>
	<path class="st0" d="M1015.5-283.1v14.3"/>
	<path class="st0" d="M1021-285.4v18.9"/>
	<path class="st0" d="M1026.5-284.7v17.4"/>
	<path class="st0" d="M1032-286v19.9"/>
	<path class="st0" d="M1037.5-281v10"/>
	<path class="st0" d="M1043-278.1v4.1"/>
	<path class="st0" d="M1048.5-283v14"/>
	<path class="st0" d="M1053.9-285.6v19.2"/>
	<path class="st0" d="M1059.4-277.4v2.7"/>
	<path class="st0" d="M1064.9-283.2v14.5"/>
	<path class="st0" d="M1070.4-292.7v33.4"/>
	<path class="st0" d="M1075.9-285.7v19.4"/>
	<path class="st0" d="M1081.4-289.7v27.4"/>
	<path class="st0" d="M1086.9-293.1v34.3"/>
	<path class="st0" d="M1092.4-288.5v25.1"/>
	<path class="st0" d="M1097.9-288.3v24.5"/>
	<path class="st0" d="M1103.4-288.6v25.3"/>
	<path class="st0" d="M1108.9-281.4v10.8"/>
	<path class="st0" d="M1114.4-294.6v37.2"/>
	<path class="st0" d="M1119.9-290.7v29.3"/>
	<path class="st0" d="M1125.4-277.3v2.6"/>
	<path class="st0" d="M1130.8-287v21.9"/>
	<path class="st0" d="M1136.3-292.9v33.8"/>
	<path class="st0" d="M1141.8-286.5v20.9"/>
	<path class="st0" d="M1147.3-280.8v9.6"/>
	<path class="st0" d="M1152.8-279.2v6.5"/>
	<path class="st0" d="M1158.3-289.1v26.2"/>
	<path class="st0" d="M1163.8-283.4v14.8"/>
	<path class="st0" d="M1169.3-294.1v36.1"/>
	<path class="st0" d="M1174.8-278v3.9"/>
	<path class="st0" d="M1180.3-276.5v1.1"/>
	<path class="st0" d="M1185.8-295.7v39.4"/>
	<path class="st0" d="M1191.3-281.4v10.8"/>
	<path class="st0" d="M1196.8-284v15.9"/>
	<path class="st0" d="M1202.3-288.2v24.4"/>
	<path class="st0" d="M1207.7-290.8v29.6"/>
	<path class="st0" d="M1213.2-286.2v20.4"/>
	<path class="st0" d="M1218.7-280.2v8.4"/>
	<path class="st0" d="M1224.2-285.3v18.5"/>
	<path class="st0" d="M1229.7-289.7v27.5"/>
	<path class="st0" d="M1235.2-283v14"/>
	<path class="st0" d="M1240.7-280.2v8.3"/>
	<path class="st0" d="M1246.2-291.4v30.8"/>
	<path class="st0" d="M1251.7-284.8v17.5"/>
	<path class="st0" d="M1257.2-284.7v17.3"/>
	<path class="st0" d="M1262.7-281.2v10.4"/>
	<path class="st0" d="M1268.2-282.9v13.8"/>
	<path class="st0" d="M1273.7-281.9v11.8"/>
	<path class="st0" d="M1279.2-283.7v15.5"/>
	<path class="st0" d="M1284.6-288v23.9"/>
	<path class="st0" d="M1290.1-278.6v5.1"/>
	<path class="st0" d="M1295.6-280.6v9.3"/>
	<path class="st0" d="M1301.1-287.7v23.4"/>
	<path class="st0" d="M1306.6-292.9v33.8"/>
	<path class="st0" d="M1312.1-288.6v25.2"/>
	<path class="st0" d="M1317.6-280.8v9.5"/>
	<path class="st0" d="M1323.1-276.9v1.8"/>
	<path class="st0" d="M1328.6-292.1v32.2"/>
	<path class="st0" d="M1334.1-292.3v32.6"/>
	<path class="st0" d="M1339.6-285.7v19.3"/>
	<path class="st0" d="M1345.1-283.8v15.6"/>
	<path class="st0" d="M1350.6-281.2v10.5"/>
	<path class="st0" d="M1356.1-283.6v15.2"/>
	<path class="st0" d="M1361.5-283.6v15.2"/>
	<path class="st0" d="M1367-285.4v18.8"/>
	<path class="st0" d="M1372.5-291.7v31.3"/>
	<path class="st0" d="M1378-278.3v4.6"/>
	<path class="st0" d="M1383.5-289.3v26.5"/>
	<path class="st0" d="M1389-291.9v31.9"/>
	<path class="st0" d="M1394.5-282.8v13.7"/>
	<path class="st0" d="M1400-289.6v27.2"/>
</g>
</svg>
