<?xml version="1.0" encoding="utf-8"?>
<!-- Generator: Adobe Illustrator 22.0.0, SVG Export Plug-In . SVG Version: 6.00 Build 0)  -->
<svg version="1.1" id="Layer_1" xmlns="http://www.w3.org/2000/svg" xmlns:xlink="http://www.w3.org/1999/xlink" x="0px" y="0px"
	 viewBox="0 0 1400 180" style="enable-background:new 0 0 1400 180;" xml:space="preserve">
<style type="text/css">
	.st0{fill:none;stroke:#FFD040;stroke-width:3.6639;stroke-linecap:round;stroke-miterlimit:10;}
</style>
<g transform="scale(1,1)">
</g>
<g transform="translate(0,366)">
	<path class="st0" d="M0-276.1v0.1"/>
	<path class="st0" d="M7.3-276.3v0.5"/>
	<path class="st0" d="M14.7-276.6v1.2"/>
	<path class="st0" d="M22-287.7v23.4"/>
	<path class="st0" d="M29.3-300.4v48.7"/>
	<path class="st0" d="M36.6-288.7v25.5"/>
	<path class="st0" d="M44-281.2v10.4"/>
	<path class="st0" d="M51.3-292.5v33"/>
	<path class="st0" d="M58.6-287.5v23.1"/>
	<path class="st0" d="M66-287.8v23.7"/>
	<path class="st0" d="M73.3-285v18"/>
	<path class="st0" d="M80.6-282.8v13.6"/>
	<path class="st0" d="M87.9-278.2v4.3"/>
	<path class="st0" d="M95.3-277.4v2.8"/>
	<path class="st0" d="M102.6-276.8v1.5"/>
	<path class="st0" d="M109.9-276.6v1.2"/>
	<path class="st0" d="M117.2-281.8v11.5"/>
	<path class="st0" d="M124.6-287v22"/>
	<path class="st0" d="M131.9-296.1v40.1"/>
	<path class="st0" d="M139.2-287.9v23.8"/>
	<path class="st0" d="M146.6-285.4v18.8"/>
	<path class="st0" d="M153.9-284.4v16.8"/>
	<path class="st0" d="M161.2-281.5v11"/>
	<path class="st0" d="M168.5-290v28"/>
	<path class="st0" d="M175.9-284.5v17.1"/>
	<path class="st0" d="M183.2-287.8v23.5"/>
	<path class="st0" d="M190.5-277.9v3.9"/>
	<path class="st0" d="M197.9-277.6v3.2"/>
	<path class="st0" d="M205.2-284.9v17.8"/>
	<path class="st0" d="M212.5-283.1v14.3"/>
	<path class="st0" d="M219.8-286.8v21.7"/>
	<path class="st0" d="M227.2-284.5v16.9"/>
	<path class="st0" d="M234.5-283v14.1"/>
	<path class="st0" d="M241.8-285.3v18.5"/>
	<path class="st0" d="M249.1-281.8v11.6"/>
	<path class="st0" d="M256.5-288.5v25.1"/>
	<path class="st0" d="M263.8-281.3v10.6"/>
	<path class="st0" d="M271.1-282.1v12.1"/>
	<path class="st0" d="M278.5-281.7v11.4"/>
	<path class="st0" d="M285.8-280.7v9.4"/>
	<path class="st0" d="M293.1-277.1v2.3"/>
	<path class="st0" d="M300.4-278.3v4.6"/>
	<path class="st0" d="M307.8-282.4v12.7"/>
	<path class="st0" d="M315.1-282.9v13.8"/>
	<path class="st0" d="M322.4-276.9v1.9"/>
	<path class="st0" d="M329.8-276.5v1.1"/>
	<path class="st0" d="M337.1-276.5v1.1"/>
	<path class="st0" d="M344.4-276.5v1"/>
	<path class="st0" d="M351.7-282.3v12.6"/>
	<path class="st0" d="M359.1-285.8v19.5"/>
	<path class="st0" d="M366.4-283.2v14.5"/>
	<path class="st0" d="M373.7-282.3v12.6"/>
	<path class="st0" d="M381-287.6v23.1"/>
	<path class="st0" d="M388.4-289.3v26.6"/>
	<path class="st0" d="M395.7-282v12"/>
	<path class="st0" d="M403-287.4v22.8"/>
	<path class="st0" d="M410.4-282.3v12.6"/>
	<path class="st0" d="M417.7-278.5v5"/>
	<path class="st0" d="M425-276.5v1.1"/>
	<path class="st0" d="M432.3-276.5v1"/>
	<path class="st0" d="M439.7-281.7v11.4"/>
	<path class="st0" d="M447-278.7v5.3"/>
	<path class="st0" d="M454.3-290.2v28.4"/>
	<path class="st0" d="M461.7-286.5v21"/>
	<path class="st0" d="M469-286.4v20.9"/>
	<path class="st0" d="M476.3-277.1v2.1"/>
	<path class="st0" d="M483.6-285.4v18.7"/>
	<path class="st0" d="M491-300.9v49.8"/>
	<path class="st0" d="M498.3-287.2v22.4"/>
	<path class="st0" d="M505.6-282.5v13"/>
	<path class="st0" d="M512.9-284.6v17.3"/>
	<path class="st0" d="M520.3-285.7v19.4"/>
	<path class="st0" d="M527.6-279.9v7.8"/>
	<path class="st0" d="M534.9-283.4v14.8"/>
	<path class="st0" d="M542.3-282.1v12.2"/>
	<path class="st0" d="M549.6-280.4v8.8"/>
	<path class="st0" d="M556.9-280.5v8.9"/>
	<path class="st0" d="M564.2-287.2v22.5"/>
	<path class="st0" d="M571.6-281.7v11.4"/>
	<path class="st0" d="M578.9-282.9v13.8"/>
	<path class="st0" d="M586.2-280.3v8.6"/>
	<path class="st0" d="M593.6-283.5v15.1"/>
	<path class="st0" d="M600.9-283.7v15.4"/>
	<path class="st0" d="M608.2-278.2v4.3"/>
	<path class="st0" d="M615.5-280.9v9.7"/>
	<path class="st0" d="M622.9-282.3v12.5"/>
	<path class="st0" d="M630.2-283v14.1"/>
	<path class="st0" d="M637.5-280.3v8.6"/>
	<path class="st0" d="M644.8-285.4v18.7"/>
	<path class="st0" d="M652.2-279.8v7.6"/>
	<path class="st0" d="M659.5-276.9v1.8"/>
	<path class="st0" d="M666.8-277.8v3.6"/>
	<path class="st0" d="M674.2-297.3v42.6"/>
	<path class="st0" d="M681.5-307.6v63.1"/>
	<path class="st0" d="M688.8-303.7v55.5"/>
	<path class="st0" d="M696.1-293.9v35.7"/>
	<path class="st0" d="M703.5-291.4v30.8"/>
	<path class="st0" d="M710.8-292.9v33.7"/>
	<path class="st0" d="M718.1-283.5v14.9"/>
	<path class="st0" d="M725.5-289.1v26.2"/>
	<path class="st0" d="M732.8-289.3v26.6"/>
	<path class="st0" d="M740.1-293.3v34.5"/>
	<path class="st0" d="M747.4-285.9v19.8"/>
	<path class="st0" d="M754.8-289v26"/>
	<path class="st0" d="M762.1-291.1v30.3"/>
	<path class="st0" d="M769.4-296.3v40.6"/>
	<path class="st0" d="M776.7-289.4v26.8"/>
	<path class="st0" d="M784.1-287.7v23.5"/>
	<path class="st0" d="M791.4-290v27.9"/>
	<path class="st0" d="M798.7-292.7v33.3"/>
	<path class="st0" d="M806.1-288.2v24.4"/>
	<path class="st0" d="M813.4-286.5v20.9"/>
	<path class="st0" d="M820.7-287.3v22.5"/>
	<path class="st0" d="M828-290v28.1"/>
	<path class="st0" d="M835.4-291.5v31"/>
	<path class="st0" d="M842.7-291.6v31.2"/>
	<path class="st0" d="M850-290.4v28.8"/>
	<path class="st0" d="M857.4-287.1v22.1"/>
	<path class="st0" d="M864.7-287.7v23.3"/>
	<path class="st0" d="M872-287.5v23"/>
	<path class="st0" d="M879.3-288.2v24.5"/>
	<path class="st0" d="M886.7-286v20.1"/>
	<path class="st0" d="M894-286.9v21.7"/>
	<path class="st0" d="M901.3-300.3v48.5"/>
	<path class="st0" d="M908.6-289.6v27.2"/>
	<path class="st0" d="M916-295.6v39.2"/>
	<path class="st0" d="M923.3-297.9v43.9"/>
	<path class="st0" d="M930.6-296.3v40.6"/>
	<path class="st0" d="M938-293.6v35.1"/>
	<path class="st0" d="M945.3-293.3v34.5"/>
	<path class="st0" d="M952.6-295.5v39.1"/>
	<path class="st0" d="M959.9-293.2v34.5"/>
	<path class="st0" d="M967.3-288.5v24.9"/>
	<path class="st0" d="M974.6-289.8v27.7"/>
	<path class="st0" d="M981.9-287.2v22.4"/>
	<path class="st0" d="M989.3-288.7v25.3"/>
	<path class="st0" d="M996.6-288.8v25.6"/>
	<path class="st0" d="M1003.9-289.3v26.6"/>
	<path class="st0" d="M1011.2-291.1v30.3"/>
	<path class="st0" d="M1018.6-289.9v27.8"/>
	<path class="st0" d="M1025.9-288.3v24.6"/>
	<path class="st0" d="M1033.2-288.5v25.1"/>
	<path class="st0" d="M1040.5-288.3v24.6"/>
	<path class="st0" d="M1047.9-287.8v23.6"/>
	<path class="st0" d="M1055.2-291.6v31.1"/>
	<path class="st0" d="M1062.5-289.5v27.1"/>
	<path class="st0" d="M1069.9-287.8v23.7"/>
	<path class="st0" d="M1077.2-294.1v36.2"/>
	<path class="st0" d="M1084.5-290.1v28.2"/>
	<path class="st0" d="M1091.8-293.3v34.5"/>
	<path class="st0" d="M1099.2-299.6v47.2"/>
	<path class="st0" d="M1106.5-289.6v27.2"/>
	<path class="st0" d="M1113.8-291.5v31"/>
	<path class="st0" d="M1121.2-287v22"/>
	<path class="st0" d="M1128.5-294.3v36.7"/>
	<path class="st0" d="M1135.8-294.6v37.2"/>
	<path class="st0" d="M1143.1-292.1v32.1"/>
	<path class="st0" d="M1150.5-289.7v27.5"/>
	<path class="st0" d="M1157.8-295.9v39.8"/>
	<path class="st0" d="M1165.1-304.9v57.9"/>
	<path class="st0" d="M1172.4-293.5v35.1"/>
	<path class="st0" d="M1179.8-292.9v33.7"/>
	<path class="st0" d="M1187.1-291.6v31.3"/>
	<path class="st0" d="M1194.4-287.1v22.3"/>
	<path class="st0" d="M1201.8-291v30"/>
	<path class="st0" d="M1209.1-301.8v51.6"/>
	<path class="st0" d="M1216.4-302.8v53.6"/>
	<path class="st0" d="M1223.7-288.8v25.6"/>
	<path class="st0" d="M1231.1-291.5v31"/>
	<path class="st0" d="M1238.4-292.3v32.6"/>
	<path class="st0" d="M1245.7-291.3v30.7"/>
	<path class="st0" d="M1253.1-301.7v51.5"/>
	<path class="st0" d="M1260.4-292.2v32.5"/>
	<path class="st0" d="M1267.7-288.3v24.6"/>
	<path class="st0" d="M1275-286.4v20.9"/>
	<path class="st0" d="M1282.4-284.6v17.3"/>
	<path class="st0" d="M1289.7-288.4v24.8"/>
	<path class="st0" d="M1297-294.6v37.3"/>
	<path class="st0" d="M1304.3-291.8v31.6"/>
	<path class="st0" d="M1311.7-289.5v27"/>
	<path class="st0" d="M1319-292v32.1"/>
	<path class="st0" d="M1326.3-293.9v35.8"/>
	<path class="st0" d="M1333.7-295.7v39.5"/>
	<path class="st0" d="M1341-287.4v22.8"/>
	<path class="st0" d="M1348.3-289v26"/>
	<path class="st0" d="M1355.6-291.3v30.5"/>
	<path class="st0" d="M1363-294.5v37"/>
	<path class="st0" d="M1370.3-299.6v47.1"/>
	<path class="st0" d="M1377.6-291.9v31.8"/>
	<path class="st0" d="M1385-288.4v24.7"/>
	<path class="st0" d="M1392.3-286.7v21.4"/>
	<path class="st0" d="M1399.6-285.2v18.4"/>
</g>
</svg>
