<?xml version="1.0" encoding="utf-8"?>
<!-- Generator: Adobe Illustrator 22.0.0, SVG Export Plug-In . SVG Version: 6.00 Build 0)  -->
<svg version="1.1" id="Layer_1" xmlns="http://www.w3.org/2000/svg" xmlns:xlink="http://www.w3.org/1999/xlink" x="0px" y="0px"
	 viewBox="0 0 1400 180" style="enable-background:new 0 0 1400 180;" xml:space="preserve">
<style type="text/css">
	.st0{fill:none;stroke:#FFD040;stroke-width:4.2018;stroke-linecap:round;stroke-miterlimit:10;}
</style>
<g transform="scale(1,1)">
</g>
<g transform="translate(0,366)">
	<path class="st0" d="M0-276L0-276"/>
	<path class="st0" d="M8.4-276L8.4-276"/>
	<path class="st0" d="M16.8-276.1v0.1"/>
	<path class="st0" d="M25.2-276.2v0.4"/>
	<path class="st0" d="M33.6-276.2v0.5"/>
	<path class="st0" d="M42-276.3v0.7"/>
	<path class="st0" d="M50.4-276.4v0.8"/>
	<path class="st0" d="M58.8-276.6v1.2"/>
	<path class="st0" d="M67.2-276.6v1.2"/>
	<path class="st0" d="M75.6-276.6v1.2"/>
	<path class="st0" d="M84-276.5v0.9"/>
	<path class="st0" d="M92.4-276.4v0.7"/>
	<path class="st0" d="M100.8-276.4v0.8"/>
	<path class="st0" d="M109.2-276.5v1"/>
	<path class="st0" d="M117.7-305.3v58.6"/>
	<path class="st0" d="M126.1-314.6v77.3"/>
	<path class="st0" d="M134.5-324v95.9"/>
	<path class="st0" d="M142.9-337.7v123.4"/>
	<path class="st0" d="M151.3-301.8v51.6"/>
	<path class="st0" d="M159.7-305.4v58.8"/>
	<path class="st0" d="M168.1-309v66"/>
	<path class="st0" d="M176.5-315.9v79.8"/>
	<path class="st0" d="M184.9-331.9v111.8"/>
	<path class="st0" d="M193.3-347.9v143.9"/>
	<path class="st0" d="M201.7-331.3v110.6"/>
	<path class="st0" d="M210.1-330.2v108.4"/>
	<path class="st0" d="M218.5-317.9v83.8"/>
	<path class="st0" d="M226.9-305.6v59.2"/>
	<path class="st0" d="M235.3-293.1v34.2"/>
	<path class="st0" d="M243.7-287.5v23.1"/>
	<path class="st0" d="M252.1-282v12"/>
	<path class="st0" d="M260.5-282v12"/>
	<path class="st0" d="M268.9-279.3v6.5"/>
	<path class="st0" d="M277.3-282.1v12.2"/>
	<path class="st0" d="M285.7-284.9v17.8"/>
	<path class="st0" d="M294.1-286.2v20.3"/>
	<path class="st0" d="M302.5-294.8v37.5"/>
	<path class="st0" d="M310.9-302.5v53"/>
	<path class="st0" d="M319.3-301.7v51.4"/>
	<path class="st0" d="M327.7-297.9v43.8"/>
	<path class="st0" d="M336.1-294.3v36.7"/>
	<path class="st0" d="M344.5-290.8v29.5"/>
	<path class="st0" d="M353-308.5v65.1"/>
	<path class="st0" d="M361.4-322.8v93.6"/>
	<path class="st0" d="M369.8-331.1v110.2"/>
	<path class="st0" d="M378.2-325.1v98.2"/>
	<path class="st0" d="M386.6-329.6v107.2"/>
	<path class="st0" d="M395-340.4v128.8"/>
	<path class="st0" d="M403.4-348.7v145.5"/>
	<path class="st0" d="M411.8-346.3v140.6"/>
	<path class="st0" d="M420.2-347.5v143.1"/>
	<path class="st0" d="M428.6-323.4v94.8"/>
	<path class="st0" d="M437-299.3v46.6"/>
	<path class="st0" d="M445.4-288.4v24.8"/>
	<path class="st0" d="M453.8-278.3v4.6"/>
	<path class="st0" d="M462.2-319.1v86.1"/>
	<path class="st0" d="M470.6-330.4v108.8"/>
	<path class="st0" d="M479-341.7v131.4"/>
	<path class="st0" d="M487.4-332.8v113.7"/>
	<path class="st0" d="M495.8-334.6v117.2"/>
	<path class="st0" d="M504.2-316.6v81.2"/>
	<path class="st0" d="M512.6-296.8v41.7"/>
	<path class="st0" d="M521-310v68.1"/>
	<path class="st0" d="M529.4-320.9v89.8"/>
	<path class="st0" d="M537.8-331.7v111.5"/>
	<path class="st0" d="M546.2-298v44.1"/>
	<path class="st0" d="M554.6-312.6v73.2"/>
	<path class="st0" d="M563-332.9v113.8"/>
	<path class="st0" d="M571.4-338.7v125.3"/>
	<path class="st0" d="M579.8-330.1v108.2"/>
	<path class="st0" d="M588.3-312.5v73"/>
	<path class="st0" d="M596.7-294.9v37.8"/>
	<path class="st0" d="M605.1-315.3v78.5"/>
	<path class="st0" d="M613.5-335.1v118.2"/>
	<path class="st0" d="M621.9-338.3v124.6"/>
	<path class="st0" d="M630.3-341.5v131.1"/>
	<path class="st0" d="M638.7-331.2v110.5"/>
	<path class="st0" d="M647.1-333.9v115.7"/>
	<path class="st0" d="M655.5-336.5v121"/>
	<path class="st0" d="M663.9-332.1v112.1"/>
	<path class="st0" d="M672.3-299.8v47.7"/>
	<path class="st0" d="M680.7-307.9v63.8"/>
	<path class="st0" d="M689.1-316v80"/>
	<path class="st0" d="M697.5-320.1v88.2"/>
	<path class="st0" d="M705.9-310.5v69"/>
	<path class="st0" d="M714.3-300.9v49.7"/>
	<path class="st0" d="M722.7-308.6v65.2"/>
	<path class="st0" d="M731.1-287v22.1"/>
	<path class="st0" d="M739.5-285.2v18.4"/>
	<path class="st0" d="M747.9-283.4v14.8"/>
	<path class="st0" d="M756.3-307.6v63.2"/>
	<path class="st0" d="M764.7-314.9v77.8"/>
	<path class="st0" d="M773.1-314.6v77.2"/>
	<path class="st0" d="M781.5-306.9v61.9"/>
	<path class="st0" d="M789.9-292.4v32.8"/>
	<path class="st0" d="M798.3-302.9v53.9"/>
	<path class="st0" d="M806.7-313.5v74.9"/>
	<path class="st0" d="M815.2-311.1v70.3"/>
	<path class="st0" d="M823.6-311.2v70.5"/>
	<path class="st0" d="M832-311.3v70.5"/>
	<path class="st0" d="M840.4-311.2v70.3"/>
	<path class="st0" d="M848.8-302.8v53.5"/>
	<path class="st0" d="M857.2-299v46"/>
	<path class="st0" d="M865.6-311.4v70.8"/>
	<path class="st0" d="M874-327.6v103.1"/>
	<path class="st0" d="M882.4-329v106"/>
	<path class="st0" d="M890.8-330v108"/>
	<path class="st0" d="M899.2-327.4v102.8"/>
	<path class="st0" d="M907.6-312.8v73.5"/>
	<path class="st0" d="M916-291.3v30.6"/>
	<path class="st0" d="M924.4-292.7v33.4"/>
	<path class="st0" d="M932.8-294.1v36.2"/>
	<path class="st0" d="M941.2-286.7v21.3"/>
	<path class="st0" d="M949.6-297v42"/>
	<path class="st0" d="M958-314v75.9"/>
	<path class="st0" d="M966.4-320.5v89.1"/>
	<path class="st0" d="M974.8-322.9v93.9"/>
	<path class="st0" d="M983.2-311.7v71.5"/>
	<path class="st0" d="M991.6-315.8v79.6"/>
	<path class="st0" d="M1000-325.7v99.5"/>
	<path class="st0" d="M1008.4-331.6v111.1"/>
	<path class="st0" d="M1016.8-312.5v73.1"/>
	<path class="st0" d="M1025.2-308.1v64.3"/>
	<path class="st0" d="M1033.6-310.2v68.3"/>
	<path class="st0" d="M1042-316.6v81.2"/>
	<path class="st0" d="M1050.5-285.7v19.4"/>
	<path class="st0" d="M1058.9-279.9v7.8"/>
	<path class="st0" d="M1067.3-281.5v11"/>
	<path class="st0" d="M1075.7-283.1v14.2"/>
	<path class="st0" d="M1084.1-278.5v5.1"/>
	<path class="st0" d="M1092.5-296.5v41.1"/>
	<path class="st0" d="M1100.9-329.6v107.3"/>
	<path class="st0" d="M1109.3-344.8v137.5"/>
	<path class="st0" d="M1117.7-319.2v86.4"/>
	<path class="st0" d="M1126.1-305.7v59.5"/>
	<path class="st0" d="M1134.5-292.3v32.6"/>
	<path class="st0" d="M1142.9-322.5v93"/>
	<path class="st0" d="M1151.3-329.4v106.8"/>
	<path class="st0" d="M1159.7-333.7v115.5"/>
	<path class="st0" d="M1168.1-331.2v110.3"/>
	<path class="st0" d="M1176.5-306.6v61.2"/>
	<path class="st0" d="M1184.9-299.4v46.9"/>
	<path class="st0" d="M1193.3-292.3v32.6"/>
	<path class="st0" d="M1201.7-303.3v54.6"/>
	<path class="st0" d="M1210.1-319v86"/>
	<path class="st0" d="M1218.5-331.4v110.8"/>
	<path class="st0" d="M1226.9-328.1v104.3"/>
	<path class="st0" d="M1235.3-312.6v73.2"/>
	<path class="st0" d="M1243.7-292v32"/>
	<path class="st0" d="M1252.1-293.3v34.7"/>
	<path class="st0" d="M1260.5-298.7v45.4"/>
	<path class="st0" d="M1268.9-302.7v53.4"/>
	<path class="st0" d="M1277.3-293.7v35.4"/>
	<path class="st0" d="M1285.8-301.7v51.3"/>
	<path class="st0" d="M1294.2-300.1v48.1"/>
	<path class="st0" d="M1302.6-298.5v45"/>
	<path class="st0" d="M1311-287.7v23.5"/>
	<path class="st0" d="M1319.4-287.5v23.1"/>
	<path class="st0" d="M1327.8-304.3v56.6"/>
	<path class="st0" d="M1336.2-306.1v60.3"/>
	<path class="st0" d="M1344.6-308v64"/>
	<path class="st0" d="M1353-304.5v57"/>
	<path class="st0" d="M1361.4-303.8v55.5"/>
	<path class="st0" d="M1369.8-292.2v32.3"/>
	<path class="st0" d="M1378.2-285.7v19.5"/>
	<path class="st0" d="M1386.6-279.3v6.6"/>
	<path class="st0" d="M1395-278.8v5.6"/>
</g>
</svg>
