<?xml version="1.0" encoding="utf-8"?>
<!-- Generator: Adobe Illustrator 22.0.0, SVG Export Plug-In . SVG Version: 6.00 Build 0)  -->
<svg version="1.1" id="Layer_1" xmlns="http://www.w3.org/2000/svg" xmlns:xlink="http://www.w3.org/1999/xlink" x="0px" y="0px"
	 viewBox="0 0 1400 180" style="enable-background:new 0 0 1400 180;" xml:space="preserve">
<style type="text/css">
	.st0{fill:none;stroke:#FFD040;stroke-width:3.3823;stroke-linecap:round;stroke-miterlimit:10;}
</style>
<g transform="scale(1,1)">
</g>
<g transform="translate(0,366)">
	<path class="st0" d="M3.5-278.8v5.7"/>
	<path class="st0" d="M10.3-282.9v13.7"/>
	<path class="st0" d="M17-300.5v49"/>
	<path class="st0" d="M23.8-301.2v50.4"/>
	<path class="st0" d="M30.6-284.9v17.8"/>
	<path class="st0" d="M37.3-293.1v34.3"/>
	<path class="st0" d="M44.1-289.6v27.3"/>
	<path class="st0" d="M50.9-278.6v5.2"/>
	<path class="st0" d="M57.6-288.7v25.5"/>
	<path class="st0" d="M64.4-286.1v20.3"/>
	<path class="st0" d="M71.2-283.2v14.4"/>
	<path class="st0" d="M77.9-281.3v10.7"/>
	<path class="st0" d="M84.7-280.1v8.2"/>
	<path class="st0" d="M91.4-285v18.1"/>
	<path class="st0" d="M98.2-282.6v13.2"/>
	<path class="st0" d="M105-278.3v4.7"/>
	<path class="st0" d="M111.7-280.3v8.7"/>
	<path class="st0" d="M118.5-278.5v5"/>
	<path class="st0" d="M125.3-277v2.1"/>
	<path class="st0" d="M132-276.2v0.4"/>
	<path class="st0" d="M138.8-276.1v0.2"/>
	<path class="st0" d="M145.6-276.1v0.2"/>
	<path class="st0" d="M152.3-276.1v0.2"/>
	<path class="st0" d="M159.1-276.1v0.2"/>
	<path class="st0" d="M165.9-276.1v0.2"/>
	<path class="st0" d="M172.6-278.7v5.3"/>
	<path class="st0" d="M179.4-298.8v45.6"/>
	<path class="st0" d="M186.1-295.1v38.2"/>
	<path class="st0" d="M192.9-293.7v35.5"/>
	<path class="st0" d="M199.7-283v14"/>
	<path class="st0" d="M206.4-287.7v23.4"/>
	<path class="st0" d="M213.2-301.6v51.2"/>
	<path class="st0" d="M220-301.3v50.5"/>
	<path class="st0" d="M226.7-286.8v21.7"/>
	<path class="st0" d="M233.5-291.7v31.3"/>
	<path class="st0" d="M240.3-285.7v19.4"/>
	<path class="st0" d="M247-277.3v2.7"/>
	<path class="st0" d="M253.8-278.1v4.2"/>
	<path class="st0" d="M260.6-277.3v2.5"/>
	<path class="st0" d="M267.3-276.2v0.4"/>
	<path class="st0" d="M274.1-276.2v0.4"/>
	<path class="st0" d="M280.9-276.2v0.3"/>
	<path class="st0" d="M287.6-278.6v5.1"/>
	<path class="st0" d="M294.4-283.2v14.4"/>
	<path class="st0" d="M301.1-278.9v5.8"/>
	<path class="st0" d="M307.9-289.9v27.8"/>
	<path class="st0" d="M314.7-292.9v33.8"/>
	<path class="st0" d="M321.4-285.7v19.4"/>
	<path class="st0" d="M328.2-288v24"/>
	<path class="st0" d="M335-289.9v27.8"/>
	<path class="st0" d="M341.7-286.3v20.6"/>
	<path class="st0" d="M348.5-286v20"/>
	<path class="st0" d="M355.3-278.3v4.6"/>
	<path class="st0" d="M362-278.5v5.1"/>
	<path class="st0" d="M368.8-278.1v4.2"/>
	<path class="st0" d="M375.6-277.9v3.8"/>
	<path class="st0" d="M382.3-282.4v12.7"/>
	<path class="st0" d="M389.1-280.5v8.9"/>
	<path class="st0" d="M395.8-290.5v28.9"/>
	<path class="st0" d="M402.6-283.2v14.3"/>
	<path class="st0" d="M409.4-279.3v6.6"/>
	<path class="st0" d="M416.1-279.4v6.7"/>
	<path class="st0" d="M422.9-280.4v8.7"/>
	<path class="st0" d="M429.7-285.7v19.4"/>
	<path class="st0" d="M436.4-287.9v23.7"/>
	<path class="st0" d="M443.2-288.1v24.1"/>
	<path class="st0" d="M450-291.2v30.4"/>
	<path class="st0" d="M456.7-287.1v22.2"/>
	<path class="st0" d="M463.5-277v2"/>
	<path class="st0" d="M470.3-278v4.1"/>
	<path class="st0" d="M477-279.1v6.2"/>
	<path class="st0" d="M483.8-277.8v3.5"/>
	<path class="st0" d="M490.6-301.8v51.6"/>
	<path class="st0" d="M497.3-290.1v28.2"/>
	<path class="st0" d="M504.1-287.8v23.6"/>
	<path class="st0" d="M510.8-284.2v16.4"/>
	<path class="st0" d="M517.6-285.5v19.1"/>
	<path class="st0" d="M524.4-279.6v7.2"/>
	<path class="st0" d="M531.1-298.2v44.4"/>
	<path class="st0" d="M537.9-298.2v44.5"/>
	<path class="st0" d="M544.7-353.1v154.2"/>
	<path class="st0" d="M551.4-367v182"/>
	<path class="st0" d="M558.2-352.1v152.2"/>
	<path class="st0" d="M565-348.4v144.9"/>
	<path class="st0" d="M571.7-336.6v121.2"/>
	<path class="st0" d="M578.5-315.4v78.8"/>
	<path class="st0" d="M585.3-305.7v59.4"/>
	<path class="st0" d="M592-301.3v50.6"/>
	<path class="st0" d="M598.8-301.3v50.6"/>
	<path class="st0" d="M605.6-306.6v61.2"/>
	<path class="st0" d="M612.3-302.9v53.7"/>
	<path class="st0" d="M619.1-304.6v57.1"/>
	<path class="st0" d="M625.8-303.9v55.9"/>
	<path class="st0" d="M632.6-303.7v55.4"/>
	<path class="st0" d="M639.4-301.9v51.9"/>
	<path class="st0" d="M646.1-302.2v52.5"/>
	<path class="st0" d="M652.9-300.4v48.8"/>
	<path class="st0" d="M659.7-299.6v47.2"/>
	<path class="st0" d="M666.4-321.2v90.3"/>
	<path class="st0" d="M673.2-346.7v141.5"/>
	<path class="st0" d="M680-332.8v113.6"/>
	<path class="st0" d="M686.7-326v99.9"/>
	<path class="st0" d="M693.5-327.8v103.5"/>
	<path class="st0" d="M700.3-326.7v101.4"/>
	<path class="st0" d="M707-329v106"/>
	<path class="st0" d="M713.8-322.1v92.2"/>
	<path class="st0" d="M720.5-318v83.9"/>
	<path class="st0" d="M727.3-307.9v63.8"/>
	<path class="st0" d="M734.1-303.6v55.3"/>
	<path class="st0" d="M740.8-295.8v39.5"/>
	<path class="st0" d="M747.6-291v30"/>
	<path class="st0" d="M754.4-287.9v23.8"/>
	<path class="st0" d="M761.1-285.8v19.7"/>
	<path class="st0" d="M767.9-283.1v14.1"/>
	<path class="st0" d="M774.7-280.8v9.5"/>
	<path class="st0" d="M781.4-285.9v19.8"/>
	<path class="st0" d="M788.2-308.8v65.6"/>
	<path class="st0" d="M795-281.8v11.5"/>
	<path class="st0" d="M801.7-294.2v36.4"/>
	<path class="st0" d="M808.5-283.2v14.4"/>
	<path class="st0" d="M815.3-285.6v19.1"/>
	<path class="st0" d="M822-288.6v25.2"/>
	<path class="st0" d="M828.8-304.1v56.2"/>
	<path class="st0" d="M835.5-304.1v56.1"/>
	<path class="st0" d="M842.3-295.6v39.1"/>
	<path class="st0" d="M849.1-282v11.9"/>
	<path class="st0" d="M855.8-276.5v1.1"/>
	<path class="st0" d="M862.6-276.2v0.4"/>
	<path class="st0" d="M869.4-276.1v0.2"/>
	<path class="st0" d="M876.1-276.1v0.1"/>
	<path class="st0" d="M882.9-276.1v0.1"/>
	<path class="st0" d="M889.7-276.1v0.1"/>
	<path class="st0" d="M896.4-276.1v0.2"/>
	<path class="st0" d="M903.2-276.1v0.1"/>
	<path class="st0" d="M910-276.1v0.1"/>
	<path class="st0" d="M916.7-276.1v0.2"/>
	<path class="st0" d="M923.5-280.4v8.9"/>
	<path class="st0" d="M930.2-284.5v16.9"/>
	<path class="st0" d="M937-283.9v15.7"/>
	<path class="st0" d="M943.8-287.7v23.5"/>
	<path class="st0" d="M950.5-279.1v6.3"/>
	<path class="st0" d="M957.3-283.9v15.8"/>
	<path class="st0" d="M964.1-282.6v13.2"/>
	<path class="st0" d="M970.8-278.7v5.4"/>
	<path class="st0" d="M977.6-278.7v5.5"/>
	<path class="st0" d="M984.4-277.1v2.2"/>
	<path class="st0" d="M991.1-276.3v0.7"/>
	<path class="st0" d="M997.9-276.2v0.5"/>
	<path class="st0" d="M1004.7-276.3v0.5"/>
	<path class="st0" d="M1011.4-284.7v17.3"/>
	<path class="st0" d="M1018.2-302.4v52.9"/>
	<path class="st0" d="M1025-284.4v16.9"/>
	<path class="st0" d="M1031.7-294.8v37.6"/>
	<path class="st0" d="M1038.5-283.8v15.5"/>
	<path class="st0" d="M1045.2-282.2v12.3"/>
	<path class="st0" d="M1052-289.1v26.2"/>
	<path class="st0" d="M1058.8-288.9v25.8"/>
	<path class="st0" d="M1065.5-284.4v16.8"/>
	<path class="st0" d="M1072.3-284.7v17.3"/>
	<path class="st0" d="M1079.1-282.1v12.3"/>
	<path class="st0" d="M1085.8-296.4v40.9"/>
	<path class="st0" d="M1092.6-285.8v19.5"/>
	<path class="st0" d="M1099.4-280.3v8.6"/>
	<path class="st0" d="M1106.1-283.6v15.2"/>
	<path class="st0" d="M1112.9-284.9v17.7"/>
	<path class="st0" d="M1119.7-283v14.1"/>
	<path class="st0" d="M1126.4-285.2v18.4"/>
	<path class="st0" d="M1133.2-282v12"/>
	<path class="st0" d="M1139.9-277.6v3.1"/>
	<path class="st0" d="M1146.7-283.4v14.8"/>
	<path class="st0" d="M1153.5-283.3v14.6"/>
	<path class="st0" d="M1160.2-284.7v17.3"/>
	<path class="st0" d="M1167-285.3v18.6"/>
	<path class="st0" d="M1173.8-291.8v31.6"/>
	<path class="st0" d="M1180.5-308.1v64.3"/>
	<path class="st0" d="M1187.3-287.9v23.7"/>
	<path class="st0" d="M1194.1-283.4v14.8"/>
	<path class="st0" d="M1200.8-283.9v15.8"/>
	<path class="st0" d="M1207.6-280.2v8.5"/>
	<path class="st0" d="M1214.4-280.9v9.9"/>
	<path class="st0" d="M1221.1-277.1v2.3"/>
	<path class="st0" d="M1227.9-282.3v12.7"/>
	<path class="st0" d="M1234.7-282v12.1"/>
	<path class="st0" d="M1241.4-276.8v1.6"/>
	<path class="st0" d="M1248.2-276.7v1.5"/>
	<path class="st0" d="M1254.9-276.5v0.9"/>
	<path class="st0" d="M1261.7-276.5v1.1"/>
	<path class="st0" d="M1268.5-283.2v14.5"/>
	<path class="st0" d="M1275.2-285.9v19.9"/>
	<path class="st0" d="M1282-278.9v5.8"/>
	<path class="st0" d="M1288.8-289.9v27.8"/>
	<path class="st0" d="M1295.5-283.1v14.1"/>
	<path class="st0" d="M1302.3-280.5v9"/>
	<path class="st0" d="M1309.1-285.8v19.6"/>
	<path class="st0" d="M1315.8-291v30.1"/>
	<path class="st0" d="M1322.6-291.4v30.7"/>
	<path class="st0" d="M1329.4-284.3v16.6"/>
	<path class="st0" d="M1336.1-280.2v8.3"/>
	<path class="st0" d="M1342.9-287.2v22.5"/>
	<path class="st0" d="M1349.6-282.6v13.3"/>
	<path class="st0" d="M1356.4-280.5v8.9"/>
	<path class="st0" d="M1363.2-279.2v6.3"/>
	<path class="st0" d="M1369.9-277.9v3.8"/>
	<path class="st0" d="M1376.7-276.6v1.2"/>
	<path class="st0" d="M1383.5-276.7v1.4"/>
	<path class="st0" d="M1390.2-283.8v15.5"/>
	<path class="st0" d="M1397-298.2v44.5"/>
</g>
</svg>
