<?xml version="1.0" encoding="utf-8"?>
<!-- Generator: Adobe Illustrator 22.0.0, SVG Export Plug-In . SVG Version: 6.00 Build 0)  -->
<svg version="1.1" id="Layer_1" xmlns="http://www.w3.org/2000/svg" xmlns:xlink="http://www.w3.org/1999/xlink" x="0px" y="0px"
	 viewBox="0 0 1400 180" style="enable-background:new 0 0 1400 180;" xml:space="preserve">
<style type="text/css">
	.st0{fill:none;stroke:#FFD040;stroke-width:3.4444;stroke-linecap:round;stroke-miterlimit:10;}
</style>
<g transform="scale(1,1)">
</g>
<g transform="translate(0,366)">
	<path class="st0" d="M1.5-287.4v22.9"/>
	<path class="st0" d="M8.4-316.9v81.8"/>
	<path class="st0" d="M15.3-321.9v91.9"/>
	<path class="st0" d="M22.1-313.5v75.1"/>
	<path class="st0" d="M29-309.4v66.7"/>
	<path class="st0" d="M35.9-306.3v60.5"/>
	<path class="st0" d="M42.8-317.7v83.5"/>
	<path class="st0" d="M49.7-324.7v97.5"/>
	<path class="st0" d="M56.6-304.3v56.6"/>
	<path class="st0" d="M63.5-306.3v60.5"/>
	<path class="st0" d="M70.4-311v69.9"/>
	<path class="st0" d="M77.3-302.3v52.6"/>
	<path class="st0" d="M84.1-284.8v17.5"/>
	<path class="st0" d="M91-278.2v4.4"/>
	<path class="st0" d="M97.9-278.3v4.5"/>
	<path class="st0" d="M104.8-278.1v4.1"/>
	<path class="st0" d="M111.7-277.6v3.2"/>
	<path class="st0" d="M118.6-279v5.9"/>
	<path class="st0" d="M125.5-297.4v42.9"/>
	<path class="st0" d="M132.4-328.8v105.6"/>
	<path class="st0" d="M139.3-332.2v112.3"/>
	<path class="st0" d="M146.1-291.8v31.7"/>
	<path class="st0" d="M153-279.6v7.2"/>
	<path class="st0" d="M159.9-308.8v65.7"/>
	<path class="st0" d="M166.8-331.6v111.1"/>
	<path class="st0" d="M173.7-296.5v41"/>
	<path class="st0" d="M180.6-297.7v43.4"/>
	<path class="st0" d="M187.5-325.6v99.2"/>
	<path class="st0" d="M194.4-325.3v98.6"/>
	<path class="st0" d="M201.3-340.7v129.5"/>
	<path class="st0" d="M208.1-309.5v66.9"/>
	<path class="st0" d="M215-298.9v45.7"/>
	<path class="st0" d="M221.9-335.6v119.2"/>
	<path class="st0" d="M228.8-325.2v98.4"/>
	<path class="st0" d="M235.7-303.3v54.6"/>
	<path class="st0" d="M242.6-298v43.9"/>
	<path class="st0" d="M249.5-322.9v93.9"/>
	<path class="st0" d="M256.4-322.8v93.5"/>
	<path class="st0" d="M263.2-324.8v97.6"/>
	<path class="st0" d="M270.1-305.3v58.5"/>
	<path class="st0" d="M277-326.5v101.1"/>
	<path class="st0" d="M283.9-314.4v76.8"/>
	<path class="st0" d="M290.8-283.3v14.5"/>
	<path class="st0" d="M297.7-292.8v33.6"/>
	<path class="st0" d="M304.6-339.4v126.8"/>
	<path class="st0" d="M311.5-302.7v53.4"/>
	<path class="st0" d="M318.4-340.9v129.8"/>
	<path class="st0" d="M325.2-337.6v123.2"/>
	<path class="st0" d="M332.1-319.9v87.8"/>
	<path class="st0" d="M339-280.2v8.4"/>
	<path class="st0" d="M345.9-291.4v30.8"/>
	<path class="st0" d="M352.8-319.7v87.4"/>
	<path class="st0" d="M359.7-313v73.9"/>
	<path class="st0" d="M366.6-312.6v73.2"/>
	<path class="st0" d="M373.5-312.7v73.4"/>
	<path class="st0" d="M380.4-294.4v36.8"/>
	<path class="st0" d="M387.2-321.8v91.5"/>
	<path class="st0" d="M394.1-319.2v86.3"/>
	<path class="st0" d="M401-311.8v71.6"/>
	<path class="st0" d="M407.9-326.7v101.4"/>
	<path class="st0" d="M414.8-305.6v59.2"/>
	<path class="st0" d="M421.7-304.9v57.9"/>
	<path class="st0" d="M428.6-297v42"/>
	<path class="st0" d="M435.5-320.5v89"/>
	<path class="st0" d="M442.4-316.1v80.2"/>
	<path class="st0" d="M449.2-307.1v62.2"/>
	<path class="st0" d="M456.1-315.7v79.4"/>
	<path class="st0" d="M463-306v60"/>
	<path class="st0" d="M469.9-303.8v55.5"/>
	<path class="st0" d="M476.8-305.1v58.2"/>
	<path class="st0" d="M483.7-289.2v26.5"/>
	<path class="st0" d="M490.6-306.1v60.2"/>
	<path class="st0" d="M497.5-300.3v48.7"/>
	<path class="st0" d="M504.4-288.4v24.7"/>
	<path class="st0" d="M511.2-278.9v5.8"/>
	<path class="st0" d="M518.1-278.5v5"/>
	<path class="st0" d="M525-277.7v3.4"/>
	<path class="st0" d="M531.9-304.6v57.1"/>
	<path class="st0" d="M538.8-338.1v124.2"/>
	<path class="st0" d="M545.7-340.7v129.4"/>
	<path class="st0" d="M552.6-329V-223"/>
	<path class="st0" d="M559.5-333.9v115.7"/>
	<path class="st0" d="M566.4-325v98.1"/>
	<path class="st0" d="M573.2-308.6v65.2"/>
	<path class="st0" d="M580.1-288.6v25.1"/>
	<path class="st0" d="M587-284.2v16.5"/>
	<path class="st0" d="M593.9-277.7v3.4"/>
	<path class="st0" d="M600.8-278v3.9"/>
	<path class="st0" d="M607.7-281.3v10.6"/>
	<path class="st0" d="M614.6-303.8v55.6"/>
	<path class="st0" d="M621.5-327.2v102.3"/>
	<path class="st0" d="M628.4-328.6v105.2"/>
	<path class="st0" d="M635.2-323v94.1"/>
	<path class="st0" d="M642.1-293.9v35.8"/>
	<path class="st0" d="M649-278.1v4.2"/>
	<path class="st0" d="M655.9-278.2v4.4"/>
	<path class="st0" d="M662.8-301v50"/>
	<path class="st0" d="M669.7-311.3v70.7"/>
	<path class="st0" d="M676.6-331v110"/>
	<path class="st0" d="M683.5-328.4v104.8"/>
	<path class="st0" d="M690.4-294v36"/>
	<path class="st0" d="M697.2-300.4v48.7"/>
	<path class="st0" d="M704.1-330.9v109.9"/>
	<path class="st0" d="M711-333.1v114.1"/>
	<path class="st0" d="M717.9-319v86"/>
	<path class="st0" d="M724.8-309.2v66.4"/>
	<path class="st0" d="M731.7-317.7v83.5"/>
	<path class="st0" d="M738.6-283.1v14.2"/>
	<path class="st0" d="M745.5-279.1v6.2"/>
	<path class="st0" d="M752.3-296.9v41.8"/>
	<path class="st0" d="M759.2-306.1v60.1"/>
	<path class="st0" d="M766.1-327.2v102.4"/>
	<path class="st0" d="M773-318.5v85"/>
	<path class="st0" d="M779.9-346.5v140.9"/>
	<path class="st0" d="M786.8-319.2v86.5"/>
	<path class="st0" d="M793.7-314v76"/>
	<path class="st0" d="M800.6-336.3v120.5"/>
	<path class="st0" d="M807.5-315.4v78.8"/>
	<path class="st0" d="M814.3-322.9v93.7"/>
	<path class="st0" d="M821.2-302.5v53"/>
	<path class="st0" d="M828.1-303.6v55.1"/>
	<path class="st0" d="M835-309.7v67.4"/>
	<path class="st0" d="M841.9-308.5v65"/>
	<path class="st0" d="M848.8-317v82.1"/>
	<path class="st0" d="M855.7-314.3v76.5"/>
	<path class="st0" d="M862.6-327.3v102.6"/>
	<path class="st0" d="M869.5-299.1v46.2"/>
	<path class="st0" d="M876.3-325.9v99.8"/>
	<path class="st0" d="M883.2-297.5v43.1"/>
	<path class="st0" d="M890.1-303.8v55.6"/>
	<path class="st0" d="M897-306.4v60.9"/>
	<path class="st0" d="M903.9-298.9v45.7"/>
	<path class="st0" d="M910.8-282.9v13.9"/>
	<path class="st0" d="M917.7-313.7v75.4"/>
	<path class="st0" d="M924.6-291v29.9"/>
	<path class="st0" d="M931.5-310.3v68.7"/>
	<path class="st0" d="M938.3-331.1v110.3"/>
	<path class="st0" d="M945.2-292.4v32.8"/>
	<path class="st0" d="M952.1-278.1v4.2"/>
	<path class="st0" d="M959-277.8v3.6"/>
	<path class="st0" d="M965.9-313.8v75.7"/>
	<path class="st0" d="M972.8-325.2v98.4"/>
	<path class="st0" d="M979.7-328.6v105.2"/>
	<path class="st0" d="M986.6-319.8v87.6"/>
	<path class="st0" d="M993.5-280.5v9.1"/>
	<path class="st0" d="M1000.3-289.4v26.8"/>
	<path class="st0" d="M1007.2-320.2v88.4"/>
	<path class="st0" d="M1014.1-339.7v127.3"/>
	<path class="st0" d="M1021-344.7v137.5"/>
	<path class="st0" d="M1027.9-324.4v96.9"/>
	<path class="st0" d="M1034.8-329.5v107"/>
	<path class="st0" d="M1041.7-331.9v111.8"/>
	<path class="st0" d="M1048.6-320v88.1"/>
	<path class="st0" d="M1055.5-313.7v75.4"/>
	<path class="st0" d="M1062.3-314.5v76.9"/>
	<path class="st0" d="M1069.2-303.5v55"/>
	<path class="st0" d="M1076.1-324v96.1"/>
	<path class="st0" d="M1083-325.9v99.8"/>
	<path class="st0" d="M1089.9-301.8v51.6"/>
	<path class="st0" d="M1096.8-290.9v29.8"/>
	<path class="st0" d="M1103.7-305v58.1"/>
	<path class="st0" d="M1110.6-299.7v47.3"/>
	<path class="st0" d="M1117.5-278.1v4.2"/>
	<path class="st0" d="M1124.3-277.9v3.8"/>
	<path class="st0" d="M1131.2-277.6v3.2"/>
	<path class="st0" d="M1138.1-306.8v61.5"/>
	<path class="st0" d="M1145-315.7v79.4"/>
	<path class="st0" d="M1151.9-330.4v108.7"/>
	<path class="st0" d="M1158.8-285.5v18.9"/>
	<path class="st0" d="M1165.7-292.5v33"/>
	<path class="st0" d="M1172.6-333.8v115.6"/>
	<path class="st0" d="M1179.4-331.7v111.4"/>
	<path class="st0" d="M1186.3-327.8v103.5"/>
	<path class="st0" d="M1193.2-286.6v21.2"/>
	<path class="st0" d="M1200.1-313.7v75.4"/>
	<path class="st0" d="M1207-326.6v101.3"/>
	<path class="st0" d="M1213.9-303.9v55.8"/>
	<path class="st0" d="M1220.8-314.8v77.7"/>
	<path class="st0" d="M1227.7-298.9v45.8"/>
	<path class="st0" d="M1234.6-318.2v84.4"/>
	<path class="st0" d="M1241.4-320.2v88.4"/>
	<path class="st0" d="M1248.3-319v86"/>
	<path class="st0" d="M1255.2-304.2v56.4"/>
	<path class="st0" d="M1262.1-313.5v75"/>
	<path class="st0" d="M1269-288.7v25.5"/>
	<path class="st0" d="M1275.9-313v74"/>
	<path class="st0" d="M1282.8-312.5v72.9"/>
	<path class="st0" d="M1289.7-304.9v57.8"/>
	<path class="st0" d="M1296.6-289.1v26.3"/>
	<path class="st0" d="M1303.4-302.1v52.2"/>
	<path class="st0" d="M1310.3-295.1v38.1"/>
	<path class="st0" d="M1317.2-306.4v60.9"/>
	<path class="st0" d="M1324.1-286.7v21.4"/>
	<path class="st0" d="M1331-309.8v67.5"/>
	<path class="st0" d="M1337.9-286.7v21.5"/>
	<path class="st0" d="M1344.8-297.3v42.5"/>
	<path class="st0" d="M1351.7-303.6v55.3"/>
	<path class="st0" d="M1358.6-295.1v38.1"/>
	<path class="st0" d="M1365.4-298.9v45.8"/>
	<path class="st0" d="M1372.3-291.3v30.5"/>
	<path class="st0" d="M1379.2-302.8v53.7"/>
	<path class="st0" d="M1386.1-297v42"/>
	<path class="st0" d="M1393-277.6v3.3"/>
</g>
</svg>
