<?xml version="1.0" encoding="utf-8"?>
<!-- Generator: Adobe Illustrator 22.0.0, SVG Export Plug-In . SVG Version: 6.00 Build 0)  -->
<svg version="1.1" id="Layer_1" xmlns="http://www.w3.org/2000/svg" xmlns:xlink="http://www.w3.org/1999/xlink" x="0px" y="0px"
	 viewBox="0 0 1400 180" style="enable-background:new 0 0 1400 180;" xml:space="preserve">
<style type="text/css">
	.st0{fill:none;stroke:#FFD040;stroke-width:3.2142;stroke-linecap:round;stroke-miterlimit:10;}
</style>
<g transform="scale(1,1)">
</g>
<g transform="translate(0,503)">
	<path class="st0" d="M10-444.6v63.3"/>
	<path class="st0" d="M16.4-453.8v81.5"/>
	<path class="st0" d="M22.9-442.8v59.5"/>
	<path class="st0" d="M29.3-435.5v45"/>
	<path class="st0" d="M35.7-440.4v54.8"/>
	<path class="st0" d="M42.2-423.5v21"/>
	<path class="st0" d="M48.6-446v65.9"/>
	<path class="st0" d="M55-436.8v47.7"/>
	<path class="st0" d="M61.4-449.3v72.6"/>
	<path class="st0" d="M67.9-423.3v20.7"/>
	<path class="st0" d="M74.3-433.7v41.5"/>
	<path class="st0" d="M80.7-413.2v0.3"/>
	<path class="st0" d="M87.1-425.8v25.5"/>
	<path class="st0" d="M93.6-415.6v5.1"/>
	<path class="st0" d="M100-413.2v0.3"/>
	<path class="st0" d="M106.4-413L106.4-413"/>
	<path class="st0" d="M112.9-423.6v21.2"/>
	<path class="st0" d="M119.3-453v80"/>
	<path class="st0" d="M125.7-454.2v82.4"/>
	<path class="st0" d="M132.1-454.4v82.7"/>
	<path class="st0" d="M138.6-444.1v62.3"/>
	<path class="st0" d="M145-441.7v57.5"/>
	<path class="st0" d="M151.4-441.7v57.4"/>
	<path class="st0" d="M157.9-446.9v67.9"/>
	<path class="st0" d="M164.3-438.2v50.4"/>
	<path class="st0" d="M170.7-446.1v66.3"/>
	<path class="st0" d="M177.1-439.5v52.9"/>
	<path class="st0" d="M183.6-440.6v55.2"/>
	<path class="st0" d="M190-449.2v72.5"/>
	<path class="st0" d="M196.4-424.9v23.9"/>
	<path class="st0" d="M202.9-429.5v33"/>
	<path class="st0" d="M209.3-428.9v31.8"/>
	<path class="st0" d="M215.7-432.3v38.6"/>
	<path class="st0" d="M222.1-427.6v29.2"/>
	<path class="st0" d="M228.6-427.3v28.6"/>
	<path class="st0" d="M235-421.5v17.1"/>
	<path class="st0" d="M241.4-415.2v4.5"/>
	<path class="st0" d="M247.9-443.5v60.9"/>
	<path class="st0" d="M254.3-441.4v56.7"/>
	<path class="st0" d="M260.7-442.5v59"/>
	<path class="st0" d="M267.1-443.8v61.6"/>
	<path class="st0" d="M273.6-444.7v63.3"/>
	<path class="st0" d="M280-435.5v45.1"/>
	<path class="st0" d="M286.4-416.3v6.7"/>
	<path class="st0" d="M292.9-447.3v68.6"/>
	<path class="st0" d="M299.3-450.3v74.7"/>
	<path class="st0" d="M305.7-457.9v89.7"/>
	<path class="st0" d="M312.1-435.4v44.7"/>
	<path class="st0" d="M318.6-441.6v57.1"/>
	<path class="st0" d="M325-424.3v22.6"/>
	<path class="st0" d="M331.4-457.8v89.7"/>
	<path class="st0" d="M337.9-439.4v52.8"/>
	<path class="st0" d="M344.3-448.7v71.5"/>
	<path class="st0" d="M350.7-455.8v85.5"/>
	<path class="st0" d="M357.1-447.6v69.3"/>
	<path class="st0" d="M363.6-448.3v70.6"/>
	<path class="st0" d="M370-441.4v56.8"/>
	<path class="st0" d="M376.4-431.9v37.9"/>
	<path class="st0" d="M382.9-440.2v54.4"/>
	<path class="st0" d="M389.3-434.5v42.9"/>
	<path class="st0" d="M395.7-425.7v25.4"/>
	<path class="st0" d="M402.1-434.5v43.1"/>
	<path class="st0" d="M408.6-425.5v24.9"/>
	<path class="st0" d="M415-418v10.1"/>
	<path class="st0" d="M421.4-444v62"/>
	<path class="st0" d="M427.8-439.9v53.8"/>
	<path class="st0" d="M434.3-432.2v38.5"/>
	<path class="st0" d="M440.7-438.9v51.9"/>
	<path class="st0" d="M447.1-447.4v68.8"/>
	<path class="st0" d="M453.6-429.8v33.5"/>
	<path class="st0" d="M460-442.3v58.6"/>
	<path class="st0" d="M466.4-462.6v99.3"/>
	<path class="st0" d="M472.8-464.3v102.6"/>
	<path class="st0" d="M479.3-462.4v98.9"/>
	<path class="st0" d="M485.7-454.8v83.6"/>
	<path class="st0" d="M492.1-453v80.1"/>
	<path class="st0" d="M498.6-446.8v67.5"/>
	<path class="st0" d="M505-445.2v64.5"/>
	<path class="st0" d="M511.4-435.9v45.9"/>
	<path class="st0" d="M517.8-441.4v56.9"/>
	<path class="st0" d="M524.3-431.3v36.6"/>
	<path class="st0" d="M530.7-447.8v69.6"/>
	<path class="st0" d="M537.1-455.5v84.9"/>
	<path class="st0" d="M543.6-453.5v81.1"/>
	<path class="st0" d="M550-447.8v69.6"/>
	<path class="st0" d="M556.4-468.2v110.3"/>
	<path class="st0" d="M562.8-448.9v71.7"/>
	<path class="st0" d="M569.3-434.3v42.6"/>
	<path class="st0" d="M575.7-438.9v51.9"/>
	<path class="st0" d="M582.1-430.2v34.4"/>
	<path class="st0" d="M588.6-428.5v30.9"/>
	<path class="st0" d="M595-438.4v50.9"/>
	<path class="st0" d="M601.4-436.1v46.1"/>
	<path class="st0" d="M607.8-444v62"/>
	<path class="st0" d="M614.3-438.3v50.6"/>
	<path class="st0" d="M620.7-435.9v45.8"/>
	<path class="st0" d="M627.1-449.7v73.4"/>
	<path class="st0" d="M633.6-419.3v12.6"/>
	<path class="st0" d="M640-444.2v62.4"/>
	<path class="st0" d="M646.4-445.1v64.3"/>
	<path class="st0" d="M652.8-433.2v40.3"/>
	<path class="st0" d="M659.3-434.6v43.2"/>
	<path class="st0" d="M665.7-429.1v32.2"/>
	<path class="st0" d="M672.1-428.2v30.5"/>
	<path class="st0" d="M678.6-435.2v44.4"/>
	<path class="st0" d="M685-432.1v38.2"/>
	<path class="st0" d="M691.4-435.8v45.6"/>
	<path class="st0" d="M697.8-431.3v36.5"/>
	<path class="st0" d="M704.3-448.9v71.8"/>
	<path class="st0" d="M710.7-439.8v53.6"/>
	<path class="st0" d="M717.1-435.1v44.3"/>
	<path class="st0" d="M723.6-453.4v80.9"/>
	<path class="st0" d="M730-437v48"/>
	<path class="st0" d="M736.4-434.6v43.3"/>
	<path class="st0" d="M742.8-444.6v63.2"/>
	<path class="st0" d="M749.3-434.3v42.5"/>
	<path class="st0" d="M755.7-446.9v67.8"/>
	<path class="st0" d="M762.1-445.4v64.8"/>
	<path class="st0" d="M768.6-437.9v49.8"/>
	<path class="st0" d="M775-444.6v63.3"/>
	<path class="st0" d="M781.4-435.2v44.4"/>
	<path class="st0" d="M787.8-422.4v18.7"/>
	<path class="st0" d="M794.3-443.6v61.2"/>
	<path class="st0" d="M800.7-461v96"/>
	<path class="st0" d="M807.1-451.5v77"/>
	<path class="st0" d="M813.5-449.7v73.4"/>
	<path class="st0" d="M820-434.9v43.7"/>
	<path class="st0" d="M826.4-438.6v51.2"/>
	<path class="st0" d="M832.8-431.5v36.9"/>
	<path class="st0" d="M839.3-429.7v33.4"/>
	<path class="st0" d="M845.7-431.3v36.7"/>
	<path class="st0" d="M852.1-433.8v41.6"/>
	<path class="st0" d="M858.5-432.4v38.9"/>
	<path class="st0" d="M865-459.1v92.3"/>
	<path class="st0" d="M871.4-462.4v98.8"/>
	<path class="st0" d="M877.8-442.9v59.7"/>
	<path class="st0" d="M884.3-419.4v12.8"/>
	<path class="st0" d="M890.7-431.7v37.5"/>
	<path class="st0" d="M897.1-442.3v58.6"/>
	<path class="st0" d="M903.5-437.5v49"/>
	<path class="st0" d="M910-413.4v0.8"/>
	<path class="st0" d="M916.4-441.4v56.8"/>
	<path class="st0" d="M922.8-432.1v38.2"/>
	<path class="st0" d="M929.3-440.7v55.5"/>
	<path class="st0" d="M935.7-439.6v53.1"/>
	<path class="st0" d="M942.1-431.3v36.6"/>
	<path class="st0" d="M948.5-440.7v55.4"/>
	<path class="st0" d="M955-450.3v74.6"/>
	<path class="st0" d="M961.4-455.7v85.5"/>
	<path class="st0" d="M967.8-416.1v6.1"/>
	<path class="st0" d="M974.3-431v36"/>
	<path class="st0" d="M980.7-420.6v15.2"/>
	<path class="st0" d="M987.1-413.7v1.4"/>
	<path class="st0" d="M993.5-429.6v33.1"/>
	<path class="st0" d="M1000-442v58"/>
	<path class="st0" d="M1006.4-430.1v34.1"/>
	<path class="st0" d="M1012.8-437.9v49.8"/>
	<path class="st0" d="M1019.3-427.8v29.7"/>
	<path class="st0" d="M1025.7-427.1v28.1"/>
	<path class="st0" d="M1032.1-425.6v25.2"/>
	<path class="st0" d="M1038.5-431.6v37.2"/>
	<path class="st0" d="M1045-427.8v29.6"/>
	<path class="st0" d="M1051.4-424.6v23.3"/>
	<path class="st0" d="M1057.8-430.5v35"/>
	<path class="st0" d="M1064.3-439.5v53"/>
	<path class="st0" d="M1070.7-417.4v8.9"/>
	<path class="st0" d="M1077.1-441v56"/>
	<path class="st0" d="M1083.5-449.4v72.8"/>
	<path class="st0" d="M1090-435.9v45.9"/>
	<path class="st0" d="M1096.4-426.7v27.4"/>
	<path class="st0" d="M1102.8-433.5v41.1"/>
	<path class="st0" d="M1109.3-432.1v38.3"/>
	<path class="st0" d="M1115.7-435.2v44.5"/>
	<path class="st0" d="M1122.1-438.6v51.1"/>
	<path class="st0" d="M1128.5-425.7v25.5"/>
	<path class="st0" d="M1135-435v44"/>
	<path class="st0" d="M1141.4-447.4v68.7"/>
	<path class="st0" d="M1147.8-418.7v11.4"/>
	<path class="st0" d="M1154.2-432.2v38.5"/>
	<path class="st0" d="M1160.7-431.3v36.6"/>
	<path class="st0" d="M1167.1-440.3v54.7"/>
	<path class="st0" d="M1173.5-439.9v53.8"/>
	<path class="st0" d="M1180-432.3v38.5"/>
	<path class="st0" d="M1186.4-423.2v20.3"/>
	<path class="st0" d="M1192.8-432.2v38.4"/>
	<path class="st0" d="M1199.2-432.5v39"/>
	<path class="st0" d="M1205.7-418.9v11.7"/>
	<path class="st0" d="M1212.1-433.9v41.7"/>
	<path class="st0" d="M1218.5-423.8v21.7"/>
	<path class="st0" d="M1225-426.4v26.8"/>
	<path class="st0" d="M1231.4-435.5v45"/>
	<path class="st0" d="M1237.8-436.4v46.8"/>
	<path class="st0" d="M1244.2-431.1v36.3"/>
	<path class="st0" d="M1250.7-438.1v50.1"/>
	<path class="st0" d="M1257.1-438.7v51.4"/>
	<path class="st0" d="M1263.5-432.1v38.2"/>
	<path class="st0" d="M1270-438.3v50.6"/>
	<path class="st0" d="M1276.4-433.9v41.7"/>
	<path class="st0" d="M1282.8-440.9v55.8"/>
	<path class="st0" d="M1289.2-432.2v38.4"/>
	<path class="st0" d="M1295.7-435.2v44.5"/>
	<path class="st0" d="M1302.1-417.3v8.6"/>
	<path class="st0" d="M1308.5-428.6v31.2"/>
	<path class="st0" d="M1315-435.3v44.6"/>
	<path class="st0" d="M1321.4-435.9v45.9"/>
	<path class="st0" d="M1327.8-440.3v54.6"/>
	<path class="st0" d="M1334.2-424.3v22.6"/>
	<path class="st0" d="M1340.7-427.3v28.5"/>
	<path class="st0" d="M1347.1-422.6v19.1"/>
	<path class="st0" d="M1353.5-422.7v19.4"/>
	<path class="st0" d="M1360-427.2v28.4"/>
	<path class="st0" d="M1366.4-428.7v31.3"/>
	<path class="st0" d="M1372.8-427v28"/>
	<path class="st0" d="M1379.2-425.6v25.1"/>
	<path class="st0" d="M1385.7-430.7v35.5"/>
	<path class="st0" d="M1392.1-422.9v19.7"/>
	<path class="st0" d="M1398.5-417.8v9.7"/>
</g>
</svg>
