<?xml version="1.0" encoding="utf-8"?>
<!-- Generator: Adobe Illustrator 22.0.0, SVG Export Plug-In . SVG Version: 6.00 Build 0)  -->
<svg version="1.1" id="Layer_1" xmlns="http://www.w3.org/2000/svg" xmlns:xlink="http://www.w3.org/1999/xlink" x="0px" y="0px"
	 viewBox="0 0 1400 180" style="enable-background:new 0 0 1400 180;" xml:space="preserve">
<style type="text/css">
	.st0{fill:none;stroke:#FFD040;stroke-width:2.8293;stroke-linecap:round;stroke-miterlimit:10;}
</style>
<g transform="scale(1,1)">
</g>
<g transform="translate(0,428)">
	<path class="st0" d="M0-370.1v64.3"/>
	<path class="st0" d="M5.6-385.9v95.8"/>
	<path class="st0" d="M11.3-381.5v87.1"/>
	<path class="st0" d="M17-375.4v74.8"/>
	<path class="st0" d="M22.6-364.5v52.9"/>
	<path class="st0" d="M28.3-375v74.2"/>
	<path class="st0" d="M33.9-380.9v85.7"/>
	<path class="st0" d="M39.6-376.5v77"/>
	<path class="st0" d="M45.3-361.5v47.1"/>
	<path class="st0" d="M50.9-377.9v79.7"/>
	<path class="st0" d="M56.6-367.2v58.6"/>
	<path class="st0" d="M62.2-368v60"/>
	<path class="st0" d="M67.9-359.9v43.8"/>
	<path class="st0" d="M73.5-361.2v46.5"/>
	<path class="st0" d="M79.2-348v19.9"/>
	<path class="st0" d="M84.9-395.5v115.1"/>
	<path class="st0" d="M90.5-385.5v95"/>
	<path class="st0" d="M96.2-368.5v61.1"/>
	<path class="st0" d="M101.8-375v74.2"/>
	<path class="st0" d="M107.5-367.5v59.2"/>
	<path class="st0" d="M113.2-372.9v69.8"/>
	<path class="st0" d="M118.8-361.5v47.2"/>
	<path class="st0" d="M124.5-368.5v61.2"/>
	<path class="st0" d="M130.1-358v40"/>
	<path class="st0" d="M135.8-339v2.1"/>
	<path class="st0" d="M141.5-387v97.9"/>
	<path class="st0" d="M147.1-386.1v96.3"/>
	<path class="st0" d="M152.8-388.8v101.5"/>
	<path class="st0" d="M158.4-376.9v77.8"/>
	<path class="st0" d="M164.1-375v74"/>
	<path class="st0" d="M169.7-368.5v60.9"/>
	<path class="st0" d="M175.4-358.5v40.9"/>
	<path class="st0" d="M181.1-357.6v39.3"/>
	<path class="st0" d="M186.7-393.4v110.7"/>
	<path class="st0" d="M192.4-384.1v92.4"/>
	<path class="st0" d="M198-383.4v90.7"/>
	<path class="st0" d="M203.7-380.5v85.1"/>
	<path class="st0" d="M209.4-382v88.2"/>
	<path class="st0" d="M215-380.8v85.6"/>
	<path class="st0" d="M220.7-364v52.2"/>
	<path class="st0" d="M226.3-351.9v27.6"/>
	<path class="st0" d="M232-379.1v82.4"/>
	<path class="st0" d="M237.6-389v101.9"/>
	<path class="st0" d="M243.3-359.9v43.7"/>
	<path class="st0" d="M249-371.5v67"/>
	<path class="st0" d="M254.6-379v82"/>
	<path class="st0" d="M260.3-375.1v74.2"/>
	<path class="st0" d="M265.9-355.6v35.3"/>
	<path class="st0" d="M271.6-365.9v55.6"/>
	<path class="st0" d="M277.3-369.6v63.4"/>
	<path class="st0" d="M282.9-359v42"/>
	<path class="st0" d="M288.6-349.9v23.8"/>
	<path class="st0" d="M294.2-372v68"/>
	<path class="st0" d="M299.9-366v56"/>
	<path class="st0" d="M305.6-361.1v46.3"/>
	<path class="st0" d="M311.2-349.2v22.6"/>
	<path class="st0" d="M316.9-379.8v83.6"/>
	<path class="st0" d="M322.5-370.5v65.1"/>
	<path class="st0" d="M328.2-359.8v43.6"/>
	<path class="st0" d="M333.8-358.4v40.8"/>
	<path class="st0" d="M339.5-384.8v93.6"/>
	<path class="st0" d="M345.2-377.2v78.6"/>
	<path class="st0" d="M350.8-364.6v53.3"/>
	<path class="st0" d="M356.5-353.9v31.8"/>
	<path class="st0" d="M362.1-352v28"/>
	<path class="st0" d="M367.8-371v65.8"/>
	<path class="st0" d="M373.5-373.1v70.4"/>
	<path class="st0" d="M379.1-374.1v72.3"/>
	<path class="st0" d="M384.8-360.8v45.4"/>
	<path class="st0" d="M390.4-356.5v36.9"/>
	<path class="st0" d="M396.1-348v20.2"/>
	<path class="st0" d="M401.7-341.8v7.5"/>
	<path class="st0" d="M407.4-374v71.9"/>
	<path class="st0" d="M413.1-374v72"/>
	<path class="st0" d="M418.7-387v98"/>
	<path class="st0" d="M424.4-369.2v62.5"/>
	<path class="st0" d="M430-360.1v44.3"/>
	<path class="st0" d="M435.7-355v34"/>
	<path class="st0" d="M441.4-347.9v19.7"/>
	<path class="st0" d="M447-363.5v51"/>
	<path class="st0" d="M452.7-371.5v66.9"/>
	<path class="st0" d="M458.3-365.5v55"/>
	<path class="st0" d="M464-347.9v19.6"/>
	<path class="st0" d="M469.7-365.5v54.9"/>
	<path class="st0" d="M475.3-369.5v63"/>
	<path class="st0" d="M481-354.9v33.7"/>
	<path class="st0" d="M486.6-346.5v17.1"/>
	<path class="st0" d="M492.3-340.9v5.7"/>
	<path class="st0" d="M497.9-343.2v10.6"/>
	<path class="st0" d="M503.6-340.1v4.3"/>
	<path class="st0" d="M509.3-359.4v42.6"/>
	<path class="st0" d="M514.9-363.2v50.5"/>
	<path class="st0" d="M520.6-357.4v38.8"/>
	<path class="st0" d="M526.2-365v53.9"/>
	<path class="st0" d="M531.9-356.8v37.5"/>
	<path class="st0" d="M537.6-375v74"/>
	<path class="st0" d="M543.2-373.2v70.5"/>
	<path class="st0" d="M548.9-371v66.2"/>
	<path class="st0" d="M554.5-365.1v54.4"/>
	<path class="st0" d="M560.2-366v55.8"/>
	<path class="st0" d="M565.8-364v51.9"/>
	<path class="st0" d="M571.5-378v80.1"/>
	<path class="st0" d="M577.2-348.5v21.1"/>
	<path class="st0" d="M582.8-381.8v87.5"/>
	<path class="st0" d="M588.5-373.4v70.7"/>
	<path class="st0" d="M594.1-379.2v82.5"/>
	<path class="st0" d="M599.8-363v49.9"/>
	<path class="st0" d="M605.5-357.1v38.3"/>
	<path class="st0" d="M611.1-349.8v23.5"/>
	<path class="st0" d="M616.8-365.6v55.4"/>
	<path class="st0" d="M622.4-371v66.2"/>
	<path class="st0" d="M628.1-368.5v60.9"/>
	<path class="st0" d="M633.8-361.5v46.9"/>
	<path class="st0" d="M639.4-357.8v39.6"/>
	<path class="st0" d="M645.1-355.4v34.7"/>
	<path class="st0" d="M650.7-367v58"/>
	<path class="st0" d="M656.4-341v6.1"/>
	<path class="st0" d="M662-361.5v47.1"/>
	<path class="st0" d="M667.7-377.8v79.6"/>
	<path class="st0" d="M673.4-367.1v58.3"/>
	<path class="st0" d="M679-372.2v68.5"/>
	<path class="st0" d="M684.7-360.8v45.4"/>
	<path class="st0" d="M690.3-390.2v104.6"/>
	<path class="st0" d="M696-349.8v23.4"/>
	<path class="st0" d="M701.7-364.1v52.3"/>
	<path class="st0" d="M707.3-372.1v68.2"/>
	<path class="st0" d="M713-373.5v70.9"/>
	<path class="st0" d="M718.6-376.1v76.3"/>
	<path class="st0" d="M724.3-375.5v75.2"/>
	<path class="st0" d="M729.9-342.9v9.7"/>
	<path class="st0" d="M735.6-367.4v58.6"/>
	<path class="st0" d="M741.3-376v76.1"/>
	<path class="st0" d="M746.9-350.9v25.8"/>
	<path class="st0" d="M752.6-359.6v43.4"/>
	<path class="st0" d="M758.2-361.1v46.4"/>
	<path class="st0" d="M763.9-364.2v52.5"/>
	<path class="st0" d="M769.6-368.5v61.1"/>
	<path class="st0" d="M775.2-350.5v25"/>
	<path class="st0" d="M780.9-348.2v20.5"/>
	<path class="st0" d="M786.5-343.6v11.3"/>
	<path class="st0" d="M792.2-373.6v71.3"/>
	<path class="st0" d="M797.9-363.6v51.4"/>
	<path class="st0" d="M803.5-389.2v102.6"/>
	<path class="st0" d="M809.2-374.9v73.7"/>
	<path class="st0" d="M814.8-383v90.1"/>
	<path class="st0" d="M820.5-352.5v29.1"/>
	<path class="st0" d="M826.1-375v74.2"/>
	<path class="st0" d="M831.8-359.2v42.5"/>
	<path class="st0" d="M837.5-372v68"/>
	<path class="st0" d="M843.1-366v55.9"/>
	<path class="st0" d="M848.8-358.9v41.7"/>
	<path class="st0" d="M854.4-367.5v59"/>
	<path class="st0" d="M860.1-357v38.1"/>
	<path class="st0" d="M865.8-344.8v13.5"/>
	<path class="st0" d="M871.4-355.1v34.3"/>
	<path class="st0" d="M877.1-371.9v67.7"/>
	<path class="st0" d="M882.7-350.4v24.7"/>
	<path class="st0" d="M888.4-356v35.8"/>
	<path class="st0" d="M894-358.5v41"/>
	<path class="st0" d="M899.7-371.9v67.7"/>
	<path class="st0" d="M905.4-346.5v17"/>
	<path class="st0" d="M911-365.8v55.5"/>
	<path class="st0" d="M916.7-357.8v39.6"/>
	<path class="st0" d="M922.3-363.1v50.3"/>
	<path class="st0" d="M928-376v76.1"/>
	<path class="st0" d="M933.7-345.5v14.9"/>
	<path class="st0" d="M939.3-367.4v58.7"/>
	<path class="st0" d="M945-374.5v72.8"/>
	<path class="st0" d="M950.6-359v41.9"/>
	<path class="st0" d="M956.3-366.5v57.1"/>
	<path class="st0" d="M962-348.8v21.5"/>
	<path class="st0" d="M967.6-368.9v61.8"/>
	<path class="st0" d="M973.3-368.4v60.7"/>
	<path class="st0" d="M978.9-363.6v51.3"/>
	<path class="st0" d="M984.6-364.5v52.9"/>
	<path class="st0" d="M990.2-374.1v72.3"/>
	<path class="st0" d="M995.9-365.1v54.3"/>
	<path class="st0" d="M1001.6-370.9v65.8"/>
	<path class="st0" d="M1007.2-357.4v38.8"/>
	<path class="st0" d="M1012.9-371.8v67.5"/>
	<path class="st0" d="M1018.5-362.9v49.8"/>
	<path class="st0" d="M1024.2-371.1v66.4"/>
	<path class="st0" d="M1029.9-349.8v23.6"/>
	<path class="st0" d="M1035.5-365.5v54.9"/>
	<path class="st0" d="M1041.2-368.4v60.7"/>
	<path class="st0" d="M1046.8-371v66.2"/>
	<path class="st0" d="M1052.5-379.1v82.3"/>
	<path class="st0" d="M1058.1-367.6v59.4"/>
	<path class="st0" d="M1063.8-347.1v18.4"/>
	<path class="st0" d="M1069.5-384.4v92.7"/>
	<path class="st0" d="M1075.1-392.5v109.1"/>
	<path class="st0" d="M1080.8-372.1v68.4"/>
	<path class="st0" d="M1086.4-377.2v78.5"/>
	<path class="st0" d="M1092.1-370.6v65.2"/>
	<path class="st0" d="M1097.8-371v65.9"/>
	<path class="st0" d="M1103.4-353.5v31.2"/>
	<path class="st0" d="M1109.1-359.8v43.6"/>
	<path class="st0" d="M1114.7-367.9v59.6"/>
	<path class="st0" d="M1120.4-355.2v34.6"/>
	<path class="st0" d="M1126.1-357v38.2"/>
	<path class="st0" d="M1131.7-345.8v15.5"/>
	<path class="st0" d="M1137.4-343v9.8"/>
	<path class="st0" d="M1143-395.5v115"/>
	<path class="st0" d="M1148.7-392.6v109.3"/>
	<path class="st0" d="M1154.3-347v18"/>
	<path class="st0" d="M1160-387v98.1"/>
	<path class="st0" d="M1165.7-386.5v97.2"/>
	<path class="st0" d="M1171.3-370.1v64.3"/>
	<path class="st0" d="M1177-355.6v35.4"/>
	<path class="st0" d="M1182.6-365.5v55.1"/>
	<path class="st0" d="M1188.3-362.5v49.1"/>
	<path class="st0" d="M1194-383.2v90.4"/>
	<path class="st0" d="M1199.6-379.8v83.5"/>
	<path class="st0" d="M1205.3-370.1v64.3"/>
	<path class="st0" d="M1210.9-373.5v71.1"/>
	<path class="st0" d="M1216.6-362v47.9"/>
	<path class="st0" d="M1222.3-360.8v45.5"/>
	<path class="st0" d="M1227.9-371.6v67.4"/>
	<path class="st0" d="M1233.6-364.5v53.2"/>
	<path class="st0" d="M1239.2-361v46.2"/>
	<path class="st0" d="M1244.9-353.5v30.9"/>
	<path class="st0" d="M1250.5-358.2v40.5"/>
	<path class="st0" d="M1256.2-374.5v72.9"/>
	<path class="st0" d="M1261.9-357.4v38.7"/>
	<path class="st0" d="M1267.5-363v50.2"/>
	<path class="st0" d="M1273.2-348.9v21.7"/>
	<path class="st0" d="M1278.8-377.4v78.8"/>
	<path class="st0" d="M1284.5-368.2v60.5"/>
	<path class="st0" d="M1290.2-363v50.2"/>
	<path class="st0" d="M1295.8-357.2v38.4"/>
	<path class="st0" d="M1301.5-356.5v36.8"/>
	<path class="st0" d="M1307.1-344.1v12.4"/>
	<path class="st0" d="M1312.8-353.5v31.1"/>
	<path class="st0" d="M1318.4-354.9v33.8"/>
	<path class="st0" d="M1324.1-370v63.9"/>
	<path class="st0" d="M1329.8-358v40.1"/>
	<path class="st0" d="M1335.4-355v34.2"/>
	<path class="st0" d="M1341.1-349.5v23.1"/>
	<path class="st0" d="M1346.7-354.1v32.2"/>
	<path class="st0" d="M1352.4-342.6v9.3"/>
	<path class="st0" d="M1358.1-370.2v64.4"/>
	<path class="st0" d="M1363.7-361.8v47.5"/>
	<path class="st0" d="M1369.4-368.2v60.5"/>
	<path class="st0" d="M1375-379.8v83.5"/>
	<path class="st0" d="M1380.7-346.9v17.8"/>
	<path class="st0" d="M1386.4-378.4v80.7"/>
	<path class="st0" d="M1392-390.2v104.6"/>
	<path class="st0" d="M1397.7-411.2v146.5"/>
	<path class="st0" d="M1403.3-418.4v160.7"/>
</g>
</svg>
