<?xml version="1.0" encoding="utf-8"?>
<!-- Generator: Adobe Illustrator 22.0.0, SVG Export Plug-In . SVG Version: 6.00 Build 0)  -->
<svg version="1.1" id="Layer_1" xmlns="http://www.w3.org/2000/svg" xmlns:xlink="http://www.w3.org/1999/xlink" x="0px" y="0px"
	 viewBox="0 0 1400 180" style="enable-background:new 0 0 1400 180;" xml:space="preserve">
<style type="text/css">
	.st0{fill:none;stroke:#FFD040;stroke-width:2.9852;stroke-linecap:round;stroke-miterlimit:10;}
</style>
<g transform="translate(0,428)">
	<path class="st0" d="M0-338.2v0.3"/>
	<path class="st0" d="M6-339.5v2.9"/>
	<path class="st0" d="M11.9-340.8v5.6"/>
	<path class="st0" d="M17.9-383.8v91.7"/>
	<path class="st0" d="M23.9-382.2v88.2"/>
	<path class="st0" d="M29.9-367.8v59.5"/>
	<path class="st0" d="M35.8-355.2v34.2"/>
	<path class="st0" d="M41.8-396.2V-280"/>
	<path class="st0" d="M47.8-392v107.8"/>
	<path class="st0" d="M53.7-387.7v99.3"/>
	<path class="st0" d="M59.7-381.2v86.1"/>
	<path class="st0" d="M65.7-376.8v77.5"/>
	<path class="st0" d="M71.7-373v70.1"/>
	<path class="st0" d="M77.6-373.7v71.3"/>
	<path class="st0" d="M83.6-399V-277"/>
	<path class="st0" d="M89.6-395.3v114.6"/>
	<path class="st0" d="M95.5-391.7v107.2"/>
	<path class="st0" d="M101.5-381.7v87.3"/>
	<path class="st0" d="M107.5-386.7v97.2"/>
	<path class="st0" d="M113.4-387.5v99.1"/>
	<path class="st0" d="M119.4-388.5v101"/>
	<path class="st0" d="M125.4-391.2V-285"/>
	<path class="st0" d="M131.4-380v84"/>
	<path class="st0" d="M137.3-369v61.8"/>
	<path class="st0" d="M143.3-389.2V-287"/>
	<path class="st0" d="M149.3-388.2v100.4"/>
	<path class="st0" d="M155.2-391.5v106.8"/>
	<path class="st0" d="M161.2-394.7v113.2"/>
	<path class="st0" d="M167.2-353.8v31.5"/>
	<path class="st0" d="M173.1-353v30"/>
	<path class="st0" d="M179.1-352.3v28.6"/>
	<path class="st0" d="M185.1-401.8v127.7"/>
	<path class="st0" d="M191.1-392.2v108.5"/>
	<path class="st0" d="M197-383.8v91.5"/>
	<path class="st0" d="M203-375.2v74.5"/>
	<path class="st0" d="M209-362.8v49.5"/>
	<path class="st0" d="M214.9-367.5v58.8"/>
	<path class="st0" d="M220.9-362.5v49.1"/>
	<path class="st0" d="M226.9-353v30.1"/>
	<path class="st0" d="M232.9-388V-288"/>
	<path class="st0" d="M238.8-392.5v109"/>
	<path class="st0" d="M244.8-397V-279"/>
	<path class="st0" d="M250.8-386.2v96.3"/>
	<path class="st0" d="M256.7-380.7v85.3"/>
	<path class="st0" d="M262.7-375.2v74.3"/>
	<path class="st0" d="M268.7-375.2v74.4"/>
	<path class="st0" d="M274.6-362.2v48.2"/>
	<path class="st0" d="M280.6-364.8v53.5"/>
	<path class="st0" d="M286.6-367.3v58.7"/>
	<path class="st0" d="M292.6-363v50.1"/>
	<path class="st0" d="M298.5-378v79.8"/>
	<path class="st0" d="M304.5-373.8v71.6"/>
	<path class="st0" d="M310.5-354.8v33.7"/>
	<path class="st0" d="M316.4-349.3v22.6"/>
	<path class="st0" d="M322.4-355.8v35.7"/>
	<path class="st0" d="M328.4-362.5v48.8"/>
	<path class="st0" d="M334.3-370.7v65.2"/>
	<path class="st0" d="M340.3-392.2V-284"/>
	<path class="st0" d="M346.3-381.3v86.6"/>
	<path class="st0" d="M352.3-370.5v64.9"/>
	<path class="st0" d="M358.2-360v44"/>
	<path class="st0" d="M364.2-362v47.8"/>
	<path class="st0" d="M370.2-363.8v51.5"/>
	<path class="st0" d="M376.1-361.5v46.9"/>
	<path class="st0" d="M382.1-378.8v81.3"/>
	<path class="st0" d="M388.1-382.3v88.5"/>
	<path class="st0" d="M394-385.8v95.7"/>
	<path class="st0" d="M400-391.3v106.6"/>
	<path class="st0" d="M406-391.8v107.5"/>
	<path class="st0" d="M412-392.2v108.4"/>
	<path class="st0" d="M417.9-392.5v109.1"/>
	<path class="st0" d="M423.9-358.2v40.5"/>
	<path class="st0" d="M429.9-356.5v37"/>
	<path class="st0" d="M435.8-354.8v33.5"/>
	<path class="st0" d="M441.8-353.3v30.6"/>
	<path class="st0" d="M447.8-380.3v84.7"/>
	<path class="st0" d="M453.8-399.3v122.7"/>
	<path class="st0" d="M459.7-391.3v106.7"/>
	<path class="st0" d="M465.7-390v104"/>
	<path class="st0" d="M471.7-389.2v102.4"/>
	<path class="st0" d="M477.6-388.5v100.9"/>
	<path class="st0" d="M483.6-389.5v102.8"/>
	<path class="st0" d="M489.6-389.2v102.5"/>
	<path class="st0" d="M495.5-389.5v102.9"/>
	<path class="st0" d="M501.5-389.8v103.6"/>
	<path class="st0" d="M507.5-392.3v108.7"/>
	<path class="st0" d="M513.5-390.7v105.2"/>
	<path class="st0" d="M519.4-389v101.7"/>
	<path class="st0" d="M525.4-349.5v22.8"/>
	<path class="st0" d="M531.4-346v15.8"/>
	<path class="st0" d="M537.3-342.2v8.5"/>
	<path class="st0" d="M543.3-342.2v8.2"/>
	<path class="st0" d="M549.3-342v7.8"/>
	<path class="st0" d="M555.2-341.3v6.6"/>
	<path class="st0" d="M561.2-340.8v5.5"/>
	<path class="st0" d="M567.2-339.5v3.1"/>
	<path class="st0" d="M573.2-345.5v14.8"/>
	<path class="st0" d="M579.1-361.3v46.7"/>
	<path class="st0" d="M585.1-377.2v78.5"/>
	<path class="st0" d="M591.1-394.3v112.7"/>
	<path class="st0" d="M597-395.8v115.7"/>
	<path class="st0" d="M603-397.3v118.6"/>
	<path class="st0" d="M609-379.2v82.2"/>
	<path class="st0" d="M615-347.7v19.2"/>
	<path class="st0" d="M620.9-349.5v23"/>
	<path class="st0" d="M626.9-351.5v26.9"/>
	<path class="st0" d="M632.9-397.2V-279"/>
	<path class="st0" d="M638.8-399.7v123.3"/>
	<path class="st0" d="M644.8-402.2V-274"/>
	<path class="st0" d="M650.8-367.5v58.8"/>
	<path class="st0" d="M656.7-370.5v65.1"/>
	<path class="st0" d="M662.7-387.5v98.9"/>
	<path class="st0" d="M668.7-404.3v132.7"/>
	<path class="st0" d="M674.7-377v77.8"/>
	<path class="st0" d="M680.6-364.3v52.6"/>
	<path class="st0" d="M686.6-351.8v27.4"/>
	<path class="st0" d="M692.6-357.5v38.9"/>
	<path class="st0" d="M698.5-397.8v119.4"/>
	<path class="st0" d="M704.5-384.8v93.6"/>
	<path class="st0" d="M710.5-372v67.9"/>
	<path class="st0" d="M716.4-370.3v64.7"/>
	<path class="st0" d="M722.4-369v61.9"/>
	<path class="st0" d="M728.4-363.5v51.1"/>
	<path class="st0" d="M734.4-365v54"/>
	<path class="st0" d="M740.3-370.5v65"/>
	<path class="st0" d="M746.3-358.3v40.7"/>
	<path class="st0" d="M752.3-353.5v30.9"/>
	<path class="st0" d="M758.2-350.5v25.1"/>
	<path class="st0" d="M764.2-369.2v62.2"/>
	<path class="st0" d="M770.2-384.3v92.6"/>
	<path class="st0" d="M776.2-376.7v77.3"/>
	<path class="st0" d="M782.1-374.5v73"/>
	<path class="st0" d="M788.1-367.7v59.2"/>
	<path class="st0" d="M794.1-361v46"/>
	<path class="st0" d="M800-359.2v42.3"/>
	<path class="st0" d="M806-356.5v36.8"/>
	<path class="st0" d="M812-365.5v54.8"/>
	<path class="st0" d="M817.9-375.8v75.6"/>
	<path class="st0" d="M823.9-367v57.9"/>
	<path class="st0" d="M829.9-363v50"/>
	<path class="st0" d="M835.9-359.2v42.2"/>
	<path class="st0" d="M841.8-352.5v29"/>
	<path class="st0" d="M847.8-350.3v24.6"/>
	<path class="st0" d="M853.8-350v23.9"/>
	<path class="st0" d="M859.7-347.7v19.3"/>
	<path class="st0" d="M865.7-343.5v11"/>
	<path class="st0" d="M871.7-354.2v32.3"/>
	<path class="st0" d="M877.6-366.8v57.4"/>
	<path class="st0" d="M883.6-377.8v79.5"/>
	<path class="st0" d="M889.6-377.8v79.6"/>
	<path class="st0" d="M895.6-375v73.8"/>
	<path class="st0" d="M901.5-372v68"/>
	<path class="st0" d="M907.5-361.5v47.1"/>
	<path class="st0" d="M913.5-348.8v21.3"/>
	<path class="st0" d="M919.4-346.3v16.6"/>
	<path class="st0" d="M925.4-351.8v27.7"/>
	<path class="st0" d="M931.4-359.8v43.6"/>
	<path class="st0" d="M937.4-375.5v75"/>
	<path class="st0" d="M943.3-369v61.9"/>
	<path class="st0" d="M949.3-356v35.8"/>
	<path class="st0" d="M955.3-342.8v9.7"/>
	<path class="st0" d="M961.2-341.5v7"/>
	<path class="st0" d="M967.2-340.5v4.8"/>
	<path class="st0" d="M973.2-341.5v7.1"/>
	<path class="st0" d="M979.1-342.8v9.4"/>
	<path class="st0" d="M985.1-342.5v9.1"/>
	<path class="st0" d="M991.1-342.2v8.3"/>
	<path class="st0" d="M997.1-341.8v7.4"/>
	<path class="st0" d="M1003-340.5v4.9"/>
	<path class="st0" d="M1009-339.2v2.2"/>
	<path class="st0" d="M1015-350v24.1"/>
	<path class="st0" d="M1020.9-361v46.1"/>
	<path class="st0" d="M1026.9-388.8v101.4"/>
	<path class="st0" d="M1032.9-384v91.9"/>
	<path class="st0" d="M1038.8-365.8v55.6"/>
	<path class="st0" d="M1044.8-352.5v28.8"/>
	<path class="st0" d="M1050.8-394.2v112.3"/>
	<path class="st0" d="M1056.8-397.3v118.7"/>
	<path class="st0" d="M1062.7-400.7v125.2"/>
	<path class="st0" d="M1068.7-400.7v125.3"/>
	<path class="st0" d="M1074.7-407.5v139"/>
	<path class="st0" d="M1080.6-417.5v158.9"/>
	<path class="st0" d="M1086.6-411V-265"/>
	<path class="st0" d="M1092.6-401.5v126.8"/>
	<path class="st0" d="M1098.5-398.2v120.4"/>
	<path class="st0" d="M1104.5-414v152"/>
	<path class="st0" d="M1110.5-413.5v150.8"/>
	<path class="st0" d="M1116.5-388.7v101.3"/>
	<path class="st0" d="M1122.4-368.7v61.3"/>
	<path class="st0" d="M1128.4-372.8v69.5"/>
	<path class="st0" d="M1134.4-374.2v72.4"/>
	<path class="st0" d="M1140.3-360.3v44.7"/>
	<path class="st0" d="M1146.3-370.2v64.5"/>
	<path class="st0" d="M1152.3-398.2V-278"/>
	<path class="st0" d="M1158.3-402.2v128.3"/>
	<path class="st0" d="M1164.2-402.2v128.4"/>
	<path class="st0" d="M1170.2-401.7v127.2"/>
	<path class="st0" d="M1176.2-396.8v117.5"/>
	<path class="st0" d="M1182.1-381.8v87.4"/>
	<path class="st0" d="M1188.1-371v65.8"/>
	<path class="st0" d="M1194.1-382.5v89"/>
	<path class="st0" d="M1200-376v75.9"/>
	<path class="st0" d="M1206-364.2v52.5"/>
	<path class="st0" d="M1212-359.2v42.1"/>
	<path class="st0" d="M1218-348.5v20.7"/>
	<path class="st0" d="M1223.9-342v7.8"/>
	<path class="st0" d="M1229.9-349v21.8"/>
	<path class="st0" d="M1235.9-360v44.1"/>
	<path class="st0" d="M1241.8-357.8v39.5"/>
	<path class="st0" d="M1247.8-363.8v51.7"/>
	<path class="st0" d="M1253.8-381.8v87.5"/>
	<path class="st0" d="M1259.7-388v100"/>
	<path class="st0" d="M1265.7-363.3v50.6"/>
	<path class="st0" d="M1271.7-350.2v24.5"/>
	<path class="st0" d="M1277.7-366.3v56.7"/>
	<path class="st0" d="M1283.6-403.5v130.8"/>
	<path class="st0" d="M1289.6-398.7v121.2"/>
	<path class="st0" d="M1295.6-388v100"/>
	<path class="st0" d="M1301.5-377.8v79.6"/>
	<path class="st0" d="M1307.5-373.5v70.8"/>
	<path class="st0" d="M1313.5-387.3v98.5"/>
	<path class="st0" d="M1319.5-386v96.1"/>
	<path class="st0" d="M1325.4-378.8v81.5"/>
	<path class="st0" d="M1331.4-358.5v40.8"/>
	<path class="st0" d="M1337.4-345.3v14.6"/>
	<path class="st0" d="M1343.3-357.8v39.5"/>
	<path class="st0" d="M1349.3-363v49.8"/>
	<path class="st0" d="M1355.3-361.5v46.8"/>
	<path class="st0" d="M1361.2-363.8v51.4"/>
	<path class="st0" d="M1367.2-376.3v76.6"/>
	<path class="st0" d="M1373.2-393.8v111.7"/>
	<path class="st0" d="M1379.2-391.2V-285"/>
	<path class="st0" d="M1385.1-367.3v58.6"/>
	<path class="st0" d="M1391.1-351v26"/>
	<path class="st0" d="M1397.1-350.5v24.9"/>
</g>
</svg>
