<?xml version="1.0" encoding="utf-8"?>
<!-- Generator: Adobe Illustrator 22.0.0, SVG Export Plug-In . SVG Version: 6.00 Build 0)  -->
<svg version="1.1" id="Layer_1" xmlns="http://www.w3.org/2000/svg" xmlns:xlink="http://www.w3.org/1999/xlink" x="0px" y="0px"
	 viewBox="0 0 1400 180" style="enable-background:new 0 0 1400 180;" xml:space="preserve">
<style type="text/css">
	.st0{fill:none;stroke:#FFD040;stroke-width:3.9943;stroke-linecap:round;stroke-miterlimit:10;}
</style>
<g transform="scale(1,1)">
</g>
<g transform="translate(0,366)">
	<path class="st0" d="M9-276L9-276"/>
	<path class="st0" d="M18-276.1v0.1"/>
	<path class="st0" d="M26.9-276.1v0.2"/>
	<path class="st0" d="M35.9-276.1v0.3"/>
	<path class="st0" d="M44.9-276.3v0.5"/>
	<path class="st0" d="M53.9-276.3v0.6"/>
	<path class="st0" d="M62.8-276.3v0.7"/>
	<path class="st0" d="M71.8-276.5v0.9"/>
	<path class="st0" d="M80.8-276.5v0.9"/>
	<path class="st0" d="M89.8-276.5v1.1"/>
	<path class="st0" d="M98.7-276.6v1.2"/>
	<path class="st0" d="M107.7-276.7v1.3"/>
	<path class="st0" d="M116.7-276.6v1.2"/>
	<path class="st0" d="M125.7-276.6v1.1"/>
	<path class="st0" d="M134.6-276.5v1.1"/>
	<path class="st0" d="M143.6-281.6v11.3"/>
	<path class="st0" d="M152.6-303.7v55.4"/>
	<path class="st0" d="M161.6-325.8v99.6"/>
	<path class="st0" d="M170.5-338.9v125.8"/>
	<path class="st0" d="M179.5-343.3v134.6"/>
	<path class="st0" d="M188.5-352.9v153.7"/>
	<path class="st0" d="M197.5-358V-194"/>
	<path class="st0" d="M206.4-361.4v170.7"/>
	<path class="st0" d="M215.4-351.4v150.8"/>
	<path class="st0" d="M224.4-341.4v130.9"/>
	<path class="st0" d="M233.3-326v100"/>
	<path class="st0" d="M242.3-319.9v87.9"/>
	<path class="st0" d="M251.3-328.2v104.4"/>
	<path class="st0" d="M260.3-342.5v133"/>
	<path class="st0" d="M269.2-307.9v63.8"/>
	<path class="st0" d="M278.2-311.7v71.4"/>
	<path class="st0" d="M287.2-315.5v78.9"/>
	<path class="st0" d="M296.2-352.1v152.3"/>
	<path class="st0" d="M305.1-330.3v108.7"/>
	<path class="st0" d="M314.1-331.1v110.3"/>
	<path class="st0" d="M323.1-331.9v111.8"/>
	<path class="st0" d="M332.1-307.4v62.7"/>
	<path class="st0" d="M341-307.3v62.7"/>
	<path class="st0" d="M350-307.3v62.6"/>
	<path class="st0" d="M359-319.4v86.8"/>
	<path class="st0" d="M368-342V-210"/>
	<path class="st0" d="M376.9-335.7v119.4"/>
	<path class="st0" d="M385.9-329.4v106.7"/>
	<path class="st0" d="M394.9-333.9v115.8"/>
	<path class="st0" d="M403.9-320.7v89.4"/>
	<path class="st0" d="M412.8-307.5v63"/>
	<path class="st0" d="M421.8-304.2v56.4"/>
	<path class="st0" d="M430.8-308v64"/>
	<path class="st0" d="M439.8-326.4v100.9"/>
	<path class="st0" d="M448.7-324.6v97.2"/>
	<path class="st0" d="M457.7-322.8v93.5"/>
	<path class="st0" d="M466.7-303.9v55.7"/>
	<path class="st0" d="M475.6-280.1v8.3"/>
	<path class="st0" d="M484.6-279.6v7.3"/>
	<path class="st0" d="M493.6-279.1v6.3"/>
	<path class="st0" d="M502.6-281.6v11.1"/>
	<path class="st0" d="M511.5-279.8v7.6"/>
	<path class="st0" d="M520.5-278v4"/>
	<path class="st0" d="M529.5-277.2v2.4"/>
	<path class="st0" d="M538.5-277.1v2.2"/>
	<path class="st0" d="M547.4-277v2.1"/>
	<path class="st0" d="M556.4-276.9v1.9"/>
	<path class="st0" d="M565.4-276.8v1.7"/>
	<path class="st0" d="M574.4-276.8v1.6"/>
	<path class="st0" d="M583.3-276.8v1.5"/>
	<path class="st0" d="M592.3-276.8v1.5"/>
	<path class="st0" d="M601.3-276.8v1.6"/>
	<path class="st0" d="M610.3-276.7v1.4"/>
	<path class="st0" d="M619.2-276.6v1.3"/>
	<path class="st0" d="M628.2-276.8v1.5"/>
	<path class="st0" d="M637.2-276.8v1.5"/>
	<path class="st0" d="M646.2-278v3.9"/>
	<path class="st0" d="M655.1-279.2v6.3"/>
	<path class="st0" d="M664.1-289.3v26.5"/>
	<path class="st0" d="M673.1-302.7v53.3"/>
	<path class="st0" d="M682-316.1v80.1"/>
	<path class="st0" d="M691-316.2v80.3"/>
	<path class="st0" d="M700-320.9v89.9"/>
	<path class="st0" d="M709-321v90"/>
	<path class="st0" d="M717.9-321.1v90.2"/>
	<path class="st0" d="M726.9-306.1v60.2"/>
	<path class="st0" d="M735.9-295.4v38.8"/>
	<path class="st0" d="M744.9-284.7v17.4"/>
	<path class="st0" d="M753.8-280.2v8.4"/>
	<path class="st0" d="M762.8-283.8v15.7"/>
	<path class="st0" d="M771.8-303.9v55.8"/>
	<path class="st0" d="M780.8-324v95.9"/>
	<path class="st0" d="M789.7-310.8v69.7"/>
	<path class="st0" d="M798.7-304.5v56.9"/>
	<path class="st0" d="M807.7-298.1v44.1"/>
	<path class="st0" d="M816.7-307.2v62.5"/>
	<path class="st0" d="M825.6-320.5v89"/>
	<path class="st0" d="M834.6-315.6v79.1"/>
	<path class="st0" d="M843.6-310.6v69.3"/>
	<path class="st0" d="M852.6-318.5v85"/>
	<path class="st0" d="M861.5-315.4v78.9"/>
	<path class="st0" d="M870.5-312.4v72.8"/>
	<path class="st0" d="M879.5-314.2v76.5"/>
	<path class="st0" d="M888.5-311.4v70.8"/>
	<path class="st0" d="M897.4-304.9v57.9"/>
	<path class="st0" d="M906.4-298.5v45"/>
	<path class="st0" d="M915.4-289.4v26.7"/>
	<path class="st0" d="M924.3-284.4v16.9"/>
	<path class="st0" d="M933.3-279.9v7.9"/>
	<path class="st0" d="M942.3-280.3v8.7"/>
	<path class="st0" d="M951.3-289.8v27.7"/>
	<path class="st0" d="M960.2-289v26"/>
	<path class="st0" d="M969.2-288.1v24.3"/>
	<path class="st0" d="M978.2-290.1v28.1"/>
	<path class="st0" d="M987.2-292.8v33.5"/>
	<path class="st0" d="M996.1-292.7v33.5"/>
	<path class="st0" d="M1005.1-290v28"/>
	<path class="st0" d="M1014.1-277.5v2.9"/>
	<path class="st0" d="M1023.1-280.7v9.4"/>
	<path class="st0" d="M1032-283.9v15.8"/>
	<path class="st0" d="M1041-326.3v100.6"/>
	<path class="st0" d="M1050-305.9v59.8"/>
	<path class="st0" d="M1059-307.5v63.1"/>
	<path class="st0" d="M1067.9-309.2v66.3"/>
	<path class="st0" d="M1076.9-304.9v57.9"/>
	<path class="st0" d="M1085.9-298.2v44.4"/>
	<path class="st0" d="M1094.9-291.4v30.8"/>
	<path class="st0" d="M1103.8-304.2v56.5"/>
	<path class="st0" d="M1112.8-301v49.9"/>
	<path class="st0" d="M1121.8-301v50"/>
	<path class="st0" d="M1130.8-301.1v50.2"/>
	<path class="st0" d="M1139.7-284.6v17.1"/>
	<path class="st0" d="M1148.7-277.4v2.8"/>
	<path class="st0" d="M1157.7-277.3v2.6"/>
	<path class="st0" d="M1166.6-277.2v2.3"/>
	<path class="st0" d="M1175.6-277.1v2.2"/>
	<path class="st0" d="M1184.6-277v1.9"/>
	<path class="st0" d="M1193.6-277v2"/>
	<path class="st0" d="M1202.5-277v2"/>
	<path class="st0" d="M1211.5-276.9v1.8"/>
	<path class="st0" d="M1220.5-276.9v1.7"/>
	<path class="st0" d="M1229.5-276.7v1.5"/>
	<path class="st0" d="M1238.4-276.7v1.4"/>
	<path class="st0" d="M1247.4-276.5v1"/>
	<path class="st0" d="M1256.4-276.6v1.1"/>
	<path class="st0" d="M1265.4-276.7v1.3"/>
	<path class="st0" d="M1274.3-282.5v13.1"/>
	<path class="st0" d="M1283.3-304.1v56.2"/>
	<path class="st0" d="M1292.3-306.8v61.6"/>
	<path class="st0" d="M1301.3-309.5v67"/>
	<path class="st0" d="M1310.2-323.4v94.9"/>
	<path class="st0" d="M1319.2-318.2v84.5"/>
	<path class="st0" d="M1328.2-313v74"/>
	<path class="st0" d="M1337.2-285.8v19.5"/>
	<path class="st0" d="M1346.1-306.2v60.5"/>
	<path class="st0" d="M1355.1-309.1v66.1"/>
	<path class="st0" d="M1364.1-303.8v55.6"/>
	<path class="st0" d="M1373-295.7v39.4"/>
	<path class="st0" d="M1382-294.7v37.4"/>
	<path class="st0" d="M1391-287.8v23.7"/>
</g>
</svg>
