<?xml version="1.0" encoding="utf-8"?>
<!-- Generator: Adobe Illustrator 22.0.0, SVG Export Plug-In . SVG Version: 6.00 Build 0)  -->
<svg version="1.1" id="Layer_1" xmlns="http://www.w3.org/2000/svg" xmlns:xlink="http://www.w3.org/1999/xlink" x="0px" y="0px"
	 viewBox="0 0 1400 180" style="enable-background:new 0 0 1400 180;" xml:space="preserve">
<style type="text/css">
	.st0{fill:none;stroke:#FFD040;stroke-width:4.832;stroke-linecap:round;stroke-miterlimit:10;}
</style>
<g transform="scale(1,1)">
</g>
<g transform="translate(0,366)">
	<path class="st0" d="M8.7-276L8.7-276"/>
	<path class="st0" d="M19-276L19-276"/>
	<path class="st0" d="M29.3-276.1v0.2"/>
	<path class="st0" d="M39.6-276.1v0.3"/>
	<path class="st0" d="M49.8-276.2v0.4"/>
	<path class="st0" d="M60.1-276.3v0.6"/>
	<path class="st0" d="M70.4-276.3v0.6"/>
	<path class="st0" d="M80.7-278.3v4.6"/>
	<path class="st0" d="M90.9-307.9v63.8"/>
	<path class="st0" d="M101.2-332.9v113.7"/>
	<path class="st0" d="M111.5-340.2v128.5"/>
	<path class="st0" d="M121.8-344.7v137.3"/>
	<path class="st0" d="M132-348.5v144.9"/>
	<path class="st0" d="M142.3-348.5v144.9"/>
	<path class="st0" d="M152.6-344.4v136.8"/>
	<path class="st0" d="M162.9-319v85.9"/>
	<path class="st0" d="M173.1-295.1v38.1"/>
	<path class="st0" d="M183.4-321.3v90.6"/>
	<path class="st0" d="M193.7-321.5v90.9"/>
	<path class="st0" d="M204-340.2v128.5"/>
	<path class="st0" d="M214.2-356.7v161.3"/>
	<path class="st0" d="M224.5-353.2v154.5"/>
	<path class="st0" d="M234.8-366.1v180.2"/>
	<path class="st0" d="M245.1-339.1v126.2"/>
	<path class="st0" d="M255.4-348.4v144.7"/>
	<path class="st0" d="M265.6-336.1v120.2"/>
	<path class="st0" d="M275.9-320.8v89.7"/>
	<path class="st0" d="M286.2-324.3v96.5"/>
	<path class="st0" d="M296.5-315.3v78.7"/>
	<path class="st0" d="M306.7-333.6v115.3"/>
	<path class="st0" d="M317-341.7v131.4"/>
	<path class="st0" d="M327.3-325.6v99.1"/>
	<path class="st0" d="M337.6-344.9v137.8"/>
	<path class="st0" d="M347.8-339.1v126.1"/>
	<path class="st0" d="M358.1-332.8v113.6"/>
	<path class="st0" d="M368.4-343.1v134.2"/>
	<path class="st0" d="M378.7-304.5v57"/>
	<path class="st0" d="M388.9-289v26"/>
	<path class="st0" d="M399.2-314.5v77.1"/>
	<path class="st0" d="M409.5-334.5v117"/>
	<path class="st0" d="M419.8-327.7v103.3"/>
	<path class="st0" d="M430-331.4v110.7"/>
	<path class="st0" d="M440.3-288.3v24.5"/>
	<path class="st0" d="M450.6-314.2v76.4"/>
	<path class="st0" d="M460.9-340.5v129.1"/>
	<path class="st0" d="M471.2-344v136"/>
	<path class="st0" d="M481.4-337.9v123.8"/>
	<path class="st0" d="M491.7-321v90"/>
	<path class="st0" d="M502-289.5v27.1"/>
	<path class="st0" d="M512.3-280.5v9.1"/>
	<path class="st0" d="M522.5-280.8v9.6"/>
	<path class="st0" d="M532.8-280.7v9.4"/>
	<path class="st0" d="M543.1-279.9v7.7"/>
	<path class="st0" d="M553.4-277.1v2.3"/>
	<path class="st0" d="M563.6-277v2"/>
	<path class="st0" d="M573.9-276.8v1.6"/>
	<path class="st0" d="M584.2-276.7v1.5"/>
	<path class="st0" d="M594.5-276.9v1.8"/>
	<path class="st0" d="M604.7-276.9v1.7"/>
	<path class="st0" d="M615-276.8v1.5"/>
	<path class="st0" d="M625.3-276.7v1.5"/>
	<path class="st0" d="M635.6-276.9v1.8"/>
	<path class="st0" d="M645.8-277v2.1"/>
	<path class="st0" d="M656.1-278.6v5.2"/>
	<path class="st0" d="M666.4-290.2v28.5"/>
	<path class="st0" d="M676.7-285.7v19.5"/>
	<path class="st0" d="M686.9-294.3v36.6"/>
	<path class="st0" d="M697.2-315.7v79.4"/>
	<path class="st0" d="M707.5-288.4v24.7"/>
	<path class="st0" d="M717.8-306.5v61"/>
	<path class="st0" d="M728.1-316.1v80.1"/>
	<path class="st0" d="M738.3-300v48"/>
	<path class="st0" d="M748.6-294.7v37.4"/>
	<path class="st0" d="M758.9-335.9v119.7"/>
	<path class="st0" d="M769.2-324.1v96.3"/>
	<path class="st0" d="M779.4-329.5v107"/>
	<path class="st0" d="M789.7-325.8v99.6"/>
	<path class="st0" d="M800-322.7v93.3"/>
	<path class="st0" d="M810.3-327.8v103.6"/>
	<path class="st0" d="M820.5-326v99.9"/>
	<path class="st0" d="M830.8-324v96.1"/>
	<path class="st0" d="M841.1-322.3v92.5"/>
	<path class="st0" d="M851.4-319.9v87.8"/>
	<path class="st0" d="M861.6-309.8v67.5"/>
	<path class="st0" d="M871.9-290.8v29.6"/>
	<path class="st0" d="M882.2-280.9v9.8"/>
	<path class="st0" d="M892.5-278.4v4.9"/>
	<path class="st0" d="M902.7-277.9v3.8"/>
	<path class="st0" d="M913-277.3v2.6"/>
	<path class="st0" d="M923.3-277.1v2.2"/>
	<path class="st0" d="M933.6-277.4v2.8"/>
	<path class="st0" d="M943.9-277.3v2.5"/>
	<path class="st0" d="M954.1-276.9v1.9"/>
	<path class="st0" d="M964.4-276.8v1.5"/>
	<path class="st0" d="M974.7-276.6v1.2"/>
	<path class="st0" d="M985-276.8v1.6"/>
	<path class="st0" d="M995.2-286.4v20.7"/>
	<path class="st0" d="M1005.5-335.3v118.6"/>
	<path class="st0" d="M1015.8-335.8v119.7"/>
	<path class="st0" d="M1026.1-335.2v118.3"/>
	<path class="st0" d="M1036.3-334.2v116.4"/>
	<path class="st0" d="M1046.6-336.8v121.5"/>
	<path class="st0" d="M1056.9-328.7v105.5"/>
	<path class="st0" d="M1067.2-328.9v105.7"/>
	<path class="st0" d="M1077.4-325.5v99"/>
	<path class="st0" d="M1087.7-317.3v82.7"/>
	<path class="st0" d="M1098-307v61.9"/>
	<path class="st0" d="M1108.3-302.7v53.5"/>
	<path class="st0" d="M1118.5-290.4v28.8"/>
	<path class="st0" d="M1128.8-281v10"/>
	<path class="st0" d="M1139.1-278v4.1"/>
	<path class="st0" d="M1149.4-277.4v2.9"/>
	<path class="st0" d="M1159.7-277v1.9"/>
	<path class="st0" d="M1169.9-276.7v1.5"/>
	<path class="st0" d="M1180.2-277.3v2.6"/>
	<path class="st0" d="M1190.5-279.8v7.6"/>
	<path class="st0" d="M1200.8-290.1v28.3"/>
	<path class="st0" d="M1211-316.9v81.8"/>
	<path class="st0" d="M1221.3-320.4v88.7"/>
	<path class="st0" d="M1231.6-301.8v51.6"/>
	<path class="st0" d="M1241.9-295v37.9"/>
	<path class="st0" d="M1252.1-309.3v66.6"/>
	<path class="st0" d="M1262.4-331.3v110.6"/>
	<path class="st0" d="M1272.7-333.3v114.7"/>
	<path class="st0" d="M1283-305.8v59.6"/>
	<path class="st0" d="M1293.2-300v47.9"/>
	<path class="st0" d="M1303.5-300.1v48.2"/>
	<path class="st0" d="M1313.8-321.1v90.3"/>
	<path class="st0" d="M1324.1-300.3v48.6"/>
	<path class="st0" d="M1334.3-334.8v117.6"/>
	<path class="st0" d="M1344.6-329.6v107.3"/>
	<path class="st0" d="M1354.9-331v110"/>
	<path class="st0" d="M1365.2-324.9v97.7"/>
	<path class="st0" d="M1375.4-324.1v96.2"/>
	<path class="st0" d="M1385.7-307v62.1"/>
	<path class="st0" d="M1396-317.1v82.2"/>
</g>
</svg>
