<?xml version="1.0" encoding="utf-8"?>
<!-- Generator: Adobe Illustrator 22.0.0, SVG Export Plug-In . SVG Version: 6.00 Build 0)  -->
<svg version="1.1" id="Layer_1" xmlns="http://www.w3.org/2000/svg" xmlns:xlink="http://www.w3.org/1999/xlink" x="0px" y="0px"
	 viewBox="0 0 1400 180" style="enable-background:new 0 0 1400 180;" xml:space="preserve">
<style type="text/css">
	.st0{fill:none;stroke:#FFD040;stroke-width:3.7092;stroke-linecap:round;stroke-miterlimit:10;}
</style>
<g transform="scale(1,1)">
</g>
<g transform="translate(0,366)">
	<path class="st0" d="M5-283.7v15.4"/>
	<path class="st0" d="M12.9-318.8v85.5"/>
	<path class="st0" d="M20.8-307.1v62.2"/>
	<path class="st0" d="M28.6-299.7v47.3"/>
	<path class="st0" d="M36.5-305.5v58.9"/>
	<path class="st0" d="M44.4-293.6v35.2"/>
	<path class="st0" d="M52.3-285.7v19.4"/>
	<path class="st0" d="M60.2-287.7v23.5"/>
	<path class="st0" d="M68-282v11.9"/>
	<path class="st0" d="M75.9-277.2v2.5"/>
	<path class="st0" d="M83.8-276.8v1.5"/>
	<path class="st0" d="M91.7-276.5v1"/>
	<path class="st0" d="M99.6-280.1v8.2"/>
	<path class="st0" d="M107.4-297.2v42.3"/>
	<path class="st0" d="M115.3-311.5v71.1"/>
	<path class="st0" d="M123.2-317.5v83"/>
	<path class="st0" d="M131.1-312.8v73.6"/>
	<path class="st0" d="M139-286.1v20.3"/>
	<path class="st0" d="M146.9-278.7v5.3"/>
	<path class="st0" d="M154.7-322.3v92.6"/>
	<path class="st0" d="M162.6-311.3v70.7"/>
	<path class="st0" d="M170.5-299.5v47.1"/>
	<path class="st0" d="M178.4-312.7v73.4"/>
	<path class="st0" d="M186.3-296.1v40.1"/>
	<path class="st0" d="M194.1-281.7v11.5"/>
	<path class="st0" d="M202-276.6v1.1"/>
	<path class="st0" d="M209.9-276.5v1"/>
	<path class="st0" d="M217.8-321v90.1"/>
	<path class="st0" d="M225.7-340.7v129.5"/>
	<path class="st0" d="M233.5-298.8v45.6"/>
	<path class="st0" d="M241.4-324.5v97"/>
	<path class="st0" d="M249.3-323.2v94.3"/>
	<path class="st0" d="M257.2-316v80.1"/>
	<path class="st0" d="M265.1-299.1v46.2"/>
	<path class="st0" d="M272.9-316v80"/>
	<path class="st0" d="M280.8-323.5v95"/>
	<path class="st0" d="M288.7-287.6v23.3"/>
	<path class="st0" d="M296.6-335.7v119.4"/>
	<path class="st0" d="M304.5-322.6v93.2"/>
	<path class="st0" d="M312.3-345.1v138.3"/>
	<path class="st0" d="M320.2-348.5v145"/>
	<path class="st0" d="M328.1-329.2v106.3"/>
	<path class="st0" d="M336-282.4v12.7"/>
	<path class="st0" d="M343.9-308.3v64.6"/>
	<path class="st0" d="M351.8-334.4v116.7"/>
	<path class="st0" d="M359.6-305.8v59.6"/>
	<path class="st0" d="M367.5-288.1v24.3"/>
	<path class="st0" d="M375.4-318.1v84.2"/>
	<path class="st0" d="M383.3-333.9v115.9"/>
	<path class="st0" d="M391.2-300v48.1"/>
	<path class="st0" d="M399-310.5v69.1"/>
	<path class="st0" d="M406.9-330.4v108.8"/>
	<path class="st0" d="M414.8-303.5v55"/>
	<path class="st0" d="M422.7-295.3v38.6"/>
	<path class="st0" d="M430.6-318.4v84.8"/>
	<path class="st0" d="M438.4-293.4v34.8"/>
	<path class="st0" d="M446.3-296.5v40.9"/>
	<path class="st0" d="M454.2-299.7v47.4"/>
	<path class="st0" d="M462.1-285.7v19.3"/>
	<path class="st0" d="M470-277v2"/>
	<path class="st0" d="M477.8-308.8v65.6"/>
	<path class="st0" d="M485.7-323.7v95.3"/>
	<path class="st0" d="M493.6-296.8v41.6"/>
	<path class="st0" d="M501.5-307.2v62.4"/>
	<path class="st0" d="M509.4-294.6v37.3"/>
	<path class="st0" d="M517.2-323.7v95.4"/>
	<path class="st0" d="M525.1-297.3v42.5"/>
	<path class="st0" d="M533-300.8v49.6"/>
	<path class="st0" d="M540.9-288.4v24.7"/>
	<path class="st0" d="M548.8-278v4.1"/>
	<path class="st0" d="M556.6-291.5v31"/>
	<path class="st0" d="M564.5-296.1v40.2"/>
	<path class="st0" d="M572.4-277v2"/>
	<path class="st0" d="M580.3-309.8v67.5"/>
	<path class="st0" d="M588.2-313.4v74.7"/>
	<path class="st0" d="M596.1-307.4v62.8"/>
	<path class="st0" d="M603.9-328.6v105.2"/>
	<path class="st0" d="M611.8-324.3v96.6"/>
	<path class="st0" d="M619.7-307.1v62.2"/>
	<path class="st0" d="M627.6-341.8v131.7"/>
	<path class="st0" d="M635.5-317.7v83.4"/>
	<path class="st0" d="M643.3-323.8v95.6"/>
	<path class="st0" d="M651.2-306.2v60.4"/>
	<path class="st0" d="M659.1-293.7v35.4"/>
	<path class="st0" d="M667-309.6v67.1"/>
	<path class="st0" d="M674.9-296.9v41.9"/>
	<path class="st0" d="M682.7-313.6v75.1"/>
	<path class="st0" d="M690.6-285.8v19.5"/>
	<path class="st0" d="M698.5-278.1v4.2"/>
	<path class="st0" d="M706.4-319.5v87"/>
	<path class="st0" d="M714.3-315.4v78.9"/>
	<path class="st0" d="M722.1-322.9v93.9"/>
	<path class="st0" d="M730-317.9v83.7"/>
	<path class="st0" d="M737.9-299.6v47.3"/>
	<path class="st0" d="M745.8-307.2v62.5"/>
	<path class="st0" d="M753.7-302.4v52.8"/>
	<path class="st0" d="M761.5-301.9v51.8"/>
	<path class="st0" d="M769.4-285.6v19.2"/>
	<path class="st0" d="M777.3-312.9v73.8"/>
	<path class="st0" d="M785.2-296.2v40.3"/>
	<path class="st0" d="M793.1-277.6v3.1"/>
	<path class="st0" d="M800.9-276.4v0.8"/>
	<path class="st0" d="M808.8-306.5v61.1"/>
	<path class="st0" d="M816.7-321v90"/>
	<path class="st0" d="M824.6-334.7v117.4"/>
	<path class="st0" d="M832.5-319.3v86.7"/>
	<path class="st0" d="M840.4-313.9v75.8"/>
	<path class="st0" d="M848.2-330V-222"/>
	<path class="st0" d="M856.1-303.4v54.8"/>
	<path class="st0" d="M864-349.4v146.8"/>
	<path class="st0" d="M871.9-324.5v97"/>
	<path class="st0" d="M879.8-311.2v70.5"/>
	<path class="st0" d="M887.6-334.6v117.3"/>
	<path class="st0" d="M895.5-318.7v85.3"/>
	<path class="st0" d="M903.4-329.1v106.2"/>
	<path class="st0" d="M911.3-312.9v73.8"/>
	<path class="st0" d="M919.2-314.7v77.5"/>
	<path class="st0" d="M927-285.9v19.8"/>
	<path class="st0" d="M934.9-277.1v2.2"/>
	<path class="st0" d="M942.8-315.4v78.9"/>
	<path class="st0" d="M950.7-323.7v95.4"/>
	<path class="st0" d="M958.6-327.8v103.7"/>
	<path class="st0" d="M966.4-333.5v115"/>
	<path class="st0" d="M974.3-307v62"/>
	<path class="st0" d="M982.2-295.1v38.2"/>
	<path class="st0" d="M990.1-279.7v7.5"/>
	<path class="st0" d="M998-285.3v18.6"/>
	<path class="st0" d="M1005.8-276.9v1.8"/>
	<path class="st0" d="M1013.7-278.2v4.3"/>
	<path class="st0" d="M1021.6-310.3v68.6"/>
	<path class="st0" d="M1029.5-318.9v85.7"/>
	<path class="st0" d="M1037.4-331.9v111.7"/>
	<path class="st0" d="M1045.2-329.7v107.4"/>
	<path class="st0" d="M1053.1-294.7v37.4"/>
	<path class="st0" d="M1061-325.6v99.1"/>
	<path class="st0" d="M1068.9-315.7v79.3"/>
	<path class="st0" d="M1076.8-303.9v55.8"/>
	<path class="st0" d="M1084.7-279.1v6.2"/>
	<path class="st0" d="M1092.5-282.6v13.1"/>
	<path class="st0" d="M1100.4-278v4.1"/>
	<path class="st0" d="M1108.3-276.8v1.6"/>
	<path class="st0" d="M1116.2-295.2v38.4"/>
	<path class="st0" d="M1124.1-296.1v40.2"/>
	<path class="st0" d="M1131.9-285.4v18.8"/>
	<path class="st0" d="M1139.8-311.8v71.6"/>
	<path class="st0" d="M1147.7-299.7v47.3"/>
	<path class="st0" d="M1155.6-298.5v45"/>
	<path class="st0" d="M1163.5-293.3v34.7"/>
	<path class="st0" d="M1171.3-282.1v12.1"/>
	<path class="st0" d="M1179.2-280.9v9.9"/>
	<path class="st0" d="M1187.1-303.3v54.5"/>
	<path class="st0" d="M1195-335.2v118.3"/>
	<path class="st0" d="M1202.9-310v67.9"/>
	<path class="st0" d="M1210.7-331.4v110.8"/>
	<path class="st0" d="M1218.6-307.2v62.4"/>
	<path class="st0" d="M1226.5-318.4v84.8"/>
	<path class="st0" d="M1234.4-309.5v67"/>
	<path class="st0" d="M1242.3-282v12"/>
	<path class="st0" d="M1250.1-279.9v7.8"/>
	<path class="st0" d="M1258-326.2v100.4"/>
	<path class="st0" d="M1265.9-347.5v143.1"/>
	<path class="st0" d="M1273.8-315v77.9"/>
	<path class="st0" d="M1281.7-312.1v72.2"/>
	<path class="st0" d="M1289.6-279.3v6.5"/>
	<path class="st0" d="M1297.4-292.1v32.3"/>
	<path class="st0" d="M1305.3-302.5v53"/>
	<path class="st0" d="M1313.2-313.3v74.5"/>
	<path class="st0" d="M1321.1-308.4v64.9"/>
	<path class="st0" d="M1329-283.9v15.8"/>
	<path class="st0" d="M1336.8-276.5v1"/>
	<path class="st0" d="M1344.7-276.5v0.9"/>
	<path class="st0" d="M1352.6-278v3.9"/>
	<path class="st0" d="M1360.5-276.4v0.9"/>
	<path class="st0" d="M1368.4-287v22.1"/>
	<path class="st0" d="M1376.2-300.9v49.8"/>
	<path class="st0" d="M1384.1-283.7v15.4"/>
	<path class="st0" d="M1392-276.2v0.4"/>
</g>
</svg>
