<?xml version="1.0" encoding="utf-8"?>
<!-- Generator: Adobe Illustrator 22.0.0, SVG Export Plug-In . SVG Version: 6.00 Build 0)  -->
<svg version="1.1" id="Layer_1" xmlns="http://www.w3.org/2000/svg" xmlns:xlink="http://www.w3.org/1999/xlink" x="0px" y="0px"
	 viewBox="0 0 1400 180" style="enable-background:new 0 0 1400 180;" xml:space="preserve">
<style type="text/css">
	.st0{fill:none;stroke:#FFD040;stroke-width:3.3411;stroke-linecap:round;stroke-miterlimit:10;}
</style>
<g transform="scale(1,1)">
</g>
<g transform="translate(0,366)">
	<path class="st0" d="M0-276.2v0.5"/>
	<path class="st0" d="M6.8-277v2"/>
	<path class="st0" d="M13.6-298.8v45.5"/>
	<path class="st0" d="M20.4-353v154"/>
	<path class="st0" d="M27.2-338.7v125.4"/>
	<path class="st0" d="M34-282v12"/>
	<path class="st0" d="M40.8-279.1v6.1"/>
	<path class="st0" d="M47.6-323.8v95.7"/>
	<path class="st0" d="M54.4-348.3v144.6"/>
	<path class="st0" d="M61.2-349.8v147.6"/>
	<path class="st0" d="M68-345.9v139.9"/>
	<path class="st0" d="M74.8-309.3v66.6"/>
	<path class="st0" d="M81.6-296.4v40.8"/>
	<path class="st0" d="M88.3-314v76"/>
	<path class="st0" d="M95.1-309.1v66.2"/>
	<path class="st0" d="M101.9-304.5v56.9"/>
	<path class="st0" d="M108.7-295.7v39.3"/>
	<path class="st0" d="M115.5-286.5v20.9"/>
	<path class="st0" d="M122.3-283.5v15.1"/>
	<path class="st0" d="M129.1-284.6v17.3"/>
	<path class="st0" d="M135.9-300.5v49"/>
	<path class="st0" d="M142.7-292.8v33.6"/>
	<path class="st0" d="M149.5-290.4v28.7"/>
	<path class="st0" d="M156.3-296.8v41.6"/>
	<path class="st0" d="M163.1-289.6v27.2"/>
	<path class="st0" d="M169.9-288.9v25.7"/>
	<path class="st0" d="M176.7-294.7v37.4"/>
	<path class="st0" d="M183.5-293.9v35.8"/>
	<path class="st0" d="M190.3-288.5v25"/>
	<path class="st0" d="M197.1-278.6v5.2"/>
	<path class="st0" d="M203.9-297.5v42.9"/>
	<path class="st0" d="M210.7-297.9v43.7"/>
	<path class="st0" d="M217.5-289.4v26.7"/>
	<path class="st0" d="M224.3-277.3v2.7"/>
	<path class="st0" d="M231.1-277.2v2.4"/>
	<path class="st0" d="M237.9-278v4"/>
	<path class="st0" d="M244.7-303.1v54.2"/>
	<path class="st0" d="M251.5-289v26"/>
	<path class="st0" d="M258.3-277.8v3.5"/>
	<path class="st0" d="M265-277.4v2.8"/>
	<path class="st0" d="M271.8-295.6v39.2"/>
	<path class="st0" d="M278.6-300.9v49.9"/>
	<path class="st0" d="M285.4-314.3v76.6"/>
	<path class="st0" d="M292.2-312.4v72.9"/>
	<path class="st0" d="M299-313.7v75.3"/>
	<path class="st0" d="M305.8-308.7v65.4"/>
	<path class="st0" d="M312.6-300.6v49.1"/>
	<path class="st0" d="M319.4-308.9v65.8"/>
	<path class="st0" d="M326.2-300.6v49.3"/>
	<path class="st0" d="M333-288.4v24.7"/>
	<path class="st0" d="M339.8-278.6v5.1"/>
	<path class="st0" d="M346.6-279.6v7.2"/>
	<path class="st0" d="M353.4-317.4v82.7"/>
	<path class="st0" d="M360.2-296.2v40.4"/>
	<path class="st0" d="M367-302.5v53"/>
	<path class="st0" d="M373.8-311.7v71.4"/>
	<path class="st0" d="M380.6-294v36"/>
	<path class="st0" d="M387.4-280.9v9.9"/>
	<path class="st0" d="M394.2-309.7v67.3"/>
	<path class="st0" d="M401-308.2v64.4"/>
	<path class="st0" d="M407.8-312.1v72.1"/>
	<path class="st0" d="M414.6-282.5v13"/>
	<path class="st0" d="M421.4-279.4v6.8"/>
	<path class="st0" d="M428.2-318.2v84.3"/>
	<path class="st0" d="M435-301.1v50.1"/>
	<path class="st0" d="M441.7-328.7v105.3"/>
	<path class="st0" d="M448.5-311v70"/>
	<path class="st0" d="M455.3-331.8v111.6"/>
	<path class="st0" d="M462.1-329.5v107.1"/>
	<path class="st0" d="M468.9-330v108"/>
	<path class="st0" d="M475.7-309.4v66.7"/>
	<path class="st0" d="M482.5-328.6v105.2"/>
	<path class="st0" d="M489.3-292.4v32.8"/>
	<path class="st0" d="M496.1-280.8v9.6"/>
	<path class="st0" d="M502.9-279.1v6.1"/>
	<path class="st0" d="M509.7-298.1v44.2"/>
	<path class="st0" d="M516.5-300.6v49.2"/>
	<path class="st0" d="M523.3-303.3v54.5"/>
	<path class="st0" d="M530.1-279.5v7.1"/>
	<path class="st0" d="M536.9-316.4v80.8"/>
	<path class="st0" d="M543.7-306.9v61.8"/>
	<path class="st0" d="M550.5-299v46"/>
	<path class="st0" d="M557.3-305.1v58.2"/>
	<path class="st0" d="M564.1-296v40.1"/>
	<path class="st0" d="M570.9-298.5v45.1"/>
	<path class="st0" d="M577.7-288.9v25.8"/>
	<path class="st0" d="M584.5-283.5v15"/>
	<path class="st0" d="M591.3-333.3v114.6"/>
	<path class="st0" d="M598.1-346.4v140.7"/>
	<path class="st0" d="M604.9-329.9v107.9"/>
	<path class="st0" d="M611.7-322.3v92.7"/>
	<path class="st0" d="M618.4-326.6v101.2"/>
	<path class="st0" d="M625.2-301.1v50.2"/>
	<path class="st0" d="M632-289.7v27.5"/>
	<path class="st0" d="M638.8-303.1v54.2"/>
	<path class="st0" d="M645.6-295.8v39.6"/>
	<path class="st0" d="M652.4-295.4v38.7"/>
	<path class="st0" d="M659.2-299.9v47.9"/>
	<path class="st0" d="M666-297.3v42.5"/>
	<path class="st0" d="M672.8-278.7v5.5"/>
	<path class="st0" d="M679.6-277.8v3.6"/>
	<path class="st0" d="M686.4-278.2v4.4"/>
	<path class="st0" d="M693.2-318.8v85.6"/>
	<path class="st0" d="M700-309.1v66.2"/>
	<path class="st0" d="M706.8-331.4v110.8"/>
	<path class="st0" d="M713.6-302.1v52.2"/>
	<path class="st0" d="M720.4-297.8v43.5"/>
	<path class="st0" d="M727.2-298.6v45.2"/>
	<path class="st0" d="M734-289.6v27.2"/>
	<path class="st0" d="M740.8-286.7v21.4"/>
	<path class="st0" d="M747.6-281.3v10.6"/>
	<path class="st0" d="M754.4-277.5v3"/>
	<path class="st0" d="M761.2-277.9v3.9"/>
	<path class="st0" d="M768-277.6v3.3"/>
	<path class="st0" d="M774.8-287.9v23.9"/>
	<path class="st0" d="M781.6-295.6v39.1"/>
	<path class="st0" d="M788.3-289.4v26.8"/>
	<path class="st0" d="M795.1-292.9v33.8"/>
	<path class="st0" d="M801.9-288.7v25.4"/>
	<path class="st0" d="M808.7-279.8v7.5"/>
	<path class="st0" d="M815.5-277.6v3.1"/>
	<path class="st0" d="M822.3-287v22.1"/>
	<path class="st0" d="M829.1-297.6v43.2"/>
	<path class="st0" d="M835.9-282.6v13.2"/>
	<path class="st0" d="M842.7-277.4v2.9"/>
	<path class="st0" d="M849.5-320.2v88.4"/>
	<path class="st0" d="M856.3-329v106"/>
	<path class="st0" d="M863.1-302.3v52.6"/>
	<path class="st0" d="M869.9-328.1v104.1"/>
	<path class="st0" d="M876.7-303.4v54.9"/>
	<path class="st0" d="M883.5-309.6v67.2"/>
	<path class="st0" d="M890.3-316.2v80.4"/>
	<path class="st0" d="M897.1-305.3v58.7"/>
	<path class="st0" d="M903.9-298.2v44.3"/>
	<path class="st0" d="M910.7-307.1v62.1"/>
	<path class="st0" d="M917.5-283.2v14.4"/>
	<path class="st0" d="M924.3-304.6v57.2"/>
	<path class="st0" d="M931.1-306.3v60.6"/>
	<path class="st0" d="M937.9-316.1v80.2"/>
	<path class="st0" d="M944.7-307.6v63.1"/>
	<path class="st0" d="M951.5-308.2v64.5"/>
	<path class="st0" d="M958.3-294.1v36.1"/>
	<path class="st0" d="M965-300.1v48.3"/>
	<path class="st0" d="M971.8-301.6v51.2"/>
	<path class="st0" d="M978.6-284.1v16.2"/>
	<path class="st0" d="M985.4-307.8v63.7"/>
	<path class="st0" d="M992.2-293.5v35"/>
	<path class="st0" d="M999-283.1v14.3"/>
	<path class="st0" d="M1005.8-279.5v7"/>
	<path class="st0" d="M1012.6-332v112"/>
	<path class="st0" d="M1019.4-335.9v119.7"/>
	<path class="st0" d="M1026.2-321.2v90.3"/>
	<path class="st0" d="M1033-314.4v76.8"/>
	<path class="st0" d="M1039.8-316.9v81.8"/>
	<path class="st0" d="M1046.6-323.1v94.2"/>
	<path class="st0" d="M1053.4-298.6v45.2"/>
	<path class="st0" d="M1060.2-307.4v62.8"/>
	<path class="st0" d="M1067-306.4v60.9"/>
	<path class="st0" d="M1073.8-310.4v68.9"/>
	<path class="st0" d="M1080.6-287v22.1"/>
	<path class="st0" d="M1087.4-290.4v28.7"/>
	<path class="st0" d="M1094.2-302.9v53.8"/>
	<path class="st0" d="M1101-294.5v37.1"/>
	<path class="st0" d="M1107.8-291.3v30.6"/>
	<path class="st0" d="M1114.6-301.1v50.2"/>
	<path class="st0" d="M1121.4-307.6v63.2"/>
	<path class="st0" d="M1128.2-303.4v54.8"/>
	<path class="st0" d="M1135-322.7v93.4"/>
	<path class="st0" d="M1141.7-328.8v105.6"/>
	<path class="st0" d="M1148.5-304.1v56.2"/>
	<path class="st0" d="M1155.3-309.5v67.1"/>
	<path class="st0" d="M1162.1-295.8v39.7"/>
	<path class="st0" d="M1168.9-296.8v41.6"/>
	<path class="st0" d="M1175.7-301.7v51.3"/>
	<path class="st0" d="M1182.5-296v40"/>
	<path class="st0" d="M1189.3-280.9v9.9"/>
	<path class="st0" d="M1196.1-279.9v7.8"/>
	<path class="st0" d="M1202.9-280.5v9"/>
	<path class="st0" d="M1209.7-311.4v70.9"/>
	<path class="st0" d="M1216.5-315.5v78.9"/>
	<path class="st0" d="M1223.3-315.2v78.4"/>
	<path class="st0" d="M1230.1-296.6v41.1"/>
	<path class="st0" d="M1236.9-283.7v15.5"/>
	<path class="st0" d="M1243.7-295.4v38.9"/>
	<path class="st0" d="M1250.5-302.3v52.7"/>
	<path class="st0" d="M1257.3-283.6v15.2"/>
	<path class="st0" d="M1264.1-296.2v40.4"/>
	<path class="st0" d="M1270.9-314.4v76.8"/>
	<path class="st0" d="M1277.7-303.6v55.2"/>
	<path class="st0" d="M1284.5-282.4v12.8"/>
	<path class="st0" d="M1291.3-284.2v16.4"/>
	<path class="st0" d="M1298.1-312.6v73.2"/>
	<path class="st0" d="M1304.9-309.8v67.6"/>
	<path class="st0" d="M1311.7-300.1v48.1"/>
	<path class="st0" d="M1318.4-311.9v71.9"/>
	<path class="st0" d="M1325.2-297.9v43.7"/>
	<path class="st0" d="M1332-286.6v21.2"/>
	<path class="st0" d="M1338.8-285v18.1"/>
	<path class="st0" d="M1345.6-328.1v104.2"/>
	<path class="st0" d="M1352.4-339v126"/>
	<path class="st0" d="M1359.2-320.1v88.2"/>
	<path class="st0" d="M1366-288.5v25"/>
	<path class="st0" d="M1372.8-303.9v55.8"/>
	<path class="st0" d="M1379.6-294.3v36.6"/>
	<path class="st0" d="M1386.4-281.6v11.2"/>
	<path class="st0" d="M1393.2-277v2"/>
	<path class="st0" d="M1400-276.4v0.7"/>
</g>
</svg>
