<?xml version="1.0" encoding="utf-8"?>
<!-- Generator: Adobe Illustrator 22.0.0, SVG Export Plug-In . SVG Version: 6.00 Build 0)  -->
<svg version="1.1" id="Layer_1" xmlns="http://www.w3.org/2000/svg" xmlns:xlink="http://www.w3.org/1999/xlink" x="0px" y="0px"
	 viewBox="0 0 1400 180" style="enable-background:new 0 0 1400 180;" xml:space="preserve">
<style type="text/css">
	.st0{fill:none;stroke:#FFD040;stroke-width:3.6218;stroke-linecap:round;stroke-miterlimit:10;}
</style>
<g transform="scale(1,1)">
</g>
<g transform="translate(0,366)">
	<path class="st0" d="M0-286.7v21.5"/>
	<path class="st0" d="M7.2-327.4v102.8"/>
	<path class="st0" d="M14.5-297v42.1"/>
	<path class="st0" d="M21.7-311.2v70.4"/>
	<path class="st0" d="M29-336.2v120.3"/>
	<path class="st0" d="M36.2-303.7v55.4"/>
	<path class="st0" d="M43.5-306.5v60.9"/>
	<path class="st0" d="M50.7-317.6v83.3"/>
	<path class="st0" d="M57.9-304.7v57.5"/>
	<path class="st0" d="M65.2-285.7v19.3"/>
	<path class="st0" d="M72.4-302.5v52.9"/>
	<path class="st0" d="M79.7-293.3v34.7"/>
	<path class="st0" d="M86.9-294.2v36.3"/>
	<path class="st0" d="M94.2-293.7v35.4"/>
	<path class="st0" d="M101.4-295.1v38.2"/>
	<path class="st0" d="M108.7-313.8v75.5"/>
	<path class="st0" d="M115.9-305.5v59.1"/>
	<path class="st0" d="M123.1-328.5v105"/>
	<path class="st0" d="M130.4-315.4v78.8"/>
	<path class="st0" d="M137.6-319.2v86.5"/>
	<path class="st0" d="M144.9-302.8v53.6"/>
	<path class="st0" d="M152.1-315.7v79.4"/>
	<path class="st0" d="M159.4-325.4v98.7"/>
	<path class="st0" d="M166.6-299.4v46.7"/>
	<path class="st0" d="M173.8-324.8v97.7"/>
	<path class="st0" d="M181.1-304.8v57.6"/>
	<path class="st0" d="M188.3-319.6v87.3"/>
	<path class="st0" d="M195.6-313.2v74.3"/>
	<path class="st0" d="M202.8-307.7v63.4"/>
	<path class="st0" d="M210.1-336.9v121.9"/>
	<path class="st0" d="M217.3-307.5v63"/>
	<path class="st0" d="M224.5-333.2v114.5"/>
	<path class="st0" d="M231.8-315.1v78.1"/>
	<path class="st0" d="M239-317.6v83.1"/>
	<path class="st0" d="M246.3-319.1v86.3"/>
	<path class="st0" d="M253.5-305.2v58.4"/>
	<path class="st0" d="M260.8-307.8v63.6"/>
	<path class="st0" d="M268-304.1v56.3"/>
	<path class="st0" d="M275.3-297.5v43"/>
	<path class="st0" d="M282.5-306.1v60.2"/>
	<path class="st0" d="M289.7-311.5v71.1"/>
	<path class="st0" d="M297-300.8v49.5"/>
	<path class="st0" d="M304.2-278.2v4.4"/>
	<path class="st0" d="M311.5-286.7v21.3"/>
	<path class="st0" d="M318.7-297.7v43.4"/>
	<path class="st0" d="M326-311.2v70.4"/>
	<path class="st0" d="M333.2-310.4v68.7"/>
	<path class="st0" d="M340.4-290.6v29.3"/>
	<path class="st0" d="M347.7-292.2v32.4"/>
	<path class="st0" d="M354.9-295.3v38.5"/>
	<path class="st0" d="M362.2-301.9v51.8"/>
	<path class="st0" d="M369.4-285.4v18.7"/>
	<path class="st0" d="M376.7-300.2v48.4"/>
	<path class="st0" d="M383.9-294.8v37.5"/>
	<path class="st0" d="M391.2-284.7v17.5"/>
	<path class="st0" d="M398.4-350.8v149.7"/>
	<path class="st0" d="M405.6-342.4v132.7"/>
	<path class="st0" d="M412.9-329.6v107.1"/>
	<path class="st0" d="M420.1-326V-226"/>
	<path class="st0" d="M427.4-321v90.1"/>
	<path class="st0" d="M434.6-319v86"/>
	<path class="st0" d="M441.9-297.7v43.3"/>
	<path class="st0" d="M449.1-292.5v33"/>
	<path class="st0" d="M456.3-316.2v80.4"/>
	<path class="st0" d="M463.6-326.5v101"/>
	<path class="st0" d="M470.8-320.5v88.9"/>
	<path class="st0" d="M478.1-311.7v71.4"/>
	<path class="st0" d="M485.3-316.1v80.2"/>
	<path class="st0" d="M492.6-317.4v82.8"/>
	<path class="st0" d="M499.8-306.8v61.5"/>
	<path class="st0" d="M507-282v11.9"/>
	<path class="st0" d="M514.3-284.2v16.4"/>
	<path class="st0" d="M521.5-306.1v60.1"/>
	<path class="st0" d="M528.8-333v114"/>
	<path class="st0" d="M536-324.8v97.6"/>
	<path class="st0" d="M543.3-348.7v145.5"/>
	<path class="st0" d="M550.5-355.5v159"/>
	<path class="st0" d="M557.8-341.8v131.6"/>
	<path class="st0" d="M565-325.7v99.4"/>
	<path class="st0" d="M572.2-316.2v80.4"/>
	<path class="st0" d="M579.5-339.1v126.2"/>
	<path class="st0" d="M586.7-337.5v122.9"/>
	<path class="st0" d="M594-343.3v134.7"/>
	<path class="st0" d="M601.2-340.1v128.3"/>
	<path class="st0" d="M608.5-316.8v81.5"/>
	<path class="st0" d="M615.7-309.9v67.7"/>
	<path class="st0" d="M622.9-323.1v94.3"/>
	<path class="st0" d="M630.2-297.5v43.1"/>
	<path class="st0" d="M637.4-310.3v68.6"/>
	<path class="st0" d="M644.7-325.7v99.3"/>
	<path class="st0" d="M651.9-334V-218"/>
	<path class="st0" d="M659.2-333.8v115.6"/>
	<path class="st0" d="M666.4-325.3v98.6"/>
	<path class="st0" d="M673.6-303.6v55.1"/>
	<path class="st0" d="M680.9-311.7v71.3"/>
	<path class="st0" d="M688.1-285v18"/>
	<path class="st0" d="M695.4-294.2v36.5"/>
	<path class="st0" d="M702.6-325.6v99.2"/>
	<path class="st0" d="M709.9-315.9v79.9"/>
	<path class="st0" d="M717.1-344.3v136.7"/>
	<path class="st0" d="M724.4-338.5v125.1"/>
	<path class="st0" d="M731.6-329.1v106.2"/>
	<path class="st0" d="M738.8-315.6v79.2"/>
	<path class="st0" d="M746.1-332.5v113"/>
	<path class="st0" d="M753.3-314.2v76.4"/>
	<path class="st0" d="M760.6-299.6v47.3"/>
	<path class="st0" d="M767.8-305.4v58.7"/>
	<path class="st0" d="M775.1-321.1v90.1"/>
	<path class="st0" d="M782.3-314.3v76.5"/>
	<path class="st0" d="M789.5-306.6v61.1"/>
	<path class="st0" d="M796.8-321.2v90.5"/>
	<path class="st0" d="M804-294.6v37.3"/>
	<path class="st0" d="M811.3-310.2v68.3"/>
	<path class="st0" d="M818.5-306.2v60.4"/>
	<path class="st0" d="M825.8-300.9v49.8"/>
	<path class="st0" d="M833-296.9v41.9"/>
	<path class="st0" d="M840.2-294.6v37.2"/>
	<path class="st0" d="M847.5-300.6v49.2"/>
	<path class="st0" d="M854.7-298.8v45.6"/>
	<path class="st0" d="M862-315.2v78.3"/>
	<path class="st0" d="M869.2-305.3v58.5"/>
	<path class="st0" d="M876.5-295.2v38.5"/>
	<path class="st0" d="M883.7-304v56"/>
	<path class="st0" d="M891-304.4v56.7"/>
	<path class="st0" d="M898.2-308.6v65.2"/>
	<path class="st0" d="M905.4-298.9v45.9"/>
	<path class="st0" d="M912.7-301.7v51.4"/>
	<path class="st0" d="M919.9-286v20"/>
	<path class="st0" d="M927.2-280v7.9"/>
	<path class="st0" d="M934.4-310.2v68.5"/>
	<path class="st0" d="M941.7-304v56.1"/>
	<path class="st0" d="M948.9-311.8v71.7"/>
	<path class="st0" d="M956.1-304.2v56.4"/>
	<path class="st0" d="M963.4-308.8v65.5"/>
	<path class="st0" d="M970.6-302.3v52.7"/>
	<path class="st0" d="M977.9-301v50.1"/>
	<path class="st0" d="M985.1-316.8v81.5"/>
	<path class="st0" d="M992.4-300.8v49.6"/>
	<path class="st0" d="M999.6-296.1v40.3"/>
	<path class="st0" d="M1006.8-302.4v52.7"/>
	<path class="st0" d="M1014.1-290.9v29.8"/>
	<path class="st0" d="M1021.3-306.2v60.4"/>
	<path class="st0" d="M1028.6-308.8v65.6"/>
	<path class="st0" d="M1035.8-299.6v47.1"/>
	<path class="st0" d="M1043.1-305.7v59.5"/>
	<path class="st0" d="M1050.3-296.1v40.2"/>
	<path class="st0" d="M1057.6-290.8v29.7"/>
	<path class="st0" d="M1064.8-310.3v68.6"/>
	<path class="st0" d="M1072-308.1v64.2"/>
	<path class="st0" d="M1079.3-300.4v48.9"/>
	<path class="st0" d="M1086.5-307.3v62.6"/>
	<path class="st0" d="M1093.8-298.3v44.6"/>
	<path class="st0" d="M1101-283.4v14.8"/>
	<path class="st0" d="M1108.3-307.2v62.4"/>
	<path class="st0" d="M1115.5-298.2v44.4"/>
	<path class="st0" d="M1122.7-294.2v36.3"/>
	<path class="st0" d="M1130-294v36"/>
	<path class="st0" d="M1137.2-287.7v23.3"/>
	<path class="st0" d="M1144.5-286.4v20.7"/>
	<path class="st0" d="M1151.7-289.4v26.9"/>
	<path class="st0" d="M1159-293.3v34.6"/>
	<path class="st0" d="M1166.2-295.2v38.3"/>
	<path class="st0" d="M1173.5-295.9v39.8"/>
	<path class="st0" d="M1180.7-295.4v38.9"/>
	<path class="st0" d="M1187.9-298.8v45.6"/>
	<path class="st0" d="M1195.2-308.3v64.6"/>
	<path class="st0" d="M1202.4-320.2v88.4"/>
	<path class="st0" d="M1209.7-304.2v56.4"/>
	<path class="st0" d="M1216.9-287.8v23.5"/>
	<path class="st0" d="M1224.2-327.8v103.7"/>
	<path class="st0" d="M1231.4-308.6v65.1"/>
	<path class="st0" d="M1238.6-298.6v45.1"/>
	<path class="st0" d="M1245.9-304.5v57"/>
	<path class="st0" d="M1253.1-304.8v57.6"/>
	<path class="st0" d="M1260.4-299v45.9"/>
	<path class="st0" d="M1267.6-305.2v58.4"/>
	<path class="st0" d="M1274.9-295.7v39.5"/>
	<path class="st0" d="M1282.1-300.7v49.4"/>
	<path class="st0" d="M1289.3-303.3v54.7"/>
	<path class="st0" d="M1296.6-281.3v10.7"/>
	<path class="st0" d="M1303.8-300.2v48.4"/>
	<path class="st0" d="M1311.1-307.1v62.2"/>
	<path class="st0" d="M1318.3-299.5v47.1"/>
	<path class="st0" d="M1325.6-295v38"/>
	<path class="st0" d="M1332.8-291v30.1"/>
	<path class="st0" d="M1340.1-289.5v26.9"/>
	<path class="st0" d="M1347.3-295.2v38.4"/>
	<path class="st0" d="M1354.5-294.2v36.4"/>
	<path class="st0" d="M1361.8-294.7v37.3"/>
	<path class="st0" d="M1369-295.4v38.9"/>
	<path class="st0" d="M1376.3-292.5v33"/>
	<path class="st0" d="M1383.5-288v24.1"/>
	<path class="st0" d="M1390.8-282.9v13.7"/>
	<path class="st0" d="M1398-279v6"/>
</g>
</svg>
