<?xml version="1.0" encoding="utf-8"?>
<!-- Generator: Adobe Illustrator 22.0.0, SVG Export Plug-In . SVG Version: 6.00 Build 0)  -->
<svg version="1.1" id="Layer_1" xmlns="http://www.w3.org/2000/svg" xmlns:xlink="http://www.w3.org/1999/xlink" x="0px" y="0px"
	 viewBox="0 0 1400 180" style="enable-background:new 0 0 1400 180;" xml:space="preserve">
<style type="text/css">
	.st0{fill:none;stroke:#FFD040;stroke-width:3.377;stroke-linecap:round;stroke-miterlimit:10;}
</style>
<g transform="scale(1,1)">
</g>
<g transform="translate(0,366)">
	<path class="st0" d="M88-310.4v68.9"/>
	<path class="st0" d="M94.7-333.4v114.7"/>
	<path class="st0" d="M101.5-318.4v84.7"/>
	<path class="st0" d="M108.2-296.6v41.3"/>
	<path class="st0" d="M115-315.1v78.3"/>
	<path class="st0" d="M121.7-310.2v68.5"/>
	<path class="st0" d="M128.5-308.2v64.4"/>
	<path class="st0" d="M135.2-331.4v110.8"/>
	<path class="st0" d="M142-298v44"/>
	<path class="st0" d="M148.7-297.2v42.4"/>
	<path class="st0" d="M155.5-315.9v79.8"/>
	<path class="st0" d="M162.3-289v26"/>
	<path class="st0" d="M169-301.8v51.5"/>
	<path class="st0" d="M175.8-290.4v28.8"/>
	<path class="st0" d="M182.5-289.9v27.9"/>
	<path class="st0" d="M189.3-283.2v14.5"/>
	<path class="st0" d="M196-298.3v44.6"/>
	<path class="st0" d="M202.8-287.9v23.9"/>
	<path class="st0" d="M209.5-299.6v47.3"/>
	<path class="st0" d="M216.3-287.9v23.8"/>
	<path class="st0" d="M223-291.5v30.9"/>
	<path class="st0" d="M229.8-277.3v2.6"/>
	<path class="st0" d="M236.5-311.6v71.3"/>
	<path class="st0" d="M243.3-314.8v77.6"/>
	<path class="st0" d="M250.1-305.3v58.6"/>
	<path class="st0" d="M256.8-312v72"/>
	<path class="st0" d="M263.6-297.2v42.4"/>
	<path class="st0" d="M270.3-292v32"/>
	<path class="st0" d="M277.1-282.1v12.3"/>
	<path class="st0" d="M283.8-277v2"/>
	<path class="st0" d="M290.6-305v58"/>
	<path class="st0" d="M297.3-287.1v22.1"/>
	<path class="st0" d="M304.1-289v26"/>
	<path class="st0" d="M310.8-279.1v6.1"/>
	<path class="st0" d="M317.6-311v69.9"/>
	<path class="st0" d="M324.3-316.8v81.5"/>
	<path class="st0" d="M331.1-293.3v34.6"/>
	<path class="st0" d="M337.9-309.6v67.2"/>
	<path class="st0" d="M344.6-316v80"/>
	<path class="st0" d="M351.4-300.6v49.2"/>
	<path class="st0" d="M358.1-318v84.1"/>
	<path class="st0" d="M364.9-296.7v41.3"/>
	<path class="st0" d="M371.6-291.6v31.1"/>
	<path class="st0" d="M378.4-323.4v94.9"/>
	<path class="st0" d="M385.1-326.4v100.7"/>
	<path class="st0" d="M391.9-322.6v93.2"/>
	<path class="st0" d="M398.6-290.6v29.1"/>
	<path class="st0" d="M405.4-290.9v29.9"/>
	<path class="st0" d="M412.2-308.7v65.3"/>
	<path class="st0" d="M418.9-297.4v42.7"/>
	<path class="st0" d="M425.7-294.7v37.4"/>
	<path class="st0" d="M432.4-286.7v21.4"/>
	<path class="st0" d="M439.2-284.6v17.3"/>
	<path class="st0" d="M445.9-289.2v26.4"/>
	<path class="st0" d="M452.7-277.7v3.4"/>
	<path class="st0" d="M459.4-276.3v0.6"/>
	<path class="st0" d="M466.2-281.9v11.9"/>
	<path class="st0" d="M472.9-309.1v66.3"/>
	<path class="st0" d="M479.7-336.8v121.5"/>
	<path class="st0" d="M486.4-356.4v160.8"/>
	<path class="st0" d="M493.2-315v77.9"/>
	<path class="st0" d="M500-300.8v49.6"/>
	<path class="st0" d="M506.7-333.1v114.3"/>
	<path class="st0" d="M513.5-335.9v119.9"/>
	<path class="st0" d="M520.2-302.9v53.9"/>
	<path class="st0" d="M527-293v33.9"/>
	<path class="st0" d="M533.7-312.2v72.5"/>
	<path class="st0" d="M540.5-300.2v48.4"/>
	<path class="st0" d="M547.2-305.6v59.1"/>
	<path class="st0" d="M554-316.9v81.8"/>
	<path class="st0" d="M560.7-298.9v45.9"/>
	<path class="st0" d="M567.5-294.9v37.7"/>
	<path class="st0" d="M574.3-305v57.9"/>
	<path class="st0" d="M581-297.9v43.9"/>
	<path class="st0" d="M587.8-310.7v69.5"/>
	<path class="st0" d="M594.5-323.7v95.4"/>
	<path class="st0" d="M601.3-284.6v17.2"/>
	<path class="st0" d="M608-277.6v3.2"/>
	<path class="st0" d="M614.8-318.4v84.7"/>
	<path class="st0" d="M621.5-300.9v49.8"/>
	<path class="st0" d="M628.3-288.3v24.6"/>
	<path class="st0" d="M635-281.8v11.6"/>
	<path class="st0" d="M641.8-290v28"/>
	<path class="st0" d="M648.5-332.8v113.6"/>
	<path class="st0" d="M655.3-348.5v145.1"/>
	<path class="st0" d="M662.1-348.5v145"/>
	<path class="st0" d="M668.8-326.4v100.7"/>
	<path class="st0" d="M675.6-299.5v46.9"/>
	<path class="st0" d="M682.3-308.7v65.3"/>
	<path class="st0" d="M689.1-315.8v79.7"/>
	<path class="st0" d="M695.8-291.4v30.7"/>
	<path class="st0" d="M702.6-286.8v21.7"/>
	<path class="st0" d="M709.3-276.8v1.5"/>
	<path class="st0" d="M716.1-277.1v2.2"/>
	<path class="st0" d="M722.8-310.6v69.2"/>
	<path class="st0" d="M729.6-309v65.9"/>
	<path class="st0" d="M736.3-300.9v49.7"/>
	<path class="st0" d="M743.1-320.5v89.1"/>
	<path class="st0" d="M749.9-331.6v111.3"/>
	<path class="st0" d="M756.6-318.7v85.5"/>
	<path class="st0" d="M763.4-315.5v79.1"/>
	<path class="st0" d="M770.1-317.5v82.9"/>
	<path class="st0" d="M776.9-293.2v34.3"/>
	<path class="st0" d="M783.6-315.7v79.3"/>
	<path class="st0" d="M790.4-304.5v56.9"/>
	<path class="st0" d="M0-276.8v1.5"/>
	<path class="st0" d="M6.8-277.1v2.2"/>
	<path class="st0" d="M13.5-310.6v69.2"/>
	<path class="st0" d="M20.3-309v65.9"/>
	<path class="st0" d="M27-300.9v49.7"/>
	<path class="st0" d="M33.8-320.5v89.1"/>
	<path class="st0" d="M40.5-331.6v111.3"/>
	<path class="st0" d="M47.3-318.7v85.5"/>
	<path class="st0" d="M54-315.5v79.1"/>
	<path class="st0" d="M60.8-317.5v82.9"/>
	<path class="st0" d="M67.5-293.2v34.3"/>
	<path class="st0" d="M74.3-315.7v79.3"/>
	<path class="st0" d="M81-304.5v56.9"/>
	<path class="st0" d="M797.1-308.2v64.4"/>
	<path class="st0" d="M803.9-277.5v3"/>
	<path class="st0" d="M810.6-277.3v2.6"/>
	<path class="st0" d="M817.4-320.7v89.3"/>
	<path class="st0" d="M824.2-330.2v108.4"/>
	<path class="st0" d="M830.9-281.5v11.1"/>
	<path class="st0" d="M837.7-279.3v6.5"/>
	<path class="st0" d="M844.4-313.4v74.9"/>
	<path class="st0" d="M851.2-318.6v85.2"/>
	<path class="st0" d="M857.9-286.5v21"/>
	<path class="st0" d="M864.7-303.7v55.4"/>
	<path class="st0" d="M871.4-316.4v80.8"/>
	<path class="st0" d="M878.2-314.1v76.2"/>
	<path class="st0" d="M884.9-286.6v21.3"/>
	<path class="st0" d="M891.7-298.2v44.5"/>
	<path class="st0" d="M898.4-320.9v89.8"/>
	<path class="st0" d="M905.2-314v76"/>
	<path class="st0" d="M912-288.9v25.7"/>
	<path class="st0" d="M918.7-299.9v47.9"/>
	<path class="st0" d="M925.5-290v28"/>
	<path class="st0" d="M932.2-282.8v13.6"/>
	<path class="st0" d="M939-298.8v45.6"/>
	<path class="st0" d="M945.7-323.5v95"/>
	<path class="st0" d="M952.5-334.7v117.4"/>
	<path class="st0" d="M959.2-337.7v123.3"/>
	<path class="st0" d="M966-298.7v45.4"/>
	<path class="st0" d="M972.7-291.3v30.6"/>
	<path class="st0" d="M979.5-320.5v88.9"/>
	<path class="st0" d="M986.3-295.2v38.5"/>
	<path class="st0" d="M993-316.2v80.4"/>
	<path class="st0" d="M999.8-311.5v71"/>
	<path class="st0" d="M1006.5-282.6v13.3"/>
	<path class="st0" d="M1013.3-296.2v40.3"/>
	<path class="st0" d="M1020-280.4v8.7"/>
	<path class="st0" d="M1026.8-277.3v2.5"/>
	<path class="st0" d="M1033.5-317.6v83.2"/>
	<path class="st0" d="M1040.3-301.8v51.6"/>
	<path class="st0" d="M1047-276.8v1.5"/>
	<path class="st0" d="M1053.8-291.8v31.6"/>
	<path class="st0" d="M1060.5-326V-226"/>
	<path class="st0" d="M1067.3-334V-218"/>
	<path class="st0" d="M1074.1-285.5v19"/>
	<path class="st0" d="M1080.8-278.5v4.9"/>
	<path class="st0" d="M1087.6-289.6v27.2"/>
	<path class="st0" d="M1094.3-289.6v27.2"/>
	<path class="st0" d="M1101.1-310.9v69.8"/>
	<path class="st0" d="M1107.8-320.1v88.2"/>
	<path class="st0" d="M1114.6-315.3v78.7"/>
	<path class="st0" d="M1121.3-307.5v63"/>
	<path class="st0" d="M1128.1-288.9v25.8"/>
	<path class="st0" d="M1134.8-308.4v64.9"/>
	<path class="st0" d="M1141.6-282.6v13.2"/>
	<path class="st0" d="M1148.3-285.9v19.7"/>
	<path class="st0" d="M1155.1-309.5v67.1"/>
	<path class="st0" d="M1161.9-328.1v104.2"/>
	<path class="st0" d="M1168.6-311v70.1"/>
	<path class="st0" d="M1175.4-312.5v72.9"/>
	<path class="st0" d="M1182.1-299.8v47.5"/>
	<path class="st0" d="M1188.9-296.4v40.8"/>
	<path class="st0" d="M1195.6-305.1v58.2"/>
	<path class="st0" d="M1202.4-285.8v19.6"/>
	<path class="st0" d="M1209.1-311.3v70.6"/>
	<path class="st0" d="M1215.9-302.1v52.1"/>
	<path class="st0" d="M1222.6-277.4v2.8"/>
	<path class="st0" d="M1229.4-283.6v15.2"/>
	<path class="st0" d="M1236.2-319.5v87.1"/>
	<path class="st0" d="M1242.9-313.1v74.2"/>
	<path class="st0" d="M1249.7-277v2"/>
	<path class="st0" d="M1256.4-302.3v52.7"/>
	<path class="st0" d="M1263.2-323.3v94.5"/>
	<path class="st0" d="M1269.9-348.5v145.1"/>
	<path class="st0" d="M1276.7-296.7v41.4"/>
	<path class="st0" d="M1283.4-321.3v90.5"/>
	<path class="st0" d="M1290.2-319.9v87.9"/>
	<path class="st0" d="M1296.9-313v74"/>
	<path class="st0" d="M1303.7-306.5v61.1"/>
	<path class="st0" d="M1310.4-298.8v45.7"/>
	<path class="st0" d="M1317.2-290.4v28.7"/>
	<path class="st0" d="M1322.6-277.4v2.8"/>
	<path class="st0" d="M1329.4-283.6v15.2"/>
	<path class="st0" d="M1336.2-319.5v87.1"/>
	<path class="st0" d="M1342.9-313.1v74.2"/>
	<path class="st0" d="M1349.7-277v2"/>
	<path class="st0" d="M1356.4-302.3v52.7"/>
	<path class="st0" d="M1363.2-323.3v94.5"/>
	<path class="st0" d="M1369.9-348.5v145.1"/>
	<path class="st0" d="M1376.7-296.7v41.4"/>
	<path class="st0" d="M1383.4-321.3v90.5"/>
	<path class="st0" d="M1390.2-319.9v87.9"/>
	<path class="st0" d="M1396.9-313v74"/>
</g>
</svg>
