<?xml version="1.0" encoding="utf-8"?>
<!-- Generator: Adobe Illustrator 22.0.0, SVG Export Plug-In . SVG Version: 6.00 Build 0)  -->
<svg version="1.1" id="Layer_1" xmlns="http://www.w3.org/2000/svg" xmlns:xlink="http://www.w3.org/1999/xlink" x="0px" y="0px"
	 viewBox="0 0 1400 180" style="enable-background:new 0 0 1400 180;" xml:space="preserve">
<style type="text/css">
	.st0{fill:none;stroke:#FFD040;stroke-width:3.8925;stroke-linecap:round;stroke-miterlimit:10;}
</style>
<g transform="scale(1,1)">
</g>
<g transform="translate(0,503)">
	<path class="st0" d="M0-442.1v58.2"/>
	<path class="st0" d="M7.8-466.6v107.2"/>
	<path class="st0" d="M15.6-450.7v75.5"/>
	<path class="st0" d="M23.4-437.4v48.8"/>
	<path class="st0" d="M31.1-424.4v22.8"/>
	<path class="st0" d="M38.9-429.2v32.4"/>
	<path class="st0" d="M46.7-441.8v57.6"/>
	<path class="st0" d="M54.5-426.7v27.5"/>
	<path class="st0" d="M62.3-442.1v58.1"/>
	<path class="st0" d="M70.1-430.3v34.5"/>
	<path class="st0" d="M77.8-423.1v20.2"/>
	<path class="st0" d="M85.6-442.6v59.3"/>
	<path class="st0" d="M93.4-444.3v62.7"/>
	<path class="st0" d="M101.2-444.6v63.3"/>
	<path class="st0" d="M109-440.6v55.2"/>
	<path class="st0" d="M116.8-437.8v49.6"/>
	<path class="st0" d="M124.6-441.2v56.3"/>
	<path class="st0" d="M132.3-416.6v7.1"/>
	<path class="st0" d="M140.1-444.5v63.1"/>
	<path class="st0" d="M147.9-426.5v27.1"/>
	<path class="st0" d="M155.7-431.3v36.6"/>
	<path class="st0" d="M163.5-419.5v13"/>
	<path class="st0" d="M171.3-472.4v118.9"/>
	<path class="st0" d="M179.1-475.2v124.4"/>
	<path class="st0" d="M186.8-452.4v78.8"/>
	<path class="st0" d="M194.6-440.7v55.3"/>
	<path class="st0" d="M202.4-433v40"/>
	<path class="st0" d="M210.2-460.5v94.9"/>
	<path class="st0" d="M218-473.1v120.2"/>
	<path class="st0" d="M225.8-480.8v135.7"/>
	<path class="st0" d="M233.5-426.5v27.1"/>
	<path class="st0" d="M241.3-440.2v54.4"/>
	<path class="st0" d="M249.1-505.7v185.4"/>
	<path class="st0" d="M256.9-471.3v116.5"/>
	<path class="st0" d="M264.7-468.5v110.9"/>
	<path class="st0" d="M272.5-454.6v83.2"/>
	<path class="st0" d="M280.3-421.9v17.8"/>
	<path class="st0" d="M288-452.9v79.7"/>
	<path class="st0" d="M295.8-458.9v91.8"/>
	<path class="st0" d="M303.6-443.3v60.6"/>
	<path class="st0" d="M311.4-450.5v75.1"/>
	<path class="st0" d="M319.2-449.7v73.4"/>
	<path class="st0" d="M327-440.2v54.4"/>
	<path class="st0" d="M334.8-439.7v53.5"/>
	<path class="st0" d="M342.5-426.3v26.6"/>
	<path class="st0" d="M350.3-435.1v44.2"/>
	<path class="st0" d="M358.1-469.2v112.4"/>
	<path class="st0" d="M365.9-443.7v61.3"/>
	<path class="st0" d="M373.7-435.6v45.2"/>
	<path class="st0" d="M381.5-439.1v52.2"/>
	<path class="st0" d="M389.2-438.7v51.4"/>
	<path class="st0" d="M397-447v68"/>
	<path class="st0" d="M404.8-448.5v70.9"/>
	<path class="st0" d="M412.6-430.4v34.7"/>
	<path class="st0" d="M420.4-437.8v49.6"/>
	<path class="st0" d="M428.2-438.6v51.3"/>
	<path class="st0" d="M436-460v94.1"/>
	<path class="st0" d="M443.7-470.4v114.9"/>
	<path class="st0" d="M451.5-452.1v78.2"/>
	<path class="st0" d="M459.3-449.8v73.7"/>
	<path class="st0" d="M467.1-455.8v85.5"/>
	<path class="st0" d="M474.9-431.8v37.6"/>
	<path class="st0" d="M482.7-448.2v70.4"/>
	<path class="st0" d="M490.5-424.3v22.7"/>
	<path class="st0" d="M498.2-448.1v70.1"/>
	<path class="st0" d="M506-440.2v54.4"/>
	<path class="st0" d="M513.8-465.4v104.8"/>
	<path class="st0" d="M521.6-490.6v155.3"/>
	<path class="st0" d="M529.4-488.6v151.3"/>
	<path class="st0" d="M537.2-450v74"/>
	<path class="st0" d="M544.9-479.9v133.8"/>
	<path class="st0" d="M552.7-453.1v80.2"/>
	<path class="st0" d="M560.5-459.5v92.9"/>
	<path class="st0" d="M568.3-490.2v154.3"/>
	<path class="st0" d="M576.1-453.9v81.8"/>
	<path class="st0" d="M583.9-454v82.1"/>
	<path class="st0" d="M591.7-443.5v61"/>
	<path class="st0" d="M599.4-461.7v97.3"/>
	<path class="st0" d="M607.2-475v124"/>
	<path class="st0" d="M615-463.1v100.2"/>
	<path class="st0" d="M622.8-466.7v107.3"/>
	<path class="st0" d="M630.6-472.8v119.7"/>
	<path class="st0" d="M638.4-459.8v93.7"/>
	<path class="st0" d="M646.2-453.5v81"/>
	<path class="st0" d="M653.9-438.9v51.8"/>
	<path class="st0" d="M661.7-443.4v60.7"/>
	<path class="st0" d="M669.5-444.5v63"/>
	<path class="st0" d="M677.3-443.9v61.8"/>
	<path class="st0" d="M685.1-468.7v111.3"/>
	<path class="st0" d="M692.9-437.1v48.3"/>
	<path class="st0" d="M700.6-466.1v106.2"/>
	<path class="st0" d="M708.4-456.9v87.7"/>
	<path class="st0" d="M716.2-451.8v77.7"/>
	<path class="st0" d="M724-446.1v66.3"/>
	<path class="st0" d="M731.8-445.2v64.4"/>
	<path class="st0" d="M739.6-417.9v9.9"/>
	<path class="st0" d="M747.4-449.7v73.4"/>
	<path class="st0" d="M755.1-478.4v130.8"/>
	<path class="st0" d="M762.9-458.5v91.1"/>
	<path class="st0" d="M770.7-443v60.1"/>
	<path class="st0" d="M778.5-479V-347"/>
	<path class="st0" d="M786.3-464.7v103.5"/>
	<path class="st0" d="M794.1-446v66.1"/>
	<path class="st0" d="M801.9-435.8v45.5"/>
	<path class="st0" d="M809.6-446.2v66.4"/>
	<path class="st0" d="M817.4-422.9v19.8"/>
	<path class="st0" d="M825.2-444.6v63.1"/>
	<path class="st0" d="M833-441.4v56.8"/>
	<path class="st0" d="M840.8-451.5v77"/>
	<path class="st0" d="M848.6-430.6v35.2"/>
	<path class="st0" d="M856.3-446.9v67.8"/>
	<path class="st0" d="M864.1-436.5v47"/>
	<path class="st0" d="M871.9-437.7v49.4"/>
	<path class="st0" d="M879.7-446.1v66.1"/>
	<path class="st0" d="M887.5-456.5v86.9"/>
	<path class="st0" d="M895.3-440.3v54.5"/>
	<path class="st0" d="M903.1-433.9v41.8"/>
	<path class="st0" d="M910.8-444.7v63.5"/>
	<path class="st0" d="M918.6-465.2v104.4"/>
	<path class="st0" d="M926.4-449.5v73"/>
	<path class="st0" d="M934.2-456v85.9"/>
	<path class="st0" d="M942-453.3v80.5"/>
	<path class="st0" d="M949.8-445.6v65.2"/>
	<path class="st0" d="M957.6-445.7v65.5"/>
	<path class="st0" d="M965.3-437v48"/>
	<path class="st0" d="M973.1-449.7v73.4"/>
	<path class="st0" d="M980.9-441v55.9"/>
	<path class="st0" d="M988.7-451v75.9"/>
	<path class="st0" d="M996.5-446.1v66.1"/>
	<path class="st0" d="M1004.3-429.6v33.2"/>
	<path class="st0" d="M1012-439.2v52.4"/>
	<path class="st0" d="M1019.8-446v66"/>
	<path class="st0" d="M1027.6-449.2v72.5"/>
	<path class="st0" d="M1035.4-443v59.9"/>
	<path class="st0" d="M1043.2-452.4v78.7"/>
	<path class="st0" d="M1051-439.5v53"/>
	<path class="st0" d="M1058.8-453.7v81.5"/>
	<path class="st0" d="M1066.5-433.8v41.5"/>
	<path class="st0" d="M1074.3-441.7v57.3"/>
	<path class="st0" d="M1082.1-434.8v43.6"/>
	<path class="st0" d="M1089.9-433.4v40.8"/>
	<path class="st0" d="M1097.7-434.6v43.2"/>
	<path class="st0" d="M1105.5-447.2v68.4"/>
	<path class="st0" d="M1113.3-450.8v75.6"/>
	<path class="st0" d="M1121-445.9v65.9"/>
	<path class="st0" d="M1128.8-425.6v25.2"/>
	<path class="st0" d="M1136.6-457.5v88.9"/>
	<path class="st0" d="M1144.4-440.8v55.7"/>
	<path class="st0" d="M1152.2-443v60"/>
	<path class="st0" d="M1160-438v50"/>
	<path class="st0" d="M1167.8-464.6v103.3"/>
	<path class="st0" d="M1175.5-444.8v63.6"/>
	<path class="st0" d="M1183.3-451.5v77"/>
	<path class="st0" d="M1191.1-451.7v77.5"/>
	<path class="st0" d="M1198.9-449.2v72.4"/>
	<path class="st0" d="M1206.7-450v74.1"/>
	<path class="st0" d="M1214.5-456.4v86.8"/>
	<path class="st0" d="M1222.2-428.6v31.1"/>
	<path class="st0" d="M1230-466.7v107.5"/>
	<path class="st0" d="M1237.8-480.3v134.6"/>
	<path class="st0" d="M1245.6-436.1v46.1"/>
	<path class="st0" d="M1253.4-434.4v42.7"/>
	<path class="st0" d="M1261.2-438.9v51.7"/>
	<path class="st0" d="M1269-444.8v63.6"/>
	<path class="st0" d="M1276.7-439.9v53.9"/>
	<path class="st0" d="M1284.5-449.3v72.7"/>
	<path class="st0" d="M1292.3-450.4v74.9"/>
	<path class="st0" d="M1300.1-437.7v49.3"/>
	<path class="st0" d="M1307.9-446v66"/>
	<path class="st0" d="M1315.7-469v112"/>
	<path class="st0" d="M1323.5-447.5v69"/>
	<path class="st0" d="M1331.2-430.3v34.6"/>
	<path class="st0" d="M1339-436.3v46.7"/>
	<path class="st0" d="M1346.8-435.4v44.9"/>
	<path class="st0" d="M1354.6-448.6v71.3"/>
	<path class="st0" d="M1362.4-449.3v72.5"/>
	<path class="st0" d="M1370.2-424.9v23.8"/>
	<path class="st0" d="M1377.9-442.9v59.8"/>
	<path class="st0" d="M1385.7-443.4v60.9"/>
	<path class="st0" d="M1393.5-442.6v59.2"/>
	<path class="st0" d="M1401.3-437.1v48.1"/>
</g>
</svg>
