<?xml version="1.0" encoding="utf-8"?>
<!-- Generator: Adobe Illustrator 22.0.0, SVG Export Plug-In . SVG Version: 6.00 Build 0)  -->
<svg version="1.1" id="Layer_1" xmlns="http://www.w3.org/2000/svg" xmlns:xlink="http://www.w3.org/1999/xlink" x="0px" y="0px"
	 viewBox="0 0 1400 180" style="enable-background:new 0 0 1400 180;" xml:space="preserve">
<style type="text/css">
	.st0{fill:none;stroke:#FFD040;stroke-width:3.7428;stroke-linecap:round;stroke-miterlimit:10;}
</style>
<g transform="scale(1,1)">
</g>
<g transform="translate(0,503)">
	<path class="st0" d="M0-413.3v0.6"/>
	<path class="st0" d="M7.5-473.2v120.4"/>
	<path class="st0" d="M15-501.2v176.4"/>
	<path class="st0" d="M22.5-477.9v129.9"/>
	<path class="st0" d="M29.9-494.4v162.7"/>
	<path class="st0" d="M37.4-463.3v100.6"/>
	<path class="st0" d="M44.9-452.4v78.8"/>
	<path class="st0" d="M52.4-444.2v62.5"/>
	<path class="st0" d="M59.9-440.9v55.7"/>
	<path class="st0" d="M67.4-461.7v97.4"/>
	<path class="st0" d="M74.9-441.9v57.9"/>
	<path class="st0" d="M82.3-458.9v91.9"/>
	<path class="st0" d="M89.8-438.2v50.3"/>
	<path class="st0" d="M97.3-439.3v52.5"/>
	<path class="st0" d="M104.8-445v64"/>
	<path class="st0" d="M112.3-458.4v90.8"/>
	<path class="st0" d="M119.8-446.2v66.4"/>
	<path class="st0" d="M127.3-443.9v61.8"/>
	<path class="st0" d="M134.7-440.8v55.6"/>
	<path class="st0" d="M142.2-430.9v35.7"/>
	<path class="st0" d="M149.7-425.9v25.9"/>
	<path class="st0" d="M157.2-445.1v64.2"/>
	<path class="st0" d="M164.7-420.6v15.2"/>
	<path class="st0" d="M172.2-413.9v1.8"/>
	<path class="st0" d="M179.7-413.8v1.6"/>
	<path class="st0" d="M187.1-415.6v5.3"/>
	<path class="st0" d="M194.6-443.3v60.6"/>
	<path class="st0" d="M202.1-443.1v60.3"/>
	<path class="st0" d="M209.6-420v14.1"/>
	<path class="st0" d="M217.1-416.9v7.9"/>
	<path class="st0" d="M224.6-440.2v54.3"/>
	<path class="st0" d="M232.1-445.9v65.7"/>
	<path class="st0" d="M239.5-447.8v69.5"/>
	<path class="st0" d="M247-463.1v100.1"/>
	<path class="st0" d="M254.5-450.4v74.8"/>
	<path class="st0" d="M262-461v96"/>
	<path class="st0" d="M269.5-462.5v99.1"/>
	<path class="st0" d="M277-429.9v33.8"/>
	<path class="st0" d="M284.5-417.1v8.3"/>
	<path class="st0" d="M291.9-421v16"/>
	<path class="st0" d="M299.4-445.2v64.4"/>
	<path class="st0" d="M306.9-450.8v75.6"/>
	<path class="st0" d="M314.4-436.4v46.7"/>
	<path class="st0" d="M321.9-460.3v94.6"/>
	<path class="st0" d="M329.4-459.3v92.7"/>
	<path class="st0" d="M336.9-422.8v19.5"/>
	<path class="st0" d="M344.3-414.4v2.9"/>
	<path class="st0" d="M351.8-414.2v2.5"/>
	<path class="st0" d="M359.3-414.1v2.2"/>
	<path class="st0" d="M366.8-447.2v68.4"/>
	<path class="st0" d="M374.3-451.1v76.1"/>
	<path class="st0" d="M381.8-435.3v44.6"/>
	<path class="st0" d="M389.2-442.9v59.8"/>
	<path class="st0" d="M396.7-448.9v71.9"/>
	<path class="st0" d="M404.2-442.3v58.6"/>
	<path class="st0" d="M411.7-456.5v87.1"/>
	<path class="st0" d="M419.2-435.5v44.9"/>
	<path class="st0" d="M426.7-436.8v47.7"/>
	<path class="st0" d="M434.2-443.6v61.3"/>
	<path class="st0" d="M441.6-449.5v72.9"/>
	<path class="st0" d="M449.1-447.3v68.5"/>
	<path class="st0" d="M456.6-445.2v64.5"/>
	<path class="st0" d="M464.1-430.8v35.7"/>
	<path class="st0" d="M471.6-449.4v72.7"/>
	<path class="st0" d="M479.1-434.3v42.6"/>
	<path class="st0" d="M486.6-431.7v37.3"/>
	<path class="st0" d="M494-457.6v89.2"/>
	<path class="st0" d="M501.5-479.5v133"/>
	<path class="st0" d="M509-480.9v135.8"/>
	<path class="st0" d="M516.5-419.5v13.1"/>
	<path class="st0" d="M524-418.7v11.5"/>
	<path class="st0" d="M531.5-442.7v59.5"/>
	<path class="st0" d="M539-461.8v97.7"/>
	<path class="st0" d="M546.4-423.2v20.4"/>
	<path class="st0" d="M553.9-433v40"/>
	<path class="st0" d="M561.4-456.6v87.3"/>
	<path class="st0" d="M568.9-450.2v74.3"/>
	<path class="st0" d="M576.4-446.6v67.2"/>
	<path class="st0" d="M583.9-452.4v78.8"/>
	<path class="st0" d="M591.4-440.9v55.8"/>
	<path class="st0" d="M598.8-427.4v28.7"/>
	<path class="st0" d="M606.3-414.8v3.7"/>
	<path class="st0" d="M613.8-462.7v99.5"/>
	<path class="st0" d="M621.3-460.7v95.5"/>
	<path class="st0" d="M628.8-478.9v131.7"/>
	<path class="st0" d="M636.3-458.9v91.7"/>
	<path class="st0" d="M643.8-441.7v57.5"/>
	<path class="st0" d="M651.2-430.6v35.1"/>
	<path class="st0" d="M658.7-414.1v2.2"/>
	<path class="st0" d="M666.2-444.6v63.2"/>
	<path class="st0" d="M673.7-450.2v74.5"/>
	<path class="st0" d="M681.2-446.7v67.4"/>
	<path class="st0" d="M688.7-446.5v67"/>
	<path class="st0" d="M696.2-462.7v99.5"/>
	<path class="st0" d="M703.6-428.1v30.3"/>
	<path class="st0" d="M711.1-414.2v2.4"/>
	<path class="st0" d="M718.6-414.1v2.1"/>
	<path class="st0" d="M726.1-462.9v99.8"/>
	<path class="st0" d="M733.6-471.8v117.6"/>
	<path class="st0" d="M741.1-459.6v93.3"/>
	<path class="st0" d="M748.6-451.2v76.4"/>
	<path class="st0" d="M756-453v80.1"/>
	<path class="st0" d="M763.5-420.7v15.5"/>
	<path class="st0" d="M771-414.4v2.7"/>
	<path class="st0" d="M778.5-456.5v86.9"/>
	<path class="st0" d="M786-441.7v57.4"/>
	<path class="st0" d="M793.5-430.9v35.9"/>
	<path class="st0" d="M801-466.8v107.7"/>
	<path class="st0" d="M808.4-435.2v44.4"/>
	<path class="st0" d="M815.9-414v2.1"/>
	<path class="st0" d="M823.4-414v2"/>
	<path class="st0" d="M830.9-428.2v30.4"/>
	<path class="st0" d="M838.4-450.1v74.3"/>
	<path class="st0" d="M845.9-447.6v69.2"/>
	<path class="st0" d="M853.4-436.6v47.3"/>
	<path class="st0" d="M860.8-454.4v82.8"/>
	<path class="st0" d="M868.3-455v84.1"/>
	<path class="st0" d="M875.8-429.5v32.9"/>
	<path class="st0" d="M883.3-424.4v22.7"/>
	<path class="st0" d="M890.8-442v58"/>
	<path class="st0" d="M898.3-450.5v75.1"/>
	<path class="st0" d="M905.8-438.5v51"/>
	<path class="st0" d="M913.2-442.1v58.2"/>
	<path class="st0" d="M920.7-418.4v10.8"/>
	<path class="st0" d="M928.2-428.2v30.5"/>
	<path class="st0" d="M935.7-426.1v26.2"/>
	<path class="st0" d="M943.2-458v90"/>
	<path class="st0" d="M950.7-436v46.1"/>
	<path class="st0" d="M958.2-414.3v2.5"/>
	<path class="st0" d="M965.6-452v78"/>
	<path class="st0" d="M973.1-458.7v91.3"/>
	<path class="st0" d="M980.6-439.2v52.4"/>
	<path class="st0" d="M988.1-450.9v75.9"/>
	<path class="st0" d="M995.6-447.9v69.9"/>
	<path class="st0" d="M1003.1-437.8v49.7"/>
	<path class="st0" d="M1010.6-432.3v38.7"/>
	<path class="st0" d="M1018-424.5v23"/>
	<path class="st0" d="M1025.5-432v38"/>
	<path class="st0" d="M1033-443.6v61.2"/>
	<path class="st0" d="M1040.5-415v4.1"/>
	<path class="st0" d="M1048-449.2v72.4"/>
	<path class="st0" d="M1055.5-432.4v38.9"/>
	<path class="st0" d="M1063-453.6v81.2"/>
	<path class="st0" d="M1070.4-437.7v49.4"/>
	<path class="st0" d="M1077.9-449.9v73.9"/>
	<path class="st0" d="M1085.4-438.7v51.4"/>
	<path class="st0" d="M1092.9-414.8v3.5"/>
	<path class="st0" d="M1100.4-448.9v71.7"/>
	<path class="st0" d="M1107.9-470.2v114.3"/>
	<path class="st0" d="M1115.4-473.8v121.6"/>
	<path class="st0" d="M1122.8-449.2v72.5"/>
	<path class="st0" d="M1130.3-424.4v22.9"/>
	<path class="st0" d="M1137.8-462.4v98.8"/>
	<path class="st0" d="M1145.3-474.9v123.7"/>
	<path class="st0" d="M1152.8-414.4v2.8"/>
	<path class="st0" d="M1160.3-435.2v44.4"/>
	<path class="st0" d="M1167.8-482.1v138.2"/>
	<path class="st0" d="M1175.2-488.1v150.2"/>
	<path class="st0" d="M1182.7-470.7v115.4"/>
	<path class="st0" d="M1190.2-433.6v41.2"/>
	<path class="st0" d="M1197.7-445.4v64.9"/>
	<path class="st0" d="M1205.2-445.4v64.7"/>
	<path class="st0" d="M1212.7-454.6v83.1"/>
	<path class="st0" d="M1220.1-454.9v83.8"/>
	<path class="st0" d="M1227.6-424v22"/>
	<path class="st0" d="M1235.1-448v70.1"/>
	<path class="st0" d="M1242.6-425.1v24.1"/>
	<path class="st0" d="M1250.1-433.3v40.6"/>
	<path class="st0" d="M1257.6-455.2v84.4"/>
	<path class="st0" d="M1265.1-472.4v118.8"/>
	<path class="st0" d="M1272.5-464.3v102.5"/>
	<path class="st0" d="M1280-457.3v88.7"/>
	<path class="st0" d="M1287.5-451v76.1"/>
	<path class="st0" d="M1295-442.6v59.3"/>
	<path class="st0" d="M1302.5-459.8v93.6"/>
	<path class="st0" d="M1310-456.2v86.4"/>
	<path class="st0" d="M1317.5-449.6v73.1"/>
	<path class="st0" d="M1324.9-439.7v53.3"/>
	<path class="st0" d="M1332.4-441.9v57.8"/>
	<path class="st0" d="M1339.9-449.1v72.2"/>
	<path class="st0" d="M1347.4-434v42.1"/>
	<path class="st0" d="M1354.9-441.1v56.2"/>
	<path class="st0" d="M1362.4-425.4v24.7"/>
	<path class="st0" d="M1369.9-429.5v33"/>
	<path class="st0" d="M1377.3-451.7v77.4"/>
	<path class="st0" d="M1384.8-467.1v108.1"/>
	<path class="st0" d="M1392.3-452.5v78.9"/>
</g>
</svg>
