<?xml version="1.0" encoding="utf-8"?>
<!-- Generator: Adobe Illustrator 22.0.0, SVG Export Plug-In . SVG Version: 6.00 Build 0)  -->
<svg version="1.1" id="Layer_1" xmlns="http://www.w3.org/2000/svg" xmlns:xlink="http://www.w3.org/1999/xlink" x="0px" y="0px"
	 viewBox="0 0 1400 180" style="enable-background:new 0 0 1400 180;" xml:space="preserve">
<style type="text/css">
	.st0{fill:none;stroke:#FFD040;stroke-width:3.5953;stroke-linecap:round;stroke-miterlimit:10;}
</style>
<g transform="scale(1,1)">
</g>
<g transform="translate(0,503)">
	<path class="st0" d="M9.8-447.5v69"/>
	<path class="st0" d="M17-452.5v79"/>
	<path class="st0" d="M24.1-454.4v82.9"/>
	<path class="st0" d="M31.3-430.7v35.5"/>
	<path class="st0" d="M38.5-439.7v53.4"/>
	<path class="st0" d="M45.7-443.9v61.7"/>
	<path class="st0" d="M52.9-423.8v21.6"/>
	<path class="st0" d="M60.1-423.7v21.3"/>
	<path class="st0" d="M67.3-453.2v80.5"/>
	<path class="st0" d="M74.5-432.4v38.8"/>
	<path class="st0" d="M81.7-452.9v79.7"/>
	<path class="st0" d="M88.9-432.3v38.6"/>
	<path class="st0" d="M96-428.3v30.6"/>
	<path class="st0" d="M103.2-427.7v29.5"/>
	<path class="st0" d="M110.4-414.8v3.7"/>
	<path class="st0" d="M117.6-426.8v27.6"/>
	<path class="st0" d="M124.8-413.8v1.7"/>
	<path class="st0" d="M132-413.1v0.3"/>
	<path class="st0" d="M139.2-413L139.2-413"/>
	<path class="st0" d="M146.4-413L146.4-413"/>
	<path class="st0" d="M153.6-438.9v51.9"/>
	<path class="st0" d="M160.8-463v100"/>
	<path class="st0" d="M168-471.3v116.6"/>
	<path class="st0" d="M175.1-460.5v95.1"/>
	<path class="st0" d="M182.3-464.5v103"/>
	<path class="st0" d="M189.5-452v78.1"/>
	<path class="st0" d="M196.7-442.1v58.2"/>
	<path class="st0" d="M203.9-444.8v63.6"/>
	<path class="st0" d="M211.1-431.5v37"/>
	<path class="st0" d="M218.3-446.2v66.3"/>
	<path class="st0" d="M225.5-433.1v40.3"/>
	<path class="st0" d="M232.7-421.9v17.9"/>
	<path class="st0" d="M239.9-421.4v16.7"/>
	<path class="st0" d="M247-417.7v9.5"/>
	<path class="st0" d="M254.2-424.5v23"/>
	<path class="st0" d="M261.4-443.6v61.2"/>
	<path class="st0" d="M268.6-437v48.1"/>
	<path class="st0" d="M275.8-447.3v68.7"/>
	<path class="st0" d="M283-431.8v37.6"/>
	<path class="st0" d="M290.2-454.7v83.5"/>
	<path class="st0" d="M297.4-433.2v40.5"/>
	<path class="st0" d="M304.6-440v53.9"/>
	<path class="st0" d="M311.8-427.8v29.6"/>
	<path class="st0" d="M319-438.7v51.4"/>
	<path class="st0" d="M326.1-438.4v50.8"/>
	<path class="st0" d="M333.3-425.6v25.2"/>
	<path class="st0" d="M340.5-447.4v68.9"/>
	<path class="st0" d="M347.7-423.1v20.3"/>
	<path class="st0" d="M354.9-445.9v65.8"/>
	<path class="st0" d="M362.1-436.1v46.3"/>
	<path class="st0" d="M369.3-440.8v55.5"/>
	<path class="st0" d="M376.5-446.4v66.8"/>
	<path class="st0" d="M383.7-440.9v55.9"/>
	<path class="st0" d="M390.9-438.4v50.7"/>
	<path class="st0" d="M398.1-427.8v29.6"/>
	<path class="st0" d="M405.2-430.8v35.6"/>
	<path class="st0" d="M412.4-428.9v31.9"/>
	<path class="st0" d="M419.6-440v54"/>
	<path class="st0" d="M426.8-428.2v30.3"/>
	<path class="st0" d="M434-430.2v34.4"/>
	<path class="st0" d="M441.2-436.5v47"/>
	<path class="st0" d="M448.4-434.3v42.6"/>
	<path class="st0" d="M455.6-442.9v59.8"/>
	<path class="st0" d="M462.8-431.7v37.3"/>
	<path class="st0" d="M470-426.2v26.4"/>
	<path class="st0" d="M477.1-430.9v35.7"/>
	<path class="st0" d="M484.3-428.8v31.6"/>
	<path class="st0" d="M491.5-434.8v43.6"/>
	<path class="st0" d="M498.7-437.6v49.1"/>
	<path class="st0" d="M505.9-427.9v29.8"/>
	<path class="st0" d="M513.1-420.2v14.5"/>
	<path class="st0" d="M520.3-421v16"/>
	<path class="st0" d="M527.5-439.7v53.3"/>
	<path class="st0" d="M534.7-422.6v19.2"/>
	<path class="st0" d="M541.9-415v3.9"/>
	<path class="st0" d="M549.1-428.5v30.9"/>
	<path class="st0" d="M556.2-446.7v67.5"/>
	<path class="st0" d="M563.4-439.7v53.4"/>
	<path class="st0" d="M570.6-426.7v27.3"/>
	<path class="st0" d="M577.8-433v40"/>
	<path class="st0" d="M585-428.8v31.6"/>
	<path class="st0" d="M592.2-423.8v21.7"/>
	<path class="st0" d="M599.4-426.5v26.9"/>
	<path class="st0" d="M606.6-435.5v44.9"/>
	<path class="st0" d="M613.8-431.8v37.6"/>
	<path class="st0" d="M621-427.6v29.2"/>
	<path class="st0" d="M628.1-443.5v61"/>
	<path class="st0" d="M635.3-429.8v33.5"/>
	<path class="st0" d="M642.5-415.8v5.5"/>
	<path class="st0" d="M649.7-428.5v30.9"/>
	<path class="st0" d="M656.9-438.9v51.8"/>
	<path class="st0" d="M664.1-437.3v48.7"/>
	<path class="st0" d="M671.3-436.1v46.1"/>
	<path class="st0" d="M678.5-436.4v46.7"/>
	<path class="st0" d="M685.7-450.5v75.1"/>
	<path class="st0" d="M692.9-436.4v46.9"/>
	<path class="st0" d="M700.1-428.3v30.6"/>
	<path class="st0" d="M707.2-436.7v47.3"/>
	<path class="st0" d="M714.4-422.9v19.8"/>
	<path class="st0" d="M721.6-443.9v61.9"/>
	<path class="st0" d="M728.8-432.1v38.3"/>
	<path class="st0" d="M736-432.1v38.1"/>
	<path class="st0" d="M743.2-423.9v21.7"/>
	<path class="st0" d="M750.4-442.6v59.1"/>
	<path class="st0" d="M757.6-423.3v20.7"/>
	<path class="st0" d="M764.8-417.4v8.9"/>
	<path class="st0" d="M772-435.2v44.3"/>
	<path class="st0" d="M779.1-440.5v55"/>
	<path class="st0" d="M786.3-424.4v22.9"/>
	<path class="st0" d="M793.5-430.1v34.2"/>
	<path class="st0" d="M800.7-436.4v46.9"/>
	<path class="st0" d="M807.9-427.7v29.4"/>
	<path class="st0" d="M815.1-446.7v67.5"/>
	<path class="st0" d="M822.3-438.7v51.3"/>
	<path class="st0" d="M829.5-437.3v48.6"/>
	<path class="st0" d="M836.7-446.2v66.4"/>
	<path class="st0" d="M843.9-457.6v89.3"/>
	<path class="st0" d="M851.1-439v51.9"/>
	<path class="st0" d="M858.2-445.4v64.9"/>
	<path class="st0" d="M865.4-442.2v58.3"/>
	<path class="st0" d="M872.6-442.4v58.8"/>
	<path class="st0" d="M879.8-450.5v75"/>
	<path class="st0" d="M887-435.6v45.1"/>
	<path class="st0" d="M894.2-427.5v29.1"/>
	<path class="st0" d="M901.4-427.5v29"/>
	<path class="st0" d="M908.6-433.4v40.9"/>
	<path class="st0" d="M915.8-447.8v69.6"/>
	<path class="st0" d="M923-417.6v9.1"/>
	<path class="st0" d="M930.2-450.1v74.2"/>
	<path class="st0" d="M937.3-454.6v83.2"/>
	<path class="st0" d="M944.5-443.6v61.2"/>
	<path class="st0" d="M951.7-468.7v111.4"/>
	<path class="st0" d="M958.9-448.2v70.3"/>
	<path class="st0" d="M966.1-424.7v23.4"/>
	<path class="st0" d="M973.3-467.7v109.4"/>
	<path class="st0" d="M980.5-455.7v85.3"/>
	<path class="st0" d="M987.7-438.4v50.8"/>
	<path class="st0" d="M994.9-444v61.9"/>
	<path class="st0" d="M1002.1-454.7v83.4"/>
	<path class="st0" d="M1009.2-454.2v82.5"/>
	<path class="st0" d="M1016.4-457.3v88.7"/>
	<path class="st0" d="M1023.6-437v48"/>
	<path class="st0" d="M1030.8-458v90.1"/>
	<path class="st0" d="M1038-432.7v39.4"/>
	<path class="st0" d="M1045.2-441.9v57.8"/>
	<path class="st0" d="M1052.4-444.5v63"/>
	<path class="st0" d="M1059.6-446.3v66.6"/>
	<path class="st0" d="M1066.8-456.5v87"/>
	<path class="st0" d="M1074-451.3v76.6"/>
	<path class="st0" d="M1081.2-444.3v62.6"/>
	<path class="st0" d="M1088.3-463v99.9"/>
	<path class="st0" d="M1095.5-445v64.1"/>
	<path class="st0" d="M1102.7-422.5v19"/>
	<path class="st0" d="M1109.9-435.4v44.9"/>
	<path class="st0" d="M1117.1-419.1v12.2"/>
	<path class="st0" d="M1124.3-435.6v45.3"/>
	<path class="st0" d="M1131.5-443.5v61"/>
	<path class="st0" d="M1138.7-456.1v86.3"/>
	<path class="st0" d="M1145.9-455.2v84.5"/>
	<path class="st0" d="M1153.1-452.8v79.6"/>
	<path class="st0" d="M1160.2-440v54.1"/>
	<path class="st0" d="M1167.4-458.6v91.3"/>
	<path class="st0" d="M1174.6-455.4v84.8"/>
	<path class="st0" d="M1181.8-443.1v60.3"/>
	<path class="st0" d="M1189-460.4v94.8"/>
	<path class="st0" d="M1196.2-448.9v71.9"/>
	<path class="st0" d="M1203.4-426.2v26.5"/>
	<path class="st0" d="M1210.6-435.2v44.4"/>
	<path class="st0" d="M1217.8-429.5v32.9"/>
	<path class="st0" d="M1225-429.3v32.6"/>
	<path class="st0" d="M1232.2-448.1v70.3"/>
	<path class="st0" d="M1239.3-434.8v43.6"/>
	<path class="st0" d="M1246.5-428v29.9"/>
	<path class="st0" d="M1253.7-426.6v27.2"/>
	<path class="st0" d="M1260.9-440.3v54.5"/>
	<path class="st0" d="M1268.1-442.4v58.7"/>
	<path class="st0" d="M1275.3-461.5v97.1"/>
	<path class="st0" d="M1282.5-420.5v15"/>
	<path class="st0" d="M1289.7-433.1v40.3"/>
	<path class="st0" d="M1296.9-425.8v25.6"/>
	<path class="st0" d="M1304.1-415v3.9"/>
	<path class="st0" d="M1311.2-436.7v47.5"/>
	<path class="st0" d="M1318.4-450v74"/>
	<path class="st0" d="M1325.6-449.6v73.2"/>
	<path class="st0" d="M1332.8-442v58"/>
	<path class="st0" d="M1340-422.3v18.6"/>
	<path class="st0" d="M1347.2-446.1v66.3"/>
	<path class="st0" d="M1354.4-444.5v63"/>
	<path class="st0" d="M1361.6-438.9v51.8"/>
	<path class="st0" d="M1368.8-431.1v36.2"/>
	<path class="st0" d="M1376-419.6v13.3"/>
	<path class="st0" d="M1383.2-423v20"/>
	<path class="st0" d="M1390.3-417.5v9"/>
</g>
</svg>
