<?xml version="1.0" encoding="utf-8"?>
<!-- Generator: Adobe Illustrator 22.0.0, SVG Export Plug-In . SVG Version: 6.00 Build 0)  -->
<svg version="1.1" id="Layer_1" xmlns="http://www.w3.org/2000/svg" xmlns:xlink="http://www.w3.org/1999/xlink" x="0px" y="0px"
	 viewBox="0 0 1400 180" style="enable-background:new 0 0 1400 180;" xml:space="preserve">
<style type="text/css">
	.st0{fill:none;stroke:#FFD040;stroke-width:4.0974;stroke-linecap:round;stroke-miterlimit:10;}
</style>
<g transform="scale(1,1)">
</g>
<g transform="translate(0,503)">
	<path class="st0" d="M-3.1-436.1v46.1"/>
	<path class="st0" d="M5.1-427.7v29.4"/>
	<path class="st0" d="M13.3-423.1v20.2"/>
	<path class="st0" d="M21.5-417.9v9.7"/>
	<path class="st0" d="M29.7-419.9v13.8"/>
	<path class="st0" d="M37.9-453.7v81.3"/>
	<path class="st0" d="M46.1-454v82.1"/>
	<path class="st0" d="M54.3-432.7v39.5"/>
	<path class="st0" d="M62.5-434.9v43.7"/>
	<path class="st0" d="M70.7-479.5v133.1"/>
	<path class="st0" d="M78.8-434.1v42.2"/>
	<path class="st0" d="M87-418.4v10.7"/>
	<path class="st0" d="M95.2-422.5v19"/>
	<path class="st0" d="M103.4-423v19.9"/>
	<path class="st0" d="M111.6-439.1v52.3"/>
	<path class="st0" d="M119.8-461.1v96.2"/>
	<path class="st0" d="M128-462.5v99"/>
	<path class="st0" d="M136.2-474.8v123.6"/>
	<path class="st0" d="M144.4-447.8v69.5"/>
	<path class="st0" d="M152.6-442.7v59.3"/>
	<path class="st0" d="M160.8-456.8v87.6"/>
	<path class="st0" d="M169-463.4v100.8"/>
	<path class="st0" d="M177.2-434.5v43.1"/>
	<path class="st0" d="M185.4-431.2v36.5"/>
	<path class="st0" d="M193.6-448.5v70.9"/>
	<path class="st0" d="M201.8-456.6v87.2"/>
	<path class="st0" d="M210-454.9v83.9"/>
	<path class="st0" d="M218.2-421.3v16.6"/>
	<path class="st0" d="M226.4-422.9v19.8"/>
	<path class="st0" d="M234.5-417.7v9.3"/>
	<path class="st0" d="M242.7-436.8v47.5"/>
	<path class="st0" d="M250.9-472.4v118.9"/>
	<path class="st0" d="M259.1-476.7v127.4"/>
	<path class="st0" d="M267.3-466.3v106.7"/>
	<path class="st0" d="M275.5-446.4v66.9"/>
	<path class="st0" d="M283.7-429.9v33.8"/>
	<path class="st0" d="M291.9-419.8v13.6"/>
	<path class="st0" d="M300.1-430.5v35"/>
	<path class="st0" d="M308.3-450.3v74.6"/>
	<path class="st0" d="M316.5-460v94"/>
	<path class="st0" d="M324.7-423.3v20.5"/>
	<path class="st0" d="M332.9-452.4v78.9"/>
	<path class="st0" d="M341.1-422.6v19.2"/>
	<path class="st0" d="M349.3-435.7v45.4"/>
	<path class="st0" d="M357.5-419.8v13.5"/>
	<path class="st0" d="M365.7-440.7v55.4"/>
	<path class="st0" d="M373.9-436.1v46.1"/>
	<path class="st0" d="M382.1-439.9v53.9"/>
	<path class="st0" d="M390.2-444.6v63.1"/>
	<path class="st0" d="M398.4-453.1v80.1"/>
	<path class="st0" d="M406.6-419.9v13.8"/>
	<path class="st0" d="M414.8-419.2v12.3"/>
	<path class="st0" d="M423-418.8v11.6"/>
	<path class="st0" d="M431.2-419.8v13.7"/>
	<path class="st0" d="M439.4-419.7v13.3"/>
	<path class="st0" d="M447.6-418v10"/>
	<path class="st0" d="M455.8-416.3v6.5"/>
	<path class="st0" d="M464-416.4v6.8"/>
	<path class="st0" d="M472.2-465.5v105"/>
	<path class="st0" d="M480.4-500.2v174.4"/>
	<path class="st0" d="M488.6-452.2v78.3"/>
	<path class="st0" d="M496.8-490.4v154.9"/>
	<path class="st0" d="M505-485.9v145.9"/>
	<path class="st0" d="M513.2-475.3v124.7"/>
	<path class="st0" d="M521.4-427.2v28.4"/>
	<path class="st0" d="M529.6-415.5v5"/>
	<path class="st0" d="M537.8-413.5v1"/>
	<path class="st0" d="M545.9-413.4v0.8"/>
	<path class="st0" d="M554.1-413.5v0.9"/>
	<path class="st0" d="M562.3-427.5v28.9"/>
	<path class="st0" d="M570.5-484.1v142.2"/>
	<path class="st0" d="M578.7-450.3v74.5"/>
	<path class="st0" d="M586.9-449.8v73.6"/>
	<path class="st0" d="M595.1-482.5v139"/>
	<path class="st0" d="M603.3-473.8v121.6"/>
	<path class="st0" d="M611.5-452v78"/>
	<path class="st0" d="M619.7-425.1v24.1"/>
	<path class="st0" d="M627.9-444.5v63.1"/>
	<path class="st0" d="M636.1-434.6v43.2"/>
	<path class="st0" d="M644.3-417.1v8.1"/>
	<path class="st0" d="M652.5-413.7v1.4"/>
	<path class="st0" d="M660.7-413.6v1.1"/>
	<path class="st0" d="M668.9-417.9v9.8"/>
	<path class="st0" d="M677.1-463.7v101.5"/>
	<path class="st0" d="M685.3-443v60.1"/>
	<path class="st0" d="M693.5-439.6v53.1"/>
	<path class="st0" d="M701.6-449.2v72.5"/>
	<path class="st0" d="M709.8-458.2v90.3"/>
	<path class="st0" d="M718-461.9v97.9"/>
	<path class="st0" d="M726.2-448.9v71.7"/>
	<path class="st0" d="M734.4-416.4v6.7"/>
	<path class="st0" d="M742.6-413.9v1.8"/>
	<path class="st0" d="M750.8-419v12"/>
	<path class="st0" d="M759-454.1v82.1"/>
	<path class="st0" d="M767.2-470.1v114.2"/>
	<path class="st0" d="M775.4-435.8v45.6"/>
	<path class="st0" d="M783.6-414.2v2.3"/>
	<path class="st0" d="M791.8-452.3v78.6"/>
	<path class="st0" d="M800-434v42"/>
	<path class="st0" d="M808.2-463.9v101.9"/>
	<path class="st0" d="M816.4-478.9v131.7"/>
	<path class="st0" d="M824.6-423.9v21.8"/>
	<path class="st0" d="M832.8-449.8v73.5"/>
	<path class="st0" d="M841-433.1v40.2"/>
	<path class="st0" d="M849.2-444.3v62.6"/>
	<path class="st0" d="M857.3-443.6v61.2"/>
	<path class="st0" d="M865.5-439.4v52.9"/>
	<path class="st0" d="M873.7-431.1v36.2"/>
	<path class="st0" d="M881.9-434.6v43.2"/>
	<path class="st0" d="M890.1-433.3v40.5"/>
	<path class="st0" d="M898.3-461.3v96.5"/>
	<path class="st0" d="M906.5-444v62"/>
	<path class="st0" d="M914.7-431.1v36.3"/>
	<path class="st0" d="M922.9-414.9v3.7"/>
	<path class="st0" d="M931.1-413.5v1.1"/>
	<path class="st0" d="M939.3-431.7v37.5"/>
	<path class="st0" d="M947.5-421.4v16.9"/>
	<path class="st0" d="M955.7-422.3v18.5"/>
	<path class="st0" d="M963.9-415.2v4.5"/>
	<path class="st0" d="M972.1-413.5v1.1"/>
	<path class="st0" d="M980.3-413.7v1.4"/>
	<path class="st0" d="M988.5-448.4v70.9"/>
	<path class="st0" d="M996.7-470.7v115.4"/>
	<path class="st0" d="M1004.9-443.3v60.6"/>
	<path class="st0" d="M1013-459.5v92.9"/>
	<path class="st0" d="M1021.2-421.7v17.4"/>
	<path class="st0" d="M1029.4-449.3v72.5"/>
	<path class="st0" d="M1037.6-432.4v38.7"/>
	<path class="st0" d="M1045.8-429.4v32.8"/>
	<path class="st0" d="M1054-444.1v62.3"/>
	<path class="st0" d="M1062.2-445.4v64.7"/>
	<path class="st0" d="M1070.4-464.2v102.5"/>
	<path class="st0" d="M1078.6-440.8v55.6"/>
	<path class="st0" d="M1086.8-441.7v57.4"/>
	<path class="st0" d="M1095-426.5v26.9"/>
	<path class="st0" d="M1103.2-444.5v62.9"/>
	<path class="st0" d="M1111.4-438.8v51.6"/>
	<path class="st0" d="M1119.6-471.5v117"/>
	<path class="st0" d="M1127.8-444.2v62.5"/>
	<path class="st0" d="M1136-451.9v77.7"/>
	<path class="st0" d="M1144.2-455v84"/>
	<path class="st0" d="M1152.4-460.4v94.7"/>
	<path class="st0" d="M1160.6-447.1v68.2"/>
	<path class="st0" d="M1168.7-460.8v95.7"/>
	<path class="st0" d="M1176.9-455.2v84.3"/>
	<path class="st0" d="M1185.1-499.5v172.9"/>
	<path class="st0" d="M1193.3-449.6v73.1"/>
	<path class="st0" d="M1201.5-417.9v9.8"/>
	<path class="st0" d="M1209.7-415v4.1"/>
	<path class="st0" d="M1217.9-413.7v1.4"/>
	<path class="st0" d="M1226.1-445.2v64.3"/>
	<path class="st0" d="M1234.3-454.6v83.3"/>
	<path class="st0" d="M1242.5-438.4v50.8"/>
	<path class="st0" d="M1250.7-432.1v38.3"/>
	<path class="st0" d="M1258.9-422v18.1"/>
	<path class="st0" d="M1267.1-421.1v16.3"/>
	<path class="st0" d="M1275.3-424.2v22.3"/>
	<path class="st0" d="M1283.5-466.3v106.6"/>
	<path class="st0" d="M1291.7-471.2v116.4"/>
	<path class="st0" d="M1299.9-457.3v88.5"/>
	<path class="st0" d="M1308.1-437.2v48.5"/>
	<path class="st0" d="M1316.3-446.8v67.6"/>
	<path class="st0" d="M1324.4-431.2v36.4"/>
	<path class="st0" d="M1332.6-465v104"/>
	<path class="st0" d="M1340.8-453.2v80.4"/>
	<path class="st0" d="M1349-461.7v97.4"/>
	<path class="st0" d="M1357.2-438.2v50.4"/>
	<path class="st0" d="M1365.4-429.7v33.4"/>
	<path class="st0" d="M1373.6-422.5v19"/>
	<path class="st0" d="M1381.8-414.9v3.8"/>
	<path class="st0" d="M1390-413.4v0.7"/>
	<path class="st0" d="M1398.2-413L1398.2-413"/>
</g>
</svg>
