<?xml version="1.0" encoding="utf-8"?>
<!-- Generator: Adobe Illustrator 22.0.0, SVG Export Plug-In . SVG Version: 6.00 Build 0)  -->
<svg version="1.1" id="Layer_1" xmlns="http://www.w3.org/2000/svg" xmlns:xlink="http://www.w3.org/1999/xlink" x="0px" y="0px"
	 viewBox="0 0 1400 180" style="enable-background:new 0 0 1400 180;" xml:space="preserve">
<style type="text/css">
	.st0{fill:none;stroke:#FFD040;stroke-width:3.6209;stroke-linecap:round;stroke-miterlimit:10;}
</style>
<g transform="scale(1,1)">
</g>
<g transform="translate(0,503)">
	<path class="st0" d="M0-413.3v0.6"/>
	<path class="st0" d="M7.2-414v2"/>
	<path class="st0" d="M14.5-418v10"/>
	<path class="st0" d="M21.7-467.8v109.6"/>
	<path class="st0" d="M29-496v166"/>
	<path class="st0" d="M36.2-464.3v102.6"/>
	<path class="st0" d="M43.5-473.6v121.3"/>
	<path class="st0" d="M50.7-488.2v150.5"/>
	<path class="st0" d="M57.9-444.1v62.1"/>
	<path class="st0" d="M65.2-463.4v100.8"/>
	<path class="st0" d="M72.4-486v146"/>
	<path class="st0" d="M79.7-480.9v135.8"/>
	<path class="st0" d="M86.9-483.4v140.7"/>
	<path class="st0" d="M94.1-476.6v127.2"/>
	<path class="st0" d="M101.4-432.1v38.1"/>
	<path class="st0" d="M108.6-415.7v5.3"/>
	<path class="st0" d="M115.9-428.8v31.6"/>
	<path class="st0" d="M123.1-464.2v102.5"/>
	<path class="st0" d="M130.4-471.1v116.1"/>
	<path class="st0" d="M137.6-443.5v61.1"/>
	<path class="st0" d="M144.8-436.1v46.3"/>
	<path class="st0" d="M152.1-440.6v55.3"/>
	<path class="st0" d="M159.3-439.7v53.3"/>
	<path class="st0" d="M166.6-429.2v32.3"/>
	<path class="st0" d="M173.8-422.5v19"/>
	<path class="st0" d="M181-414.6v3.3"/>
	<path class="st0" d="M188.3-415v4"/>
	<path class="st0" d="M195.5-414.7v3.5"/>
	<path class="st0" d="M202.8-434v41.9"/>
	<path class="st0" d="M210-436.5v47"/>
	<path class="st0" d="M217.3-425.8v25.6"/>
	<path class="st0" d="M224.5-415.1v4.1"/>
	<path class="st0" d="M231.7-415.3v4.6"/>
	<path class="st0" d="M239-415.1v4.2"/>
	<path class="st0" d="M246.2-436.6v47.3"/>
	<path class="st0" d="M253.5-456.1v86.3"/>
	<path class="st0" d="M260.7-470.4v114.8"/>
	<path class="st0" d="M267.9-473.4v120.8"/>
	<path class="st0" d="M275.2-477.9v129.7"/>
	<path class="st0" d="M282.4-468.7v111.5"/>
	<path class="st0" d="M289.7-457v88"/>
	<path class="st0" d="M296.9-464.1v102.2"/>
	<path class="st0" d="M304.2-477.8v129.6"/>
	<path class="st0" d="M311.4-451.1v76.2"/>
	<path class="st0" d="M318.6-462.3v98.6"/>
	<path class="st0" d="M325.9-458.8v91.6"/>
	<path class="st0" d="M333.1-464.6v103.2"/>
	<path class="st0" d="M340.4-483V-343"/>
	<path class="st0" d="M347.6-479.3v132.7"/>
	<path class="st0" d="M354.9-444.1v62.2"/>
	<path class="st0" d="M362.1-445.3v64.5"/>
	<path class="st0" d="M369.3-432.4v38.9"/>
	<path class="st0" d="M376.6-471.9v117.7"/>
	<path class="st0" d="M383.8-448.1v70.3"/>
	<path class="st0" d="M391.1-435.5v45"/>
	<path class="st0" d="M398.3-447v68"/>
	<path class="st0" d="M405.5-442.9v59.9"/>
	<path class="st0" d="M412.8-440.7v55.3"/>
	<path class="st0" d="M420-443.2v60.3"/>
	<path class="st0" d="M427.3-437.8v49.6"/>
	<path class="st0" d="M434.5-443.3v60.6"/>
	<path class="st0" d="M441.8-454.7v83.4"/>
	<path class="st0" d="M449-416.6v7.3"/>
	<path class="st0" d="M456.2-415.8v5.6"/>
	<path class="st0" d="M463.5-415.9v5.7"/>
	<path class="st0" d="M470.7-415.3v4.5"/>
	<path class="st0" d="M478-414.6v3.3"/>
	<path class="st0" d="M485.2-463.6v101.1"/>
	<path class="st0" d="M492.4-469.9v113.8"/>
	<path class="st0" d="M499.7-426.8v27.5"/>
	<path class="st0" d="M506.9-456.8v87.6"/>
	<path class="st0" d="M514.2-468.5v110.9"/>
	<path class="st0" d="M521.4-440.9v55.7"/>
	<path class="st0" d="M528.7-449.3v72.6"/>
	<path class="st0" d="M535.9-449.9v73.7"/>
	<path class="st0" d="M543.1-481.6v137.2"/>
	<path class="st0" d="M550.4-468V-358"/>
	<path class="st0" d="M557.6-450.2v74.4"/>
	<path class="st0" d="M564.9-474.2v122.4"/>
	<path class="st0" d="M572.1-460.6v95.2"/>
	<path class="st0" d="M579.3-428.9v31.9"/>
	<path class="st0" d="M586.6-452.7v79.5"/>
	<path class="st0" d="M593.8-462.6v99.2"/>
	<path class="st0" d="M601.1-455.6v85.1"/>
	<path class="st0" d="M608.3-423.3v20.5"/>
	<path class="st0" d="M615.6-417.3v8.5"/>
	<path class="st0" d="M622.8-449.9v73.9"/>
	<path class="st0" d="M630-448.9v71.8"/>
	<path class="st0" d="M637.3-441.1v56.3"/>
	<path class="st0" d="M644.5-442.4v58.7"/>
	<path class="st0" d="M651.8-456.4v86.7"/>
	<path class="st0" d="M659-449.2v72.4"/>
	<path class="st0" d="M666.3-451.5v76.9"/>
	<path class="st0" d="M673.5-459.6v93.2"/>
	<path class="st0" d="M680.7-437v48"/>
	<path class="st0" d="M688-440.5v55"/>
	<path class="st0" d="M695.2-425.1v24.1"/>
	<path class="st0" d="M702.5-446.2v66.3"/>
	<path class="st0" d="M709.7-443.3v60.6"/>
	<path class="st0" d="M716.9-436v46"/>
	<path class="st0" d="M724.2-448.3v70.6"/>
	<path class="st0" d="M731.4-417.7v9.5"/>
	<path class="st0" d="M738.7-461.9v97.9"/>
	<path class="st0" d="M745.9-439.2v52.5"/>
	<path class="st0" d="M753.2-439.8v53.6"/>
	<path class="st0" d="M760.4-442v57.9"/>
	<path class="st0" d="M767.6-449.1v72.2"/>
	<path class="st0" d="M774.9-462.1v98.2"/>
	<path class="st0" d="M782.1-437.4v48.8"/>
	<path class="st0" d="M789.4-415.3v4.5"/>
	<path class="st0" d="M796.6-415.5v5"/>
	<path class="st0" d="M803.8-415.3v4.5"/>
	<path class="st0" d="M811.1-463.7v101.5"/>
	<path class="st0" d="M818.3-456.7v87.3"/>
	<path class="st0" d="M825.6-428.6v31.2"/>
	<path class="st0" d="M832.8-414.9v3.7"/>
	<path class="st0" d="M840.1-414.6v3.2"/>
	<path class="st0" d="M847.3-414.3v2.6"/>
	<path class="st0" d="M854.5-440.1v54.2"/>
	<path class="st0" d="M861.8-447.3v68.5"/>
	<path class="st0" d="M869-470.3v114.7"/>
	<path class="st0" d="M876.3-477.6v129.3"/>
	<path class="st0" d="M883.5-476.1v126.3"/>
	<path class="st0" d="M890.7-449.4v72.7"/>
	<path class="st0" d="M898-457.4v88.8"/>
	<path class="st0" d="M905.2-455.6v85.1"/>
	<path class="st0" d="M912.5-451.1v76.2"/>
	<path class="st0" d="M919.7-420v13.9"/>
	<path class="st0" d="M927-414.7v3.5"/>
	<path class="st0" d="M934.2-414.9v3.8"/>
	<path class="st0" d="M941.4-435.6v45.2"/>
	<path class="st0" d="M948.7-445.7v65.3"/>
	<path class="st0" d="M955.9-419.4v12.9"/>
	<path class="st0" d="M963.2-421.5v16.9"/>
	<path class="st0" d="M970.4-441.4v56.7"/>
	<path class="st0" d="M977.7-434v42"/>
	<path class="st0" d="M984.9-459.1v92.1"/>
	<path class="st0" d="M992.1-462.2v98.4"/>
	<path class="st0" d="M999.4-459.2v92.4"/>
	<path class="st0" d="M1006.6-456.1v86.1"/>
	<path class="st0" d="M1013.9-425.5v25"/>
	<path class="st0" d="M1021.1-415.4v4.7"/>
	<path class="st0" d="M1028.3-415.7v5.3"/>
	<path class="st0" d="M1035.6-449.9v73.7"/>
	<path class="st0" d="M1042.8-465.5v105"/>
	<path class="st0" d="M1050.1-466.6v107.1"/>
	<path class="st0" d="M1057.3-449.2v72.4"/>
	<path class="st0" d="M1064.6-470.6v115.3"/>
	<path class="st0" d="M1071.8-451.7v77.5"/>
	<path class="st0" d="M1079-441v56.1"/>
	<path class="st0" d="M1086.3-455.6v85.1"/>
	<path class="st0" d="M1093.5-459.8v93.6"/>
	<path class="st0" d="M1100.8-424v22.1"/>
	<path class="st0" d="M1108-439v52.1"/>
	<path class="st0" d="M1115.2-456.2v86.3"/>
	<path class="st0" d="M1122.5-453.5v80.9"/>
	<path class="st0" d="M1129.7-440.3v54.6"/>
	<path class="st0" d="M1137-455.8v85.6"/>
	<path class="st0" d="M1144.2-432.5v39.1"/>
	<path class="st0" d="M1151.5-448.3v70.6"/>
	<path class="st0" d="M1158.7-469.6v113.1"/>
	<path class="st0" d="M1165.9-455.2v84.5"/>
	<path class="st0" d="M1173.2-422.8v19.7"/>
	<path class="st0" d="M1180.4-416.3v6.6"/>
	<path class="st0" d="M1187.7-416.7v7.4"/>
	<path class="st0" d="M1194.9-419.1v12.3"/>
	<path class="st0" d="M1202.1-447.3v68.7"/>
	<path class="st0" d="M1209.4-469.9v113.8"/>
	<path class="st0" d="M1216.6-452.4v78.8"/>
	<path class="st0" d="M1223.9-441.5v57.1"/>
	<path class="st0" d="M1231.1-469.4v112.8"/>
	<path class="st0" d="M1238.4-470.2v114.4"/>
	<path class="st0" d="M1245.6-452.2v78.3"/>
	<path class="st0" d="M1252.8-443.1v60.2"/>
	<path class="st0" d="M1260.1-441.2v56.3"/>
	<path class="st0" d="M1267.3-457.6v89.2"/>
	<path class="st0" d="M1274.6-466.6v107.1"/>
	<path class="st0" d="M1281.8-444.3v62.6"/>
	<path class="st0" d="M1289.1-418v10"/>
	<path class="st0" d="M1296.3-444.8v63.5"/>
	<path class="st0" d="M1303.5-453v79.9"/>
	<path class="st0" d="M1310.8-429.7v33.4"/>
	<path class="st0" d="M1318-458.4v90.8"/>
	<path class="st0" d="M1325.3-450.3v74.7"/>
	<path class="st0" d="M1332.5-421.4v16.9"/>
	<path class="st0" d="M1339.7-428.6v31.2"/>
	<path class="st0" d="M1347-431.8v37.6"/>
	<path class="st0" d="M1354.2-440.4v54.8"/>
	<path class="st0" d="M1361.5-456.4v86.7"/>
	<path class="st0" d="M1368.7-461.6v97.3"/>
	<path class="st0" d="M1376-453.6v81.2"/>
	<path class="st0" d="M1383.2-459.1v92.1"/>
	<path class="st0" d="M1390.4-435.3v44.5"/>
	<path class="st0" d="M1397.7-461.5v97"/>
	<path class="st0" d="M1404.9-437.3v48.6"/>
</g>
</svg>
