<?xml version="1.0" encoding="utf-8"?>
<!-- Generator: Adobe Illustrator 22.0.0, SVG Export Plug-In . SVG Version: 6.00 Build 0)  -->
<svg version="1.1" id="Layer_1" xmlns="http://www.w3.org/2000/svg" xmlns:xlink="http://www.w3.org/1999/xlink" x="0px" y="0px"
	 viewBox="0 0 1400 180" style="enable-background:new 0 0 1400 180;" xml:space="preserve">
<style type="text/css">
	.st0{fill:none;stroke:#FFD040;stroke-width:4.9778;stroke-linecap:round;stroke-miterlimit:10;}
</style>
<g transform="scale(1,1)">
</g>
<g transform="translate(0,503)">
	<path class="st0" d="M-3-413L-3-413"/>
	<path class="st0" d="M7.8-413L7.8-413"/>
	<path class="st0" d="M18.6-413L18.6-413"/>
	<path class="st0" d="M29.3-413.1v0.1"/>
	<path class="st0" d="M40.1-413.1v0.1"/>
	<path class="st0" d="M50.9-413.1v0.1"/>
	<path class="st0" d="M61.6-413.1v0.3"/>
	<path class="st0" d="M72.4-413.1v0.3"/>
	<path class="st0" d="M83.1-413.1v0.3"/>
	<path class="st0" d="M93.9-413.2v0.3"/>
	<path class="st0" d="M104.7-413.2v0.3"/>
	<path class="st0" d="M115.4-413.2v0.3"/>
	<path class="st0" d="M126.2-413.2v0.4"/>
	<path class="st0" d="M137-413.2v0.4"/>
	<path class="st0" d="M147.7-419.1v12.2"/>
	<path class="st0" d="M158.5-419.1v12.2"/>
	<path class="st0" d="M169.3-419.1v12.2"/>
	<path class="st0" d="M180-432.6v39.2"/>
	<path class="st0" d="M190.8-432.6v39.2"/>
	<path class="st0" d="M201.6-432.6v39.2"/>
	<path class="st0" d="M212.3-460.5v95"/>
	<path class="st0" d="M223.1-460.5v95"/>
	<path class="st0" d="M233.9-460.5v95"/>
	<path class="st0" d="M244.6-483.2v140.4"/>
	<path class="st0" d="M255.4-483.2v140.4"/>
	<path class="st0" d="M266.2-483.2v140.4"/>
	<path class="st0" d="M276.9-479.2v132.4"/>
	<path class="st0" d="M287.7-479.2v132.4"/>
	<path class="st0" d="M298.5-452.3v78.6"/>
	<path class="st0" d="M309.2-452.3v78.6"/>
	<path class="st0" d="M320-452.3v78.6"/>
	<path class="st0" d="M330.7-485V-341"/>
	<path class="st0" d="M341.5-485V-341"/>
	<path class="st0" d="M352.3-485V-341"/>
	<path class="st0" d="M363-486.1v146.1"/>
	<path class="st0" d="M373.8-486.1v146.1"/>
	<path class="st0" d="M384.6-486.1v146.1"/>
	<path class="st0" d="M395.3-472.1v118.1"/>
	<path class="st0" d="M406.1-472.1v118.1"/>
	<path class="st0" d="M416.9-478.5v131"/>
	<path class="st0" d="M427.6-478.5v131"/>
	<path class="st0" d="M438.4-478.5v131"/>
	<path class="st0" d="M449.2-466.2v106.4"/>
	<path class="st0" d="M459.9-466.2v106.4"/>
	<path class="st0" d="M470.7-466.2v106.4"/>
	<path class="st0" d="M481.5-500v174"/>
	<path class="st0" d="M492.2-500v174"/>
	<path class="st0" d="M503-500v174"/>
	<path class="st0" d="M513.8-489.3v152.7"/>
	<path class="st0" d="M524.5-489.3v152.7"/>
	<path class="st0" d="M535.3-489.3v152.7"/>
	<path class="st0" d="M546.1-451.5v77"/>
	<path class="st0" d="M556.8-451.5v77"/>
	<path class="st0" d="M567.6-468.5v111"/>
	<path class="st0" d="M578.3-468.5v111"/>
	<path class="st0" d="M589.1-468.5v111"/>
	<path class="st0" d="M599.9-483.5v140.9"/>
	<path class="st0" d="M610.6-483.5v140.9"/>
	<path class="st0" d="M621.4-483.5v140.9"/>
	<path class="st0" d="M632.2-435.6v45.1"/>
	<path class="st0" d="M642.9-435.6v45.1"/>
	<path class="st0" d="M653.7-435.6v45.1"/>
	<path class="st0" d="M664.5-420.1v14.3"/>
	<path class="st0" d="M675.2-420.1v14.3"/>
	<path class="st0" d="M686-420.1v14.3"/>
	<path class="st0" d="M696.8-429.3v32.6"/>
	<path class="st0" d="M707.5-429.3v32.6"/>
	<path class="st0" d="M718.3-448.7v71.4"/>
	<path class="st0" d="M729.1-448.7v71.4"/>
	<path class="st0" d="M739.8-448.7v71.4"/>
	<path class="st0" d="M750.6-448.6v71.2"/>
	<path class="st0" d="M761.4-448.6v71.2"/>
	<path class="st0" d="M772.1-448.6v71.2"/>
	<path class="st0" d="M782.9-468.1v110.3"/>
	<path class="st0" d="M793.7-468.1v110.3"/>
	<path class="st0" d="M804.4-468.1v110.3"/>
	<path class="st0" d="M815.2-469.8v113.6"/>
	<path class="st0" d="M825.9-469.8v113.6"/>
	<path class="st0" d="M836.7-441.4v56.8"/>
	<path class="st0" d="M847.5-441.4v56.8"/>
	<path class="st0" d="M858.2-441.4v56.8"/>
	<path class="st0" d="M869-419.8v13.6"/>
	<path class="st0" d="M879.8-419.8v13.6"/>
	<path class="st0" d="M890.5-419.8v13.6"/>
	<path class="st0" d="M901.3-435v44.1"/>
	<path class="st0" d="M912.1-435v44.1"/>
	<path class="st0" d="M922.8-435v44.1"/>
	<path class="st0" d="M933.6-431.2v36.5"/>
	<path class="st0" d="M944.4-431.2v36.5"/>
	<path class="st0" d="M955.1-443.9v61.8"/>
	<path class="st0" d="M965.9-467.5v109.1"/>
	<path class="st0" d="M976.7-467.5v109.1"/>
	<path class="st0" d="M987.4-455.8v85.6"/>
	<path class="st0" d="M998.2-455.8v85.6"/>
	<path class="st0" d="M1009-442.4v58.9"/>
	<path class="st0" d="M1019.7-442.4v58.9"/>
	<path class="st0" d="M1030.5-471.5v117"/>
	<path class="st0" d="M1041.2-471.5v117"/>
	<path class="st0" d="M1052-471.5v117"/>
	<path class="st0" d="M1062.8-463.1v100.3"/>
	<path class="st0" d="M1073.5-463.1v100.3"/>
	<path class="st0" d="M1084.3-450.5v74.9"/>
	<path class="st0" d="M1095.1-450.5v74.9"/>
	<path class="st0" d="M1105.8-450.5v74.9"/>
	<path class="st0" d="M1116.6-453.3v80.6"/>
	<path class="st0" d="M1127.4-453.3v80.6"/>
	<path class="st0" d="M1138.1-453.3v80.6"/>
	<path class="st0" d="M1148.9-453.7v81.5"/>
	<path class="st0" d="M1159.7-453.7v81.5"/>
	<path class="st0" d="M1170.4-453.7v81.5"/>
	<path class="st0" d="M1181.2-436.8v47.7"/>
	<path class="st0" d="M1192-436.8v47.7"/>
	<path class="st0" d="M1202.7-444v62.1"/>
	<path class="st0" d="M1213.5-444v62.1"/>
	<path class="st0" d="M1224.3-444v62.1"/>
	<path class="st0" d="M1235-451.7v77.4"/>
	<path class="st0" d="M1245.8-424.1v22.3"/>
	<path class="st0" d="M1256.6-424.1v22.3"/>
	<path class="st0" d="M1267.3-416.4v6.8"/>
	<path class="st0" d="M1278.1-416.4v6.8"/>
	<path class="st0" d="M1288.8-416.4v6.8"/>
	<path class="st0" d="M1299.6-419.5v13.1"/>
	<path class="st0" d="M1310.4-419.5v13.1"/>
	<path class="st0" d="M1321.1-420.8v15.5"/>
	<path class="st0" d="M1331.9-414.6v3.1"/>
	<path class="st0" d="M1342.7-414.6v3.1"/>
	<path class="st0" d="M1353.4-414.6v3.1"/>
	<path class="st0" d="M1364.2-416.9v7.9"/>
	<path class="st0" d="M1375-416.9v7.9"/>
	<path class="st0" d="M1385.7-416.9v7.9"/>
	<path class="st0" d="M1396.5-419v12"/>
</g>
</svg>
