<?xml version="1.0" encoding="utf-8"?>
<!-- Generator: Adobe Illustrator 22.0.0, SVG Export Plug-In . SVG Version: 6.00 Build 0)  -->
<svg version="1.1" id="Layer_1" xmlns="http://www.w3.org/2000/svg" xmlns:xlink="http://www.w3.org/1999/xlink" x="0px" y="0px"
	 viewBox="0 0 1400 180" style="enable-background:new 0 0 1400 180;" xml:space="preserve">
<style type="text/css">
	.st0{fill:none;stroke:#FFD040;stroke-width:4.6548;stroke-linecap:round;stroke-miterlimit:10;}
</style>
<g transform="scale(1,1)">
</g>
<g transform="translate(0,366)">
	<path class="st0" d="M5.8-276.5v1"/>
	<path class="st0" d="M15.7-284.8v17.5"/>
	<path class="st0" d="M25.6-291.7v31.4"/>
	<path class="st0" d="M35.5-300.3v48.6"/>
	<path class="st0" d="M45.4-321.7v91.4"/>
	<path class="st0" d="M55.2-337.8v123.7"/>
	<path class="st0" d="M65.1-345.2v138.4"/>
	<path class="st0" d="M75-336.3v120.6"/>
	<path class="st0" d="M84.9-306.2v60.4"/>
	<path class="st0" d="M94.8-309.2v66.4"/>
	<path class="st0" d="M104.7-319v86.1"/>
	<path class="st0" d="M114.6-306.4v60.9"/>
	<path class="st0" d="M124.5-285.2v18.4"/>
	<path class="st0" d="M134.3-282.3v12.6"/>
	<path class="st0" d="M144.2-335.7v119.4"/>
	<path class="st0" d="M154.1-336.4v120.9"/>
	<path class="st0" d="M164-313.2v74.3"/>
	<path class="st0" d="M173.9-295.4v38.8"/>
	<path class="st0" d="M183.8-302.8v53.7"/>
	<path class="st0" d="M193.7-319.5v87"/>
	<path class="st0" d="M203.6-332.7v113.4"/>
	<path class="st0" d="M213.4-328.8v105.6"/>
	<path class="st0" d="M223.3-327.7v103.4"/>
	<path class="st0" d="M233.2-311.9v71.7"/>
	<path class="st0" d="M243.1-295.6v39.2"/>
	<path class="st0" d="M253-286.7v21.4"/>
	<path class="st0" d="M262.9-278.4v4.8"/>
	<path class="st0" d="M272.8-277.9v3.8"/>
	<path class="st0" d="M282.6-277.1v2.3"/>
	<path class="st0" d="M292.5-280.7v9.3"/>
	<path class="st0" d="M302.4-284v15.9"/>
	<path class="st0" d="M312.3-294.8v37.7"/>
	<path class="st0" d="M322.2-319.4v86.8"/>
	<path class="st0" d="M332.1-330.3v108.6"/>
	<path class="st0" d="M342-326.4v100.9"/>
	<path class="st0" d="M351.9-308.6v65.1"/>
	<path class="st0" d="M361.7-294.8v37.6"/>
	<path class="st0" d="M371.6-294.1v36.3"/>
	<path class="st0" d="M381.5-302.3v52.6"/>
	<path class="st0" d="M391.4-303.8v55.6"/>
	<path class="st0" d="M401.3-305.1v58.2"/>
	<path class="st0" d="M411.2-325.3v98.6"/>
	<path class="st0" d="M421.1-328.6v105.3"/>
	<path class="st0" d="M431-328.4v104.7"/>
	<path class="st0" d="M440.8-308.8v65.7"/>
	<path class="st0" d="M450.7-292.2v32.3"/>
	<path class="st0" d="M460.6-283.7v15.3"/>
	<path class="st0" d="M470.5-309v66.1"/>
	<path class="st0" d="M480.4-328.8v105.6"/>
	<path class="st0" d="M490.3-327.5v103"/>
	<path class="st0" d="M500.2-312.5v73"/>
	<path class="st0" d="M510-293.2v34.5"/>
	<path class="st0" d="M519.9-293.9v35.9"/>
	<path class="st0" d="M529.8-292.8v33.6"/>
	<path class="st0" d="M539.7-301.3v50.5"/>
	<path class="st0" d="M549.6-319.5v86.9"/>
	<path class="st0" d="M559.5-308.6v65.2"/>
	<path class="st0" d="M569.4-306.1v60.2"/>
	<path class="st0" d="M579.3-330.7v109.4"/>
	<path class="st0" d="M589.1-323.2v94.4"/>
	<path class="st0" d="M599-316.2v80.4"/>
	<path class="st0" d="M608.9-307.8v63.7"/>
	<path class="st0" d="M618.8-299.9v47.8"/>
	<path class="st0" d="M628.7-299.9v47.9"/>
	<path class="st0" d="M638.6-307.8v63.5"/>
	<path class="st0" d="M648.5-308.4v64.8"/>
	<path class="st0" d="M658.4-309.2v66.4"/>
	<path class="st0" d="M668.2-329.5v107"/>
	<path class="st0" d="M678.1-331.2v110.4"/>
	<path class="st0" d="M688-318.7v85.4"/>
	<path class="st0" d="M697.9-305.6v59.1"/>
	<path class="st0" d="M707.8-302.1v52.2"/>
	<path class="st0" d="M717.7-285.7v19.4"/>
	<path class="st0" d="M727.6-287.5v23"/>
	<path class="st0" d="M737.5-290v28.1"/>
	<path class="st0" d="M747.3-307.2v62.5"/>
	<path class="st0" d="M757.2-323.5v95"/>
	<path class="st0" d="M767.1-320.8v89.5"/>
	<path class="st0" d="M777-318.8v85.6"/>
	<path class="st0" d="M786.9-310.6v69.2"/>
	<path class="st0" d="M796.8-301v50"/>
	<path class="st0" d="M806.7-304v56"/>
	<path class="st0" d="M816.5-293.7v35.3"/>
	<path class="st0" d="M826.4-295.3v38.7"/>
	<path class="st0" d="M836.3-280.2v8.4"/>
	<path class="st0" d="M846.2-283.1v14.3"/>
	<path class="st0" d="M856.1-316.3v80.5"/>
	<path class="st0" d="M866-314.6v77.3"/>
	<path class="st0" d="M875.9-312.3v72.6"/>
	<path class="st0" d="M885.8-311v70.1"/>
	<path class="st0" d="M895.6-308.8v65.6"/>
	<path class="st0" d="M905.5-300.6v49.1"/>
	<path class="st0" d="M915.4-279.9v7.8"/>
	<path class="st0" d="M925.3-276.8v1.7"/>
	<path class="st0" d="M935.2-276.5v1"/>
	<path class="st0" d="M945.1-276.4v0.8"/>
	<path class="st0" d="M955-278.8v5.7"/>
	<path class="st0" d="M964.9-286v20.1"/>
	<path class="st0" d="M974.7-290.2v28.3"/>
	<path class="st0" d="M984.6-314.9v77.9"/>
	<path class="st0" d="M994.5-327.8v103.5"/>
	<path class="st0" d="M1004.4-312.1v72.2"/>
	<path class="st0" d="M1014.3-291.6v31.3"/>
	<path class="st0" d="M1024.2-303.6v55.2"/>
	<path class="st0" d="M1034.1-316.1v80.3"/>
	<path class="st0" d="M1044-306.5v61"/>
	<path class="st0" d="M1053.8-307.1v62.2"/>
	<path class="st0" d="M1063.7-307.8v63.6"/>
	<path class="st0" d="M1073.6-320.1v88.3"/>
	<path class="st0" d="M1083.5-323.4v94.8"/>
	<path class="st0" d="M1093.4-326.2v100.5"/>
	<path class="st0" d="M1103.3-328.5v104.9"/>
	<path class="st0" d="M1113.2-324.2v96.4"/>
	<path class="st0" d="M1123-293.5v35.1"/>
	<path class="st0" d="M1132.9-286v19.9"/>
	<path class="st0" d="M1142.8-283.6v15.2"/>
	<path class="st0" d="M1152.7-297.6v43.3"/>
	<path class="st0" d="M1162.6-317.9v83.9"/>
	<path class="st0" d="M1172.5-322.4v92.7"/>
	<path class="st0" d="M1182.4-322.1v92.2"/>
	<path class="st0" d="M1192.3-300.2v48.3"/>
	<path class="st0" d="M1202.1-302.3v52.6"/>
	<path class="st0" d="M1212-309.1v66.3"/>
	<path class="st0" d="M1221.9-328v104"/>
	<path class="st0" d="M1231.8-319.5v87"/>
	<path class="st0" d="M1241.7-321.8v91.6"/>
	<path class="st0" d="M1251.6-291.5v31.1"/>
	<path class="st0" d="M1261.5-284.7v17.5"/>
	<path class="st0" d="M1271.4-287v22"/>
	<path class="st0" d="M1281.2-310v67.9"/>
	<path class="st0" d="M1291.1-315.6v79.2"/>
	<path class="st0" d="M1301-287.8v23.7"/>
	<path class="st0" d="M1310.9-298.4v44.9"/>
	<path class="st0" d="M1320.8-318.6v85.1"/>
	<path class="st0" d="M1330.7-318.8v85.5"/>
	<path class="st0" d="M1340.6-299.4v46.9"/>
	<path class="st0" d="M1350.5-284.7v17.4"/>
	<path class="st0" d="M1360.3-310v67.9"/>
	<path class="st0" d="M1370.2-308.9v65.7"/>
	<path class="st0" d="M1380.1-294.3v36.6"/>
	<path class="st0" d="M1390-296.6v41.2"/>
</g>
</svg>
