<?xml version="1.0" encoding="utf-8"?>
<!-- Generator: Adobe Illustrator 22.0.0, SVG Export Plug-In . SVG Version: 6.00 Build 0)  -->
<svg version="1.1" id="Layer_1" xmlns="http://www.w3.org/2000/svg" xmlns:xlink="http://www.w3.org/1999/xlink" x="0px" y="0px"
	 viewBox="0 0 1400 180" style="enable-background:new 0 0 1400 180;" xml:space="preserve">
<style type="text/css">
	.st0{fill:none;stroke:#FFD040;stroke-width:3.9374;stroke-linecap:round;stroke-miterlimit:10;}
</style>
<g transform="scale(1,1)">
</g>
<g transform="translate(0,366)">
	<path class="st0" d="M4.1-276.2v0.4"/>
	<path class="st0" d="M12.5-324.7v97.4"/>
	<path class="st0" d="M20.9-334.8v117.5"/>
	<path class="st0" d="M29.3-310.9v69.7"/>
	<path class="st0" d="M37.7-321v90.1"/>
	<path class="st0" d="M46-302.7v53.5"/>
	<path class="st0" d="M54.4-317.1v82.1"/>
	<path class="st0" d="M62.8-290.3v28.6"/>
	<path class="st0" d="M71.2-299.9v47.8"/>
	<path class="st0" d="M79.6-294.3v36.5"/>
	<path class="st0" d="M87.9-284.3v16.6"/>
	<path class="st0" d="M96.3-282.3v12.6"/>
	<path class="st0" d="M104.7-285.2v18.4"/>
	<path class="st0" d="M113.1-284.1v16.2"/>
	<path class="st0" d="M121.5-290.1v28.2"/>
	<path class="st0" d="M129.8-280.3v8.5"/>
	<path class="st0" d="M138.2-279.8v7.7"/>
	<path class="st0" d="M146.6-277.6v3.2"/>
	<path class="st0" d="M155-277.1v2.3"/>
	<path class="st0" d="M163.3-304.8v57.5"/>
	<path class="st0" d="M171.7-316.4v80.7"/>
	<path class="st0" d="M180.1-327.2v102.5"/>
	<path class="st0" d="M188.5-334.9v117.8"/>
	<path class="st0" d="M196.9-319.7v87.3"/>
	<path class="st0" d="M205.2-289v26.1"/>
	<path class="st0" d="M213.6-277.6v3.2"/>
	<path class="st0" d="M222-277.1v2.3"/>
	<path class="st0" d="M230.4-277.2v2.5"/>
	<path class="st0" d="M238.8-277.2v2.4"/>
	<path class="st0" d="M247.1-304.4v56.9"/>
	<path class="st0" d="M255.5-313.3v74.7"/>
	<path class="st0" d="M263.9-305.6v59.2"/>
	<path class="st0" d="M272.3-297.5v43"/>
	<path class="st0" d="M280.6-289.3v26.6"/>
	<path class="st0" d="M289-295.7v39.5"/>
	<path class="st0" d="M297.4-281.9v11.9"/>
	<path class="st0" d="M305.8-277v2"/>
	<path class="st0" d="M314.2-276.8v1.7"/>
	<path class="st0" d="M322.5-277v1.9"/>
	<path class="st0" d="M330.9-277v1.9"/>
	<path class="st0" d="M339.3-277.4v2.8"/>
	<path class="st0" d="M347.7-289.5v27"/>
	<path class="st0" d="M356.1-312.4v72.8"/>
	<path class="st0" d="M364.4-305v57.9"/>
	<path class="st0" d="M372.8-317.2v82.5"/>
	<path class="st0" d="M381.2-295.9v39.9"/>
	<path class="st0" d="M389.6-306.2v60.3"/>
	<path class="st0" d="M397.9-294.6v37.1"/>
	<path class="st0" d="M406.3-301v49.9"/>
	<path class="st0" d="M414.7-293.4v34.8"/>
	<path class="st0" d="M423.1-276.9v1.8"/>
	<path class="st0" d="M431.5-277.7v3.3"/>
	<path class="st0" d="M439.8-311.4v70.9"/>
	<path class="st0" d="M448.2-318.3v84.5"/>
	<path class="st0" d="M456.6-307v62"/>
	<path class="st0" d="M465-315.6v79.3"/>
	<path class="st0" d="M473.4-302.9v53.8"/>
	<path class="st0" d="M481.7-304.8v57.6"/>
	<path class="st0" d="M490.1-319.2v86.4"/>
	<path class="st0" d="M498.5-307.4v62.8"/>
	<path class="st0" d="M506.9-306.5v60.9"/>
	<path class="st0" d="M515.2-311.3v70.6"/>
	<path class="st0" d="M523.6-298.1v44.2"/>
	<path class="st0" d="M532-289v26"/>
	<path class="st0" d="M540.4-277.1v2.1"/>
	<path class="st0" d="M548.8-290.2v28.5"/>
	<path class="st0" d="M557.1-294.4v36.8"/>
	<path class="st0" d="M565.5-297.6v43.1"/>
	<path class="st0" d="M573.9-303.7v55.3"/>
	<path class="st0" d="M582.3-296.8v41.5"/>
	<path class="st0" d="M590.7-287.6v23.1"/>
	<path class="st0" d="M599-315v77.9"/>
	<path class="st0" d="M607.4-316.1v80.2"/>
	<path class="st0" d="M615.8-308.8v65.6"/>
	<path class="st0" d="M624.2-295.7v39.4"/>
	<path class="st0" d="M632.5-307.5v63"/>
	<path class="st0" d="M640.9-301.5v51"/>
	<path class="st0" d="M649.3-292.7v33.3"/>
	<path class="st0" d="M657.7-291v30.1"/>
	<path class="st0" d="M666.1-293.4v34.8"/>
	<path class="st0" d="M674.4-288.5v24.9"/>
	<path class="st0" d="M682.8-284.9v17.8"/>
	<path class="st0" d="M691.2-314.5v77"/>
	<path class="st0" d="M699.6-324v96"/>
	<path class="st0" d="M708-285.7v19.4"/>
	<path class="st0" d="M716.3-280.1v8.3"/>
	<path class="st0" d="M724.7-280.3v8.7"/>
	<path class="st0" d="M733.1-279.9v7.9"/>
	<path class="st0" d="M741.5-278.8v5.5"/>
	<path class="st0" d="M749.8-277.2v2.4"/>
	<path class="st0" d="M758.2-287.5v23"/>
	<path class="st0" d="M766.6-341.3v130.6"/>
	<path class="st0" d="M775-342.1v132.3"/>
	<path class="st0" d="M783.4-305.8v59.6"/>
	<path class="st0" d="M791.7-279.5v7"/>
	<path class="st0" d="M800.1-277.3v2.6"/>
	<path class="st0" d="M808.5-277.4v2.8"/>
	<path class="st0" d="M816.9-309.5v66.9"/>
	<path class="st0" d="M825.3-345.6v139.3"/>
	<path class="st0" d="M833.6-332.8v113.7"/>
	<path class="st0" d="M842-349v146"/>
	<path class="st0" d="M850.4-349V-203"/>
	<path class="st0" d="M858.8-317v82"/>
	<path class="st0" d="M867.1-296.1v40.1"/>
	<path class="st0" d="M875.5-279.1v6.3"/>
	<path class="st0" d="M883.9-304.8v57.6"/>
	<path class="st0" d="M892.3-321.7v91.4"/>
	<path class="st0" d="M900.7-329.2v106.3"/>
	<path class="st0" d="M909-311.1v70.1"/>
	<path class="st0" d="M917.4-296v40"/>
	<path class="st0" d="M925.8-320.8v89.6"/>
	<path class="st0" d="M934.2-316v79.9"/>
	<path class="st0" d="M942.6-302.5v52.9"/>
	<path class="st0" d="M950.9-279.4v6.9"/>
	<path class="st0" d="M959.3-310.5v68.9"/>
	<path class="st0" d="M967.7-305.5v59"/>
	<path class="st0" d="M976.1-304.8v57.5"/>
	<path class="st0" d="M984.4-286.3v20.7"/>
	<path class="st0" d="M992.8-305.7v59.5"/>
	<path class="st0" d="M1001.2-297.5v42.9"/>
	<path class="st0" d="M1009.6-284.8v17.6"/>
	<path class="st0" d="M1018-277.8v3.6"/>
	<path class="st0" d="M1026.3-277.1v2.2"/>
	<path class="st0" d="M1034.7-277.1v2.1"/>
	<path class="st0" d="M1043.1-277v2"/>
	<path class="st0" d="M1051.5-300v48"/>
	<path class="st0" d="M1059.9-294.7v37.4"/>
	<path class="st0" d="M1068.2-306.4v60.9"/>
	<path class="st0" d="M1076.6-288.7v25.5"/>
	<path class="st0" d="M1085-294.2v36.3"/>
	<path class="st0" d="M1093.4-288.2v24.3"/>
	<path class="st0" d="M1101.7-281.1v10.2"/>
	<path class="st0" d="M1110.1-277.3v2.6"/>
	<path class="st0" d="M1118.5-276.9v1.9"/>
	<path class="st0" d="M1126.9-276.9v1.9"/>
	<path class="st0" d="M1135.3-292.7v33.4"/>
	<path class="st0" d="M1143.6-325.5v99"/>
	<path class="st0" d="M1152-336.3v120.5"/>
	<path class="st0" d="M1160.4-329.5v106.9"/>
	<path class="st0" d="M1168.8-342.9v133.7"/>
	<path class="st0" d="M1177.2-326.5v101.1"/>
	<path class="st0" d="M1185.5-307.7v63.4"/>
	<path class="st0" d="M1193.9-297.8v43.7"/>
	<path class="st0" d="M1202.3-298.4v44.8"/>
	<path class="st0" d="M1210.7-293.9v35.8"/>
	<path class="st0" d="M1219-291.7v31.4"/>
	<path class="st0" d="M1227.4-292.6v33.2"/>
	<path class="st0" d="M1235.8-295.6v39.2"/>
	<path class="st0" d="M1244.2-300.9v49.8"/>
	<path class="st0" d="M1252.6-294.6v37.1"/>
	<path class="st0" d="M1260.9-299.9v47.8"/>
	<path class="st0" d="M1269.3-298.4v44.8"/>
	<path class="st0" d="M1277.7-299.7v47.5"/>
	<path class="st0" d="M1286.1-306.4v60.7"/>
	<path class="st0" d="M1294.5-296.5v41"/>
	<path class="st0" d="M1302.8-285.9v19.9"/>
	<path class="st0" d="M1311.2-277.3v2.5"/>
	<path class="st0" d="M1319.6-276.9v1.7"/>
	<path class="st0" d="M1328-285.2v18.4"/>
	<path class="st0" d="M1336.3-302.5v53.1"/>
	<path class="st0" d="M1344.7-299.3v46.7"/>
	<path class="st0" d="M1353.1-293.4v34.9"/>
	<path class="st0" d="M1361.5-292.4v32.8"/>
	<path class="st0" d="M1369.9-284.2v16.3"/>
	<path class="st0" d="M1378.2-282v11.9"/>
	<path class="st0" d="M1386.6-282.5v13"/>
	<path class="st0" d="M1395-277.5v2.9"/>
</g>
</svg>
