<?xml version="1.0" encoding="utf-8"?>
<!-- Generator: Adobe Illustrator 22.0.0, SVG Export Plug-In . SVG Version: 6.00 Build 0)  -->
<svg version="1.1" id="Layer_1" xmlns="http://www.w3.org/2000/svg" xmlns:xlink="http://www.w3.org/1999/xlink" x="0px" y="0px"
	 viewBox="0 0 1400 180" style="enable-background:new 0 0 1400 180;" xml:space="preserve">
<style type="text/css">
	.st0{fill:none;stroke:#FFD040;stroke-width:3.9175;stroke-linecap:round;stroke-miterlimit:10;}
</style>
<g transform="scale(1,1)">
</g>
<g transform="translate(0,366)">
	<path class="st0" d="M16.1-287.7v23.3"/>
	<path class="st0" d="M24.4-354.7v157.4"/>
	<path class="st0" d="M32.7-351.9v151.8"/>
	<path class="st0" d="M41-309.7v67.4"/>
	<path class="st0" d="M49.3-335.4v118.8"/>
	<path class="st0" d="M57.6-329.5v106.9"/>
	<path class="st0" d="M65.9-298.9v45.8"/>
	<path class="st0" d="M74.2-331.1v110.1"/>
	<path class="st0" d="M82.5-321.6v91.2"/>
	<path class="st0" d="M90.8-292.6v33.1"/>
	<path class="st0" d="M99.1-302v52"/>
	<path class="st0" d="M107.4-324.2v96.3"/>
	<path class="st0" d="M115.7-291.5v31"/>
	<path class="st0" d="M124-282.3v12.7"/>
	<path class="st0" d="M132.3-297.2v42.4"/>
	<path class="st0" d="M140.6-285.8v19.7"/>
	<path class="st0" d="M148.9-289.1v26.2"/>
	<path class="st0" d="M157.2-281.6v11.2"/>
	<path class="st0" d="M165.4-281v10.1"/>
	<path class="st0" d="M173.7-280.9v9.8"/>
	<path class="st0" d="M182-276.8v1.7"/>
	<path class="st0" d="M190.3-276.8v1.6"/>
	<path class="st0" d="M198.6-276.7v1.5"/>
	<path class="st0" d="M206.9-277.9v3.8"/>
	<path class="st0" d="M215.2-302.7v53.3"/>
	<path class="st0" d="M223.5-338.7v125.4"/>
	<path class="st0" d="M231.8-304v56"/>
	<path class="st0" d="M240.1-302.3v52.6"/>
	<path class="st0" d="M248.4-303.9v55.9"/>
	<path class="st0" d="M256.7-350.9v149.7"/>
	<path class="st0" d="M265-335.7v119.3"/>
	<path class="st0" d="M273.3-335.2v118.5"/>
	<path class="st0" d="M281.6-300.7v49.5"/>
	<path class="st0" d="M289.9-281.8v11.6"/>
	<path class="st0" d="M298.2-287.9v23.8"/>
	<path class="st0" d="M306.4-309.7v67.5"/>
	<path class="st0" d="M314.7-295.5v39"/>
	<path class="st0" d="M323-295v38.1"/>
	<path class="st0" d="M331.3-288.6v25.2"/>
	<path class="st0" d="M339.6-309.1v66.2"/>
	<path class="st0" d="M347.9-322.8v93.5"/>
	<path class="st0" d="M356.2-285.9v19.9"/>
	<path class="st0" d="M364.5-291.5v31.1"/>
	<path class="st0" d="M372.8-291.7v31.4"/>
	<path class="st0" d="M381.1-286.4v20.8"/>
	<path class="st0" d="M389.4-308.2v64.4"/>
	<path class="st0" d="M397.7-301.3v50.7"/>
	<path class="st0" d="M406-281.4v10.8"/>
	<path class="st0" d="M414.3-279.7v7.3"/>
	<path class="st0" d="M422.6-277.3v2.6"/>
	<path class="st0" d="M430.9-312.8v73.5"/>
	<path class="st0" d="M439.2-346.9v141.7"/>
	<path class="st0" d="M447.5-341v130"/>
	<path class="st0" d="M455.7-344.8v137.6"/>
	<path class="st0" d="M464-306.3v60.7"/>
	<path class="st0" d="M472.3-327.2v102.3"/>
	<path class="st0" d="M480.6-314.8v77.6"/>
	<path class="st0" d="M488.9-300.1v48.1"/>
	<path class="st0" d="M497.2-288.5v25"/>
	<path class="st0" d="M505.5-298.1v44.3"/>
	<path class="st0" d="M513.8-320.3v88.6"/>
	<path class="st0" d="M522.1-355.7v159.4"/>
	<path class="st0" d="M530.4-341.5v131"/>
	<path class="st0" d="M538.7-349.3v146.6"/>
	<path class="st0" d="M547-308v63.9"/>
	<path class="st0" d="M555.3-356.7v161.4"/>
	<path class="st0" d="M563.6-340.9v129.7"/>
	<path class="st0" d="M571.9-301.9v51.8"/>
	<path class="st0" d="M580.2-303v53.9"/>
	<path class="st0" d="M588.5-282.8v13.5"/>
	<path class="st0" d="M596.7-325.9v99.8"/>
	<path class="st0" d="M605-314.3v76.6"/>
	<path class="st0" d="M613.3-295.2v38.4"/>
	<path class="st0" d="M621.6-281.7v11.3"/>
	<path class="st0" d="M629.9-287.6v23.3"/>
	<path class="st0" d="M638.2-295.1v38.2"/>
	<path class="st0" d="M646.5-331.3v110.7"/>
	<path class="st0" d="M654.8-339.2v126.3"/>
	<path class="st0" d="M663.1-310.3v68.6"/>
	<path class="st0" d="M671.4-333.3v114.6"/>
	<path class="st0" d="M679.7-304.4v56.8"/>
	<path class="st0" d="M688-300.4v48.8"/>
	<path class="st0" d="M696.3-297.1v42.1"/>
	<path class="st0" d="M704.6-321.1v90.2"/>
	<path class="st0" d="M712.9-343.8v135.6"/>
	<path class="st0" d="M721.2-346.9v141.8"/>
	<path class="st0" d="M729.5-318.9v85.8"/>
	<path class="st0" d="M737.8-285.9v19.8"/>
	<path class="st0" d="M746-282.1v12.2"/>
	<path class="st0" d="M754.3-281.4v10.8"/>
	<path class="st0" d="M762.6-330.5v108.9"/>
	<path class="st0" d="M770.9-345.8v139.5"/>
	<path class="st0" d="M779.2-335.6v119.3"/>
	<path class="st0" d="M787.5-332.4v112.8"/>
	<path class="st0" d="M795.8-306.9v61.7"/>
	<path class="st0" d="M804.1-279.3v6.5"/>
	<path class="st0" d="M812.4-277.1v2.2"/>
	<path class="st0" d="M820.7-312.2v72.3"/>
	<path class="st0" d="M829-331.3v110.7"/>
	<path class="st0" d="M837.3-296.1v40.2"/>
	<path class="st0" d="M845.6-309.6v67.1"/>
	<path class="st0" d="M853.9-288.6v25.1"/>
	<path class="st0" d="M862.2-285v18"/>
	<path class="st0" d="M870.5-327.9v103.9"/>
	<path class="st0" d="M878.8-317v81.9"/>
	<path class="st0" d="M887-295.7v39.5"/>
	<path class="st0" d="M895.3-287.5v23"/>
	<path class="st0" d="M903.6-282v12.1"/>
	<path class="st0" d="M911.9-283.9v15.8"/>
	<path class="st0" d="M920.2-278.4v4.8"/>
	<path class="st0" d="M928.5-277.9v3.8"/>
	<path class="st0" d="M936.8-284.2v16.4"/>
	<path class="st0" d="M945.1-315.2v78.5"/>
	<path class="st0" d="M953.4-323.1v94.2"/>
	<path class="st0" d="M961.7-297v42.1"/>
	<path class="st0" d="M970-283.7v15.5"/>
	<path class="st0" d="M978.3-286.4v20.8"/>
	<path class="st0" d="M986.6-334.6v117.3"/>
	<path class="st0" d="M994.9-315.6v79.1"/>
	<path class="st0" d="M1003.2-293.6v35.3"/>
	<path class="st0" d="M1011.5-329.3v106.6"/>
	<path class="st0" d="M1019.8-330.8v109.7"/>
	<path class="st0" d="M1028.1-322v92"/>
	<path class="st0" d="M1036.3-333.7v115.4"/>
	<path class="st0" d="M1044.6-336.1v120.2"/>
	<path class="st0" d="M1052.9-310.3v68.6"/>
	<path class="st0" d="M1061.2-306v60"/>
	<path class="st0" d="M1069.5-329v106"/>
	<path class="st0" d="M1077.8-321.1v90.2"/>
	<path class="st0" d="M1086.1-300.3v48.6"/>
	<path class="st0" d="M1094.4-279.7v7.4"/>
	<path class="st0" d="M1102.7-278.5v5.1"/>
	<path class="st0" d="M1111-276.8v1.6"/>
	<path class="st0" d="M1119.3-286.2v20.4"/>
	<path class="st0" d="M1127.6-320.8v89.6"/>
	<path class="st0" d="M1135.9-306.9v61.7"/>
	<path class="st0" d="M1144.2-283.4v14.7"/>
	<path class="st0" d="M1152.5-278v4"/>
	<path class="st0" d="M1160.8-277.9v3.8"/>
	<path class="st0" d="M1169.1-318.3v84.6"/>
	<path class="st0" d="M1177.3-309.5v67"/>
	<path class="st0" d="M1185.6-284.9v17.8"/>
	<path class="st0" d="M1193.9-308.3v64.5"/>
	<path class="st0" d="M1202.2-322.2v92.5"/>
	<path class="st0" d="M1210.5-311.1v70.2"/>
	<path class="st0" d="M1218.8-301.4v50.8"/>
	<path class="st0" d="M1227.1-314.1v76.2"/>
	<path class="st0" d="M1235.4-307.1v62.3"/>
	<path class="st0" d="M1243.7-287.1v22.2"/>
	<path class="st0" d="M1252-277.2v2.5"/>
	<path class="st0" d="M1260.3-298.9v45.8"/>
	<path class="st0" d="M1268.6-318.9v85.8"/>
	<path class="st0" d="M1276.9-315.1v78.3"/>
	<path class="st0" d="M1285.2-293.3v34.5"/>
	<path class="st0" d="M1293.5-308.1v64.1"/>
	<path class="st0" d="M1301.8-316.1v80.1"/>
	<path class="st0" d="M1310.1-337.3v122.6"/>
	<path class="st0" d="M1318.4-306v60"/>
	<path class="st0" d="M1326.6-337.9v123.8"/>
	<path class="st0" d="M1334.9-339.2v126.3"/>
	<path class="st0" d="M1343.2-345.7v139.4"/>
	<path class="st0" d="M1351.5-308.2v64.4"/>
	<path class="st0" d="M1359.8-283.2v14.4"/>
	<path class="st0" d="M1368.1-279.6v7.3"/>
	<path class="st0" d="M1376.4-302.5v53"/>
	<path class="st0" d="M1384.7-312.9v73.8"/>
	<path class="st0" d="M1393-283.2v14.3"/>
</g>
</svg>
