<?xml version="1.0" encoding="utf-8"?>
<!-- Generator: Adobe Illustrator 22.0.0, SVG Export Plug-In . SVG Version: 6.00 Build 0)  -->
<svg version="1.1" id="Layer_1" xmlns="http://www.w3.org/2000/svg" xmlns:xlink="http://www.w3.org/1999/xlink" x="0px" y="0px"
	 viewBox="0 0 1400 180" style="enable-background:new 0 0 1400 180;" xml:space="preserve">
<style type="text/css">
	.st0{fill:none;stroke:#FFD040;stroke-width:3.6383;stroke-linecap:round;stroke-miterlimit:10;}
</style>
<g transform="translate(0,366)">
	<path class="st0" d="M-0.7-276.1v0.1"/>
	<path class="st0" d="M7-276.4v0.8"/>
	<path class="st0" d="M14.8-286.6v21.1"/>
	<path class="st0" d="M22.6-304.7v57.3"/>
	<path class="st0" d="M30.3-316.4v80.8"/>
	<path class="st0" d="M38.1-325.7v99.4"/>
	<path class="st0" d="M45.8-340.3v128.6"/>
	<path class="st0" d="M53.6-321.9v91.9"/>
	<path class="st0" d="M61.3-313.9v75.8"/>
	<path class="st0" d="M69.1-332.8v113.6"/>
	<path class="st0" d="M76.8-316.9v81.9"/>
	<path class="st0" d="M84.6-297.3v42.6"/>
	<path class="st0" d="M92.3-329.3v106.7"/>
	<path class="st0" d="M100.1-301.3v50.6"/>
	<path class="st0" d="M107.8-314.7v77.5"/>
	<path class="st0" d="M115.6-318.1v84.2"/>
	<path class="st0" d="M123.4-305.1v58.1"/>
	<path class="st0" d="M131.1-296.6v41.2"/>
	<path class="st0" d="M138.9-305.9v59.9"/>
	<path class="st0" d="M146.6-317.7v83.4"/>
	<path class="st0" d="M154.4-298v43.9"/>
	<path class="st0" d="M162.1-277.7v3.3"/>
	<path class="st0" d="M169.9-278.5v4.9"/>
	<path class="st0" d="M177.6-288.1v24.2"/>
	<path class="st0" d="M185.4-316.2v80.4"/>
	<path class="st0" d="M193.1-325.4v98.8"/>
	<path class="st0" d="M200.9-333.7v115.4"/>
	<path class="st0" d="M208.6-341.3v130.6"/>
	<path class="st0" d="M216.4-331.4v110.7"/>
	<path class="st0" d="M224.2-319.3v86.5"/>
	<path class="st0" d="M231.9-318.4v84.8"/>
	<path class="st0" d="M239.7-313.3v74.6"/>
	<path class="st0" d="M247.4-289.6v27.2"/>
	<path class="st0" d="M255.2-305.3v58.6"/>
	<path class="st0" d="M262.9-296v40"/>
	<path class="st0" d="M270.7-298.7v45.5"/>
	<path class="st0" d="M278.4-289.1v26.2"/>
	<path class="st0" d="M286.2-305v58"/>
	<path class="st0" d="M293.9-293.8v35.6"/>
	<path class="st0" d="M301.7-288.3v24.5"/>
	<path class="st0" d="M309.4-297.7v43.3"/>
	<path class="st0" d="M317.2-284.7v17.3"/>
	<path class="st0" d="M325-288v24"/>
	<path class="st0" d="M332.7-305.4v58.8"/>
	<path class="st0" d="M340.5-314.3v76.6"/>
	<path class="st0" d="M348.2-324.2v96.4"/>
	<path class="st0" d="M356-306v59.9"/>
	<path class="st0" d="M363.7-303.8v55.5"/>
	<path class="st0" d="M371.5-305.5v59.1"/>
	<path class="st0" d="M379.2-298.3v44.6"/>
	<path class="st0" d="M387-294.4v36.8"/>
	<path class="st0" d="M394.7-302v52.1"/>
	<path class="st0" d="M402.5-299.7v47.3"/>
	<path class="st0" d="M410.3-311.5v70.9"/>
	<path class="st0" d="M418-304.3v56.7"/>
	<path class="st0" d="M425.8-299.7v47.5"/>
	<path class="st0" d="M433.5-304.4v56.9"/>
	<path class="st0" d="M441.3-293.6v35.2"/>
	<path class="st0" d="M449-291.4v30.8"/>
	<path class="st0" d="M456.8-298.5v44.9"/>
	<path class="st0" d="M464.5-298.7v45.5"/>
	<path class="st0" d="M472.3-279.3v6.6"/>
	<path class="st0" d="M480-286.6v21.2"/>
	<path class="st0" d="M487.8-299.8v47.6"/>
	<path class="st0" d="M495.5-300.6v49.2"/>
	<path class="st0" d="M503.3-291.8v31.5"/>
	<path class="st0" d="M511.1-296.6v41.3"/>
	<path class="st0" d="M518.8-297.1v42.2"/>
	<path class="st0" d="M526.6-304.6v57.1"/>
	<path class="st0" d="M534.3-289.3v26.7"/>
	<path class="st0" d="M542.1-286.9v21.8"/>
	<path class="st0" d="M549.8-289.9v27.9"/>
	<path class="st0" d="M557.6-288.1v24.2"/>
	<path class="st0" d="M565.3-293.3v34.5"/>
	<path class="st0" d="M573.1-294.7v37.4"/>
	<path class="st0" d="M580.8-277.6v3.1"/>
	<path class="st0" d="M588.6-277.3v2.6"/>
	<path class="st0" d="M596.3-277.7v3.3"/>
	<path class="st0" d="M604.1-277.8v3.6"/>
	<path class="st0" d="M611.9-283v14"/>
	<path class="st0" d="M619.6-318.4v84.8"/>
	<path class="st0" d="M627.4-322.3v92.6"/>
	<path class="st0" d="M635.1-284.8v17.7"/>
	<path class="st0" d="M642.9-291.9v31.9"/>
	<path class="st0" d="M650.6-332.9v113.9"/>
	<path class="st0" d="M658.4-317.6v83.1"/>
	<path class="st0" d="M666.1-327.5v103"/>
	<path class="st0" d="M673.9-318.5v85.1"/>
	<path class="st0" d="M681.6-303.9v55.8"/>
	<path class="st0" d="M689.4-323.7v95.4"/>
	<path class="st0" d="M697.1-304.6v57.3"/>
	<path class="st0" d="M704.9-303.8v55.6"/>
	<path class="st0" d="M712.7-292.4v32.9"/>
	<path class="st0" d="M720.4-310.4v68.8"/>
	<path class="st0" d="M728.2-285.1v18.2"/>
	<path class="st0" d="M735.9-277.2v2.4"/>
	<path class="st0" d="M743.7-277.5v3.1"/>
	<path class="st0" d="M751.4-317.5v82.9"/>
	<path class="st0" d="M759.2-297.4v42.8"/>
	<path class="st0" d="M766.9-308.8v65.6"/>
	<path class="st0" d="M774.7-295.4v38.9"/>
	<path class="st0" d="M782.4-306.4v60.8"/>
	<path class="st0" d="M790.2-286.3v20.6"/>
	<path class="st0" d="M797.9-277.5v2.9"/>
	<path class="st0" d="M805.7-277.3v2.6"/>
	<path class="st0" d="M813.5-281.3v10.6"/>
	<path class="st0" d="M821.2-325.6v99.1"/>
	<path class="st0" d="M829-301.9v51.8"/>
	<path class="st0" d="M836.7-311.2v70.3"/>
	<path class="st0" d="M844.5-277.9v3.9"/>
	<path class="st0" d="M852.2-277.5v3"/>
	<path class="st0" d="M860-299.4v46.8"/>
	<path class="st0" d="M867.7-296.4v40.9"/>
	<path class="st0" d="M875.5-312.9v73.9"/>
	<path class="st0" d="M883.2-326.4v100.7"/>
	<path class="st0" d="M891-289.2v26.4"/>
	<path class="st0" d="M898.7-277.4v2.9"/>
	<path class="st0" d="M906.5-313v74"/>
	<path class="st0" d="M914.3-298v43.9"/>
	<path class="st0" d="M922-318.6v85.2"/>
	<path class="st0" d="M929.8-327.5v103"/>
	<path class="st0" d="M937.5-304.8v57.6"/>
	<path class="st0" d="M945.3-296.5v41"/>
	<path class="st0" d="M953-312.8v73.5"/>
	<path class="st0" d="M960.8-295.2v38.5"/>
	<path class="st0" d="M968.5-312.6v73.2"/>
	<path class="st0" d="M976.3-318.2v84.4"/>
	<path class="st0" d="M984-289.6v27.3"/>
	<path class="st0" d="M991.8-297.8v43.6"/>
	<path class="st0" d="M999.5-295v38"/>
	<path class="st0" d="M1007.3-294v36"/>
	<path class="st0" d="M1015.1-304.5v57.1"/>
	<path class="st0" d="M1022.8-302.6v53.2"/>
	<path class="st0" d="M1030.6-319.4v86.9"/>
	<path class="st0" d="M1038.3-311.3v70.6"/>
	<path class="st0" d="M1046.1-289.3v26.5"/>
	<path class="st0" d="M1053.8-311.5v71.1"/>
	<path class="st0" d="M1061.6-309v66.1"/>
	<path class="st0" d="M1069.3-296.1v40.2"/>
	<path class="st0" d="M1077.1-306.8v61.7"/>
	<path class="st0" d="M1084.8-295v37.9"/>
	<path class="st0" d="M1092.6-296.3v40.5"/>
	<path class="st0" d="M1100.4-289.1v26.2"/>
	<path class="st0" d="M1108.1-286.5v20.9"/>
	<path class="st0" d="M1115.9-302.8v53.6"/>
	<path class="st0" d="M1123.6-292.9v33.8"/>
	<path class="st0" d="M1131.4-303.7v55.3"/>
	<path class="st0" d="M1139.1-296v40.1"/>
	<path class="st0" d="M1146.9-292.2v32.4"/>
	<path class="st0" d="M1154.6-308.3v64.5"/>
	<path class="st0" d="M1162.4-297.3v42.7"/>
	<path class="st0" d="M1170.1-307.3v62.6"/>
	<path class="st0" d="M1177.9-307.7v63.4"/>
	<path class="st0" d="M1185.6-314v76.1"/>
	<path class="st0" d="M1193.4-299.4v46.8"/>
	<path class="st0" d="M1201.2-288.8v25.7"/>
	<path class="st0" d="M1208.9-301.7v51.4"/>
	<path class="st0" d="M1216.7-309.6v67.1"/>
	<path class="st0" d="M1224.4-309.5v66.9"/>
	<path class="st0" d="M1232.2-307.8v63.5"/>
	<path class="st0" d="M1239.9-283.4v14.9"/>
	<path class="st0" d="M1247.7-278.1v4.1"/>
	<path class="st0" d="M1255.4-278.2v4.5"/>
	<path class="st0" d="M1263.2-277.5v3.1"/>
	<path class="st0" d="M1270.9-302.4v52.8"/>
	<path class="st0" d="M1278.7-325.4v98.8"/>
	<path class="st0" d="M1286.4-323.3v94.5"/>
	<path class="st0" d="M1294.2-320.4v88.8"/>
	<path class="st0" d="M1302-300.6v49.2"/>
	<path class="st0" d="M1309.7-299.9v47.9"/>
	<path class="st0" d="M1317.5-300.3v48.6"/>
	<path class="st0" d="M1325.2-305v58"/>
	<path class="st0" d="M1333-302.1v52.1"/>
	<path class="st0" d="M1340.7-289.7v27.4"/>
	<path class="st0" d="M1348.5-289.8v27.5"/>
	<path class="st0" d="M1356.2-288.6v25.2"/>
	<path class="st0" d="M1364-289.8v27.7"/>
	<path class="st0" d="M1371.7-301.7v51.4"/>
	<path class="st0" d="M1379.5-277.8v3.6"/>
	<path class="st0" d="M1387.2-277.6v3.3"/>
	<path class="st0" d="M1395-277.5v3"/>
</g>
</svg>
