<?xml version="1.0" encoding="utf-8"?>
<!-- Generator: Adobe Illustrator 22.0.0, SVG Export Plug-In . SVG Version: 6.00 Build 0)  -->
<svg version="1.1" id="Layer_1" xmlns="http://www.w3.org/2000/svg" xmlns:xlink="http://www.w3.org/1999/xlink" x="0px" y="0px"
	 viewBox="0 0 1400 180" style="enable-background:new 0 0 1400 180;" xml:space="preserve">
<style type="text/css">
	.st0{fill:none;stroke:#FFD040;stroke-width:3.3932;stroke-linecap:round;stroke-miterlimit:10;}
</style>
<g transform="scale(1,1)">
</g>
<g transform="translate(0,366)">
	<path class="st0" d="M4.9-312.5v72.9"/>
	<path class="st0" d="M12.1-315.6v79.3"/>
	<path class="st0" d="M19.3-299.2v46.4"/>
	<path class="st0" d="M26.6-309.8v67.5"/>
	<path class="st0" d="M33.8-318.5v85.1"/>
	<path class="st0" d="M41-314.6v77.1"/>
	<path class="st0" d="M48.3-319.1v86.1"/>
	<path class="st0" d="M55.5-299.9v47.8"/>
	<path class="st0" d="M62.7-313v74.1"/>
	<path class="st0" d="M69.9-301.2v50.4"/>
	<path class="st0" d="M77.2-299.3v46.5"/>
	<path class="st0" d="M84.4-330.9v109.8"/>
	<path class="st0" d="M91.6-328.5v105.1"/>
	<path class="st0" d="M98.9-326.5v101.1"/>
	<path class="st0" d="M106.1-307.1v62.2"/>
	<path class="st0" d="M113.3-295.2v38.5"/>
	<path class="st0" d="M120.5-279.3v6.6"/>
	<path class="st0" d="M127.8-278.1v4.3"/>
	<path class="st0" d="M135-291.5v31"/>
	<path class="st0" d="M142.2-329.5v107"/>
	<path class="st0" d="M149.5-335.5v119"/>
	<path class="st0" d="M156.7-319.8v87.6"/>
	<path class="st0" d="M163.9-323.8v95.7"/>
	<path class="st0" d="M171.1-330.7v109.4"/>
	<path class="st0" d="M178.4-322v91.9"/>
	<path class="st0" d="M185.6-304v56"/>
	<path class="st0" d="M192.8-307.9v63.7"/>
	<path class="st0" d="M200.1-313.8v75.7"/>
	<path class="st0" d="M207.3-318.7v85.3"/>
	<path class="st0" d="M214.5-311.3v70.5"/>
	<path class="st0" d="M221.7-291.5v31"/>
	<path class="st0" d="M229-292.6v33.2"/>
	<path class="st0" d="M236.2-295.4v38.8"/>
	<path class="st0" d="M243.4-295.4v38.8"/>
	<path class="st0" d="M250.7-289.1v26.2"/>
	<path class="st0" d="M257.9-281.1v10.1"/>
	<path class="st0" d="M265.1-294.6v37.2"/>
	<path class="st0" d="M272.3-305.4v58.9"/>
	<path class="st0" d="M279.6-295.8v39.5"/>
	<path class="st0" d="M286.8-295.2v38.4"/>
	<path class="st0" d="M294-292.3v32.7"/>
	<path class="st0" d="M301.3-285.4v18.8"/>
	<path class="st0" d="M308.5-296v40"/>
	<path class="st0" d="M315.7-305v58"/>
	<path class="st0" d="M322.9-288.8v25.6"/>
	<path class="st0" d="M330.2-285.2v18.4"/>
	<path class="st0" d="M337.4-312.2v72.4"/>
	<path class="st0" d="M344.6-300v47.9"/>
	<path class="st0" d="M351.9-291.3v30.6"/>
	<path class="st0" d="M359.1-292.4v32.8"/>
	<path class="st0" d="M366.3-283.3v14.7"/>
	<path class="st0" d="M373.5-287.7v23.4"/>
	<path class="st0" d="M380.8-294.4v36.9"/>
	<path class="st0" d="M388-286.9v21.9"/>
	<path class="st0" d="M395.2-301.6v51.2"/>
	<path class="st0" d="M402.5-285.4v18.9"/>
	<path class="st0" d="M409.7-300.9v49.9"/>
	<path class="st0" d="M416.9-291.9v31.7"/>
	<path class="st0" d="M424.1-278.3v4.6"/>
	<path class="st0" d="M431.4-277.8v3.6"/>
	<path class="st0" d="M438.6-277.9v3.7"/>
	<path class="st0" d="M445.8-277.1v2.3"/>
	<path class="st0" d="M453.1-277v2"/>
	<path class="st0" d="M460.3-296.3v40.6"/>
	<path class="st0" d="M467.5-302.6v53.3"/>
	<path class="st0" d="M474.7-324v95.9"/>
	<path class="st0" d="M482-331v110"/>
	<path class="st0" d="M489.2-316.9v81.7"/>
	<path class="st0" d="M496.4-282.8v13.7"/>
	<path class="st0" d="M503.7-278.6v5.2"/>
	<path class="st0" d="M510.9-280.1v8.3"/>
	<path class="st0" d="M518.1-308.7v65.3"/>
	<path class="st0" d="M525.3-326.4v100.8"/>
	<path class="st0" d="M532.6-313.9v75.7"/>
	<path class="st0" d="M539.8-305.6v59.2"/>
	<path class="st0" d="M547-292.2v32.5"/>
	<path class="st0" d="M554.3-336.4v120.8"/>
	<path class="st0" d="M561.5-330.4v108.8"/>
	<path class="st0" d="M568.7-321.4v90.8"/>
	<path class="st0" d="M575.9-297v42.1"/>
	<path class="st0" d="M583.2-305.4v58.7"/>
	<path class="st0" d="M590.4-281.6v11.2"/>
	<path class="st0" d="M597.6-278.6v5.1"/>
	<path class="st0" d="M604.9-278.3v4.5"/>
	<path class="st0" d="M612.1-286.1v20.1"/>
	<path class="st0" d="M619.3-298.2v44.3"/>
	<path class="st0" d="M626.5-294.5v37.1"/>
	<path class="st0" d="M633.8-312.5v73"/>
	<path class="st0" d="M641-301.1v50.3"/>
	<path class="st0" d="M648.2-295.9v39.8"/>
	<path class="st0" d="M655.5-290.9v29.9"/>
	<path class="st0" d="M662.7-289v25.9"/>
	<path class="st0" d="M669.9-278.5v4.9"/>
	<path class="st0" d="M677.1-291.3v30.6"/>
	<path class="st0" d="M684.4-294.5v36.9"/>
	<path class="st0" d="M691.6-294v35.9"/>
	<path class="st0" d="M698.8-306.5v61"/>
	<path class="st0" d="M706.1-312.1v72.2"/>
	<path class="st0" d="M713.3-298.3v44.7"/>
	<path class="st0" d="M720.5-282.9v13.9"/>
	<path class="st0" d="M727.7-284v16"/>
	<path class="st0" d="M735-288.3v24.6"/>
	<path class="st0" d="M742.2-295.8v39.5"/>
	<path class="st0" d="M749.4-299.1v46.2"/>
	<path class="st0" d="M756.7-298.5v45"/>
	<path class="st0" d="M763.9-309.1v66.3"/>
	<path class="st0" d="M771.1-290.5v29.1"/>
	<path class="st0" d="M778.3-315.6v79.2"/>
	<path class="st0" d="M785.6-302.2v52.4"/>
	<path class="st0" d="M792.8-291.1v30.3"/>
	<path class="st0" d="M800-305.3v58.5"/>
	<path class="st0" d="M807.3-306.2v60.4"/>
	<path class="st0" d="M814.5-312.7v73.3"/>
	<path class="st0" d="M821.7-298.6v45.1"/>
	<path class="st0" d="M828.9-296.5v40.9"/>
	<path class="st0" d="M836.2-284.3v16.6"/>
	<path class="st0" d="M843.4-279.9v7.8"/>
	<path class="st0" d="M850.6-277.3v2.5"/>
	<path class="st0" d="M857.9-277.4v2.8"/>
	<path class="st0" d="M865.1-277.5v3"/>
	<path class="st0" d="M872.3-282.4v12.8"/>
	<path class="st0" d="M879.5-312.5v73"/>
	<path class="st0" d="M886.8-321.5v90.9"/>
	<path class="st0" d="M894-295.5v39"/>
	<path class="st0" d="M901.2-327.1v102.2"/>
	<path class="st0" d="M908.5-329.3v106.5"/>
	<path class="st0" d="M915.7-315.6v79.3"/>
	<path class="st0" d="M922.9-285.5v18.9"/>
	<path class="st0" d="M930.1-293.9v35.9"/>
	<path class="st0" d="M937.4-329.4v106.8"/>
	<path class="st0" d="M944.6-322.1v92.1"/>
	<path class="st0" d="M951.8-325.9v99.7"/>
	<path class="st0" d="M959.1-300.4v48.8"/>
	<path class="st0" d="M966.3-299.1v46.2"/>
	<path class="st0" d="M973.5-299.6v47.2"/>
	<path class="st0" d="M980.7-296.8v41.7"/>
	<path class="st0" d="M988-299.8v47.6"/>
	<path class="st0" d="M995.2-306.3v60.6"/>
	<path class="st0" d="M1002.4-296.9v41.8"/>
	<path class="st0" d="M1009.7-295.3v38.7"/>
	<path class="st0" d="M1016.9-281.1v10.2"/>
	<path class="st0" d="M1024.1-287.6v23.2"/>
	<path class="st0" d="M1031.3-289v26.1"/>
	<path class="st0" d="M1038.6-279.3v6.7"/>
	<path class="st0" d="M1045.8-283.7v15.4"/>
	<path class="st0" d="M1053-286.5v21"/>
	<path class="st0" d="M1060.3-307.7v63.3"/>
	<path class="st0" d="M1067.5-293.7v35.3"/>
	<path class="st0" d="M1074.7-289.9v27.9"/>
	<path class="st0" d="M1081.9-290.3v28.6"/>
	<path class="st0" d="M1089.2-293.2v34.4"/>
	<path class="st0" d="M1096.4-292.7v33.5"/>
	<path class="st0" d="M1103.6-288.3v24.5"/>
	<path class="st0" d="M1110.9-302.2v52.3"/>
	<path class="st0" d="M1118.1-290.5v29.1"/>
	<path class="st0" d="M1125.3-288.4v24.8"/>
	<path class="st0" d="M1132.5-295.6v39.3"/>
	<path class="st0" d="M1139.8-300.8v49.6"/>
	<path class="st0" d="M1147-285.8v19.6"/>
	<path class="st0" d="M1154.2-279.4v6.7"/>
	<path class="st0" d="M1161.5-286.6v21.1"/>
	<path class="st0" d="M1168.7-288.2v24.3"/>
	<path class="st0" d="M1175.9-278.4v4.7"/>
	<path class="st0" d="M1183.1-277.4v2.7"/>
	<path class="st0" d="M1190.4-277.8v3.6"/>
	<path class="st0" d="M1197.6-310.9v69.8"/>
	<path class="st0" d="M1204.8-306.5v60.9"/>
	<path class="st0" d="M1212.1-307.9v63.8"/>
	<path class="st0" d="M1219.3-312.8v73.5"/>
	<path class="st0" d="M1226.5-304.8v57.5"/>
	<path class="st0" d="M1233.7-293.8v35.5"/>
	<path class="st0" d="M1241-297.6v43.2"/>
	<path class="st0" d="M1248.2-299.4v46.8"/>
	<path class="st0" d="M1255.4-279.7v7.4"/>
	<path class="st0" d="M1262.7-278.6v5.2"/>
	<path class="st0" d="M1269.9-292.6v33.2"/>
	<path class="st0" d="M1277.1-297.9v43.9"/>
	<path class="st0" d="M1284.3-309v65.9"/>
	<path class="st0" d="M1291.6-309.2v66.5"/>
	<path class="st0" d="M1298.8-312.4v72.8"/>
	<path class="st0" d="M1306-288.8v25.5"/>
	<path class="st0" d="M1313.3-294.2v36.3"/>
	<path class="st0" d="M1320.5-279.3v6.6"/>
	<path class="st0" d="M1327.7-277v2"/>
	<path class="st0" d="M1334.9-277.1v2.2"/>
	<path class="st0" d="M1342.2-285.1v18.2"/>
	<path class="st0" d="M1349.4-304.4v56.7"/>
	<path class="st0" d="M1356.6-304v55.9"/>
	<path class="st0" d="M1363.9-317.5v82.9"/>
	<path class="st0" d="M1371.1-313.8v75.5"/>
	<path class="st0" d="M1378.3-307.7v63.5"/>
	<path class="st0" d="M1385.5-319.8v87.6"/>
	<path class="st0" d="M1392.8-312.8v73.7"/>
	<path class="st0" d="M1400-305.6v59.1"/>
</g>
</svg>
