<?xml version="1.0" encoding="utf-8"?>
<!-- Generator: Adobe Illustrator 22.0.0, SVG Export Plug-In . SVG Version: 6.00 Build 0)  -->
<svg version="1.1" id="Layer_1" xmlns="http://www.w3.org/2000/svg" xmlns:xlink="http://www.w3.org/1999/xlink" x="0px" y="0px"
	 viewBox="0 0 1400 180" style="enable-background:new 0 0 1400 180;" xml:space="preserve">
<style type="text/css">
	.st0{fill:none;stroke:#FFD040;stroke-width:3.6396;stroke-linecap:round;stroke-miterlimit:10;}
</style>
<g transform="scale(1,1)">
</g>
<g transform="translate(0,366)">
	<path class="st0" d="M-1.7-276.1v0.2"/>
	<path class="st0" d="M6.1-276.5v1"/>
	<path class="st0" d="M13.8-298.2v44.5"/>
	<path class="st0" d="M21.6-317.4v82.7"/>
	<path class="st0" d="M29.3-312v72"/>
	<path class="st0" d="M37.1-291.4v30.9"/>
	<path class="st0" d="M44.8-295.8v39.6"/>
	<path class="st0" d="M52.6-331.8v111.6"/>
	<path class="st0" d="M60.4-331.6v111.2"/>
	<path class="st0" d="M68.1-336.6v121.2"/>
	<path class="st0" d="M75.9-324.4v96.8"/>
	<path class="st0" d="M83.6-330.7v109.3"/>
	<path class="st0" d="M91.4-313.9v75.7"/>
	<path class="st0" d="M99.2-318.5v84.9"/>
	<path class="st0" d="M106.9-298.6v45.3"/>
	<path class="st0" d="M114.7-305.4v58.7"/>
	<path class="st0" d="M122.4-299.4v46.7"/>
	<path class="st0" d="M130.2-296.6v41.2"/>
	<path class="st0" d="M138-310.2v68.3"/>
	<path class="st0" d="M145.7-314.1v76.2"/>
	<path class="st0" d="M153.5-295.1v38.1"/>
	<path class="st0" d="M161.2-303v54"/>
	<path class="st0" d="M169-290.6v29.1"/>
	<path class="st0" d="M176.8-293.2v34.3"/>
	<path class="st0" d="M184.5-312.6v73.2"/>
	<path class="st0" d="M192.3-333.3v114.5"/>
	<path class="st0" d="M200-325.6v99.2"/>
	<path class="st0" d="M207.8-332.7v113.4"/>
	<path class="st0" d="M215.6-318v84"/>
	<path class="st0" d="M223.3-289.7v27.5"/>
	<path class="st0" d="M231.1-301.6v51.3"/>
	<path class="st0" d="M238.8-291.6v31.1"/>
	<path class="st0" d="M246.6-278.4v4.8"/>
	<path class="st0" d="M254.4-304.8v57.6"/>
	<path class="st0" d="M262.1-317.7v83.4"/>
	<path class="st0" d="M269.9-297.2v42.4"/>
	<path class="st0" d="M277.6-279.6v7.2"/>
	<path class="st0" d="M285.4-279v6"/>
	<path class="st0" d="M293.2-278.2v4.4"/>
	<path class="st0" d="M300.9-277.7v3.4"/>
	<path class="st0" d="M308.7-288.9v25.8"/>
	<path class="st0" d="M316.4-330.8v109.6"/>
	<path class="st0" d="M324.2-337.1v122.1"/>
	<path class="st0" d="M332-348V-204"/>
	<path class="st0" d="M339.7-349.9v147.9"/>
	<path class="st0" d="M347.5-293.2v34.4"/>
	<path class="st0" d="M355.2-330.6v109.3"/>
	<path class="st0" d="M363-323.6v95.2"/>
	<path class="st0" d="M370.7-311.7v71.4"/>
	<path class="st0" d="M378.5-288.8v25.7"/>
	<path class="st0" d="M386.3-296.8v41.5"/>
	<path class="st0" d="M394-332.2v112.5"/>
	<path class="st0" d="M401.8-330.8v109.5"/>
	<path class="st0" d="M409.5-335.5v119"/>
	<path class="st0" d="M417.3-328V-224"/>
	<path class="st0" d="M425.1-330.6v109.2"/>
	<path class="st0" d="M432.8-307.1v62.1"/>
	<path class="st0" d="M440.6-295.1v38.1"/>
	<path class="st0" d="M448.3-315.5v79"/>
	<path class="st0" d="M456.1-313.8v75.6"/>
	<path class="st0" d="M463.9-300v48"/>
	<path class="st0" d="M471.6-287.7v23.3"/>
	<path class="st0" d="M479.4-288.7v25.5"/>
	<path class="st0" d="M487.1-328.3v104.5"/>
	<path class="st0" d="M494.9-327.6v103.1"/>
	<path class="st0" d="M502.7-322.4v92.8"/>
	<path class="st0" d="M510.4-291.2v30.3"/>
	<path class="st0" d="M518.2-282.3v12.7"/>
	<path class="st0" d="M525.9-320.6v89.2"/>
	<path class="st0" d="M533.7-307.6v63.2"/>
	<path class="st0" d="M541.5-285.2v18.4"/>
	<path class="st0" d="M549.2-281.6v11.2"/>
	<path class="st0" d="M557-292v32"/>
	<path class="st0" d="M564.7-330.2v108.4"/>
	<path class="st0" d="M572.5-305.8v59.6"/>
	<path class="st0" d="M580.3-309.4v66.8"/>
	<path class="st0" d="M588-312.5v72.9"/>
	<path class="st0" d="M595.8-312v72"/>
	<path class="st0" d="M603.5-298.4v44.8"/>
	<path class="st0" d="M611.3-315.8v79.7"/>
	<path class="st0" d="M619.1-301.1v50.2"/>
	<path class="st0" d="M626.8-311.4v70.7"/>
	<path class="st0" d="M634.6-307.4v62.8"/>
	<path class="st0" d="M642.3-313.1v74.3"/>
	<path class="st0" d="M650.1-294.5v36.9"/>
	<path class="st0" d="M657.8-307.9v63.7"/>
	<path class="st0" d="M665.6-302.4v52.8"/>
	<path class="st0" d="M673.4-283.3v14.6"/>
	<path class="st0" d="M681.1-292.5v33"/>
	<path class="st0" d="M688.9-306.8v61.5"/>
	<path class="st0" d="M696.6-296.1v40.2"/>
	<path class="st0" d="M704.4-281v10.1"/>
	<path class="st0" d="M712.2-290.2v28.5"/>
	<path class="st0" d="M719.9-331.3v110.6"/>
	<path class="st0" d="M727.7-330.4v108.7"/>
	<path class="st0" d="M735.4-331.6v111.2"/>
	<path class="st0" d="M743.2-299.4v46.7"/>
	<path class="st0" d="M751-324.3v96.6"/>
	<path class="st0" d="M758.7-305.5v59"/>
	<path class="st0" d="M766.5-306.8v61.6"/>
	<path class="st0" d="M774.2-299.3v46.6"/>
	<path class="st0" d="M782-284.5v17.1"/>
	<path class="st0" d="M789.8-300.8v49.7"/>
	<path class="st0" d="M797.5-297v42"/>
	<path class="st0" d="M805.3-309v66.1"/>
	<path class="st0" d="M813-301.1v50.2"/>
	<path class="st0" d="M820.8-303v53.9"/>
	<path class="st0" d="M828.6-315.3v78.6"/>
	<path class="st0" d="M836.3-306.8v61.5"/>
	<path class="st0" d="M844.1-292.7v33.5"/>
	<path class="st0" d="M851.8-285.1v18.3"/>
	<path class="st0" d="M859.6-298.3v44.5"/>
	<path class="st0" d="M867.4-285.4v18.9"/>
	<path class="st0" d="M875.1-279.7v7.4"/>
	<path class="st0" d="M882.9-278.8v5.6"/>
	<path class="st0" d="M890.6-277.5v3"/>
	<path class="st0" d="M898.4-315.4v78.8"/>
	<path class="st0" d="M906.2-296.5v41"/>
	<path class="st0" d="M913.9-312.2v72.4"/>
	<path class="st0" d="M921.7-300.3v48.5"/>
	<path class="st0" d="M929.4-286.6v21.2"/>
	<path class="st0" d="M937.2-312.1v72.3"/>
	<path class="st0" d="M944.9-318.4v84.8"/>
	<path class="st0" d="M952.7-316.8v81.6"/>
	<path class="st0" d="M960.5-328.7v105.5"/>
	<path class="st0" d="M968.2-331.9v111.8"/>
	<path class="st0" d="M976-325.5v99"/>
	<path class="st0" d="M983.7-318.2v84.3"/>
	<path class="st0" d="M991.5-292.5v33"/>
	<path class="st0" d="M999.3-325.8v99.7"/>
	<path class="st0" d="M1007-317.7v83.4"/>
	<path class="st0" d="M1014.8-313.8v75.5"/>
	<path class="st0" d="M1022.5-322.9v93.7"/>
	<path class="st0" d="M1030.3-310.9v69.8"/>
	<path class="st0" d="M1038.1-297.4v42.9"/>
	<path class="st0" d="M1045.8-294.7v37.4"/>
	<path class="st0" d="M1053.6-279.1v6.2"/>
	<path class="st0" d="M1061.3-278.6v5.2"/>
	<path class="st0" d="M1069.1-279.2v6.3"/>
	<path class="st0" d="M1076.9-294.3v36.5"/>
	<path class="st0" d="M1084.6-293.4v34.8"/>
	<path class="st0" d="M1092.4-290.7v29.4"/>
	<path class="st0" d="M1100.1-281.1v10.3"/>
	<path class="st0" d="M1107.9-289.2v26.3"/>
	<path class="st0" d="M1115.7-301v49.9"/>
	<path class="st0" d="M1123.4-322.6v93.2"/>
	<path class="st0" d="M1131.2-316.6v81.2"/>
	<path class="st0" d="M1138.9-330.3v108.5"/>
	<path class="st0" d="M1146.7-301.6v51.2"/>
	<path class="st0" d="M1154.5-299.6v47.3"/>
	<path class="st0" d="M1162.2-302v51.9"/>
	<path class="st0" d="M1170-294v36.1"/>
	<path class="st0" d="M1177.7-304.6v57.2"/>
	<path class="st0" d="M1185.5-317.9v83.7"/>
	<path class="st0" d="M1193.3-309.3v66.6"/>
	<path class="st0" d="M1201-283.9v15.9"/>
	<path class="st0" d="M1208.8-279.4v6.7"/>
	<path class="st0" d="M1216.5-285.8v19.5"/>
	<path class="st0" d="M1224.3-311.3v70.7"/>
	<path class="st0" d="M1232.1-302.8v53.5"/>
	<path class="st0" d="M1239.8-329.2v106.5"/>
	<path class="st0" d="M1247.6-307.9v63.8"/>
	<path class="st0" d="M1255.3-329.6v107.3"/>
	<path class="st0" d="M1263.1-314.5v77"/>
	<path class="st0" d="M1270.8-305.6v59.2"/>
	<path class="st0" d="M1278.6-320.6v89.2"/>
	<path class="st0" d="M1286.4-322.4v92.8"/>
	<path class="st0" d="M1294.1-319.2v86.3"/>
	<path class="st0" d="M1301.9-291.2v30.3"/>
	<path class="st0" d="M1309.6-316.1v80.2"/>
	<path class="st0" d="M1317.4-303.5v54.9"/>
	<path class="st0" d="M1325.2-281.3v10.6"/>
	<path class="st0" d="M1332.9-278.7v5.3"/>
	<path class="st0" d="M1340.7-277.7v3.3"/>
	<path class="st0" d="M1348.4-318.1v84.2"/>
	<path class="st0" d="M1356.2-332.3v112.6"/>
	<path class="st0" d="M1364-331.3v110.6"/>
	<path class="st0" d="M1371.7-325.9v99.8"/>
	<path class="st0" d="M1379.5-295.5v38.9"/>
	<path class="st0" d="M1387.2-306.1v60.2"/>
	<path class="st0" d="M1395-286.2v20.4"/>
</g>
</svg>
