<?xml version="1.0" encoding="utf-8"?>
<!-- Generator: Adobe Illustrator 22.0.0, SVG Export Plug-In . SVG Version: 6.00 Build 0)  -->
<svg version="1.1" id="Layer_1" xmlns="http://www.w3.org/2000/svg" xmlns:xlink="http://www.w3.org/1999/xlink" x="0px" y="0px"
	 viewBox="0 0 1400 180" style="enable-background:new 0 0 1400 180;" xml:space="preserve">
<style type="text/css">
	.st0{fill:none;stroke:#FFD040;stroke-width:3.2985;stroke-linecap:round;stroke-miterlimit:10;}
</style>
<g transform="scale(1,1)">
</g>
<g transform="translate(0,503)">
	<path class="st0" d="M7.7-425.6v25.1"/>
	<path class="st0" d="M14.3-450v73.9"/>
	<path class="st0" d="M20.9-467.5v109.1"/>
	<path class="st0" d="M27.5-450.9v75.8"/>
	<path class="st0" d="M34.1-452.2v78.3"/>
	<path class="st0" d="M40.7-462.1v98.3"/>
	<path class="st0" d="M47.3-453.3v80.7"/>
	<path class="st0" d="M53.9-450.4v74.8"/>
	<path class="st0" d="M60.5-438.9v51.8"/>
	<path class="st0" d="M67.1-435.8v45.6"/>
	<path class="st0" d="M73.7-426.3v26.7"/>
	<path class="st0" d="M80.3-426.5v27"/>
	<path class="st0" d="M86.9-445.1v64.1"/>
	<path class="st0" d="M93.5-449.6v73.2"/>
	<path class="st0" d="M100.1-447v67.9"/>
	<path class="st0" d="M106.7-446.5v67.1"/>
	<path class="st0" d="M113.3-430.4v34.8"/>
	<path class="st0" d="M119.9-423.1v20.1"/>
	<path class="st0" d="M126.5-422.2v18.5"/>
	<path class="st0" d="M133.1-424v21.9"/>
	<path class="st0" d="M139.7-422.6v19.3"/>
	<path class="st0" d="M146.3-425v24.1"/>
	<path class="st0" d="M152.9-446.4v66.8"/>
	<path class="st0" d="M159.5-461.3v96.5"/>
	<path class="st0" d="M166.1-451.6v77.1"/>
	<path class="st0" d="M172.7-430.6v35.1"/>
	<path class="st0" d="M179.3-431.8v37.6"/>
	<path class="st0" d="M185.9-440.4v54.8"/>
	<path class="st0" d="M192.5-457.6v89.1"/>
	<path class="st0" d="M199.1-450.5v75.1"/>
	<path class="st0" d="M205.7-446.1v66.2"/>
	<path class="st0" d="M212.2-432.1v38.2"/>
	<path class="st0" d="M218.8-424.2v22.4"/>
	<path class="st0" d="M225.4-420.8v15.6"/>
	<path class="st0" d="M232-425.7v25.4"/>
	<path class="st0" d="M238.6-444.6v63.2"/>
	<path class="st0" d="M245.2-437.8v49.5"/>
	<path class="st0" d="M251.8-420.3v14.5"/>
	<path class="st0" d="M258.4-413.4v0.7"/>
	<path class="st0" d="M265-413.2v0.5"/>
	<path class="st0" d="M271.6-413.1v0.2"/>
	<path class="st0" d="M278.2-413.1v0.1"/>
	<path class="st0" d="M284.8-415.6v5.2"/>
	<path class="st0" d="M291.4-430.9v35.8"/>
	<path class="st0" d="M298-432.6v39.2"/>
	<path class="st0" d="M304.6-423.7v21.3"/>
	<path class="st0" d="M311.2-415.4v4.7"/>
	<path class="st0" d="M317.8-422.9v19.8"/>
	<path class="st0" d="M324.4-443.6v61.3"/>
	<path class="st0" d="M331-459.1v92.2"/>
	<path class="st0" d="M337.6-479.3v132.6"/>
	<path class="st0" d="M344.2-470.3v114.5"/>
	<path class="st0" d="M350.8-463.1v100.1"/>
	<path class="st0" d="M357.4-445.1v64.3"/>
	<path class="st0" d="M364-434.9v43.8"/>
	<path class="st0" d="M370.6-449.5v72.9"/>
	<path class="st0" d="M377.2-465V-361"/>
	<path class="st0" d="M383.8-455.6v85.2"/>
	<path class="st0" d="M390.4-445v64"/>
	<path class="st0" d="M397-451.3v76.5"/>
	<path class="st0" d="M403.6-452.2v78.3"/>
	<path class="st0" d="M410.2-447.9v69.9"/>
	<path class="st0" d="M416.8-447.9v69.8"/>
	<path class="st0" d="M423.4-428.3v30.7"/>
	<path class="st0" d="M429.9-430v34.1"/>
	<path class="st0" d="M436.5-431.8v37.6"/>
	<path class="st0" d="M443.1-431.9v37.7"/>
	<path class="st0" d="M449.7-431.5v37.1"/>
	<path class="st0" d="M456.3-447.5v69"/>
	<path class="st0" d="M462.9-450.8v75.5"/>
	<path class="st0" d="M469.5-454.6v83.2"/>
	<path class="st0" d="M476.1-460v94.1"/>
	<path class="st0" d="M482.7-432.1v38.2"/>
	<path class="st0" d="M489.3-423.8v21.6"/>
	<path class="st0" d="M495.9-434.6v43.2"/>
	<path class="st0" d="M502.5-427.7v29.4"/>
	<path class="st0" d="M509.1-421.7v17.5"/>
	<path class="st0" d="M515.7-430.3v34.5"/>
	<path class="st0" d="M522.3-437.4v48.8"/>
	<path class="st0" d="M528.9-436.1v46.3"/>
	<path class="st0" d="M535.5-425.4v24.8"/>
	<path class="st0" d="M542.1-434v42.1"/>
	<path class="st0" d="M548.7-427.9v29.8"/>
	<path class="st0" d="M555.3-427.1v28.3"/>
	<path class="st0" d="M561.9-430v34.1"/>
	<path class="st0" d="M568.5-424.5v23"/>
	<path class="st0" d="M575.1-428.2v30.5"/>
	<path class="st0" d="M581.7-428v30.1"/>
	<path class="st0" d="M588.3-437.2v48.5"/>
	<path class="st0" d="M594.9-427.2v28.4"/>
	<path class="st0" d="M601.5-424.3v22.7"/>
	<path class="st0" d="M608.1-433.4v40.8"/>
	<path class="st0" d="M614.7-446.4v66.9"/>
	<path class="st0" d="M621.3-443.5v61.1"/>
	<path class="st0" d="M627.9-428.8v31.7"/>
	<path class="st0" d="M634.5-423.9v21.8"/>
	<path class="st0" d="M641.1-425.3v24.6"/>
	<path class="st0" d="M647.6-433.9v41.8"/>
	<path class="st0" d="M654.2-425.7v25.4"/>
	<path class="st0" d="M660.8-423.5v21"/>
	<path class="st0" d="M667.4-438.7v51.3"/>
	<path class="st0" d="M674-436.1v46.2"/>
	<path class="st0" d="M680.6-431.3v36.7"/>
	<path class="st0" d="M687.2-428.5v31.1"/>
	<path class="st0" d="M693.8-419v12.1"/>
	<path class="st0" d="M700.4-416.1v6.2"/>
	<path class="st0" d="M707-423.2v20.4"/>
	<path class="st0" d="M713.6-429.9v33.8"/>
	<path class="st0" d="M720.2-431.8v37.6"/>
	<path class="st0" d="M726.8-424.2v22.3"/>
	<path class="st0" d="M733.4-424.5v23"/>
	<path class="st0" d="M740-421.1v16.2"/>
	<path class="st0" d="M746.6-434.1v42.2"/>
	<path class="st0" d="M753.2-426.6v27.2"/>
	<path class="st0" d="M759.8-421.1v16.2"/>
	<path class="st0" d="M766.4-424.2v22.5"/>
	<path class="st0" d="M773-418.7v11.5"/>
	<path class="st0" d="M779.6-440.2v54.4"/>
	<path class="st0" d="M786.2-437.7v49.3"/>
	<path class="st0" d="M792.8-419.2v12.3"/>
	<path class="st0" d="M799.4-453.7v81.4"/>
	<path class="st0" d="M806-427.5v29"/>
	<path class="st0" d="M812.6-420.3v14.6"/>
	<path class="st0" d="M819.2-423.6v21.3"/>
	<path class="st0" d="M825.8-444.7v63.4"/>
	<path class="st0" d="M832.4-451v76"/>
	<path class="st0" d="M839-450.5v75.1"/>
	<path class="st0" d="M845.6-456.4v86.9"/>
	<path class="st0" d="M852.2-446.7v67.4"/>
	<path class="st0" d="M858.7-420.6v15.3"/>
	<path class="st0" d="M865.3-422.3v18.5"/>
	<path class="st0" d="M871.9-422.4v18.7"/>
	<path class="st0" d="M878.5-427v27.9"/>
	<path class="st0" d="M885.1-454.2v82.4"/>
	<path class="st0" d="M891.7-465.5v105"/>
	<path class="st0" d="M898.3-456.7v87.4"/>
	<path class="st0" d="M904.9-426.5v26.9"/>
	<path class="st0" d="M911.5-429.4v32.8"/>
	<path class="st0" d="M918.1-431.5v37.1"/>
	<path class="st0" d="M924.7-444.2v62.4"/>
	<path class="st0" d="M931.3-439.3v52.7"/>
	<path class="st0" d="M937.9-418.9v11.8"/>
	<path class="st0" d="M944.5-416.4v6.8"/>
	<path class="st0" d="M951.1-426.7v27.3"/>
	<path class="st0" d="M957.7-416.1v6.2"/>
	<path class="st0" d="M964.3-426.5v27.1"/>
	<path class="st0" d="M970.9-419.9v13.8"/>
	<path class="st0" d="M977.5-442.2v58.5"/>
	<path class="st0" d="M984.1-443v60"/>
	<path class="st0" d="M990.7-447.8v69.7"/>
	<path class="st0" d="M997.3-433.9v41.8"/>
	<path class="st0" d="M1003.9-448.1v70.2"/>
	<path class="st0" d="M1010.5-453.5v81"/>
	<path class="st0" d="M1017.1-436.1v46.3"/>
	<path class="st0" d="M1023.7-427.7v29.4"/>
	<path class="st0" d="M1030.3-457.5v88.9"/>
	<path class="st0" d="M1036.9-450.9v75.8"/>
	<path class="st0" d="M1043.5-441.4v56.9"/>
	<path class="st0" d="M1050.1-433.1v40.2"/>
	<path class="st0" d="M1056.7-419.7v13.3"/>
	<path class="st0" d="M1063.3-416v5.9"/>
	<path class="st0" d="M1069.9-416.6v7.2"/>
	<path class="st0" d="M1076.4-414.5v2.9"/>
	<path class="st0" d="M1083-434.6v43.1"/>
	<path class="st0" d="M1089.6-442.2v58.5"/>
	<path class="st0" d="M1096.2-445.5v65"/>
	<path class="st0" d="M1102.8-446.2v66.3"/>
	<path class="st0" d="M1109.4-423.2v20.3"/>
	<path class="st0" d="M1116-443.5v61"/>
	<path class="st0" d="M1122.6-449.9v73.7"/>
	<path class="st0" d="M1129.2-422.9v19.8"/>
	<path class="st0" d="M1135.8-455.8v85.5"/>
	<path class="st0" d="M1142.4-447.8v69.5"/>
	<path class="st0" d="M1149-452.6v79.3"/>
	<path class="st0" d="M1155.6-436v45.9"/>
	<path class="st0" d="M1162.2-425.7v25.4"/>
	<path class="st0" d="M1168.8-458.2v90.5"/>
	<path class="st0" d="M1175.4-435.3v44.6"/>
	<path class="st0" d="M1182-433.5v41"/>
	<path class="st0" d="M1188.6-426.6v27.3"/>
	<path class="st0" d="M1195.2-450.7v75.5"/>
	<path class="st0" d="M1201.8-452.7v79.4"/>
	<path class="st0" d="M1208.4-424.3v22.5"/>
	<path class="st0" d="M1215-438.9v51.8"/>
	<path class="st0" d="M1221.6-447.1v68.2"/>
	<path class="st0" d="M1228.2-436.7v47.3"/>
	<path class="st0" d="M1234.8-420.1v14.1"/>
	<path class="st0" d="M1241.4-414.7v3.5"/>
	<path class="st0" d="M1248-413.9v1.8"/>
	<path class="st0" d="M1254.6-413.8v1.5"/>
	<path class="st0" d="M1261.2-413.6v1.3"/>
	<path class="st0" d="M1267.8-413.3v0.6"/>
	<path class="st0" d="M1274.4-414.7v3.4"/>
	<path class="st0" d="M1281-421.5v17"/>
	<path class="st0" d="M1287.5-425.7v25.4"/>
	<path class="st0" d="M1294.1-433.6v41.2"/>
	<path class="st0" d="M1300.7-450.3v74.6"/>
	<path class="st0" d="M1307.3-431.5v37.1"/>
	<path class="st0" d="M1313.9-447.5v69"/>
	<path class="st0" d="M1320.5-442.7v59.3"/>
	<path class="st0" d="M1327.1-434.2v42.4"/>
	<path class="st0" d="M1333.7-425.9v25.9"/>
	<path class="st0" d="M1340.3-437.5v48.9"/>
	<path class="st0" d="M1346.9-426.6v27.3"/>
	<path class="st0" d="M1353.5-422.2v18.4"/>
	<path class="st0" d="M1360.1-417.3v8.5"/>
	<path class="st0" d="M1366.7-419.2v12.4"/>
	<path class="st0" d="M1373.3-414.5v2.9"/>
	<path class="st0" d="M1379.9-413.3v0.7"/>
	<path class="st0" d="M1386.5-413.2v0.4"/>
	<path class="st0" d="M1393.1-413.1v0.1"/>
</g>
</svg>
