<?xml version="1.0" encoding="utf-8"?>
<!-- Generator: Adobe Illustrator 22.0.0, SVG Export Plug-In . SVG Version: 6.00 Build 0)  -->
<svg version="1.1" id="Layer_1" xmlns="http://www.w3.org/2000/svg" xmlns:xlink="http://www.w3.org/1999/xlink" x="0px" y="0px"
	 viewBox="0 0 1400 180" style="enable-background:new 0 0 1400 180;" xml:space="preserve">
<style type="text/css">
	.st0{fill:none;stroke:#FFD040;stroke-width:3.0315;stroke-linecap:round;stroke-miterlimit:10;}
</style>
<g transform="scale(1,1)">
</g>
<g transform="translate(0,366)">
	<path class="st0" d="M0-276L0-276"/>
	<path class="st0" d="M6.5-322.6v93.2"/>
	<path class="st0" d="M12.9-311.8v71.5"/>
	<path class="st0" d="M19.4-327.6v103.2"/>
	<path class="st0" d="M25.8-317.7v83.5"/>
	<path class="st0" d="M32.3-317v82"/>
	<path class="st0" d="M38.7-316.7v81.4"/>
	<path class="st0" d="M45.2-304.2v56.4"/>
	<path class="st0" d="M51.6-287.6v23.2"/>
	<path class="st0" d="M58.1-290.3v28.6"/>
	<path class="st0" d="M64.5-295.9v39.8"/>
	<path class="st0" d="M71-292v31.9"/>
	<path class="st0" d="M77.4-320.6v89.2"/>
	<path class="st0" d="M83.9-305.3v58.7"/>
	<path class="st0" d="M90.4-292v31.9"/>
	<path class="st0" d="M96.8-290.1v28.2"/>
	<path class="st0" d="M103.3-285.6v19.3"/>
	<path class="st0" d="M109.7-277.8v3.7"/>
	<path class="st0" d="M116.2-289.9v27.8"/>
	<path class="st0" d="M122.6-306.2v60.3"/>
	<path class="st0" d="M129.1-278.9v5.8"/>
	<path class="st0" d="M135.5-276.4v0.7"/>
	<path class="st0" d="M142-308v63.9"/>
	<path class="st0" d="M148.4-333.9v115.7"/>
	<path class="st0" d="M154.9-317.5v83"/>
	<path class="st0" d="M161.3-311.3v70.6"/>
	<path class="st0" d="M167.8-292.5v33"/>
	<path class="st0" d="M174.3-293.8v35.6"/>
	<path class="st0" d="M180.7-287.8v23.7"/>
	<path class="st0" d="M187.2-277.6v3.2"/>
	<path class="st0" d="M193.6-304.3v56.6"/>
	<path class="st0" d="M200.1-312.2v72.3"/>
	<path class="st0" d="M206.5-307.8v63.6"/>
	<path class="st0" d="M213-303v54.1"/>
	<path class="st0" d="M219.4-289.5v27"/>
	<path class="st0" d="M225.9-311.3v70.6"/>
	<path class="st0" d="M232.3-293.1v34.1"/>
	<path class="st0" d="M238.8-337.2v122.3"/>
	<path class="st0" d="M245.2-308.6v65.2"/>
	<path class="st0" d="M251.7-316.7v81.4"/>
	<path class="st0" d="M258.1-324.2v96.4"/>
	<path class="st0" d="M264.6-323.2v94.4"/>
	<path class="st0" d="M271.1-292.2v32.4"/>
	<path class="st0" d="M277.5-297.3v42.6"/>
	<path class="st0" d="M284-291.8v31.5"/>
	<path class="st0" d="M290.4-291.3v30.6"/>
	<path class="st0" d="M296.9-285.4v18.9"/>
	<path class="st0" d="M303.3-277.4v2.8"/>
	<path class="st0" d="M309.8-277.3v2.7"/>
	<path class="st0" d="M316.2-312.2v72.4"/>
	<path class="st0" d="M322.7-306v59.9"/>
	<path class="st0" d="M329.1-324.9v97.8"/>
	<path class="st0" d="M335.6-328.8v105.6"/>
	<path class="st0" d="M342-297.5v43"/>
	<path class="st0" d="M348.5-286.4v20.8"/>
	<path class="st0" d="M355-327.2v102.3"/>
	<path class="st0" d="M361.4-307v62"/>
	<path class="st0" d="M367.9-310.1v68.2"/>
	<path class="st0" d="M374.3-311.5v71.1"/>
	<path class="st0" d="M380.8-278.7v5.4"/>
	<path class="st0" d="M387.2-312.1v72.2"/>
	<path class="st0" d="M393.7-308.1v64.2"/>
	<path class="st0" d="M400.1-282v12"/>
	<path class="st0" d="M406.6-313v74"/>
	<path class="st0" d="M413-295.9v39.9"/>
	<path class="st0" d="M419.5-293.3v34.6"/>
	<path class="st0" d="M425.9-296.4v40.7"/>
	<path class="st0" d="M432.4-278.3v4.7"/>
	<path class="st0" d="M438.9-292v32"/>
	<path class="st0" d="M445.3-316.7v81.4"/>
	<path class="st0" d="M451.8-295.1v38.2"/>
	<path class="st0" d="M458.2-333.3v114.5"/>
	<path class="st0" d="M464.7-311.9v71.8"/>
	<path class="st0" d="M471.1-305.3v58.6"/>
	<path class="st0" d="M477.6-303.9v55.8"/>
	<path class="st0" d="M484-291.7v31.4"/>
	<path class="st0" d="M490.5-287.3v22.6"/>
	<path class="st0" d="M496.9-309.6v67.2"/>
	<path class="st0" d="M503.4-314.6v77.2"/>
	<path class="st0" d="M509.8-299.3v46.7"/>
	<path class="st0" d="M516.3-291.5v30.9"/>
	<path class="st0" d="M522.8-277.3v2.5"/>
	<path class="st0" d="M529.2-323.4v94.7"/>
	<path class="st0" d="M535.7-315.5v79"/>
	<path class="st0" d="M542.1-297.7v43.4"/>
	<path class="st0" d="M548.6-295.5v39"/>
	<path class="st0" d="M555-305.4v58.8"/>
	<path class="st0" d="M561.5-302.7v53.5"/>
	<path class="st0" d="M567.9-304v56"/>
	<path class="st0" d="M574.4-283.4v14.9"/>
	<path class="st0" d="M580.8-324v95.9"/>
	<path class="st0" d="M587.3-326.7v101.4"/>
	<path class="st0" d="M593.7-295.2v38.3"/>
	<path class="st0" d="M600.2-299.9v47.7"/>
	<path class="st0" d="M606.6-319.2v86.5"/>
	<path class="st0" d="M613.1-287.5v23"/>
	<path class="st0" d="M619.6-297.5v43.1"/>
	<path class="st0" d="M626-281.4v10.8"/>
	<path class="st0" d="M632.5-319.9v87.8"/>
	<path class="st0" d="M638.9-307v62"/>
	<path class="st0" d="M645.4-318.9v85.8"/>
	<path class="st0" d="M651.8-304.2v56.3"/>
	<path class="st0" d="M658.3-289.1v26.1"/>
	<path class="st0" d="M664.7-302.2v52.3"/>
	<path class="st0" d="M671.2-315.1v78.1"/>
	<path class="st0" d="M677.6-293v33.9"/>
	<path class="st0" d="M684.1-278.2v4.4"/>
	<path class="st0" d="M690.5-278.3v4.6"/>
	<path class="st0" d="M697-307.3v62.5"/>
	<path class="st0" d="M703.5-314.8v77.7"/>
	<path class="st0" d="M709.9-306.5v60.9"/>
	<path class="st0" d="M716.4-304.8v57.6"/>
	<path class="st0" d="M722.8-297v42"/>
	<path class="st0" d="M729.3-297.7v43.4"/>
	<path class="st0" d="M735.7-277.2v2.4"/>
	<path class="st0" d="M742.2-310.5v69"/>
	<path class="st0" d="M748.6-303.6v55.2"/>
	<path class="st0" d="M755.1-282.1v12.2"/>
	<path class="st0" d="M761.5-320.1v88.2"/>
	<path class="st0" d="M768-308.9v65.8"/>
	<path class="st0" d="M774.4-314.4v76.7"/>
	<path class="st0" d="M780.9-295v38"/>
	<path class="st0" d="M787.4-284.3v16.7"/>
	<path class="st0" d="M793.8-288.9v25.8"/>
	<path class="st0" d="M800.3-306.6v61.1"/>
	<path class="st0" d="M806.7-302.7v53.4"/>
	<path class="st0" d="M813.2-334.9v117.8"/>
	<path class="st0" d="M819.6-315.9v79.8"/>
	<path class="st0" d="M826.1-318.9v85.8"/>
	<path class="st0" d="M832.5-294v36"/>
	<path class="st0" d="M839-302.9v53.9"/>
	<path class="st0" d="M845.4-294.1v36.1"/>
	<path class="st0" d="M851.9-282.2v12.4"/>
	<path class="st0" d="M858.3-292.6v33.2"/>
	<path class="st0" d="M864.8-284.1v16.1"/>
	<path class="st0" d="M871.2-278.4v4.7"/>
	<path class="st0" d="M877.7-277.2v2.4"/>
	<path class="st0" d="M884.2-295v38"/>
	<path class="st0" d="M890.6-304v56"/>
	<path class="st0" d="M897.1-321.2v90.4"/>
	<path class="st0" d="M903.5-304.7v57.4"/>
	<path class="st0" d="M910-309v66"/>
	<path class="st0" d="M916.4-308.7v65.5"/>
	<path class="st0" d="M922.9-318.5v84.9"/>
	<path class="st0" d="M929.3-302.1v52.3"/>
	<path class="st0" d="M935.8-293.9v35.8"/>
	<path class="st0" d="M942.2-280.7v9.3"/>
	<path class="st0" d="M948.7-295v37.9"/>
	<path class="st0" d="M955.1-317.4v82.8"/>
	<path class="st0" d="M961.6-317.6v83.1"/>
	<path class="st0" d="M968.1-296v40"/>
	<path class="st0" d="M974.5-295v38"/>
	<path class="st0" d="M981-317.4v82.9"/>
	<path class="st0" d="M987.4-298.9v45.7"/>
	<path class="st0" d="M993.9-292.7v33.5"/>
	<path class="st0" d="M1000.3-293.2v34.3"/>
	<path class="st0" d="M1006.8-296.6v41.2"/>
	<path class="st0" d="M1013.2-303.5v55"/>
	<path class="st0" d="M1019.7-288.9v25.9"/>
	<path class="st0" d="M1026.1-288.6v25.2"/>
	<path class="st0" d="M1032.6-293.6v35.2"/>
	<path class="st0" d="M1039-296.3v40.6"/>
	<path class="st0" d="M1045.5-307.6v63.3"/>
	<path class="st0" d="M1052-292.5v33.1"/>
	<path class="st0" d="M1058.4-292.9v33.7"/>
	<path class="st0" d="M1064.9-289.2v26.5"/>
	<path class="st0" d="M1071.3-277v2.1"/>
	<path class="st0" d="M1077.8-288.2v24.4"/>
	<path class="st0" d="M1084.2-304.9v57.8"/>
	<path class="st0" d="M1090.7-313.9v75.9"/>
	<path class="st0" d="M1097.1-285.6v19.1"/>
	<path class="st0" d="M1103.6-277.2v2.3"/>
	<path class="st0" d="M1110-297.6v43.1"/>
	<path class="st0" d="M1116.5-299.2v46.3"/>
	<path class="st0" d="M1122.9-308.9v65.9"/>
	<path class="st0" d="M1129.4-310.6v69.2"/>
	<path class="st0" d="M1135.9-284.8v17.5"/>
	<path class="st0" d="M1142.3-317v82"/>
	<path class="st0" d="M1148.8-301.4v50.8"/>
	<path class="st0" d="M1155.2-295.6v39.1"/>
	<path class="st0" d="M1161.7-280v7.9"/>
	<path class="st0" d="M1168.1-277.2v2.4"/>
	<path class="st0" d="M1174.6-278.7v5.4"/>
	<path class="st0" d="M1181-303v53.9"/>
	<path class="st0" d="M1187.5-301.9v51.7"/>
	<path class="st0" d="M1193.9-290.7v29.4"/>
	<path class="st0" d="M1200.4-278v3.9"/>
	<path class="st0" d="M1206.8-308.7v65.5"/>
	<path class="st0" d="M1213.3-330.8v109.6"/>
	<path class="st0" d="M1219.8-295.4v38.7"/>
	<path class="st0" d="M1226.2-298.7v45.5"/>
	<path class="st0" d="M1232.7-321.1v90.2"/>
	<path class="st0" d="M1239.1-300.2v48.3"/>
	<path class="st0" d="M1245.6-300.6v49.3"/>
	<path class="st0" d="M1252-303.3v54.5"/>
	<path class="st0" d="M1258.5-279v6.1"/>
	<path class="st0" d="M1264.9-317.7v83.3"/>
	<path class="st0" d="M1271.4-321.6v91.3"/>
	<path class="st0" d="M1277.8-318.3v84.5"/>
	<path class="st0" d="M1284.3-307.1v62.3"/>
	<path class="st0" d="M1290.7-291.6v31.1"/>
	<path class="st0" d="M1297.2-300v48"/>
	<path class="st0" d="M1303.6-314v75.9"/>
	<path class="st0" d="M1310.1-321.5v91.1"/>
	<path class="st0" d="M1316.6-308.8v65.5"/>
	<path class="st0" d="M1323-289.3v26.6"/>
	<path class="st0" d="M1329.5-282.5v13.1"/>
	<path class="st0" d="M1335.9-304.8v57.6"/>
	<path class="st0" d="M1342.4-308.9v65.9"/>
	<path class="st0" d="M1348.8-287.4v22.7"/>
	<path class="st0" d="M1355.3-300.9v49.9"/>
	<path class="st0" d="M1361.7-293.3v34.6"/>
	<path class="st0" d="M1368.2-284.7v17.4"/>
	<path class="st0" d="M1374.6-284.2v16.3"/>
	<path class="st0" d="M1381.1-329.9v107.9"/>
	<path class="st0" d="M1387.5-311.5v71"/>
	<path class="st0" d="M1394-299.5v46.9"/>
</g>
</svg>
