<?xml version="1.0" encoding="utf-8"?>
<!-- Generator: Adobe Illustrator 22.0.0, SVG Export Plug-In . SVG Version: 6.00 Build 0)  -->
<svg version="1.1" id="Layer_1" xmlns="http://www.w3.org/2000/svg" xmlns:xlink="http://www.w3.org/1999/xlink" x="0px" y="0px"
	 viewBox="0 0 1400 180" style="enable-background:new 0 0 1400 180;" xml:space="preserve">
<style type="text/css">
	.st0{fill:none;stroke:#FFD040;stroke-width:3.9225;stroke-linecap:round;stroke-miterlimit:10;}
</style>
<g transform="scale(1,1)">
</g>
<g transform="translate(0,503)">
	<path class="st0" d="M1.6-413.3v0.6"/>
	<path class="st0" d="M9.4-426.6v27.2"/>
	<path class="st0" d="M17.3-451.5v76.9"/>
	<path class="st0" d="M25.1-443.5v61"/>
	<path class="st0" d="M33-435v44"/>
	<path class="st0" d="M40.8-425v23.9"/>
	<path class="st0" d="M48.7-431.9v37.7"/>
	<path class="st0" d="M56.5-416.9v7.8"/>
	<path class="st0" d="M64.3-430.6v35.2"/>
	<path class="st0" d="M72.2-439.4v52.8"/>
	<path class="st0" d="M80-450.2v74.3"/>
	<path class="st0" d="M87.9-438.9v51.9"/>
	<path class="st0" d="M95.7-431.3v36.5"/>
	<path class="st0" d="M103.6-434.4v42.8"/>
	<path class="st0" d="M111.4-442v58"/>
	<path class="st0" d="M119.3-418.6v11.3"/>
	<path class="st0" d="M127.1-416.5v6.9"/>
	<path class="st0" d="M135-416.5v7"/>
	<path class="st0" d="M142.8-421.9v17.7"/>
	<path class="st0" d="M150.6-449.9v73.8"/>
	<path class="st0" d="M158.5-449.3v72.7"/>
	<path class="st0" d="M166.3-448.9v71.9"/>
	<path class="st0" d="M174.2-463.9v101.8"/>
	<path class="st0" d="M182-432.9v39.9"/>
	<path class="st0" d="M189.9-430v33.9"/>
	<path class="st0" d="M197.7-416.5v7"/>
	<path class="st0" d="M205.6-416.8v7.5"/>
	<path class="st0" d="M213.4-432.7v39.5"/>
	<path class="st0" d="M221.2-446.1v66.2"/>
	<path class="st0" d="M229.1-435.3v44.6"/>
	<path class="st0" d="M236.9-438.9v51.8"/>
	<path class="st0" d="M244.8-444.7v63.5"/>
	<path class="st0" d="M252.6-441.8v57.5"/>
	<path class="st0" d="M260.5-444.2v62.4"/>
	<path class="st0" d="M268.3-440.3v54.5"/>
	<path class="st0" d="M276.2-441.3v56.5"/>
	<path class="st0" d="M284-443.3v60.7"/>
	<path class="st0" d="M291.9-425.3v24.6"/>
	<path class="st0" d="M299.7-416.4v6.7"/>
	<path class="st0" d="M307.5-416.9v7.7"/>
	<path class="st0" d="M315.4-439.4v52.8"/>
	<path class="st0" d="M323.2-442.9v59.9"/>
	<path class="st0" d="M331.1-440.9v55.7"/>
	<path class="st0" d="M338.9-443.2v60.4"/>
	<path class="st0" d="M346.8-432.8v39.5"/>
	<path class="st0" d="M354.6-426.9v27.7"/>
	<path class="st0" d="M362.5-425.9v25.7"/>
	<path class="st0" d="M370.3-416.4v6.8"/>
	<path class="st0" d="M378.1-414.9v3.8"/>
	<path class="st0" d="M386-415.7v5.5"/>
	<path class="st0" d="M393.8-438.6v51.2"/>
	<path class="st0" d="M401.7-431.7v37.3"/>
	<path class="st0" d="M409.5-420.2v14.4"/>
	<path class="st0" d="M417.4-456.8v87.5"/>
	<path class="st0" d="M425.2-466.5v107.1"/>
	<path class="st0" d="M433.1-454v82.1"/>
	<path class="st0" d="M440.9-428.7v31.4"/>
	<path class="st0" d="M448.8-435.2v44.4"/>
	<path class="st0" d="M456.6-449.3v72.5"/>
	<path class="st0" d="M464.4-437.8v49.6"/>
	<path class="st0" d="M472.3-456.5v87"/>
	<path class="st0" d="M480.1-452.8v79.6"/>
	<path class="st0" d="M488-455.8v85.5"/>
	<path class="st0" d="M495.8-418.3v10.7"/>
	<path class="st0" d="M503.7-433.3v40.5"/>
	<path class="st0" d="M511.5-439.5v53"/>
	<path class="st0" d="M519.4-440.1v54.2"/>
	<path class="st0" d="M527.2-440.2v54.4"/>
	<path class="st0" d="M535-426.2v26.4"/>
	<path class="st0" d="M542.9-414.3v2.6"/>
	<path class="st0" d="M550.7-428.4v30.9"/>
	<path class="st0" d="M558.6-438.2v50.4"/>
	<path class="st0" d="M566.4-442.3v58.6"/>
	<path class="st0" d="M574.3-415.1v4.2"/>
	<path class="st0" d="M582.1-414v2"/>
	<path class="st0" d="M590-413.8v1.7"/>
	<path class="st0" d="M597.8-413.7v1.4"/>
	<path class="st0" d="M605.7-431.7v37.4"/>
	<path class="st0" d="M613.5-440.4v54.8"/>
	<path class="st0" d="M621.3-443.2v60.3"/>
	<path class="st0" d="M629.2-437.7v49.4"/>
	<path class="st0" d="M637-431.4v36.7"/>
	<path class="st0" d="M644.9-420.3v14.6"/>
	<path class="st0" d="M652.7-441.2v56.4"/>
	<path class="st0" d="M660.6-458.3v90.6"/>
	<path class="st0" d="M668.4-427.9v29.9"/>
	<path class="st0" d="M676.3-429.8v33.6"/>
	<path class="st0" d="M684.1-428.4v30.8"/>
	<path class="st0" d="M691.9-416.4v6.8"/>
	<path class="st0" d="M699.8-415.9v5.9"/>
	<path class="st0" d="M707.6-446.3v66.6"/>
	<path class="st0" d="M715.5-439.9v53.8"/>
	<path class="st0" d="M723.3-429.6v33.2"/>
	<path class="st0" d="M731.2-413.8v1.7"/>
	<path class="st0" d="M739-448.1v70.2"/>
	<path class="st0" d="M746.9-457.1v88.2"/>
	<path class="st0" d="M754.7-437.4v48.8"/>
	<path class="st0" d="M762.6-421.1v16.2"/>
	<path class="st0" d="M770.4-446.9v67.8"/>
	<path class="st0" d="M778.2-458.4v90.7"/>
	<path class="st0" d="M786.1-461.5v97.1"/>
	<path class="st0" d="M793.9-437.9v49.7"/>
	<path class="st0" d="M801.8-445v64.1"/>
	<path class="st0" d="M809.6-448.4v70.8"/>
	<path class="st0" d="M817.5-416.8v7.5"/>
	<path class="st0" d="M825.3-414v1.9"/>
	<path class="st0" d="M833.2-413.7v1.4"/>
	<path class="st0" d="M841-463.4v100.9"/>
	<path class="st0" d="M848.8-458.8v91.5"/>
	<path class="st0" d="M856.7-440.9v55.8"/>
	<path class="st0" d="M864.5-437.6v49.2"/>
	<path class="st0" d="M872.4-446.7v67.4"/>
	<path class="st0" d="M880.2-438.3v50.6"/>
	<path class="st0" d="M888.1-427.7v29.3"/>
	<path class="st0" d="M895.9-433.4v40.8"/>
	<path class="st0" d="M903.8-422.7v19.4"/>
	<path class="st0" d="M911.6-414.5v3"/>
	<path class="st0" d="M919.5-445.8v65.7"/>
	<path class="st0" d="M927.3-437.4v48.7"/>
	<path class="st0" d="M935.1-443.4v60.7"/>
	<path class="st0" d="M943-428.4v30.8"/>
	<path class="st0" d="M950.8-446.8v67.5"/>
	<path class="st0" d="M958.7-429.1v32.2"/>
	<path class="st0" d="M966.5-416.7v7.3"/>
	<path class="st0" d="M974.4-435.5v45"/>
	<path class="st0" d="M982.2-439v52"/>
	<path class="st0" d="M990.1-438.2v50.4"/>
	<path class="st0" d="M997.9-441.1v56.2"/>
	<path class="st0" d="M1005.7-463.2v100.4"/>
	<path class="st0" d="M1013.6-447v67.9"/>
	<path class="st0" d="M1021.4-443.4v60.7"/>
	<path class="st0" d="M1029.3-417.1v8.1"/>
	<path class="st0" d="M1037.1-425.4v24.9"/>
	<path class="st0" d="M1045-459.4v92.8"/>
	<path class="st0" d="M1052.8-446.3v66.6"/>
	<path class="st0" d="M1060.7-458.2v90.5"/>
	<path class="st0" d="M1068.5-441.4v56.8"/>
	<path class="st0" d="M1076.4-422.1v18.3"/>
	<path class="st0" d="M1084.2-432.6v39.1"/>
	<path class="st0" d="M1092-457v88"/>
	<path class="st0" d="M1099.9-458.6v91.1"/>
	<path class="st0" d="M1107.7-446.1v66.1"/>
	<path class="st0" d="M1115.6-442.5v59.1"/>
	<path class="st0" d="M1123.4-444.9v63.8"/>
	<path class="st0" d="M1131.3-439v52"/>
	<path class="st0" d="M1139.1-435v44"/>
	<path class="st0" d="M1147-432.3v38.6"/>
	<path class="st0" d="M1154.8-421.7v17.4"/>
	<path class="st0" d="M1162.6-431.5v37"/>
	<path class="st0" d="M1170.5-435.6v45.2"/>
	<path class="st0" d="M1178.3-438.8v51.5"/>
	<path class="st0" d="M1186.2-419.4v12.7"/>
	<path class="st0" d="M1194-460.9v95.8"/>
	<path class="st0" d="M1201.9-417v8.1"/>
	<path class="st0" d="M1209.7-413.6v1.2"/>
	<path class="st0" d="M1217.6-425.4v24.7"/>
	<path class="st0" d="M1225.4-465.8v105.5"/>
	<path class="st0" d="M1233.3-459.3v92.6"/>
	<path class="st0" d="M1241.1-449.9v73.8"/>
	<path class="st0" d="M1248.9-439v51.9"/>
	<path class="st0" d="M1256.8-447.5v69.1"/>
	<path class="st0" d="M1264.6-436.7v47.4"/>
	<path class="st0" d="M1272.5-432.6v39.1"/>
	<path class="st0" d="M1280.3-435.1v44.1"/>
	<path class="st0" d="M1288.2-441.2v56.5"/>
	<path class="st0" d="M1296-440.7v55.5"/>
	<path class="st0" d="M1303.9-432.7v39.4"/>
	<path class="st0" d="M1311.7-436v46.1"/>
	<path class="st0" d="M1319.5-439.7v53.4"/>
	<path class="st0" d="M1327.4-435.3v44.5"/>
	<path class="st0" d="M1335.2-432.7v39.5"/>
	<path class="st0" d="M1343.1-423.1v20.3"/>
	<path class="st0" d="M1350.9-429.4v32.8"/>
	<path class="st0" d="M1358.8-414.9v3.7"/>
	<path class="st0" d="M1366.6-451v76.1"/>
	<path class="st0" d="M1374.5-430.8v35.6"/>
	<path class="st0" d="M1382.3-428.4v30.9"/>
	<path class="st0" d="M1390.2-429.5v33"/>
	<path class="st0" d="M1398-425.4v24.9"/>
</g>
</svg>
