<?xml version="1.0" encoding="utf-8"?>
<!-- Generator: Adobe Illustrator 22.0.0, SVG Export Plug-In . SVG Version: 6.00 Build 0)  -->
<svg version="1.1" id="Layer_1" xmlns="http://www.w3.org/2000/svg" xmlns:xlink="http://www.w3.org/1999/xlink" x="0px" y="0px"
	 viewBox="0 0 1400 180" style="enable-background:new 0 0 1400 180;" xml:space="preserve">
<style type="text/css">
	.st0{fill:none;stroke:#FFD040;stroke-width:3.6187;stroke-linecap:round;stroke-miterlimit:10;}
</style>
<g transform="scale(1,1)">
</g>
<g transform="translate(0,366)">
	<path class="st0" d="M2-276.7v1.5"/>
	<path class="st0" d="M9.7-332.1v112.2"/>
	<path class="st0" d="M17.4-334.2v116.3"/>
	<path class="st0" d="M25.1-324.2v96.5"/>
	<path class="st0" d="M32.9-349.8v147.6"/>
	<path class="st0" d="M40.6-301v50.1"/>
	<path class="st0" d="M48.3-341.8v131.6"/>
	<path class="st0" d="M56-330.8v109.7"/>
	<path class="st0" d="M63.7-297.1v42.3"/>
	<path class="st0" d="M71.4-291.8v31.6"/>
	<path class="st0" d="M79.1-292.3v32.6"/>
	<path class="st0" d="M86.8-289.8v27.6"/>
	<path class="st0" d="M94.6-280.9v9.8"/>
	<path class="st0" d="M102.3-309.6v67.2"/>
	<path class="st0" d="M110-305.1v58.2"/>
	<path class="st0" d="M117.7-312.3v72.6"/>
	<path class="st0" d="M125.4-306.5v61"/>
	<path class="st0" d="M133.1-321v90"/>
	<path class="st0" d="M140.8-337.6v123.1"/>
	<path class="st0" d="M148.5-283.3v14.6"/>
	<path class="st0" d="M156.3-303.4v54.7"/>
	<path class="st0" d="M164-294.7v37.4"/>
	<path class="st0" d="M171.7-301.2v50.4"/>
	<path class="st0" d="M179.4-309.6v67.2"/>
	<path class="st0" d="M187.1-314.6v77.1"/>
	<path class="st0" d="M194.8-318.3v84.5"/>
	<path class="st0" d="M202.5-294.6v37.2"/>
	<path class="st0" d="M210.2-279.3v6.5"/>
	<path class="st0" d="M218-300.3v48.7"/>
	<path class="st0" d="M225.7-296.4v40.8"/>
	<path class="st0" d="M233.4-334.9v117.7"/>
	<path class="st0" d="M241.1-319.7v87.5"/>
	<path class="st0" d="M248.8-311.8v71.7"/>
	<path class="st0" d="M256.5-300.1v48.2"/>
	<path class="st0" d="M264.2-297.9v43.9"/>
	<path class="st0" d="M271.9-294.7v37.4"/>
	<path class="st0" d="M279.7-300.5v49"/>
	<path class="st0" d="M287.4-319v86"/>
	<path class="st0" d="M295.1-285.5v19.1"/>
	<path class="st0" d="M302.8-278.2v4.4"/>
	<path class="st0" d="M310.5-298.9v45.8"/>
	<path class="st0" d="M318.2-296.5v41"/>
	<path class="st0" d="M325.9-332.8v113.7"/>
	<path class="st0" d="M333.6-322.9v93.7"/>
	<path class="st0" d="M341.4-308.4v64.9"/>
	<path class="st0" d="M349.1-304.5v57"/>
	<path class="st0" d="M356.8-298.3v44.6"/>
	<path class="st0" d="M364.5-293.9v35.9"/>
	<path class="st0" d="M372.2-288.3v24.7"/>
	<path class="st0" d="M379.9-293.5v35"/>
	<path class="st0" d="M387.6-289.9v27.8"/>
	<path class="st0" d="M395.3-314.9v77.8"/>
	<path class="st0" d="M403.1-329.1v106.2"/>
	<path class="st0" d="M410.8-284.6v17.2"/>
	<path class="st0" d="M418.5-287.6v23.2"/>
	<path class="st0" d="M426.2-312.7v73.5"/>
	<path class="st0" d="M433.9-307.3v62.6"/>
	<path class="st0" d="M441.6-320.1v88.3"/>
	<path class="st0" d="M449.3-308v64"/>
	<path class="st0" d="M457-279.3v6.7"/>
	<path class="st0" d="M464.8-303.4v54.9"/>
	<path class="st0" d="M472.5-293.6v35.1"/>
	<path class="st0" d="M480.2-292.8v33.6"/>
	<path class="st0" d="M487.9-310.3v68.6"/>
	<path class="st0" d="M495.6-294.3v36.7"/>
	<path class="st0" d="M503.3-293.2v34.4"/>
	<path class="st0" d="M511-287.5v22.9"/>
	<path class="st0" d="M518.8-290.6v29.2"/>
	<path class="st0" d="M526.5-297.1v42.2"/>
	<path class="st0" d="M534.2-316.1v80.2"/>
	<path class="st0" d="M541.9-316.5v81"/>
	<path class="st0" d="M549.6-296.9v41.7"/>
	<path class="st0" d="M557.3-281.5v11.1"/>
	<path class="st0" d="M565-290.1v28.3"/>
	<path class="st0" d="M572.7-300.9v49.8"/>
	<path class="st0" d="M580.5-315.2v78.5"/>
	<path class="st0" d="M588.2-329.5v107"/>
	<path class="st0" d="M595.9-310.9v69.8"/>
	<path class="st0" d="M603.6-301.1v50.2"/>
	<path class="st0" d="M611.3-295v38.1"/>
	<path class="st0" d="M619-280.7v9.4"/>
	<path class="st0" d="M626.7-305.6v59.2"/>
	<path class="st0" d="M634.4-302.7v53.4"/>
	<path class="st0" d="M642.2-295.5v39.1"/>
	<path class="st0" d="M649.9-284.4v16.7"/>
	<path class="st0" d="M657.6-297.8v43.6"/>
	<path class="st0" d="M665.3-288.6v25.2"/>
	<path class="st0" d="M673-289.5v27"/>
	<path class="st0" d="M680.7-286.7v21.3"/>
	<path class="st0" d="M688.4-278v4"/>
	<path class="st0" d="M696.1-310.4v68.9"/>
	<path class="st0" d="M703.9-315.8v79.6"/>
	<path class="st0" d="M711.6-303.6v55.2"/>
	<path class="st0" d="M719.3-302.5v52.9"/>
	<path class="st0" d="M727-284.4v16.7"/>
	<path class="st0" d="M734.7-295.1v38.2"/>
	<path class="st0" d="M742.4-315.2v78.5"/>
	<path class="st0" d="M750.1-312.2v72.4"/>
	<path class="st0" d="M757.8-289.7v27.4"/>
	<path class="st0" d="M765.6-289.3v26.5"/>
	<path class="st0" d="M773.3-281.3v10.5"/>
	<path class="st0" d="M781-287.3v22.6"/>
	<path class="st0" d="M788.7-291v30"/>
	<path class="st0" d="M796.4-322.7v93.4"/>
	<path class="st0" d="M804.1-312.2v72.4"/>
	<path class="st0" d="M811.8-290.5v29.1"/>
	<path class="st0" d="M819.5-285.2v18.5"/>
	<path class="st0" d="M827.3-282.1v12.2"/>
	<path class="st0" d="M835-294.7v37.5"/>
	<path class="st0" d="M842.7-338.5v124.9"/>
	<path class="st0" d="M850.4-290.7v29.3"/>
	<path class="st0" d="M858.1-321.1v90.3"/>
	<path class="st0" d="M865.8-319.4v86.8"/>
	<path class="st0" d="M873.5-317.8v83.6"/>
	<path class="st0" d="M881.2-294.3v36.6"/>
	<path class="st0" d="M889-289.3v26.5"/>
	<path class="st0" d="M896.7-282.4v12.8"/>
	<path class="st0" d="M904.4-318.6v85.3"/>
	<path class="st0" d="M912.1-328v104"/>
	<path class="st0" d="M919.8-296.6v41.2"/>
	<path class="st0" d="M927.5-306.2v60.5"/>
	<path class="st0" d="M935.2-297.2v42.4"/>
	<path class="st0" d="M943-306.7v61.3"/>
	<path class="st0" d="M950.7-302v52"/>
	<path class="st0" d="M958.4-293.8v35.7"/>
	<path class="st0" d="M966.1-294.1v36.2"/>
	<path class="st0" d="M973.8-289.8v27.5"/>
	<path class="st0" d="M981.5-292v32"/>
	<path class="st0" d="M989.2-288.6v25.3"/>
	<path class="st0" d="M996.9-289.6v27.1"/>
	<path class="st0" d="M1004.7-278.3v4.5"/>
	<path class="st0" d="M1012.4-293.7v35.3"/>
	<path class="st0" d="M1020.1-317.2v82.4"/>
	<path class="st0" d="M1027.8-303.1v54.2"/>
	<path class="st0" d="M1035.5-296.4v40.8"/>
	<path class="st0" d="M1043.2-313.7v75.5"/>
	<path class="st0" d="M1050.9-305.4v58.9"/>
	<path class="st0" d="M1058.6-293.7v35.4"/>
	<path class="st0" d="M1066.4-310v67.9"/>
	<path class="st0" d="M1074.1-278.4v4.7"/>
	<path class="st0" d="M1081.8-276.5v0.9"/>
	<path class="st0" d="M1089.5-276.4v0.7"/>
	<path class="st0" d="M1097.2-296.6v41.2"/>
	<path class="st0" d="M1104.9-329v106"/>
	<path class="st0" d="M1112.6-326.8v101.7"/>
	<path class="st0" d="M1120.3-302.4v52.9"/>
	<path class="st0" d="M1128.1-303v54"/>
	<path class="st0" d="M1135.8-290.2v28.4"/>
	<path class="st0" d="M1143.5-287.1v22.1"/>
	<path class="st0" d="M1151.2-279.8v7.7"/>
	<path class="st0" d="M1158.9-293.4v34.8"/>
	<path class="st0" d="M1166.6-293.6v35.2"/>
	<path class="st0" d="M1174.3-287.7v23.4"/>
	<path class="st0" d="M1182-277.8v3.6"/>
	<path class="st0" d="M1189.8-292.2v32.5"/>
	<path class="st0" d="M1197.5-283.3v14.6"/>
	<path class="st0" d="M1205.2-284.6v17.1"/>
	<path class="st0" d="M1212.9-293.5v34.9"/>
	<path class="st0" d="M1220.6-305.6v59.2"/>
	<path class="st0" d="M1228.3-294.1v36.3"/>
	<path class="st0" d="M1236-291.3v30.6"/>
	<path class="st0" d="M1243.7-305.9v59.9"/>
	<path class="st0" d="M1251.5-302.8v53.5"/>
	<path class="st0" d="M1259.2-324.1v96.3"/>
	<path class="st0" d="M1266.9-311.7v71.5"/>
	<path class="st0" d="M1274.6-302.3v52.5"/>
	<path class="st0" d="M1282.3-314.1v76.1"/>
	<path class="st0" d="M1290-310.7v69.4"/>
	<path class="st0" d="M1297.7-316.9v81.7"/>
	<path class="st0" d="M1305.4-284.3v16.5"/>
	<path class="st0" d="M1313.2-279.5v6.9"/>
	<path class="st0" d="M1320.9-330v108"/>
	<path class="st0" d="M1328.6-326.6v101.2"/>
	<path class="st0" d="M1336.3-312.5v72.9"/>
	<path class="st0" d="M1344-348.5v145.1"/>
	<path class="st0" d="M1351.7-325.8v99.6"/>
	<path class="st0" d="M1359.4-280.5v9"/>
	<path class="st0" d="M1367.1-277.8v3.6"/>
	<path class="st0" d="M1374.9-303.3v54.6"/>
	<path class="st0" d="M1382.6-323.9v95.7"/>
	<path class="st0" d="M1390.3-313.7v75.4"/>
	<path class="st0" d="M1398-325.1v98.2"/>
</g>
</svg>
