<?xml version="1.0" encoding="utf-8"?>
<!-- Generator: Adobe Illustrator 22.0.0, SVG Export Plug-In . SVG Version: 6.00 Build 0)  -->
<svg version="1.1" id="Layer_1" xmlns="http://www.w3.org/2000/svg" xmlns:xlink="http://www.w3.org/1999/xlink" x="0px" y="0px"
	 viewBox="0 0 1400 180" style="enable-background:new 0 0 1400 180;" xml:space="preserve">
<style type="text/css">
	.st0{fill:none;stroke:#FFD040;stroke-width:3.6712;stroke-linecap:round;stroke-miterlimit:10;}
</style>
<g transform="scale(1,1)">
</g>
<g transform="translate(0,366)">
	<path class="st0" d="M8.3-289.8v27.6"/>
	<path class="st0" d="M16.1-306.7v61.4"/>
	<path class="st0" d="M23.9-307.9v63.7"/>
	<path class="st0" d="M31.7-312.3v72.6"/>
	<path class="st0" d="M39.5-318.8v85.6"/>
	<path class="st0" d="M47.3-322.2v92.5"/>
	<path class="st0" d="M55.1-287.2v22.5"/>
	<path class="st0" d="M62.9-323.3v94.7"/>
	<path class="st0" d="M70.7-318.4v84.7"/>
	<path class="st0" d="M78.5-302.9v53.7"/>
	<path class="st0" d="M86.3-299.5v47"/>
	<path class="st0" d="M94.2-287.4v22.9"/>
	<path class="st0" d="M102-296.1v40.1"/>
	<path class="st0" d="M109.8-302.3v52.6"/>
	<path class="st0" d="M117.6-289.5v26.9"/>
	<path class="st0" d="M125.4-293.5v35"/>
	<path class="st0" d="M133.2-298.1v44.2"/>
	<path class="st0" d="M141-293.5v35.1"/>
	<path class="st0" d="M148.8-299v46"/>
	<path class="st0" d="M156.6-290.1v28.3"/>
	<path class="st0" d="M164.4-292.3v32.6"/>
	<path class="st0" d="M172.2-293.5v35.1"/>
	<path class="st0" d="M180-300.3v48.7"/>
	<path class="st0" d="M187.8-295.1v38.1"/>
	<path class="st0" d="M195.7-297.6v43.3"/>
	<path class="st0" d="M203.5-284.5v17.1"/>
	<path class="st0" d="M211.3-288.3v24.6"/>
	<path class="st0" d="M219.1-285.1v18.2"/>
	<path class="st0" d="M226.9-294v36.1"/>
	<path class="st0" d="M234.7-290.4v28.8"/>
	<path class="st0" d="M242.5-289.5v27.1"/>
	<path class="st0" d="M250.3-296.9v41.8"/>
	<path class="st0" d="M258.1-283.7v15.3"/>
	<path class="st0" d="M265.9-282v12.1"/>
	<path class="st0" d="M273.7-308v64"/>
	<path class="st0" d="M281.5-322.2v92.4"/>
	<path class="st0" d="M289.3-323.2v94.3"/>
	<path class="st0" d="M297.1-308.7v65.3"/>
	<path class="st0" d="M305-279.6v7.1"/>
	<path class="st0" d="M312.8-283.7v15.5"/>
	<path class="st0" d="M320.6-315.1v78.2"/>
	<path class="st0" d="M328.4-300.1v48.3"/>
	<path class="st0" d="M336.2-293.6v35.2"/>
	<path class="st0" d="M344-294.2v36.4"/>
	<path class="st0" d="M351.8-283v14"/>
	<path class="st0" d="M359.6-316.8v81.7"/>
	<path class="st0" d="M367.4-302v52"/>
	<path class="st0" d="M375.2-301.1v50.2"/>
	<path class="st0" d="M383-293.4v34.8"/>
	<path class="st0" d="M390.8-283.6v15.2"/>
	<path class="st0" d="M398.6-326.3v100.6"/>
	<path class="st0" d="M406.5-326.1v100.1"/>
	<path class="st0" d="M414.3-333.4v114.8"/>
	<path class="st0" d="M422.1-323.4v94.7"/>
	<path class="st0" d="M429.9-280.5v8.9"/>
	<path class="st0" d="M437.7-311.9v71.8"/>
	<path class="st0" d="M445.5-321.8v91.6"/>
	<path class="st0" d="M453.3-321v90"/>
	<path class="st0" d="M461.1-302.5v52.9"/>
	<path class="st0" d="M468.9-316.8v81.6"/>
	<path class="st0" d="M476.7-303.5v55.1"/>
	<path class="st0" d="M484.5-308.1v64.3"/>
	<path class="st0" d="M492.3-314.1v76.1"/>
	<path class="st0" d="M500.1-314.9v77.8"/>
	<path class="st0" d="M508-305.8v59.6"/>
	<path class="st0" d="M515.8-296.5v41"/>
	<path class="st0" d="M523.6-313.1v74.2"/>
	<path class="st0" d="M531.4-301.1v50.1"/>
	<path class="st0" d="M539.2-302.8v53.6"/>
	<path class="st0" d="M547-299.2v46.5"/>
	<path class="st0" d="M554.8-318.2v84.4"/>
	<path class="st0" d="M562.6-312.8v73.6"/>
	<path class="st0" d="M570.4-314.8v77.6"/>
	<path class="st0" d="M578.2-287.2v22.4"/>
	<path class="st0" d="M586-294.9v37.8"/>
	<path class="st0" d="M593.8-325.2v98.4"/>
	<path class="st0" d="M601.6-323.1v94.3"/>
	<path class="st0" d="M609.4-326.9v101.8"/>
	<path class="st0" d="M617.3-333.9v115.7"/>
	<path class="st0" d="M625.1-323.3v94.7"/>
	<path class="st0" d="M632.9-306.3v60.6"/>
	<path class="st0" d="M640.7-315.7v79.3"/>
	<path class="st0" d="M648.5-303.3v54.5"/>
	<path class="st0" d="M656.3-310.5v69.1"/>
	<path class="st0" d="M664.1-305.5v59"/>
	<path class="st0" d="M671.9-304.9v57.8"/>
	<path class="st0" d="M679.7-300.6v49.2"/>
	<path class="st0" d="M687.5-293v34"/>
	<path class="st0" d="M695.3-301v49.9"/>
	<path class="st0" d="M703.1-293.5v35"/>
	<path class="st0" d="M710.9-278.3v4.6"/>
	<path class="st0" d="M718.8-298.1v44.2"/>
	<path class="st0" d="M726.6-305.8v59.6"/>
	<path class="st0" d="M734.4-312.1v72.1"/>
	<path class="st0" d="M742.2-306.6v61.2"/>
	<path class="st0" d="M750-317.5v83.1"/>
	<path class="st0" d="M757.8-306.3v60.5"/>
	<path class="st0" d="M765.6-300.2v48.5"/>
	<path class="st0" d="M773.4-279.7v7.4"/>
	<path class="st0" d="M781.2-297.9v43.7"/>
	<path class="st0" d="M789-321v90"/>
	<path class="st0" d="M796.8-321.7v91.5"/>
	<path class="st0" d="M804.6-317.8v83.6"/>
	<path class="st0" d="M812.4-290.9v29.7"/>
	<path class="st0" d="M820.2-302.3v52.6"/>
	<path class="st0" d="M828.1-307.6v63.1"/>
	<path class="st0" d="M835.9-296v40"/>
	<path class="st0" d="M843.7-301.6v51.1"/>
	<path class="st0" d="M851.5-304.6v57.1"/>
	<path class="st0" d="M859.3-300.5v49"/>
	<path class="st0" d="M867.1-280.8v9.7"/>
	<path class="st0" d="M874.9-309.5v66.9"/>
	<path class="st0" d="M882.7-313.8v75.6"/>
	<path class="st0" d="M890.5-309.5v67"/>
	<path class="st0" d="M898.3-314.7v77.5"/>
	<path class="st0" d="M906.1-279.7v7.4"/>
	<path class="st0" d="M913.9-284.5v17"/>
	<path class="st0" d="M921.7-310.9v69.8"/>
	<path class="st0" d="M929.6-282.1v12.2"/>
	<path class="st0" d="M937.4-292.8v33.5"/>
	<path class="st0" d="M945.2-311.9v71.9"/>
	<path class="st0" d="M953-307.7v63.4"/>
	<path class="st0" d="M960.8-315.6v79.2"/>
	<path class="st0" d="M968.6-297.1v42.2"/>
	<path class="st0" d="M976.4-297.1v42.1"/>
	<path class="st0" d="M984.2-323.1v94.2"/>
	<path class="st0" d="M992-319.5v87"/>
	<path class="st0" d="M999.8-318.6v85.2"/>
	<path class="st0" d="M1007.6-318.7v85.4"/>
	<path class="st0" d="M1015.4-301v50"/>
	<path class="st0" d="M1023.2-303.1v54.2"/>
	<path class="st0" d="M1031-302v52"/>
	<path class="st0" d="M1038.9-299.2v46.5"/>
	<path class="st0" d="M1046.7-306.8v61.6"/>
	<path class="st0" d="M1054.5-291.5v30.9"/>
	<path class="st0" d="M1062.3-301.2v50.4"/>
	<path class="st0" d="M1070.1-284.4v16.8"/>
	<path class="st0" d="M1077.9-283.8v15.5"/>
	<path class="st0" d="M1085.7-305.1v58.3"/>
	<path class="st0" d="M1093.5-311.8v71.6"/>
	<path class="st0" d="M1101.3-322.3v92.6"/>
	<path class="st0" d="M1109.1-316v80"/>
	<path class="st0" d="M1116.9-305.4v58.8"/>
	<path class="st0" d="M1124.7-323.8v95.6"/>
	<path class="st0" d="M1132.5-334.8v117.7"/>
	<path class="st0" d="M1140.4-333.1v114.2"/>
	<path class="st0" d="M1148.2-331.6v111.3"/>
	<path class="st0" d="M1156-310.1v68.1"/>
	<path class="st0" d="M1163.8-289.5v27"/>
	<path class="st0" d="M1171.6-292.1v32.1"/>
	<path class="st0" d="M1179.4-302v51.9"/>
	<path class="st0" d="M1187.2-306.5v60.9"/>
	<path class="st0" d="M1195-314.5v77.1"/>
	<path class="st0" d="M1202.8-309v65.9"/>
	<path class="st0" d="M1210.6-285.8v19.6"/>
	<path class="st0" d="M1218.4-288v24"/>
	<path class="st0" d="M1226.2-289.4v26.8"/>
	<path class="st0" d="M1234-290.4v28.9"/>
	<path class="st0" d="M1241.9-310.7v69.4"/>
	<path class="st0" d="M1249.7-302v52"/>
	<path class="st0" d="M1257.5-304.7v57.4"/>
	<path class="st0" d="M1265.3-294.6v37.2"/>
	<path class="st0" d="M1273.1-285.9v19.7"/>
	<path class="st0" d="M1280.9-277.8v3.6"/>
	<path class="st0" d="M1288.7-294.9v37.8"/>
	<path class="st0" d="M1296.5-305v58"/>
	<path class="st0" d="M1304.3-317.5v83"/>
	<path class="st0" d="M1312.1-318.5v84.9"/>
	<path class="st0" d="M1319.9-318.1v84.3"/>
	<path class="st0" d="M1327.7-317.1v82.3"/>
	<path class="st0" d="M1335.5-319.6v87.1"/>
	<path class="st0" d="M1343.3-320.7v89.4"/>
	<path class="st0" d="M1351.2-310.6v69.1"/>
	<path class="st0" d="M1359-304.9v57.8"/>
	<path class="st0" d="M1366.8-310.9v69.8"/>
	<path class="st0" d="M1374.6-279.3v6.5"/>
	<path class="st0" d="M1382.4-288.6v25.1"/>
	<path class="st0" d="M1390.2-305.5v58.9"/>
	<path class="st0" d="M1398-327.8v103.5"/>
</g>
</svg>
