<?xml version="1.0" encoding="utf-8"?>
<!-- Generator: Adobe Illustrator 22.0.0, SVG Export Plug-In . SVG Version: 6.00 Build 0)  -->
<svg version="1.1" id="Layer_1" xmlns="http://www.w3.org/2000/svg" xmlns:xlink="http://www.w3.org/1999/xlink" x="0px" y="0px"
	 viewBox="0 0 1400 180" style="enable-background:new 0 0 1400 180;" xml:space="preserve">
<style type="text/css">
	.st0{fill:none;stroke:#FFD040;stroke-width:5;stroke-linecap:round;stroke-miterlimit:10;}
</style>
<g transform="scale(1,1)">
</g>
<g transform="translate(0,366)">
	<path class="st0" d="M2-276L2-276"/>
	<path class="st0" d="M13.4-276.1v0.1"/>
	<path class="st0" d="M24.9-276.1v0.2"/>
	<path class="st0" d="M36.3-276.2v0.3"/>
	<path class="st0" d="M47.8-277.2v2.5"/>
	<path class="st0" d="M59.2-279.9v7.7"/>
	<path class="st0" d="M70.7-295.6v39.2"/>
	<path class="st0" d="M82.1-311.3v70.6"/>
	<path class="st0" d="M93.5-327.7v103.4"/>
	<path class="st0" d="M105-323v94"/>
	<path class="st0" d="M116.4-318.4v84.7"/>
	<path class="st0" d="M127.9-337.9v123.9"/>
	<path class="st0" d="M139.3-341.9v131.8"/>
	<path class="st0" d="M150.8-341.2v130.5"/>
	<path class="st0" d="M162.2-340.6v129.2"/>
	<path class="st0" d="M173.6-348V-204"/>
	<path class="st0" d="M185.1-348.7v145.4"/>
	<path class="st0" d="M196.5-349.4v146.8"/>
	<path class="st0" d="M208-347.4v142.9"/>
	<path class="st0" d="M219.4-340.3v128.6"/>
	<path class="st0" d="M230.9-330.9v109.8"/>
	<path class="st0" d="M242.3-321.5v91.1"/>
	<path class="st0" d="M253.7-287v22"/>
	<path class="st0" d="M265.2-285.1v18.3"/>
	<path class="st0" d="M276.6-282.2v12.4"/>
	<path class="st0" d="M288.1-281.1v10.3"/>
	<path class="st0" d="M299.5-278.7v5.3"/>
	<path class="st0" d="M311-278.2v4.4"/>
	<path class="st0" d="M322.4-277.7v3.5"/>
	<path class="st0" d="M333.8-277.5v3"/>
	<path class="st0" d="M345.3-277.6v3.1"/>
	<path class="st0" d="M356.7-277.4v2.9"/>
	<path class="st0" d="M368.2-277.3v2.5"/>
	<path class="st0" d="M379.6-277v2"/>
	<path class="st0" d="M391-276.9v1.9"/>
	<path class="st0" d="M402.5-276.9v1.8"/>
	<path class="st0" d="M413.9-277.1v2.1"/>
	<path class="st0" d="M425.4-276.9v1.7"/>
	<path class="st0" d="M436.8-277v2.1"/>
	<path class="st0" d="M448.3-277.2v2.4"/>
	<path class="st0" d="M459.7-276.9v1.7"/>
	<path class="st0" d="M471.1-276.9v1.8"/>
	<path class="st0" d="M482.6-276.9v1.8"/>
	<path class="st0" d="M494-276.8v1.6"/>
	<path class="st0" d="M505.5-289.8v27.6"/>
	<path class="st0" d="M516.9-296.3v40.7"/>
	<path class="st0" d="M528.4-302.9v53.8"/>
	<path class="st0" d="M539.8-304.1v56.1"/>
	<path class="st0" d="M551.2-306.2v60.4"/>
	<path class="st0" d="M562.7-308.4v64.8"/>
	<path class="st0" d="M574.1-344.3v136.6"/>
	<path class="st0" d="M585.6-313.8v75.6"/>
	<path class="st0" d="M597-317v82.1"/>
	<path class="st0" d="M608.5-320.3v88.5"/>
	<path class="st0" d="M619.9-344.9v137.9"/>
	<path class="st0" d="M631.3-335.8v119.7"/>
	<path class="st0" d="M642.8-326.8v101.5"/>
	<path class="st0" d="M654.2-301.7v51.5"/>
	<path class="st0" d="M665.7-294.4v36.7"/>
	<path class="st0" d="M677.1-312.6v73.2"/>
	<path class="st0" d="M688.6-330.8v109.7"/>
	<path class="st0" d="M700-328.6v105.3"/>
	<path class="st0" d="M711.4-315v78"/>
	<path class="st0" d="M722.9-293.4v34.8"/>
	<path class="st0" d="M734.3-285.4v18.8"/>
	<path class="st0" d="M745.8-300.3v48.6"/>
	<path class="st0" d="M757.2-314.5v77"/>
	<path class="st0" d="M768.7-328.6v105.3"/>
	<path class="st0" d="M780.1-312.5v73.1"/>
	<path class="st0" d="M791.5-315.2v78.4"/>
	<path class="st0" d="M803-312.2v72.3"/>
	<path class="st0" d="M814.4-306.4v60.8"/>
	<path class="st0" d="M825.9-314.9v77.8"/>
	<path class="st0" d="M837.3-314.6v77.2"/>
	<path class="st0" d="M848.8-314.3v76.7"/>
	<path class="st0" d="M860.2-308.3v64.7"/>
	<path class="st0" d="M871.6-294.5v37"/>
	<path class="st0" d="M883.1-315.5v78.9"/>
	<path class="st0" d="M894.5-336.4v120.9"/>
	<path class="st0" d="M906-315.2v78.5"/>
	<path class="st0" d="M917.4-305.9v59.8"/>
	<path class="st0" d="M928.9-296.5v41"/>
	<path class="st0" d="M940.3-296v40"/>
	<path class="st0" d="M951.7-299.2v46.5"/>
	<path class="st0" d="M963.2-297.7v43.3"/>
	<path class="st0" d="M974.6-296.1v40.1"/>
	<path class="st0" d="M986.1-326V-226"/>
	<path class="st0" d="M997.5-322.7v93.3"/>
	<path class="st0" d="M1009-319.3v86.5"/>
	<path class="st0" d="M1020.4-311.4v70.9"/>
	<path class="st0" d="M1031.8-282.4v12.9"/>
	<path class="st0" d="M1043.3-286.7v21.4"/>
	<path class="st0" d="M1054.7-290.9v29.8"/>
	<path class="st0" d="M1066.2-307.7v63.5"/>
	<path class="st0" d="M1077.6-314.3v76.5"/>
	<path class="st0" d="M1089-320.8v89.6"/>
	<path class="st0" d="M1100.5-313.5v75"/>
	<path class="st0" d="M1111.9-301.4v50.9"/>
	<path class="st0" d="M1123.4-298.5v44.9"/>
	<path class="st0" d="M1134.8-295.5v39"/>
	<path class="st0" d="M1146.3-294.2v36.4"/>
	<path class="st0" d="M1157.7-300.7v49.4"/>
	<path class="st0" d="M1169.1-307.9v63.9"/>
	<path class="st0" d="M1180.6-308.7v65.4"/>
	<path class="st0" d="M1192-300.4v48.7"/>
	<path class="st0" d="M1203.5-292.8v33.6"/>
	<path class="st0" d="M1214.9-285.3v18.5"/>
	<path class="st0" d="M1226.4-292.3v32.6"/>
	<path class="st0" d="M1237.8-296.1v40.3"/>
	<path class="st0" d="M1249.2-290.7v29.4"/>
	<path class="st0" d="M1260.7-281.4v10.8"/>
	<path class="st0" d="M1272.1-282.9v13.7"/>
	<path class="st0" d="M1283.6-295.9v39.9"/>
	<path class="st0" d="M1295-309v66"/>
	<path class="st0" d="M1306.5-311.6v71.2"/>
	<path class="st0" d="M1317.9-307.5v63"/>
	<path class="st0" d="M1329.3-293.5v35"/>
	<path class="st0" d="M1340.8-283.6v15.2"/>
	<path class="st0" d="M1352.2-279.4v6.8"/>
	<path class="st0" d="M1363.7-283.2v14.5"/>
	<path class="st0" d="M1375.1-287.1v22.2"/>
	<path class="st0" d="M1386.6-297.7v43.3"/>
	<path class="st0" d="M1398-284.3v16.6"/>
</g>
</svg>
