<?xml version="1.0" encoding="utf-8"?>
<!-- Generator: Adobe Illustrator 22.0.0, SVG Export Plug-In . SVG Version: 6.00 Build 0)  -->
<svg version="1.1" id="Layer_1" xmlns="http://www.w3.org/2000/svg" xmlns:xlink="http://www.w3.org/1999/xlink" x="0px" y="0px"
	 viewBox="0 0 1400 180" style="enable-background:new 0 0 1400 180;" xml:space="preserve">
<style type="text/css">
	.st0{fill:none;stroke:#FFD040;stroke-width:3.8801;stroke-linecap:round;stroke-miterlimit:10;}
</style>
<g transform="scale(1,1)">
</g>
<g transform="translate(0,366)">
	<path class="st0" d="M-1.8-276L-1.8-276"/>
	<path class="st0" d="M6.5-276.1v0.2"/>
	<path class="st0" d="M14.7-276.5v1"/>
	<path class="st0" d="M23-278.1v4.1"/>
	<path class="st0" d="M31.3-304.2v56.3"/>
	<path class="st0" d="M39.6-303v54.1"/>
	<path class="st0" d="M47.9-295.4v38.8"/>
	<path class="st0" d="M56.2-294.2v36.4"/>
	<path class="st0" d="M64.4-298.3v44.5"/>
	<path class="st0" d="M72.7-319.5v87.1"/>
	<path class="st0" d="M81-326.6v101.2"/>
	<path class="st0" d="M89.3-307v62"/>
	<path class="st0" d="M97.6-293.5v34.9"/>
	<path class="st0" d="M105.9-296.4v40.7"/>
	<path class="st0" d="M114.1-300.6v49.1"/>
	<path class="st0" d="M122.4-304v56"/>
	<path class="st0" d="M130.7-301.2v50.4"/>
	<path class="st0" d="M139-287.9v23.8"/>
	<path class="st0" d="M147.3-279.6v7.3"/>
	<path class="st0" d="M155.6-277.7v3.4"/>
	<path class="st0" d="M163.8-277.6v3.1"/>
	<path class="st0" d="M172.1-277.7v3.4"/>
	<path class="st0" d="M180.4-277.5v3.1"/>
	<path class="st0" d="M188.7-282.5v13"/>
	<path class="st0" d="M197-313.7v75.4"/>
	<path class="st0" d="M205.3-313.3v74.6"/>
	<path class="st0" d="M213.5-294.1v36.2"/>
	<path class="st0" d="M221.8-329.5v107.1"/>
	<path class="st0" d="M230.1-318.1v84.2"/>
	<path class="st0" d="M238.4-310.1v68.2"/>
	<path class="st0" d="M246.7-336.9v121.8"/>
	<path class="st0" d="M255-312.2v72.3"/>
	<path class="st0" d="M263.2-306.1v60.1"/>
	<path class="st0" d="M271.5-326.3v100.7"/>
	<path class="st0" d="M279.8-330.9v109.8"/>
	<path class="st0" d="M288.1-319.8v87.6"/>
	<path class="st0" d="M296.4-327.9v103.8"/>
	<path class="st0" d="M304.7-331.9v111.7"/>
	<path class="st0" d="M312.9-309.4v66.8"/>
	<path class="st0" d="M321.2-312.4v72.9"/>
	<path class="st0" d="M329.5-307.8v63.6"/>
	<path class="st0" d="M337.8-284.8v17.6"/>
	<path class="st0" d="M346.1-291.5v30.9"/>
	<path class="st0" d="M354.3-306.3v60.6"/>
	<path class="st0" d="M362.6-301v49.9"/>
	<path class="st0" d="M370.9-283.6v15.2"/>
	<path class="st0" d="M379.2-289.2v26.4"/>
	<path class="st0" d="M387.5-285.7v19.4"/>
	<path class="st0" d="M395.8-280.3v8.6"/>
	<path class="st0" d="M404-293.5v35.1"/>
	<path class="st0" d="M412.3-302.9v53.9"/>
	<path class="st0" d="M420.6-302.4v52.8"/>
	<path class="st0" d="M428.9-296.7v41.4"/>
	<path class="st0" d="M437.2-282v12"/>
	<path class="st0" d="M445.5-285.6v19.1"/>
	<path class="st0" d="M453.7-290.8v29.5"/>
	<path class="st0" d="M462-289.5v27"/>
	<path class="st0" d="M470.3-286v19.9"/>
	<path class="st0" d="M478.6-281.6v11.1"/>
	<path class="st0" d="M486.9-283.7v15.4"/>
	<path class="st0" d="M495.2-294.1v36.3"/>
	<path class="st0" d="M503.4-296.1v40.2"/>
	<path class="st0" d="M511.7-289.2v26.5"/>
	<path class="st0" d="M520-280.7v9.4"/>
	<path class="st0" d="M528.3-277.5v3.1"/>
	<path class="st0" d="M536.6-277.4v2.7"/>
	<path class="st0" d="M544.9-277.5v3"/>
	<path class="st0" d="M553.1-277.3v2.5"/>
	<path class="st0" d="M561.4-277.3v2.6"/>
	<path class="st0" d="M569.7-277.3v2.7"/>
	<path class="st0" d="M578-277.3v2.7"/>
	<path class="st0" d="M586.3-277.3v2.6"/>
	<path class="st0" d="M594.6-277.3v2.6"/>
	<path class="st0" d="M602.8-292.4v32.7"/>
	<path class="st0" d="M611.1-308.8v65.6"/>
	<path class="st0" d="M619.4-303.1v54.2"/>
	<path class="st0" d="M627.7-286.9v21.8"/>
	<path class="st0" d="M636-284.4v16.8"/>
	<path class="st0" d="M644.3-297.7v43.3"/>
	<path class="st0" d="M652.5-308.3v64.6"/>
	<path class="st0" d="M660.8-303v54"/>
	<path class="st0" d="M669.1-297.1v42.2"/>
	<path class="st0" d="M677.4-289.6v27.2"/>
	<path class="st0" d="M685.7-295.3v38.6"/>
	<path class="st0" d="M693.9-303.6v55.3"/>
	<path class="st0" d="M702.2-303.5v55.1"/>
	<path class="st0" d="M710.5-314.5v76.9"/>
	<path class="st0" d="M718.8-326.6v101.3"/>
	<path class="st0" d="M727.1-333.4v114.8"/>
	<path class="st0" d="M735.4-327.1v102.2"/>
	<path class="st0" d="M743.6-304v55.9"/>
	<path class="st0" d="M751.9-313.7v75.3"/>
	<path class="st0" d="M760.2-308.1v64.1"/>
	<path class="st0" d="M768.5-299.2v46.4"/>
	<path class="st0" d="M776.8-296.1v40.2"/>
	<path class="st0" d="M785.1-292.7v33.5"/>
	<path class="st0" d="M793.3-288v24"/>
	<path class="st0" d="M801.6-282.5v12.9"/>
	<path class="st0" d="M809.9-290.1v28.1"/>
	<path class="st0" d="M818.2-287.4v22.8"/>
	<path class="st0" d="M826.5-281.8v11.6"/>
	<path class="st0" d="M834.8-288v23.9"/>
	<path class="st0" d="M843-298v43.9"/>
	<path class="st0" d="M851.3-300.7v49.5"/>
	<path class="st0" d="M859.6-292.7v33.5"/>
	<path class="st0" d="M867.9-285.8v19.6"/>
	<path class="st0" d="M876.2-292.9v33.9"/>
	<path class="st0" d="M884.5-306v59.9"/>
	<path class="st0" d="M892.7-308v64"/>
	<path class="st0" d="M901-290.2v28.4"/>
	<path class="st0" d="M909.3-288v23.9"/>
	<path class="st0" d="M917.6-298.5v45.1"/>
	<path class="st0" d="M925.9-296.8v41.6"/>
	<path class="st0" d="M934.2-310v68.1"/>
	<path class="st0" d="M942.4-316v79.9"/>
	<path class="st0" d="M950.7-312.7v73.3"/>
	<path class="st0" d="M959-305.4v58.9"/>
	<path class="st0" d="M967.3-301.8v51.6"/>
	<path class="st0" d="M975.6-297.5v42.9"/>
	<path class="st0" d="M983.9-290.2v28.4"/>
	<path class="st0" d="M992.1-289.5v27.1"/>
	<path class="st0" d="M1000.4-288.4v24.9"/>
	<path class="st0" d="M1008.7-285.7v19.4"/>
	<path class="st0" d="M1017-280.1v8.2"/>
	<path class="st0" d="M1025.3-277.5v2.9"/>
	<path class="st0" d="M1033.6-278.1v4.3"/>
	<path class="st0" d="M1041.8-278.9v5.7"/>
	<path class="st0" d="M1050.1-280v7.9"/>
	<path class="st0" d="M1058.4-280.2v8.3"/>
	<path class="st0" d="M1066.7-278.1v4.2"/>
	<path class="st0" d="M1075-278.7v5.4"/>
	<path class="st0" d="M1083.2-277.2v2.5"/>
	<path class="st0" d="M1091.5-320.8v89.6"/>
	<path class="st0" d="M1099.8-332.8v113.7"/>
	<path class="st0" d="M1108.1-332.4v112.9"/>
	<path class="st0" d="M1116.4-339.7v127.3"/>
	<path class="st0" d="M1124.7-341.7v131.3"/>
	<path class="st0" d="M1132.9-325.8v99.6"/>
	<path class="st0" d="M1141.2-318.7v85.4"/>
	<path class="st0" d="M1149.5-317.2v82.5"/>
	<path class="st0" d="M1157.8-332.7v113.4"/>
	<path class="st0" d="M1166.1-329.2v106.4"/>
	<path class="st0" d="M1174.4-347.2v142.4"/>
	<path class="st0" d="M1182.6-350.7v149.3"/>
	<path class="st0" d="M1190.9-353.8v155.6"/>
	<path class="st0" d="M1199.2-343.6v135.2"/>
	<path class="st0" d="M1207.5-350.5v148.9"/>
	<path class="st0" d="M1215.8-329.1v106.3"/>
	<path class="st0" d="M1224.1-317.3v82.6"/>
	<path class="st0" d="M1232.3-330.3v108.5"/>
	<path class="st0" d="M1240.6-317.4v82.7"/>
	<path class="st0" d="M1248.9-333V-219"/>
	<path class="st0" d="M1257.2-313.8v75.6"/>
	<path class="st0" d="M1265.5-289.1v26.2"/>
	<path class="st0" d="M1273.8-288.3v24.6"/>
	<path class="st0" d="M1282-324.9v97.8"/>
	<path class="st0" d="M1290.3-299.3v46.5"/>
	<path class="st0" d="M1298.6-295.1v38.3"/>
	<path class="st0" d="M1306.9-303.7v55.3"/>
	<path class="st0" d="M1315.2-331.8v111.6"/>
	<path class="st0" d="M1323.5-326v100"/>
	<path class="st0" d="M1331.7-322.6v93.3"/>
	<path class="st0" d="M1340-325.6v99.3"/>
	<path class="st0" d="M1348.3-305.8v59.7"/>
	<path class="st0" d="M1356.6-298.2v44.4"/>
	<path class="st0" d="M1364.9-294.3v36.6"/>
	<path class="st0" d="M1373.2-299.3v46.6"/>
	<path class="st0" d="M1381.4-301.9v51.7"/>
	<path class="st0" d="M1389.7-288.7v25.5"/>
	<path class="st0" d="M1398-292.2v32.4"/>
</g>
</svg>
