<?xml version="1.0" encoding="utf-8"?>
<!-- Generator: Adobe Illustrator 16.0.0, SVG Export Plug-In . SVG Version: 6.00 Build 0)  -->
<!DOCTYPE svg PUBLIC "-//W3C//DTD SVG 1.1//EN" "http://www.w3.org/Graphics/SVG/1.1/DTD/svg11.dtd">
<svg version="1.1" id="Layer_1" xmlns="http://www.w3.org/2000/svg" xmlns:xlink="http://www.w3.org/1999/xlink" x="0px" y="0px"
	 width="792px" height="351px" viewBox="0 128.5 792 351" enable-background="new 0 128.5 792 351" xml:space="preserve">
<g>
	<g>
		<path fill="#FFD13F" d="M157.163,339.289c-4.455-0.619-9.034-1.609-13.613-3.219c-4.579-1.607-8.662-3.959-12.127-7.178
			l-2.97-4.578l-2.846-4.455c-0.372-0.494-0.743-1.36-1.485-2.723c-0.619-1.361-1.361-2.723-1.98-4.084
			c-0.742-1.484-1.361-2.847-1.98-4.084c-0.619-1.236-1.114-2.228-1.237-2.846l-16.707-26.606c-0.247,0-0.495-0.124-0.742-0.372
			c-0.248-0.124-0.619-0.495-0.866-0.99c-1.98-1.237-4.208-2.228-6.559-2.97c-2.351-0.742-4.579-0.495-6.806,0.99
			c-1.361,0.866-2.475,2.351-3.341,4.331c-0.866,1.98-0.742,3.712,0.248,5.198l26.854,42.569l0.866,0.99
			c2.475,1.36,4.826,2.723,7.177,4.084c2.352,1.36,4.332,3.342,5.94,5.939l1.114,1.732c0.124,0.865,0.248,2.104,0.124,4.082
			c0,1.98-0.248,3.961-0.495,5.94c-0.248,2.104-0.743,4.084-1.361,5.815c-0.619,1.856-1.361,3.095-2.351,3.59l-3.836,2.475
			c-0.866,0.619-1.98,0.866-3.094,0.742c-1.237,0-2.228-0.123-3.094-0.371c-5.569-1.113-10.147-2.6-13.736-4.455
			c-3.588-1.855-6.806-5.072-9.9-9.898c-3.094-4.95-5.816-9.9-8.415-14.852c-2.475-4.949-5.321-9.898-8.415-14.85
			c-1.856-2.971-3.712-5.94-5.692-9.034c-1.98-3.095-4.331-5.816-7.054-8.291l-16.335-13.489l-0.124-0.248
			c-0.124-0.247-0.247-0.619-0.247-1.237c0-0.495,0.124-0.99,0.247-1.237c0-0.372,0.124-1.114,0.372-2.228
			c0.248-1.114,0.495-2.352,0.866-3.589c0.248-1.237,0.495-2.475,0.866-3.589c0.248-1.114,0.495-1.98,0.495-2.351
			c0.742-2.104,1.485-4.208,2.475-6.683c0.866-2.351,2.227-4.083,4.083-5.321c1.609-0.99,3.094-1.361,4.579-1.237
			s2.97,0.495,4.455,1.114c1.485,0.619,2.846,1.361,4.208,2.351c1.361,0.99,2.599,1.856,3.712,2.475
			c0.99,0.248,1.732,0.371,2.104,0.371c0.371,0,0.99-0.248,1.98-0.866c1.609-1.114,2.97-2.599,3.836-4.579
			c0.867-1.98,1.609-3.96,2.352-5.816c0-0.248,0.248-0.866,0.742-1.856c0.372-1.114,0.743-2.228,1.114-3.341
			c0.372-1.114,0.743-2.228,1.114-3.218c0.372-0.99,0.619-1.732,0.619-2.228c0.371-0.866,0.742-1.856,1.361-2.722
			c0.619-0.866,1.238-1.609,2.104-2.104c0.743-0.495,1.609-0.742,2.475-0.742c0.371,0.124,1.237,0.248,2.351,0.371
			c1.114,0.123,2.351,0.248,3.589,0.371c1.237,0.124,2.475,0.248,3.589,0.372c1.237,0.124,1.98,0.247,2.228,0.247
			c2.104,0.124,4.207,0,6.311-0.371c2.228-0.371,4.083-1.114,5.816-2.104l0.619-0.372l5.074-17.572
			c-0.124-0.124,0-0.619,0.371-1.361c0.372-0.743,0.495-1.361,0.619-1.732c0.124-0.124,0.248-0.371,0.372-0.743
			c0-0.248,0.124-0.371,0.248-0.495l10.147-3.094c1.732,0.372,3.217,0.743,4.826,0.99c1.485,0.248,3.217,0.371,5.074,0.124
			c0.248,0,0.99,0,2.228-0.124c1.237-0.124,2.599-0.248,3.96-0.371c1.361-0.124,2.599-0.248,3.96-0.372
			c1.237-0.124,1.98-0.248,2.351-0.248c1.238,0,2.599,0,4.084,0.248c1.485,0.248,2.599,0.866,3.217,1.856l2.97,4.579
			c0.866,1.238,0.99,2.599,0.495,3.96c-0.495,1.361-0.495,2.723-0.124,3.836c0.371,0.495,0.866,1.485,1.732,2.97
			c0.866,1.485,1.732,2.97,2.723,4.702c0.99,1.609,1.856,3.218,2.599,4.703c0.866,1.485,1.361,2.475,1.732,2.97l0.372,0.619
			c3.094,4.95,6.435,9.9,9.776,14.726c3.341,4.826,6.559,9.652,9.529,14.603c1.238,1.361,2.475,2.723,3.836,3.96
			c1.361,1.237,2.846,2.351,4.455,3.218c1.237,0.619,2.475,1.237,3.589,1.732c1.113,0.495,2.104,1.361,2.846,2.599
			c0.99,1.732,1.856,3.836,2.475,6.435c0.619,2.599,0.867,5.321,0.867,7.92c0,2.723-0.495,5.197-1.361,7.548
			c-0.866,2.353-2.228,4.084-4.208,5.321c-1.856,1.113-4.208,1.484-7.425,0.865c-3.094-0.494-6.311-1.607-9.529-2.97
			c-3.217-1.485-6.188-3.094-8.91-4.95c-2.723-1.856-4.579-3.713-5.692-5.321c-0.867-1.361-1.609-2.97-2.104-4.579
			c-0.495-1.608-1.237-3.217-2.228-4.826l-24.502-38.981c-0.866-1.361-2.723-2.475-5.569-3.094c-2.846-0.619-4.95-0.495-6.311,0.371
			l-8.663,5.445c-0.124,0.124,0,0.866,0.495,2.228c0.495,1.485,0.866,2.599,1.361,3.589c0,0.248,0.124,0.743,0.495,1.485
			c0.372,0.743,0.743,1.361,0.99,1.732l23.636,37.62c0.99,1.485,2.228,2.846,3.589,3.836c1.485,0.99,2.846,1.856,4.208,2.721
			c1.361,0.867,2.846,1.732,4.208,2.6c1.361,0.866,2.475,2.104,3.465,3.466c0.866,1.36,1.485,3.341,1.609,5.815
			c0.248,2.476,0.124,5.074-0.248,7.673c-0.372,2.724-1.114,5.196-1.98,7.425c-0.99,2.352-2.104,3.96-3.589,4.826
			c-0.371,0.248-0.866,0.371-1.609,0.495C158.029,339.412,157.534,339.289,157.163,339.289z"/>
		<path fill="#FFD13F" d="M267.424,156.139l22.646,18.81c0.124,0.124,0.495,0.495,1.114,1.114s1.114,1.237,1.856,1.98
			c0.619,0.743,1.361,1.361,1.98,1.98s1.114,1.237,1.485,1.609c1.485,1.361,3.094,3.465,4.95,6.311
			c1.856,2.723,2.846,5.198,3.094,7.178l2.97,23.512c0.124,0.99,0,2.228-0.494,3.96c-0.495,1.608-0.743,2.97-0.99,3.712
			c-0.124,0.371-0.371,0.99-0.619,1.732c-0.248,0.866-0.619,1.732-0.99,2.722c-0.371,0.867-0.742,1.856-0.99,2.723
			c-0.248,0.867-0.495,1.485-0.619,1.732c-0.248,0.866-0.743,2.104-1.609,3.96s-1.732,3.713-2.599,5.816
			c-0.99,2.104-1.856,3.96-2.846,5.692c-0.867,1.732-1.609,2.97-1.98,3.589c-0.124,0.124-0.495,0.866-1.113,2.228
			c-0.619,1.237-1.485,2.723-2.352,4.331c-0.866,1.609-1.856,3.094-2.846,4.703c-0.99,1.609-1.732,2.846-2.351,3.712
			c-0.124,0.372-0.372,0.866-0.866,1.609c-0.495,0.743-0.866,1.237-1.114,1.609c-0.866,1.237-1.98,2.722-3.341,4.702
			c-1.485,1.856-2.846,3.341-4.208,4.332c-0.124,0.124-0.495,0.495-1.114,0.866l-0.866,0.619l-11.138,1.485
			c-0.371,0-0.742,0-1.237-0.124c-0.371-0.124-0.619-0.124-0.99-0.124s-0.619,0-0.742-0.124c-3.341-0.495-6.435-1.609-9.529-2.97
			c-3.094-1.485-6.064-3.217-8.786-5.321c-2.723-2.104-5.321-4.208-7.796-6.559s-4.703-4.702-6.806-7.177
			c0-0.124-0.248-0.495-0.743-1.114c-0.495-0.619-0.866-0.99-1.237-1.238c0-0.371-0.248-0.742-0.495-1.114
			c-0.248-0.495-0.495-0.742-0.495-0.866l-8.167-64.226c-0.371-2.97,0.495-5.816,2.475-8.539c2.104-2.723,4.083-4.826,5.94-6.559
			c0.743-0.619,1.856-1.485,3.341-2.846s2.475-1.98,2.723-2.104l25.987-18.315L267.424,156.139z M254.925,187.2
			c-1.114,0.124-2.722,0.495-4.702,1.237c-1.98,0.619-2.97,1.732-2.723,3.341l5.692,44.426c0,0.495,0.248,1.114,0.619,1.98
			c0.372,0.866,0.619,1.361,0.867,1.732c2.227,3.589,5.074,6.064,8.539,7.549c3.465,1.361,7.177,2.228,11.137,2.599
			c0.372,0.124,0.866,0.248,1.485,0.248c0.619,0.124,0.99,0,0.99-0.124l0.372-0.495c0.124-1.485,0.371-2.97,0.619-4.703
			c0.124-1.361,0.248-2.723,0.371-4.208c0.124-1.485,0.248-2.722,0.495-3.712c0.248-2.104,0.248-4.084,0.248-6.064
			c-0.124-1.98-0.248-3.96-0.495-6.188l-0.619-5.197c-0.619-2.475-1.609-4.95-2.723-7.425c-1.237-2.475-2.599-4.455-4.083-6.311
			l-13.365-15.469l-2.104-3.094L254.925,187.2z"/>
		<path fill="#FFD13F" d="M342.169,262.563c0.866-4.455,2.104-8.91,3.712-13.117c1.608-4.331,2.846-8.663,3.712-13.118
			c0-0.124,0-0.495,0-0.866s0-0.866,0.124-1.361l0.248-1.608c0.124-0.99,0.495-2.475,0.743-4.703
			c0.371-2.228,0.743-4.455,1.114-6.806c0.495-2.352,0.866-4.579,1.113-6.683c0.371-2.104,0.495-3.589,0.743-4.332
			c0.247-1.856,0-3.465-0.495-4.702c-0.494-1.238-1.113-2.352-1.855-3.218c-0.742-0.99-1.608-1.98-2.599-2.846
			c-0.99-0.99-1.609-2.228-2.229-3.836c-0.619-1.237-0.743-2.475-0.619-3.712c0.124-1.237,0.371-2.475,0.495-3.465l0.248-1.361
			l28.462-32.051c0-0.124,0.495-0.619,1.361-1.361s1.731-1.608,2.722-2.475c0.99-0.99,1.98-1.856,3.218-2.723
			c1.114-0.866,1.98-1.609,2.6-2.228c2.723-2.351,5.939-4.703,9.651-6.93c3.713-2.228,7.55-3.094,11.386-2.351
			c1.608,0.248,2.6,1.114,3.094,2.351c0.495,1.238,0.619,2.599,0.372,4.084c-0.372,2.228-1.609,4.083-3.589,5.569
			c-1.98,1.608-3.713,3.094-5.074,4.579c-2.353,2.723-3.96,5.569-5.074,8.415s-1.979,6.063-2.722,9.652l-1.114,5.816
			c0.124,1.98,0.866,3.341,2.228,4.331c1.36,0.866,2.723,1.732,4.084,2.599c1.36,0.866,2.599,1.856,3.589,3.217
			c0.989,1.361,1.36,3.341,0.865,5.94c-0.494,2.475-1.113,4.331-1.855,5.692c-0.742,1.361-1.608,2.352-2.723,3.218
			c-1.113,0.866-2.476,1.485-3.837,1.98c-1.484,0.495-3.218,1.361-5.444,2.351c-2.104,0.866-3.712,2.228-4.702,4.208
			c-0.99,1.856-1.732,3.96-2.104,6.064l-5.815,30.69c-0.495,2.599-0.743,5.197-0.619,7.549c0.124,2.475,0.495,4.95,1.361,7.425
			c0.619,1.98,1.731,3.96,3.465,5.816c1.732,1.856,2.352,3.836,1.979,6.063l-1.732,8.787c-0.371,1.732-1.485,3.341-3.465,4.95
			c-1.98,1.609-3.589,2.723-4.579,3.341c-0.866,0.495-2.104,1.114-3.465,1.98c-1.485,0.866-2.353,1.361-2.724,1.485
			c-0.495,0.372-1.36,0.866-2.475,1.361c-1.114,0.495-1.609,0.743-1.856,0.743h-0.248c-0.371-0.372-0.865-0.866-1.484-1.238
			c-1.114-0.866-1.856-1.485-2.104-1.856c-2.104-1.856-4.208-3.96-6.312-6.435c-2.104-2.351-4.083-4.95-5.816-7.672
			c-1.732-2.723-3.094-5.569-3.96-8.539C341.674,268.504,341.55,265.534,342.169,262.563z"/>
		<path fill="#FFD13F" d="M437.085,335.081c0.124-0.618,0.495-1.113,0.99-1.608c0.618-0.494,0.99-0.865,1.36-1.113l16.211-10.891
			c1.98-1.361,3.59-2.723,5.074-4.207l18.935-21.533c0.495-0.371,0.865-0.866,0.988-1.608l8.415-29.948l0.248-1.361
			c0.247-1.485,0.495-2.97,0.742-4.332c0.124-1.361,0.371-2.846,0.495-4.579c0.124-1.98,0.124-4.579,0.124-7.673
			c0-3.094-0.371-6.188-0.99-9.281c-0.619-3.093-1.731-5.816-3.218-8.291c-1.484-2.475-3.465-3.96-6.062-4.455
			c-2.229-0.495-4.085,0-5.568,1.238c-1.485,1.237-2.723,2.97-3.589,4.95s-1.609,4.084-2.104,6.312s-0.867,4.083-1.237,5.568
			c-1.237,6.312-1.979,12.623-2.229,18.934c-0.247,6.311-0.247,12.746-0.123,19.181c0.123,0.371,0.247,1.485,0.371,3.465
			s0.247,3.465,0.371,4.455c0.371,0.495,0.495,1.114,0.371,1.732v0.248c-0.247,1.238-0.866,2.723-2.104,4.579
			c-1.113,1.856-2.476,3.713-3.96,5.569s-3.218,3.218-4.949,4.455c-1.732,1.114-3.342,1.609-4.702,1.361l-5.198-0.99
			c-0.742-0.124-1.484-0.495-2.104-1.237c-0.617-0.619-1.236-1.237-1.731-1.856c-0.99-1.485-1.856-2.846-2.847-4.208
			c-0.866-1.361-1.608-2.722-2.104-4.207c-0.495-0.866-0.99-1.98-1.484-3.465c-0.618-1.485-1.237-2.846-1.855-4.208
			c-0.619-1.361-1.237-2.599-1.609-3.712c-0.371-1.114-0.618-1.732-0.742-1.856l-0.123-1.485l12.746-42.446l0.866-4.702l1.113-5.693
			c0-1.114,0.248-3.094,0.742-6.063c0.372-2.97,0.866-6.064,1.237-9.281c0.371-3.218,0.742-6.188,1.237-9.158
			c0.371-2.846,0.742-4.95,0.99-6.188c0.247-3.094,0.371-6.188,0.371-9.281c0-3.093-0.124-6.188-0.371-9.157
			c-0.124-0.372-0.248-1.238-0.248-2.599c-0.124-1.361-0.247-2.846-0.495-4.455c-0.247-1.485-0.371-2.97-0.495-4.455
			c-0.123-1.485-0.247-2.352-0.247-2.599c-0.124-0.619-0.248-1.238-0.248-1.856c0-0.495,0.124-1.237,0.248-1.98
			c0.247-1.361,0.99-2.846,2.353-4.332c1.359-1.485,2.846-2.846,4.578-4.083c1.731-1.114,3.465-1.98,5.444-2.723
			c1.856-0.619,3.589-0.866,4.95-0.619s2.352,0.743,3.094,1.485c0.742,0.743,1.361,1.609,1.979,2.352
			c0.619,0.866,1.237,1.608,1.979,2.351s1.856,1.237,3.342,1.609c1.855,0.371,3.218,0.248,4.331-0.248
			c1.113-0.495,2.104-1.114,3.094-1.732c0.866-0.619,1.855-1.361,2.847-1.98s2.229-0.99,3.589-0.99l2.97,0.619
			c2.724,0.495,4.826,1.609,6.437,3.094c1.608,1.609,2.104,3.836,1.484,6.807c-0.247,1.485-1.113,2.846-2.229,3.836
			c-1.237,1.114-2.599,1.856-4.084,2.352c-0.123,0-0.742,0.124-1.608,0.371c-0.865,0.247-1.855,0.619-2.846,0.866
			c-0.99,0.248-1.979,0.495-2.971,0.866c-0.989,0.248-1.608,0.495-1.732,0.619c-0.123,0.124-0.247,0.124-0.371,0.124
			s-0.247,0-0.371,0.124s-0.37,0.124-0.494,0.124l-5.197,15.84l-0.495,2.723c-0.619,3.094-1.114,5.692-1.361,7.549
			c-0.247,1.856,0.371,4.207,1.98,7.054l0.371,0.495c0.123,0.124,0.123,0.372,0.123,0.495h0.248
			c0.371-0.248,0.989-0.619,1.979-1.114c0.99-0.495,1.98-1.114,2.847-1.609c0.99-0.619,1.856-1.114,2.724-1.608
			c0.866-0.495,1.483-0.866,1.855-0.99c1.732-0.866,3.465-1.361,5.321-1.361c1.732,0,3.465,0.124,5.197,0.372l2.723,0.495
			c1.484,0.866,2.97,2.104,4.207,3.589c0.124,0.124,0.495,0.495,0.99,1.114s0.99,1.237,1.607,1.98
			c0.619,0.743,1.114,1.361,1.485,1.98c0.495,0.495,0.742,0.866,0.866,1.114c0.124,0.124,0.495,0.619,0.99,1.485
			c0.495,0.866,1.112,1.609,1.854,2.599c0.619,0.866,1.238,1.856,1.856,2.722c0.495,0.866,0.866,1.485,1.113,1.856
			c0,0.124,0.247,0.742,0.99,1.98c0.742,1.114,1.237,2.104,1.608,2.723c1.855,3.465,2.846,7.796,2.97,13.117
			c0.124,5.198,0,9.776-0.495,13.613c0,0.495,0,1.237-0.124,2.475c-0.123,1.114-0.247,2.352-0.494,3.589
			c-0.124,1.238-0.248,2.352-0.495,3.465c-0.124,1.114-0.248,1.856-0.371,2.228l-0.865,4.703
			c-1.609,8.415-4.455,16.211-8.292,23.513c-3.96,7.301-8.662,14.107-14.107,20.542c-0.371,0.248-0.742,0.619-1.113,1.237
			c-0.37,0.495-0.865,0.99-1.113,1.114c-0.618,0.494-1.484,1.361-2.6,2.475c-1.112,1.113-1.855,1.732-1.979,1.732l-24.627,15.964
			c-0.371,0.124-0.989,0.371-1.979,0.866c-0.99,0.494-1.979,1.113-3.218,1.732c-1.238,0.618-2.475,1.236-3.712,1.979
			c-1.238,0.741-2.229,1.237-2.847,1.483c-1.856,0.867-4.207,1.98-6.808,3.219c-2.722,1.236-5.197,1.607-7.549,1.236
			c-1.608-0.371-2.599-1.236-2.846-2.723C436.838,337.68,436.838,336.318,437.085,335.081z"/>
		<path fill="#FFD13F" d="M591.525,246.848l8.414,0.742l0.618,0.124c0.742,0.248,1.361,0.742,1.856,1.732
			c0.495,0.99,0.866,1.732,0.99,2.228c1.36,2.351,2.351,4.703,3.094,6.806c0.742,2.104,1.608,4.579,2.475,7.301
			c1.114,2.97,2.104,6.435,3.095,10.519c0.989,4.084,0.989,7.673,0.124,10.89c-0.371,1.114-0.619,1.98-0.99,2.599
			c-0.247,0.495-0.99,1.238-1.98,1.98c-0.371,0.248-1.236,0.619-2.475,1.361c-1.237,0.619-2.104,1.114-2.475,1.361l-27.598,12.004
			c-1.484,0.866-3.094,1.856-4.826,2.97c-1.731,1.114-2.846,2.6-3.341,4.331c-0.371,1.114-0.248,2.228,0.123,3.218
			s0.99,1.856,1.732,2.723c0.248,0.371,0.619,0.99,1.36,1.856c0.743,0.866,1.361,1.856,2.104,2.847
			c0.742,0.99,1.484,1.855,2.104,2.847c0.741,0.866,1.112,1.608,1.236,2.104c1.114,1.113,2.104,2.352,2.848,3.959
			c0.865,1.485,1.236,3.219,1.483,4.95l-0.618,2.228c-1.113,4.207-3.342,7.179-6.683,9.158c-3.342,1.855-7.054,3.094-11.014,3.713
			c-2.971-2.724-6.063-5.569-9.405-8.787c-3.218-3.094-6.063-6.56-8.415-10.146c-2.353-3.589-4.084-7.426-5.073-11.509
			c-0.99-4.084-0.99-8.415,0.247-12.87l11.138-40.59c1.237-4.331,3.342-7.672,6.312-9.776c2.971-2.227,6.436-3.836,10.271-4.95
			c3.837-1.114,7.674-2.228,11.634-3.218c3.96-0.99,7.425-2.475,10.643-4.455L591.525,246.848z M571.725,287.685
			c-0.371,1.485-0.247,2.475,0.248,3.094c0.618,0.619,1.484,1.237,2.476,1.856l2.352,0.619c2.476,0.619,4.702,0.742,6.683,0.124
			c1.979-0.619,3.342-2.228,3.961-4.826c0.37-1.114,0.246-2.475-0.248-4.084c-0.494-1.485-1.237-2.97-2.229-4.455
			c-0.989-1.485-2.104-2.723-3.341-3.836c-1.237-1.113-2.353-1.856-3.342-2.104c-0.494-0.124-0.618-0.124-0.742-0.124
			c0,0.124-0.124,0.371-0.495,0.866c-0.123,0.495-0.495,1.237-0.989,2.351c-0.495,1.114-1.113,2.228-1.608,3.589
			c-0.495,1.238-0.99,2.475-1.608,3.589c-0.495,1.114-0.866,1.856-0.99,2.351L571.725,287.685z"/>
		<path fill="#FFD13F" d="M642.758,350.674l0.123-0.371c0.371-1.361,0.371-2.599,0.124-3.713c-0.247-1.113-0.124-2.352,0.124-3.712
			c0.371-1.36,0.742-2.476,1.361-3.342c0.495-0.866,1.236-2.104,2.104-3.466v-0.123l3.589-20.42c0-0.865-0.37-1.607-0.989-2.104
			c-0.124-0.124-0.371-0.617-0.742-1.361c-0.371-0.742-0.743-1.483-1.237-2.351c-0.372-0.866-0.867-1.608-1.237-2.353
			c-0.371-0.742-0.618-1.236-0.618-1.484c-0.495-0.743-0.743-1.609-0.866-2.599c-0.124-0.99-0.124-1.98,0.123-2.97
			c0.372-1.361,1.238-2.599,2.6-3.96c1.36-1.361,3.094-2.599,4.949-3.589c1.855-0.99,3.837-1.856,5.816-2.351
			c1.979-0.495,3.589-0.619,4.949-0.248c1.485,0.371,2.6,0.99,3.713,2.104c0.989,0.99,1.979,2.104,2.971,3.094
			c0.989,1.114,1.979,2.104,2.97,3.094c0.99,0.99,2.228,1.732,3.713,2.104c1.361,0.371,2.475,0.248,3.589-0.248
			c1.113-0.495,2.104-0.99,3.217-1.609c0.99-0.619,2.104-1.114,3.219-1.609c1.113-0.495,2.352-0.619,3.713-0.247
			c1.607,0.371,3.217,1.608,4.455,3.465c1.359,1.856,2.351,3.96,3.217,6.312c0.866,2.351,1.484,4.702,1.731,7.054
			c0.248,2.352,0.248,4.207-0.122,5.691c-0.372,1.361-0.99,2.352-1.98,3.219c-0.99,0.865-2.104,1.484-3.094,2.229
			c-0.247,0.123-0.742,0.371-1.361,0.617c-0.618,0.248-1.361,0.495-1.979,0.866c-0.742,0.371-1.485,0.742-2.353,1.114
			c-0.247,0.123-0.742,0.371-1.237,0.617c-0.494,0.248-0.989,0.371-1.36,0.496c-0.619,0.248-1.114,0.371-1.608,0.494l-0.371-0.123
			c-1.237-0.99-2.476-1.856-3.589-2.724c-1.114-0.866-2.476-1.483-4.208-1.854l-1.484-0.373c-0.866,0.125-1.484,0.496-2.104,1.115
			c-0.618,0.494-0.99,1.112-1.113,1.731l-4.084,16.459c-0.248,0.989-0.248,1.979-0.124,2.97c0.124,0.991,0.371,1.98,0.619,2.971
			c-0.742,0.865-1.36,1.608-1.855,2.352s-0.99,1.484-1.237,2.475l-2.847,11.262c-0.495,1.732-0.123,3.466,0.989,5.074
			c1.114,1.608,2.476,3.094,3.96,4.702c1.485,1.608,2.848,3.218,3.961,4.95s1.36,3.465,0.865,5.568
			c-0.123,0.619-0.371,0.99-0.741,1.361c-0.371,0.246-0.866,0.617-1.361,0.989c-0.124,0.247-0.619,0.494-1.237,0.989
			c-0.619,0.371-1.236,0.865-1.979,1.238c-0.618,0.371-1.361,0.742-1.979,1.113c-0.619,0.37-1.114,0.618-1.236,0.618
			c-0.743,0.494-1.733,0.866-2.972,1.361c-1.237,0.493-2.351,0.493-3.341,0.37l-7.92-1.979c-0.99-0.247-1.98-0.866-2.971-1.731
			c-0.989-0.99-1.979-1.979-2.971-3.094c-0.989-1.113-1.855-2.229-2.846-3.342c-0.866-1.113-1.855-1.98-2.723-2.599
			c-0.248-0.372-0.99-0.867-1.856-1.485c-0.99-0.742-1.607-1.113-1.979-1.361c-0.123,0-0.494-0.248-1.237-0.619
			c-0.742-0.37-1.113-0.617-1.237-0.741c-0.371-0.371-0.742-0.99-1.112-1.731c-0.248-0.742-0.495-1.609-0.867-2.848
			c-0.371-1.236-0.618-1.855-0.494-2.104v-0.125L642.758,350.674z"/>
		<g>
			<g>
				<path fill="#FFD13F" d="M720.102,295.481c0.247-0.495,0.495-0.99,0.866-1.485s0.618-0.99,0.866-1.485c0,0,0,0,0-0.124v-0.124
					l0.123-0.248c0-0.124,0.124-0.248,0.248-0.495c0.124-0.248,0.247-0.495,0.371-0.743s0.248-0.495,0.371-0.743
					c0.124-0.248,0.124-0.371,0.248-0.495c0.123-0.247,0.123-0.371,0.123-0.619c0-0.124,0-0.371-0.123-0.495
					c-0.124-0.124-0.124-0.248-0.248-0.372c-0.123-0.124-0.123-0.371-0.123-0.495s0-0.371,0-0.495s0.123-0.248,0.123-0.372
					l0.124-0.124l4.455-2.846c0,0,0.124,0,0.247-0.124c0.124,0,0.248-0.124,0.37-0.248c0.124-0.124,0.248-0.124,0.495-0.247
					c0.124-0.124,0.248-0.124,0.371-0.124c0.372-0.248,0.866-0.371,1.361-0.495s0.99-0.124,1.484,0.124
					c0.125,0.124,0.247,0.248,0.247,0.371c0,0.124,0,0.371-0.122,0.495c-0.125,0.248-0.371,0.371-0.619,0.495
					c-0.247,0.124-0.495,0.247-0.742,0.371c-0.371,0.248-0.619,0.495-0.866,0.866c-0.248,0.248-0.371,0.619-0.619,1.114
					l-0.371,0.619c0,0.248,0,0.371,0.124,0.619c0.123,0.124,0.247,0.248,0.371,0.495c0.124,0.124,0.247,0.248,0.371,0.495
					s0,0.371-0.124,0.743c-0.123,0.247-0.247,0.495-0.371,0.619c-0.123,0.124-0.247,0.248-0.371,0.248
					c-0.124,0.124-0.371,0.124-0.495,0.124c-0.247,0-0.371,0-0.741,0.124c-0.248,0-0.495,0.124-0.742,0.372
					c-0.124,0.248-0.372,0.371-0.495,0.619l-1.732,3.465c-0.124,0.248-0.248,0.619-0.372,0.866c-0.123,0.248-0.123,0.619-0.123,0.99
					c0,0.248,0.123,0.495,0.247,0.866c0.124,0.248,0.124,0.495,0,0.743l-0.494,0.99c-0.123,0.248-0.247,0.372-0.618,0.495
					c-0.248,0.124-0.495,0.248-0.619,0.248s-0.247,0.124-0.495,0.124c-0.247,0-0.371,0.124-0.371,0.124
					c-0.124,0-0.247,0-0.371,0.124c-0.124,0-0.248,0-0.248,0l0,0c0,0-0.123-0.124-0.123-0.248c-0.124-0.124-0.124-0.247-0.248-0.247
					c-0.123-0.248-0.371-0.619-0.494-0.99c-0.123-0.371-0.371-0.743-0.495-1.114c-0.123-0.371-0.123-0.743-0.247-1.114
					C719.854,296.224,719.979,295.853,720.102,295.481z"/>
				<path fill="#FFD13F" d="M737.303,309.465c-0.248-0.494-0.495-0.99-0.743-1.607c-0.247-0.619-0.247-1.237-0.247-1.732
					l0.247-0.619l0.248-0.619c0-0.124,0.124-0.248,0.124-0.371c0.123-0.124,0.123-0.372,0.247-0.495s0.124-0.371,0.247-0.495
					c0.124-0.124,0.124-0.248,0.248-0.371l1.361-3.712c0,0,0,0,0-0.124v-0.124c0-0.248-0.124-0.619-0.248-0.866
					c-0.123-0.248-0.247-0.495-0.618-0.619c-0.248-0.124-0.371-0.124-0.743,0c-0.247,0.124-0.494,0.247-0.494,0.371l-2.228,6.063
					v0.124c0,0.371,0.123,0.742,0.123,0.99c0,0.372,0,0.743-0.123,1.114l-0.124,0.248c-0.124,0.123-0.248,0.247-0.371,0.371
					c-0.248,0.123-0.371,0.247-0.619,0.37c-0.247,0.125-0.495,0.248-0.742,0.248c-0.248,0.123-0.371,0.123-0.494,0l-0.495-0.248
					c-0.124,0-0.247-0.123-0.371-0.247c-0.124-0.123-0.124-0.247-0.248-0.371c-0.371-0.618-0.494-1.237-0.618-1.732
					c-0.124-0.495,0-1.113,0.247-1.732c0.248-0.742,0.495-1.361,0.866-1.98c0.372-0.619,0.619-1.361,0.866-1.98
					c0.124-0.371,0.372-0.866,0.494-1.237c0.124-0.495,0.248-0.866,0.248-1.361l0.124-2.723l0,0c0,0,0-0.124,0.123-0.124
					l0.124-0.124c0,0,0.124-0.124,0.247-0.124c0.124,0,0.248-0.124,0.371-0.248c0.124-0.124,0.248-0.124,0.372-0.248
					c0.123-0.124,0.247-0.124,0.247-0.124c0.248-0.124,0.495-0.124,0.866-0.248s0.619-0.124,0.866,0
					c0.248,0.124,0.371,0.248,0.494,0.371c0.125,0.124,0.125,0.371,0.248,0.495c0,0.248,0.123,0.371,0.123,0.619s0,0.371,0,0.619
					c0,0.124,0.124,0.248,0.124,0.248s0.124,0.124,0.247,0.124c0.248,0.124,0.495,0.124,0.743,0c0.247,0,0.495-0.124,0.742-0.248
					c0,0,0.124,0,0.247-0.124c0.124,0,0.248-0.124,0.372-0.124c0.123,0,0.247-0.124,0.371-0.124c0.123,0,0.247-0.124,0.247-0.124
					c0.124,0,0.248,0,0.371-0.124c0.123,0,0.247,0,0.37,0c0.124,0,0.248,0.124,0.248,0.248c0,0,0.124,0.124,0.124,0.248
					c0.123,0.124,0.123,0.248,0.247,0.372s0.124,0.247,0.247,0.371c0.124,0.124,0.124,0.248,0.124,0.248
					c0.124,0.248,0.371,0.371,0.495,0.619c0.248,0.248,0.371,0.371,0.619,0.371h0.123l2.228-0.866c0,0,0,0,0.124,0
					s0.124,0,0.248-0.124c0,0,0,0,0.123,0c0,0,0,0,0.124,0l1.113,0.742c0.124,0.248,0.124,0.372,0.248,0.619
					c0.124,0.124,0.247,0.371,0.371,0.495c0,0,0.124,0.124,0.124,0.248c0.123,0.124,0.247,0.248,0.371,0.372
					c0.123,0.124,0.247,0.247,0.371,0.371c0.123,0.124,0.123,0.248,0.246,0.248c0.124,0.124,0.248,0.248,0.248,0.371
					c0.124,0.124,0.124,0.371,0,0.495l-0.248,0.619c-0.123,0.124-0.246,0.248-0.37,0.371c-0.123,0-0.371,0.124-0.371,0.248
					c0,0.124-0.124,0.248-0.124,0.372c-0.123,0.247-0.123,0.371-0.247,0.619s-0.124,0.371-0.247,0.619
					c-0.124,0.248-0.124,0.371-0.124,0.371v0.124c-0.248,0.742-0.495,1.361-0.742,2.104c-0.248,0.743-0.495,1.362-0.743,2.104
					c0,0.246-0.123,0.494-0.123,0.742s0,0.494,0,0.742c0,0.123,0.123,0.371,0.123,0.494c0,0.124,0,0.372,0,0.495
					c-0.123,0.248-0.247,0.495-0.495,0.743c-0.247,0.247-0.495,0.494-0.741,0.742c-0.247,0.247-0.619,0.371-0.866,0.494
					s-0.619,0.123-0.866,0s-0.495-0.37-0.619-0.742c-0.123-0.371-0.371-0.742-0.371-1.237c-0.124-0.495-0.124-0.866-0.124-1.237
					s0-0.742,0.124-0.99c0.124-0.246,0.124-0.37,0.248-0.617c0.123-0.124,0.247-0.371,0.371-0.619l2.104-5.445
					c0.124-0.248,0-0.495-0.124-0.866c-0.122-0.372-0.37-0.495-0.494-0.619l-1.237-0.495c0,0-0.123,0.124-0.247,0.248
					s-0.248,0.248-0.248,0.371c0,0,0,0.124-0.123,0.124c0,0.124-0.124,0.124-0.124,0.248l-1.979,5.321
					c-0.123,0.248-0.123,0.495-0.123,0.619c0,0.248,0,0.495,0,0.619c0,0.247,0,0.371,0,0.618c0,0.248,0,0.372-0.124,0.618
					c-0.124,0.248-0.247,0.371-0.495,0.619c-0.247,0.248-0.495,0.371-0.866,0.619c-0.247,0.123-0.618,0.248-0.866,0.371
					c-0.247,0.123-0.619,0.123-0.742,0c0,0-0.124,0-0.124-0.123C737.426,309.589,737.303,309.465,737.303,309.465z"/>
			</g>
		</g>
	</g>
	<g>
		<path fill="#FFD13F" d="M133.897,438.66l-1.732-2.104c-0.743-0.865-1.485-1.731-2.475-2.723c-0.866-0.99-1.609-1.98-2.104-3.094
			c-0.619-1.114-1.114-2.477-1.485-4.084c-0.371-1.608-0.495-3.341-0.619-5.074c0-1.732,0-3.341,0.124-4.949s0.247-2.847,0.495-3.96
			c0-0.124,0-0.372,0.124-0.866c0.124-0.372,0.248-0.743,0.248-0.989l0.124-0.495l0.495-0.866l3.341-2.97
			c0.495-0.372,1.237-0.619,2.475-0.495c1.237,0.123,2.475,0.247,3.836,0.618c1.361,0.371,2.599,0.742,3.836,1.237
			c1.237,0.494,1.98,0.989,2.351,1.484c0.248,0.248,0.495,0.866,0.619,1.855c0.124,0.866,0.248,1.856,0.248,2.848
			c0,0.989-0.124,1.854-0.248,2.722c-0.124,0.866-0.371,1.485-0.742,1.732l-1.856,1.608c-0.371,0.371-0.866,0.371-1.485,0.124
			c-0.619-0.248-1.114-0.248-1.485,0.123l-1.733,1.609c-0.247,0.247-0.371,0.618-0.247,1.113c0.124,0.494,0.247,0.865,0.495,1.113
			l8.663,10.396c0.371,0.495,0.866,0.866,1.485,1.236c0.619,0.248,1.114,0.619,1.485,0.99c0.619,0.247,1.237,0.619,1.856,1.237
			c0.495,0.495,1.114,1.114,1.609,1.609c0.248,0,0.495,0.122,0.743,0.246c0.371,0.124,0.495,0.247,0.742,0.247l10.271,1.361
			c0.495,0,0.99,0.124,1.485,0.371c0.495,0.248,0.99,0.495,1.237,0.743c0.495,0.495,0.867,1.36,1.114,2.475
			c0.248,1.114,0.495,2.229,0.619,3.342s0.247,2.352,0.124,3.342c0,1.113-0.124,1.855-0.371,2.352
			c-0.124,0.124-0.248,0.247-0.372,0.371s-0.247,0.247-0.247,0.371c-0.99,0.866-1.98,1.485-2.97,1.731
			c-0.743,0.124-1.485,0.248-2.104,0.371c-0.619,0.124-1.361,0.124-2.104,0.124c-0.124,0-0.495,0-1.114,0s-1.361-0.124-2.104-0.124
			c-0.743-0.123-1.485-0.123-2.352-0.247c-0.742-0.124-1.361-0.124-1.732-0.248c-0.248,0-0.371-0.122-0.495-0.122l-5.074-3.343
			L133.897,438.66z"/>
		<path fill="#FFD13F" d="M187.976,434.452c-0.619,0.371-0.866,0.866-0.866,1.608s0,1.484-0.124,2.229
			c0,0.742-0.124,1.484-0.248,2.228c-0.124,0.742-0.371,1.36-0.743,2.104c-0.371,0.618-0.866,1.237-1.732,1.731l-0.371,0.247
			c-0.619-0.494-1.361-0.865-2.104-1.236c-0.742-0.371-1.485-0.618-2.351-0.99c-0.743-0.247-1.485-0.618-2.228-0.989
			s-1.485-0.743-2.104-1.237c-1.114-1.237-2.228-2.476-3.094-3.713c-0.99-1.236-1.856-2.599-2.723-3.96
			c-0.124-0.248-0.248-0.495-0.495-0.989c-0.248-0.371-0.371-0.742-0.495-0.866c-0.495-1.237-0.742-2.476-0.619-3.589
			c0-1.113,0.372-2.476,0.743-3.836c0-0.124,0.124-0.248,0.248-0.619s0.248-0.742,0.495-1.113c0.124-0.371,0.372-0.743,0.495-1.114
			c0.124-0.371,0.248-0.495,0.372-0.618c0.124-0.494,0.247-0.989,0.371-1.608c0-0.495,0.124-0.989,0.371-1.608
			c0.248-0.989,0.619-1.855,1.114-2.599c0.619-0.742,1.361-1.361,2.228-1.98l0.371-0.247l8.167-1.113
			c0.743-0.123,1.361-0.123,1.98-0.123c0.619,0,1.361,0,1.98,0.247l0.124,0.248c0.371,0.493,0.495,1.112,0.371,1.854
			c-0.124,0.743-0.124,1.361-0.248,1.98c0.124,0.124,0.248,0.371,0.372,0.618c0.248,0.247,0.371,0.618,0.619,0.989
			s0.371,0.619,0.619,0.99c0.248,0.247,0.372,0.495,0.372,0.619l1.485,2.351l1.485,2.353c0.619,0.866,1.361,1.607,2.104,2.104
			c0.742,0.619,1.608,1.114,2.599,1.732c0,0,0.124,0.124,0.371,0.248c0.124,0.123,0.371,0.247,0.619,0.371s0.372,0.247,0.619,0.371
			s0.371,0.124,0.371,0.246c0.248,0.124,0.371,0.248,0.619,0.372c0.124,0.123,0.371,0.371,0.495,0.494
			c0.248,0.372,0.371,0.99,0.371,1.856c0,0.743-0.124,1.608-0.371,2.476s-0.495,1.608-0.866,2.352
			c-0.372,0.743-0.743,1.237-1.114,1.484c-0.372,0.247-0.743,0.247-1.114,0.247c-0.371-0.123-0.743-0.123-0.99-0.371l-4.083-2.104
			c-0.372-0.247-0.99-0.371-1.609-0.495C189.09,433.957,188.595,434.081,187.976,434.452z M175.849,427.646
			c0.248,0.246,0.619,0.865,1.238,1.731s1.361,1.608,2.228,2.475c0.866,0.866,1.608,1.485,2.475,1.98s1.485,0.618,2.104,0.247
			s0.99-0.866,1.114-1.361s0.248-1.112,0.124-1.731c-0.124-0.618-0.248-1.237-0.371-1.732c-0.248-0.618-0.371-1.113-0.495-1.484
			l-2.97-6.188l-0.248-0.371c-0.124-0.247-0.495-0.495-0.99-0.742s-1.114-0.371-1.732-0.371c-0.619-0.124-1.237-0.124-1.732-0.124
			c-0.619,0-0.99,0.124-1.361,0.371c-0.495,0.248-0.619,0.743-0.743,1.485c0,0.742,0,1.485,0.248,2.228
			c0.124,0.742,0.372,1.485,0.619,2.229C175.478,427.027,175.601,427.398,175.849,427.646z"/>
		<path fill="#FFD13F" d="M208.024,424.058c-0.124-0.124-0.495-0.248-0.99-0.494c-0.495-0.247-0.99-0.371-1.485-0.619
			c-0.495-0.247-0.99-0.494-1.485-0.742c-0.495-0.247-0.867-0.371-0.99-0.495c-0.248-0.124-0.371-0.247-0.495-0.247
			c0,0-0.124-0.124-0.248-0.248c-0.619-0.989-0.99-2.104-1.114-3.217c-0.124-1.114-0.495-2.229-1.113-3.218l-9.653-16.459
			c-0.495-0.866-1.114-1.732-1.732-2.475c-0.619-0.744-1.361-1.486-2.104-2.229c-0.743-0.743-1.485-1.485-2.104-2.229
			c-0.619-0.742-1.237-1.609-1.732-2.476c-0.124-0.123,0-0.494,0.124-0.989c0.124-0.494,0.372-1.113,0.743-1.732
			c0.371-0.618,0.619-1.113,0.99-1.608c0.371-0.495,0.619-0.866,0.99-0.99c0.371-0.247,0.743-0.247,0.99-0.247
			c0.371,0,0.619,0.124,0.99,0.247c0.372,0.124,0.619,0.248,0.99,0.372c0.248,0.123,0.619,0.247,0.866,0.247
			c0.124-0.124,0.248-0.247,0.371-0.619c0.124-0.247,0.248-0.493,0.371-0.618c0.124-0.123,0.248-0.248,0.372-0.619
			s0.371-0.617,0.495-0.988c0.247-0.372,0.371-0.619,0.495-0.99s0.248-0.495,0.372-0.619l0.619-0.865l1.856-0.99
			c0.495-0.371,0.99-0.247,1.361,0.123c0.372,0.371,0.619,0.742,0.743,1.115c0.371,0.741,0.619,1.236,0.495,1.731
			c-0.124,0.495-0.248,0.866-0.495,1.36c-0.248,0.494-0.495,0.867-0.743,1.361s-0.495,1.113-0.495,1.732
			c-0.124,0.865,0.124,1.607,0.495,2.229c0.372,0.617,0.743,1.359,0.99,2.104c0.248,0.494,0.371,0.865,0.495,1.236
			s0.124,0.867,0.247,1.361c0.248,0.124,0.619,0.247,0.866,0.495c0.248,0.247,0.495,0.371,0.619,0.618l1.237,2.104
			c1.485,2.476,2.846,4.949,4.331,7.426c1.361,2.475,2.847,4.949,4.208,7.425l1.856,3.094c0.124,0,0.248,0.124,0.619,0.247
			c0.248,0.124,0.619,0.124,0.866,0.248s0.619,0.247,0.866,0.371s0.495,0.124,0.619,0.248c0.619,0.123,1.113,0.371,1.732,0.742
			c0.619,0.246,1.114,0.741,1.361,1.236c0.247,0.371,0.247,0.742,0.124,1.361c-0.124,0.495-0.124,0.99-0.248,1.361
			c-0.248,0.865-0.495,1.731-0.866,2.599c-0.371,0.867-0.99,1.608-1.856,2.104c-0.866,0.495-1.732,0.743-2.846,0.743
			C209.756,424.676,208.89,424.429,208.024,424.058z"/>
		<path fill="#FFD13F" d="M221.018,408.218c-0.248-0.99-0.495-2.104-0.743-3.094c-0.248-1.114-0.495-2.104-0.742-3.342l-0.124-0.371
			c0-0.124-0.124-0.495-0.248-0.99s-0.371-0.989-0.495-1.484c-0.247-0.494-0.371-0.989-0.495-1.484s-0.248-0.742-0.372-0.99
			c-0.371-0.866-0.99-1.731-1.732-2.476c-0.742-0.741-1.237-1.607-1.485-2.598c0-0.125-0.124-0.248-0.124-0.371
			c0-0.125,0-0.248,0-0.496c0.247-0.865,0.619-1.608,1.237-2.352c0.618-0.742,1.361-1.484,1.98-2.229
			c0.248-0.246,0.371-0.371,0.495-0.494s0.371-0.247,0.619-0.371c0.99-0.247,1.98-0.124,2.97,0.248
			c0.867,0.494,1.733,0.988,2.352,1.484c0.124,0,0.371,0.248,0.866,0.618c0.371,0.371,0.743,0.618,0.866,0.742
			c0,0,0.124,0.124,0.124,0.248v0.247l2.599,12.746l0.495,1.855c0.248,0.742,0.372,1.608,0.619,2.353
			c0.247,0.742,0.619,1.607,1.114,2.228h0.124c0,0,0,0,0.124,0c0,0,0.124,0.123,0.248,0.247s0.372,0.248,0.495,0.371
			c0.124,0.124,0.371,0.248,0.495,0.371c0.124,0.124,0.248,0.124,0.248,0.248c0.248,0.124,0.495,0.371,0.495,0.742
			c0.124,0.371,0.248,0.619,0.248,0.866c0.124,0.742,0.124,1.36,0,2.104c-0.248,0.743-0.495,1.361-0.99,2.104
			c-0.495,0.617-0.99,1.236-1.609,1.731c-0.619,0.495-1.361,0.866-2.228,0.99c-1.114,0.247-2.104,0.123-2.97-0.619
			c-0.866-0.742-1.609-1.608-2.228-2.599c-0.619-1.114-1.114-2.229-1.485-3.343C221.513,409.826,221.265,408.96,221.018,408.218z
			 M217.058,378.395c-0.372-1.361-0.495-2.847-0.372-4.332c0.124-1.484,0.619-2.847,1.609-4.207c0,0,0.124-0.123,0.248-0.248
			c0.124-0.123,0.248-0.246,0.371-0.246l3.094-0.866c0.99-0.248,1.856-0.124,2.475,0.247c0.619,0.494,0.99,1.113,1.114,1.855
			c0.124,0.248,0.124,0.618,0.248,0.99c0.124,0.371,0.124,0.618,0,0.866c-0.124,0.494-0.371,1.237-0.743,2.228
			c-0.371,0.989-0.866,1.855-1.361,2.846c-0.495,0.99-1.114,1.856-1.856,2.6c-0.619,0.743-1.361,1.237-1.98,1.361
			c-0.495,0.123-0.866,0-1.114-0.124c-0.371-0.247-0.619-0.494-0.866-0.989c-0.248-0.371-0.372-0.743-0.619-1.114
			C217.181,379.014,217.058,378.643,217.058,378.395z"/>
		<path fill="#FFD13F" d="M231.536,376.785c0.124-0.124,0.124-0.371,0.248-0.866c0-0.495,0.124-0.743,0.124-0.866
			c0-0.248,0.124-0.494,0.124-0.742c0-0.371,0-0.494,0-0.619l-1.237-4.578c0,0,0-0.125,0-0.247c0-0.124,0-0.124,0-0.248v-0.123
			c0.124-1.361,0.247-2.601,0.495-3.961c0.248-1.237,0.743-2.476,1.238-3.589c0.619-1.113,1.361-2.228,2.351-3.094
			c0.99-0.99,2.228-1.731,3.589-2.476c0.495-0.247,1.114-0.495,1.732-0.742c0.619-0.248,1.237-0.495,1.732-0.618h0.248l2.475,0.989
			l-1.485,7.302l-5.074,0.742h-0.247h-0.124H237.6c-0.495,0.124-0.743,0.247-0.866,0.495c-0.124,0.247-0.124,0.495-0.124,0.866
			l0.248,0.742c0.124,0.371,0.248,0.865,0.495,1.236c0.124,0.371,0.495,0.743,0.866,0.99c0.124,0.124,0.495,0.371,0.99,0.619
			c0.495,0.371,0.866,0.494,0.99,0.618c0,0,0.124,0.124,0.248,0.124l0.248,0.123l1.114-0.989c0,0,0.124,0,0.247,0.124
			c0.124,0.123,0.248,0.247,0.495,0.371c0.247,0.124,0.372,0.247,0.619,0.371c0.248,0.123,0.372,0.246,0.495,0.246l2.475-0.493
			c0.124,0,0.248,0,0.248,0.123c0.124,0,0.124,0,0.124,0.124l0.124,0.123c0.124,0,0.371,0.248,0.742,0.371
			c0.372,0.248,0.619,0.371,0.743,0.371c0.371,0.248,0.495,0.496,0.619,0.742c0.124,0.248,0.248,0.619,0.248,0.99
			c0.124,0.619,0.248,1.114,0.124,1.484c-0.124,0.371-0.372,0.867-0.743,1.361c-0.124,0.123-0.248,0.248-0.495,0.371
			c-0.248,0.247-0.495,0.371-0.742,0.618c-0.248,0.248-0.495,0.495-0.743,0.619c-0.248,0.247-0.371,0.371-0.495,0.371
			c-0.124,0.124-0.124,0.248-0.371,0.248v0.247l4.331,29.824c0.124,0.617,0,1.236-0.248,1.731c-0.248,0.618-0.742,0.866-1.485,1.113
			c-0.743,0.248-1.237,0-1.732-0.618c-0.124-0.124-0.371-0.372-0.619-0.867c-0.248-0.371-0.495-0.618-0.495-0.742
			c0,0,0-0.124-0.124-0.247c-0.124-0.124-0.124-0.248-0.248-0.371l-9.158-26.729c0,0-0.124-0.124-0.248-0.124
			c-0.248,0-0.248,0-0.248-0.123c-0.866-0.248-1.608-0.619-2.351-0.989C232.155,378.145,231.66,377.527,231.536,376.785
			L231.536,376.785z"/>
		<path fill="#FFD13F" d="M279.056,363.544l7.178,5.444c0,0,0.124,0.123,0.371,0.248c0.124,0.123,0.371,0.371,0.619,0.494
			c0.248,0.248,0.372,0.371,0.619,0.619c0.248,0.123,0.372,0.371,0.495,0.494c0.495,0.371,0.99,0.99,1.485,1.732
			c0.495,0.742,0.866,1.484,0.866,1.98l0.372,6.435c0,0.247-0.124,0.618-0.248,1.114c-0.248,0.494-0.371,0.742-0.371,0.99
			c0,0.122-0.124,0.246-0.248,0.493c-0.124,0.248-0.248,0.495-0.372,0.743c-0.124,0.247-0.247,0.495-0.371,0.742
			c-0.124,0.248-0.248,0.371-0.248,0.494c-0.124,0.248-0.248,0.619-0.619,0.99c-0.371,0.496-0.619,0.989-0.99,1.484
			c-0.371,0.495-0.742,0.99-1.113,1.484c-0.372,0.496-0.619,0.742-0.743,0.99c0,0-0.248,0.248-0.495,0.618
			c-0.247,0.371-0.495,0.743-0.866,1.114s-0.743,0.866-1.114,1.236c-0.371,0.371-0.619,0.742-0.866,0.99
			c0,0.123-0.124,0.248-0.371,0.371c-0.124,0.125-0.372,0.371-0.372,0.371c-0.247,0.371-0.742,0.742-1.237,1.237
			s-0.99,0.866-1.485,1.114c0,0-0.124,0.123-0.372,0.247l-0.371,0.124l-3.836,0.247c-0.124,0-0.247,0-0.371,0s-0.248,0-0.371,0
			c-0.124,0-0.248,0-0.248,0c-1.114-0.247-2.104-0.495-3.094-0.989c-0.99-0.495-1.98-0.99-2.846-1.609
			c-0.866-0.617-1.732-1.236-2.475-1.855c-0.743-0.618-1.485-1.36-2.104-2.104c0,0-0.124-0.124-0.247-0.371
			c-0.124-0.124-0.248-0.247-0.372-0.37c0-0.125,0-0.248-0.124-0.248c-0.124-0.123-0.124-0.248-0.124-0.248l-1.114-17.449
			c0-0.865,0.248-1.607,1.114-2.227c0.743-0.742,1.485-1.238,2.104-1.732c0.248-0.123,0.619-0.371,1.237-0.742
			c0.495-0.371,0.866-0.495,0.99-0.495l9.157-4.578L279.056,363.544z M274.106,371.835c-0.372,0-0.866,0.124-1.609,0.247
			c-0.743,0.124-0.99,0.495-0.99,0.867l0.866,12.127c0,0.124,0,0.371,0.124,0.494c0.124,0.248,0.124,0.371,0.248,0.496
			c0.619,0.99,1.608,1.731,2.722,2.104c1.114,0.372,2.352,0.742,3.713,0.866c0.124,0,0.247,0.124,0.495,0.124s0.372,0,0.372,0
			l0.124-0.124c0.124-0.371,0.248-0.866,0.371-1.237c0.124-0.371,0.124-0.742,0.248-1.113s0.124-0.742,0.248-0.99
			c0.124-0.618,0.248-1.113,0.248-1.608c0-0.494,0-1.112,0-1.731l-0.124-1.484c-0.124-0.743-0.372-1.361-0.743-1.98
			c-0.371-0.617-0.743-1.236-1.237-1.731l-4.084-4.331l-0.619-0.866L274.106,371.835z"/>
		<path fill="#FFD13F" d="M301.084,378.021v-0.123c-0.124-0.496-0.495-0.866-0.743-1.113c-0.372-0.248-0.619-0.619-0.743-1.114
			c-0.248-0.495-0.248-0.866-0.248-1.237s0-0.865-0.124-1.483l0,0l-3.341-6.808c-0.248-0.248-0.495-0.371-0.866-0.371
			c-0.124,0-0.248-0.123-0.495-0.248c-0.248-0.123-0.619-0.246-0.99-0.371c-0.372-0.123-0.619-0.246-0.99-0.37
			c-0.248-0.124-0.495-0.247-0.619-0.247c-0.371-0.124-0.619-0.248-0.866-0.495c-0.248-0.248-0.495-0.495-0.619-0.866
			c-0.124-0.494-0.248-1.113,0-1.732c0.124-0.742,0.495-1.484,0.866-2.228s0.866-1.485,1.485-2.104
			c0.495-0.617,1.114-0.988,1.609-1.236c0.619-0.247,1.114-0.371,1.732-0.247c0.619,0.123,1.114,0.123,1.732,0.247
			c0.618,0.124,1.114,0.124,1.732,0.248c0.619,0,1.114,0,1.732-0.248c0.495-0.247,0.866-0.495,1.238-0.866
			c0.248-0.371,0.495-0.741,0.742-1.237c0.248-0.371,0.495-0.865,0.743-1.236c0.248-0.371,0.619-0.743,1.237-0.99
			c0.619-0.247,1.485-0.247,2.352-0.124c0.866,0.248,1.732,0.619,2.6,1.114c0.867,0.494,1.608,0.988,2.228,1.607
			s0.99,1.114,1.237,1.608c0.124,0.495,0.248,0.866,0,1.36c-0.124,0.496-0.371,0.99-0.619,1.361
			c-0.124,0.125-0.124,0.248-0.371,0.495c-0.124,0.248-0.372,0.495-0.495,0.742c-0.124,0.248-0.371,0.619-0.619,0.867
			c0,0.123-0.123,0.247-0.247,0.493c-0.124,0.125-0.248,0.373-0.371,0.496c-0.124,0.248-0.248,0.371-0.495,0.494h-0.124
			c-0.619,0-1.237,0-1.856,0.125c-0.619,0-1.237,0.123-1.855,0.371l-0.619,0.246c-0.248,0.248-0.371,0.495-0.495,0.867
			c-0.124,0.247-0.124,0.494,0,0.742l2.352,5.691c0.124,0.371,0.371,0.619,0.619,0.866s0.619,0.495,0.866,0.742
			c0,0.371-0.124,0.743-0.124,1.114s0,0.617,0.124,0.99l1.609,3.959c0.248,0.619,0.742,0.99,1.484,1.237
			c0.743,0.247,1.609,0.371,2.476,0.495c0.866,0.123,1.731,0.247,2.475,0.495c0.742,0.247,1.237,0.742,1.608,1.36
			c0.124,0.248,0.124,0.371,0,0.619c-0.124,0.123-0.124,0.371-0.248,0.619c0,0.122-0.124,0.246-0.248,0.494
			c-0.124,0.247-0.247,0.494-0.371,0.866c-0.124,0.247-0.248,0.494-0.495,0.742c-0.124,0.247-0.247,0.37-0.247,0.495
			c-0.124,0.246-0.372,0.617-0.743,1.113c-0.372,0.371-0.743,0.742-1.113,0.865l-3.219,1.238c-0.371,0.123-0.865,0.247-1.484,0.123
			c-0.619,0-1.114-0.123-1.732-0.247s-1.114-0.248-1.731-0.371c-0.619-0.124-1.114-0.124-1.485-0.124c-0.124,0-0.495,0-0.99,0
			c-0.495,0-0.866,0-0.99,0.124c0,0-0.248,0.123-0.619,0.123c-0.371,0.124-0.495,0.124-0.619,0c-0.248,0-0.495-0.123-0.742-0.247
			c-0.248-0.124-0.495-0.371-0.99-0.619c-0.371-0.247-0.619-0.371-0.619-0.495l0,0L301.084,378.021z"/>
		<path fill="#FFD13F" d="M348.604,367.751c-0.494-0.371-0.741-0.742-0.989-1.237c-0.248-0.371-0.371-0.865-0.495-1.484
			l-0.248-0.866c0-0.123-0.124-0.495-0.124-0.989s-0.124-0.99-0.248-1.484c-0.124-0.496-0.124-0.99-0.248-1.485
			c0-0.495-0.124-0.742-0.124-0.989l-2.228-8.787c-0.124-0.246-0.248-0.494-0.495-0.865c-0.248-0.248-0.619-0.496-0.99-0.742
			c-0.371-0.247-0.742-0.371-1.113-0.495c-0.372-0.124-0.743-0.124-0.989,0l-2.724,0.741c0,0.373-0.124,0.867-0.124,1.238
			s0,0.742,0,1.113s0,0.742-0.124,0.866s-0.124,0.371,0,0.743c0,0.371,0.124,0.494,0.124,0.617l2.724,10.396
			c0.124,0.618,0.371,1.113,0.741,1.607c0.372,0.496,0.743,0.867,1.114,1.361c0.371,0.495,0.743,0.866,1.114,1.361
			s0.619,0.99,0.743,1.484c0.124,0.371,0,0.867-0.124,1.484c-0.248,0.619-0.495,1.114-0.742,1.732
			c-0.372,0.619-0.743,1.113-1.114,1.609c-0.372,0.493-0.866,0.865-1.238,0.988l-0.865,0.248c-0.866,0.247-1.732,0.247-2.6,0
			c-0.865-0.248-1.484-0.743-2.104-1.361l-3.96-4.207c0.124-0.619,0.248-1.237,0.372-1.979c0.124-0.619,0.124-1.36,0-1.979
			c0-0.123-0.124-0.496-0.248-0.99s-0.248-0.989-0.372-1.608c-0.124-0.495-0.247-1.112-0.371-1.483
			c-0.124-0.496-0.248-0.867-0.248-0.99l-0.124-0.248l-0.124-0.247c-0.124-0.248-0.124-0.619-0.248-0.99s-0.248-0.742-0.371-1.237
			c-0.124-0.371-0.248-0.742-0.371-1.113c-0.124-0.371-0.124-0.494-0.124-0.494s0-0.124-0.124-0.248s-0.124-0.247-0.124-0.371
			c-0.124-0.247-0.37-0.619-0.618-1.113s-0.495-0.867-0.495-0.99c-0.124-0.248-0.372-0.494-0.619-0.99
			c-0.371-0.494-0.619-0.989-0.99-1.607c-0.371-0.495-0.743-0.99-0.99-1.484c-0.371-0.496-0.494-0.867-0.618-0.99
			c-0.248-0.371-0.371-0.742-0.495-1.237c0-0.247,0-0.495,0.248-0.866s0.372-0.619,0.494-0.742c0.619-0.865,1.361-1.731,2.104-2.599
			c0.742-0.866,1.732-1.485,2.846-1.856c0.742-0.248,1.361-0.123,1.98,0.125c0.619,0.246,1.114,0.494,1.607,0.865
			c0.495,0.371,0.866,0.618,1.238,0.989c0.371,0.248,0.742,0.371,1.237,0.248h0.124c0.124-0.124,0.371-0.371,0.742-0.743
			c0.372-0.371,0.618-0.617,0.742-0.742c0.124-0.123,0.248-0.246,0.495-0.494c0.248-0.248,0.495-0.619,0.866-0.867
			c0.248-0.246,0.619-0.617,0.866-0.865c0.248-0.247,0.495-0.495,0.495-0.618c0.371-0.372,0.866-0.619,1.236-0.743
			c0.619-0.124,1.609-0.247,2.971-0.247c1.36,0,2.722,0.123,4.083,0.247c1.36,0.248,2.599,0.495,3.712,0.99s1.731,0.99,1.855,1.732
			c0.124,0.494,0.124,0.865,0,1.236s-0.248,0.866-0.371,1.237c-0.124,0.372-0.247,0.866-0.372,1.237
			c-0.123,0.371-0.123,0.867,0,1.238l3.342,13.116c0.124,0.495,0.372,0.99,0.743,1.361c0.37,0.37,0.618,0.866,1.113,1.237
			c0.371,0.371,0.743,0.865,1.114,1.36s0.619,0.99,0.742,1.485c0.124,0.494,0.124,0.99-0.124,1.732
			c-0.124,0.741-0.371,1.484-0.743,2.228c-0.248,0.741-0.742,1.36-1.237,1.979c-0.495,0.619-0.989,0.99-1.484,1.114
			c-0.743,0.247-1.609,0.124-2.353-0.371c-0.742-0.495-1.484-0.865-1.979-1.236c-0.124-0.125-0.371-0.248-0.742-0.496
			c-0.372-0.248-0.619-0.494-1.114-0.865c-0.372-0.248-0.743-0.619-1.114-0.866C348.851,368.122,348.728,367.875,348.604,367.751z"
			/>
		<path fill="#FFD13F" d="M369.394,357.48c-0.247-0.867-0.618-1.733-0.741-2.477c-0.248-0.865-0.495-1.732-0.866-2.6l-0.124-0.37
			c0-0.124-0.124-0.371-0.248-0.742c-0.124-0.372-0.371-0.743-0.495-1.237c-0.248-0.371-0.372-0.742-0.495-1.113
			c-0.124-0.371-0.248-0.619-0.372-0.742c-0.371-0.743-0.866-1.361-1.484-1.856c-0.619-0.495-1.114-1.237-1.361-1.979
			c0-0.125-0.124-0.247-0.124-0.371s0-0.247,0-0.371c0.124-0.742,0.371-1.361,0.866-2.104c0.495-0.619,0.99-1.361,1.484-1.98
			c0.124-0.124,0.248-0.371,0.372-0.495c0.124-0.123,0.247-0.247,0.495-0.371c0.866-0.247,1.609-0.247,2.353,0
			c0.742,0.371,1.484,0.619,1.979,0.99c0.124,0,0.371,0.124,0.742,0.37c0.372,0.248,0.619,0.371,0.743,0.496
			c0,0,0.124,0.123,0.124,0.246v0.125l2.97,10.271l0.495,1.483c0.248,0.619,0.495,1.238,0.619,1.856
			c0.248,0.619,0.619,1.237,0.99,1.731h0.124c0,0,0,0,0.124,0c0,0,0.124,0.125,0.247,0.125c0.124,0.123,0.248,0.123,0.495,0.246
			c0.124,0.125,0.248,0.248,0.371,0.248c0.124,0.125,0.248,0.125,0.248,0.125c0.248,0.123,0.372,0.246,0.495,0.494
			c0.124,0.248,0.248,0.494,0.248,0.618c0.248,0.495,0.248,1.114,0.124,1.732s-0.371,1.237-0.619,1.731
			c-0.371,0.619-0.743,1.114-1.237,1.485s-1.113,0.742-1.731,0.99c-0.867,0.37-1.733,0.247-2.476-0.248s-1.484-1.237-1.979-1.979
			c-0.619-0.865-0.99-1.731-1.485-2.599C369.765,358.718,369.518,357.975,369.394,357.48z M363.949,333.35
			c-0.371-1.113-0.619-2.229-0.619-3.59c0-1.236,0.371-2.475,0.99-3.465c0,0,0.124-0.124,0.248-0.247
			c0.124-0.124,0.248-0.248,0.248-0.248l2.475-0.866c0.866-0.246,1.485-0.246,1.98,0c0.494,0.371,0.865,0.866,1.113,1.485
			c0.124,0.247,0.124,0.495,0.248,0.742c0.124,0.248,0.124,0.495,0.124,0.741c-0.124,0.496-0.248,1.115-0.495,1.856
			c-0.248,0.743-0.619,1.609-0.989,2.476c-0.371,0.867-0.866,1.608-1.237,2.229c-0.495,0.618-0.99,1.113-1.485,1.237
			c-0.371,0.124-0.742,0.124-0.99,0c-0.247-0.124-0.494-0.371-0.742-0.743c-0.248-0.247-0.371-0.618-0.619-0.866
			C364.072,333.844,363.949,333.598,363.949,333.35z"/>
		<path fill="#FFD13F" d="M392.906,352.777c-0.495,0.123-0.99,0.371-1.114,0.865c-0.248,0.496-0.495,0.99-0.743,1.485
			s-0.495,0.99-0.866,1.483c-0.371,0.496-0.741,0.867-1.236,1.238s-0.99,0.618-1.732,0.618h-0.372
			c-0.371-0.495-0.742-1.112-1.114-1.608c-0.37-0.494-0.865-0.989-1.36-1.36c-0.495-0.495-0.867-0.99-1.238-1.36
			c-0.371-0.496-0.742-0.99-0.99-1.608c-0.372-1.237-0.743-2.476-0.989-3.589c-0.248-1.237-0.495-2.477-0.619-3.713
			c0-0.123,0-0.496-0.124-0.867c0-0.37-0.124-0.617-0.124-0.741c0.124-0.99,0.248-1.979,0.743-2.724
			c0.371-0.865,0.989-1.607,1.731-2.475c0,0,0.124-0.124,0.371-0.372c0.248-0.247,0.495-0.37,0.743-0.618s0.495-0.371,0.743-0.619
			c0.247-0.246,0.371-0.246,0.495-0.371c0.248-0.371,0.495-0.617,0.742-0.989c0.248-0.371,0.495-0.742,0.743-0.989
			c0.495-0.619,0.99-1.113,1.608-1.484s1.361-0.496,2.228-0.619h0.371l6.064,1.855c0.495,0.124,0.99,0.371,1.484,0.495
			c0.495,0.248,0.866,0.495,1.361,0.742v0.248c0.123,0.495,0,0.989-0.372,1.485c-0.247,0.494-0.618,0.988-0.742,1.359
			c0,0.124,0,0.248,0.124,0.619c0,0.247,0.124,0.619,0.124,0.865c0,0.371,0,0.619,0.123,0.867c0,0.248,0.124,0.494,0.124,0.619
			l0.247,2.104l0.248,2.104c0.247,0.866,0.495,1.609,0.866,2.229s0.742,1.361,1.237,2.104c0,0,0,0.124,0.124,0.248
			s0.246,0.247,0.246,0.371c0.124,0.124,0.248,0.248,0.248,0.371c0.124,0.124,0.124,0.248,0.247,0.248
			c0.124,0.123,0.248,0.371,0.248,0.495c0.123,0.123,0.123,0.371,0.123,0.493c0,0.373,0,0.867-0.371,1.361
			c-0.247,0.495-0.618,1.114-0.988,1.609c-0.372,0.495-0.866,0.988-1.361,1.361c-0.495,0.371-0.866,0.617-1.238,0.617
			c-0.371,0-0.618,0-0.866-0.246c-0.247-0.125-0.493-0.371-0.617-0.496l-2.104-2.846c-0.248-0.248-0.619-0.496-0.99-0.867
			C393.896,352.777,393.401,352.777,392.906,352.777z M386.471,344.115c0,0.246,0.124,0.865,0.371,1.607s0.495,1.608,0.743,2.476
			c0.371,0.866,0.743,1.608,1.114,2.228s0.866,0.866,1.36,0.866c0.495-0.123,0.866-0.247,1.237-0.618
			c0.248-0.371,0.495-0.742,0.619-1.113c0.124-0.494,0.248-0.867,0.248-1.361s0.124-0.866,0.124-1.237l-0.124-5.321v-0.371
			c0-0.246-0.248-0.494-0.495-0.865c-0.248-0.248-0.619-0.618-1.114-0.866c-0.372-0.247-0.867-0.495-1.237-0.619
			c-0.371-0.123-0.742-0.247-1.114-0.123c-0.371,0-0.742,0.371-0.99,0.866s-0.495,0.99-0.619,1.607
			c-0.124,0.619-0.248,1.237-0.248,1.732C386.471,343.496,386.471,343.867,386.471,344.115z"/>
	</g>
	<g>
		<g>
			<path fill="#FFD13F" d="M283.14,440.764v-0.124c0-0.617-0.124-1.112-0.248-1.607c-0.248-0.495-0.248-0.99-0.248-1.608
				c0-0.619,0.124-1.114,0.248-1.484c0.124-0.371,0.371-0.99,0.619-1.732v-0.124l-0.371-9.157c-0.124-0.371-0.248-0.619-0.619-0.866
				c0,0-0.248-0.247-0.372-0.494c-0.248-0.247-0.495-0.619-0.743-0.866c-0.247-0.371-0.495-0.619-0.742-0.866
				c-0.248-0.248-0.371-0.495-0.371-0.619c-0.248-0.247-0.495-0.618-0.619-0.989s-0.248-0.866-0.248-1.237
				c0-0.618,0.248-1.237,0.743-1.979c0.495-0.743,1.114-1.36,1.856-1.979c0.742-0.618,1.485-1.113,2.351-1.484
				c0.743-0.372,1.485-0.619,2.104-0.619s1.237,0.247,1.732,0.495c0.495,0.371,1.114,0.742,1.608,1.113
				c0.495,0.372,1.114,0.743,1.609,1.114c0.495,0.37,1.114,0.494,1.732,0.494c0.618,0,1.114-0.124,1.485-0.37
				c0.371-0.372,0.866-0.619,1.237-0.99c0.371-0.371,0.743-0.619,1.237-0.99c0.372-0.247,0.99-0.495,1.609-0.371
				c0.743,0,1.485,0.371,2.228,1.113c0.743,0.619,1.361,1.484,1.98,2.476s1.114,1.856,1.361,2.847
				c0.371,0.989,0.495,1.855,0.495,2.476c0,0.618-0.248,1.113-0.619,1.608c-0.371,0.494-0.742,0.865-1.114,1.236
				c-0.124,0.124-0.247,0.248-0.495,0.371c-0.248,0.124-0.495,0.372-0.743,0.495c-0.248,0.248-0.619,0.495-0.866,0.743
				c-0.124,0.123-0.248,0.247-0.495,0.371s-0.371,0.247-0.495,0.371c-0.248,0.124-0.495,0.247-0.619,0.371h-0.124
				c-0.619-0.247-1.237-0.619-1.856-0.866c-0.619-0.247-1.237-0.371-1.98-0.495h-0.619c-0.371,0.124-0.619,0.371-0.743,0.619
				c-0.248,0.247-0.248,0.618-0.371,0.866l-0.248,7.425c0,0.371,0,0.866,0.248,1.236c0.124,0.371,0.371,0.866,0.495,1.237
				c-0.248,0.372-0.495,0.866-0.619,1.114c-0.124,0.371-0.248,0.742-0.248,1.113l-0.124,5.073c0,0.866,0.248,1.485,0.866,2.104
				c0.619,0.619,1.361,1.114,2.104,1.608c0.742,0.494,1.485,1.113,2.104,1.732c0.619,0.618,0.866,1.36,0.866,2.352
				c0,0.247-0.124,0.494-0.247,0.618c-0.124,0.124-0.248,0.371-0.495,0.495c0,0.123-0.248,0.247-0.372,0.495
				c-0.247,0.247-0.495,0.494-0.742,0.742c-0.248,0.247-0.495,0.495-0.743,0.618c-0.248,0.248-0.371,0.372-0.495,0.372
				c-0.247,0.247-0.619,0.495-1.114,0.866c-0.495,0.246-0.99,0.494-1.361,0.494l-3.589-0.124c-0.495,0-0.866-0.124-1.485-0.494
				c-0.495-0.371-1.114-0.619-1.609-1.114c-0.495-0.371-0.99-0.742-1.485-1.237c-0.495-0.371-0.99-0.742-1.361-0.866
				c-0.124-0.123-0.495-0.247-0.99-0.495c-0.495-0.246-0.743-0.37-0.99-0.37c0,0-0.248,0-0.619-0.124
				c-0.371-0.123-0.495-0.123-0.619-0.247c-0.248-0.124-0.371-0.371-0.619-0.619c-0.124-0.247-0.371-0.618-0.619-1.113
				c-0.248-0.495-0.372-0.742-0.372-0.866v-0.124L283.14,440.764z"/>
			<path fill="#FFD13F" d="M327.69,416.138l6.559,7.55c0,0,0.124,0.246,0.372,0.37c0.124,0.247,0.371,0.495,0.495,0.742
				c0.124,0.248,0.372,0.495,0.495,0.743c0.124,0.247,0.371,0.494,0.371,0.618c0.371,0.495,0.866,1.361,1.237,2.352
				c0.495,0.99,0.619,1.856,0.619,2.6l-0.248,8.044c0,0.371-0.124,0.742-0.371,1.236c-0.247,0.495-0.371,0.99-0.495,1.237
				c0,0.124-0.124,0.248-0.248,0.619c-0.123,0.247-0.247,0.495-0.494,0.866c-0.124,0.247-0.371,0.618-0.495,0.866
				c-0.124,0.247-0.248,0.494-0.248,0.494c-0.124,0.247-0.372,0.618-0.743,1.237c-0.371,0.495-0.743,1.113-1.237,1.732
				c-0.372,0.619-0.866,1.236-1.237,1.731s-0.742,0.866-0.866,1.114c0,0-0.248,0.247-0.495,0.618s-0.619,0.866-0.99,1.36
				c-0.371,0.495-0.866,0.99-1.237,1.361c-0.372,0.495-0.742,0.866-0.989,1.113c0,0.124-0.248,0.248-0.371,0.495
				c-0.248,0.248-0.371,0.371-0.495,0.495c-0.371,0.371-0.743,0.865-1.361,1.36s-1.114,0.99-1.607,1.237
				c0,0-0.248,0.124-0.372,0.248l-0.371,0.123l-3.836-0.123c-0.124,0-0.248,0-0.371-0.124c-0.124,0-0.248-0.124-0.371-0.124
				c-0.124,0-0.248,0-0.248-0.123c-1.114-0.372-2.104-0.866-3.094-1.485c-0.99-0.618-1.856-1.36-2.6-2.228
				c-0.865-0.866-1.607-1.732-2.227-2.599c-0.743-0.866-1.361-1.856-1.856-2.848c0,0-0.124-0.247-0.248-0.371
				c-0.124-0.247-0.247-0.371-0.37-0.495c0-0.122,0-0.246-0.124-0.37s-0.124-0.247-0.124-0.371l0.742-21.903
				c0-0.99,0.495-1.98,1.361-2.723c0.866-0.743,1.609-1.361,2.353-1.856c0.247-0.124,0.741-0.371,1.236-0.742
				c0.619-0.372,0.866-0.495,0.99-0.495l9.652-4.702L327.69,416.138z M321.874,425.79c-0.371,0-0.866,0-1.608,0.124
				c-0.742,0.123-1.113,0.495-1.113,0.989l-0.495,15.222c0,0.124,0,0.371,0.124,0.742c0.124,0.248,0.124,0.495,0.124,0.619
				c0.495,1.36,1.36,2.352,2.475,2.97c1.114,0.619,2.229,1.114,3.589,1.485c0.124,0,0.247,0.124,0.495,0.124
				c0.248,0.122,0.372,0.122,0.372,0l0.124-0.124c0.124-0.495,0.248-0.99,0.495-1.485c0.124-0.371,0.248-0.866,0.371-1.361
				s0.248-0.866,0.371-1.236c0.124-0.742,0.372-1.361,0.372-1.98c0.124-0.618,0.124-1.36,0.124-2.104v-1.732
				c-0.124-0.866-0.248-1.732-0.495-2.599c-0.247-0.867-0.619-1.608-0.99-2.353l-3.589-5.938l-0.495-1.114L321.874,425.79z"/>
			<path fill="#FFD13F" d="M345.634,434.7c-1.237-8.168,3.094-17.449,3.094-17.449l0.124-0.495c0.619-0.866,1.238-1.607,1.609-2.104
				s0.743-1.113,1.237-1.732c0.372-0.619,0.743-1.113,1.114-1.485c1.484-1.979,3.218-3.341,5.32-4.206
				c2.104-0.866,4.332-1.237,6.684-1.237c0.865,0,1.608,0.371,2.104,1.113s0.742,1.484,0.742,2.352c0,0.495-0.124,0.866-0.248,1.237
				l-1.856,4.825l-7.425,1.732c-0.495,0-1.113,0.124-1.607,0.371c-0.495,0.248-0.867,0.619-0.867,1.238
				c0,1.112,0.372,2.228,1.114,3.341s1.484,1.979,2.104,2.723c0,0.124,0.248,0.371,0.619,0.618c0.371,0.372,0.743,0.743,1.114,1.114
				c0.371,0.495,0.743,0.866,1.113,1.236c0.371,0.371,5.445,10.768,5.445,10.768s3.218,11.014-0.99,19.305
				c-6.063,11.88-11.88,13.489-11.88,13.489l-13.488,3.588l-0.124,0.124c-0.99,0-1.732-0.371-2.476-1.113
				c-0.742-0.619-1.237-1.484-1.731-2.476c-0.495-0.989,0.248-6.806,0.248-7.177c0-0.495,3.218-0.124,3.218-0.619
				s10.271,1.236,13.241-1.485c2.97-2.723,1.484-6.062,1.484-6.062C352.192,448.808,346.871,442.867,345.634,434.7z"/>
			<path fill="#FFD13F" d="M384.739,422.077l2.97-0.495h0.248c0.248,0,0.495,0.124,0.743,0.495c0.248,0.248,0.371,0.495,0.495,0.743
				c0.619,0.742,1.236,1.36,1.607,2.104c0.372,0.619,0.867,1.485,1.485,2.353c0.618,0.866,1.237,1.979,1.855,3.341
				c0.619,1.36,0.99,2.599,0.99,3.713c0,0.371,0,0.742-0.124,0.989c0,0.248-0.247,0.495-0.495,0.865
				c-0.124,0.124-0.372,0.372-0.743,0.619c-0.37,0.371-0.618,0.495-0.742,0.619l-8.415,6.312c-0.495,0.372-0.866,0.865-1.361,1.36
				s-0.743,1.114-0.743,1.732c0,0.372,0.124,0.743,0.371,1.114c0.248,0.247,0.495,0.617,0.743,0.741
				c0.124,0.124,0.248,0.248,0.619,0.495s0.619,0.495,0.99,0.742c0.37,0.248,0.618,0.495,0.989,0.743
				c0.248,0.247,0.495,0.495,0.619,0.618c0.495,0.248,0.866,0.619,1.361,1.114c0.371,0.494,0.743,0.989,0.866,1.607v0.742
				c0,1.485-0.619,2.723-1.608,3.713c-0.99,0.866-2.104,1.608-3.465,2.229c-1.237-0.619-2.6-1.361-3.96-2.229
				c-1.361-0.867-2.6-1.731-3.712-2.723c-1.113-0.991-1.98-2.229-2.724-3.589c-0.741-1.361-0.989-2.847-0.989-4.455l0.494-14.727
				c0-1.608,0.495-2.847,1.361-3.837c0.866-0.989,1.856-1.854,3.094-2.599c1.238-0.742,2.476-1.361,3.713-2.104
				c1.237-0.619,2.352-1.484,3.342-2.352h0.124V422.077z M381.274,437.67c0,0.495,0.124,0.866,0.37,0.99
				c0.247,0.124,0.619,0.371,0.99,0.371h0.866c0.867,0,1.609-0.124,2.228-0.495c0.619-0.371,0.99-0.99,0.99-1.979
				c0-0.372-0.124-0.866-0.371-1.36c-0.248-0.495-0.619-0.99-1.113-1.361c-0.495-0.371-0.99-0.743-1.485-0.99
				c-0.495-0.248-0.99-0.371-1.361-0.495c-0.124,0-0.248,0-0.248,0s0,0.124-0.124,0.371c0,0.124,0,0.495-0.124,0.866
				s-0.124,0.866-0.248,1.361s-0.124,0.866-0.247,1.36c-0.124,0.371-0.124,0.742-0.124,0.866L381.274,437.67z"/>
		</g>
		<path fill="#FFD13F" d="M387.337,410.692c-2.228-0.371-5.445,2.599-8.539,6.062c-1.608,1.856-3.465,4.332-2.475,5.074
			c1.979,1.361,5.815-2.599,9.28-5.568C388.451,412.92,388.822,410.94,387.337,410.692z"/>
	</g>
</g>
</svg>
