<?xml version="1.0" encoding="utf-8"?>
<!-- Generator: Adobe Illustrator 22.0.0, SVG Export Plug-In . SVG Version: 6.00 Build 0)  -->
<svg version="1.1" id="Layer_1" xmlns="http://www.w3.org/2000/svg" xmlns:xlink="http://www.w3.org/1999/xlink" x="0px" y="0px"
	 viewBox="0 0 193.6 111" style="enable-background:new 0 0 193.6 111;" xml:space="preserve">
<style type="text/css">
	.st0{fill:#FFD040;}
</style>
<path class="st0" d="M28.9,92.5c-0.2-0.1-1.3-0.4-1.2-0.5c0.5-2.4-1.5-2.1-2.7-2.9c-0.6-0.4-2.1-1.9-0.7-4.1c1.5-2.2,1.9-5.3,2.2-8
	c0.2-1.8,0.7-3.4,1.1-5.1c0.4-1.5-0.4-3.1,0.6-4.8c0.4-0.7-0.7-2.4-1.1-3.7c-0.8-2.3-0.1-3.7,2.1-5.2c1.1-0.8,2.2-1.4,2.7-3.3
	c0.7-2.6,1.2-5.5,2.8-7.8c1.2-1.7,0.9-2.5-0.4-3.6c-0.5-0.4-1-0.9-1.5-1.1c-1.5-0.7-3.4-1.8-2.9-3.3c0.5-1.5,2.2-3.2,3.7-3.6
	c3-0.7,4.3-2.6,5.4-4.9c0.1-0.3,0.7-0.5,0.7-0.7c-0.1-2.5,2.5-2.1,3.5-3.5c1.1,2,3.7-0.1,4.8,1.7c1.4,2.4,3.7,2.3,6.1,2.2
	c1.5,0,3,0.2,4.5,0c4.1-0.6,8,1.2,12.1,1.1c1.4-0.1,2.2,1.5,2.1,3.3c-0.1,1.8,0.3,3.7-1.7,4.8c-0.3,0.2-0.5,0.5-0.7,0.7
	c-0.2,0.2-6.6,0.1-7.1,0.1c-3.8,0-7.7-0.1-11.5,0.1c-0.7,0-1.7,1.1-1.9,1.8c-1,2.9-1.6,6-3,8.8c-0.5,0.9,0.5,1.7,1.4,1.3
	c2.2-1.2,4.6-0.7,6.9-1.6c1.8-0.6,3.9-0.4,5.8-0.4c1.9,0,1.9,0,1.3,2.1c-0.2,0.6-0.4,1.2-0.3,1.8c0.1,1.4-0.2,1.8-1.8,2.1
	c-2.4,0.5-3.9,3.3-6.8,2.9c-2,3.5-5.8,2.8-8.9,3.9c-1.1,0.4-1.7,0.5-1.6,1.8c0.3,2.3-0.3,4.4-1.5,6.4c-0.6,1-0.3,2.5-0.6,3.8
	c-0.2,1.1-0.6,2.1-1,3.1c-1.2,3.2-0.6,6.9-3,9.8C35.4,89.7,31.5,92.4,28.9,92.5z"/>
<path class="st0" d="M135.9,25.2c2.1,0,3.5,0.4,4,2.8c0.2,1.3,0.9,2.7,1.8,3.7c0.7,0.9,1.7,1.4,2.5,2.4c2.4,3.2,3.6,6.6,3.6,10.5
	c0,1.1-0.4,2.3,0.8,3.2c0.2,0.1,0.3,0.7,0.1,0.9c-2,3.6-0.6,7.4-1,11.1c-0.4,4.4-1.6,8.6-3,12.7c-0.8,2.2-1.4,4.6-3.1,6.2
	c-1.6,1.4,1,2.5-0.3,3.6c-1.8,1.5,0.2,2.1,0.8,3.1c0.4,0.6,0.7,1.4,1.1,2c0.5,0.9,2.4,1.4,1.1,2.7c-1,1-4.2,0.1-4.6-1.3
	c-0.3-1.1,0-2.4-1.2-3c-0.5-0.2-1.6-0.2-1.6-0.1c-0.2,1.9-1.8,2.4-3.2,3.2c-0.6,0.3-0.7,1.4-1.1,2c-0.7,0.9-1.4,1.5-2.8,1.6
	c-3.9,0.2-3.9,0.3-4.2,4.1c0,0.5,0,1-0.2,1.4c-0.1,0.2-0.5,0.3-0.8,0.4c-0.3,0-0.7-0.1-0.8-0.3c-0.2-0.2-0.2-0.6-0.2-0.9
	c0.1-1.8-1.1-4-2-5.3c-1.5-2.5-3.6-4.6-4.2-7.8c-0.6-2.9-0.9-5.7-0.8-8.6c0.1-1.5,0.8-3,0.9-4.6c0.2-1.6,0-3.3,0-5
	c0-0.3-0.1-0.8,0-1c2.8-4.1,3.3-9,4.4-13.6c0.9-3.5,2.4-6.7,2.7-10.4c0.2-2.3,1.8-4.5,2.7-6.8c0.5-1.1,0.8-2.3,1.2-3.5
	c0.4-1.3,0.5-3.3,1.4-3.8C131.7,25.8,133.9,25.7,135.9,25.2z M139.6,52.8c0-3.3,0.1-6.7,0-10c0-1.6-3.2-5.6-3.5-5.1
	c-1,1.4-1.9,2.9-2.4,4.5c-0.6,1.9-1.1,4.1-1,6.1c0.1,2.2-0.6,4.3-1.5,5.9c-1.5,2.9-2,6.2-3.6,9c-1.7,3-1.5,6.6-2.8,9.8
	c-0.8,2-0.3,4.6-0.2,6.9c0.1,1.2,2,1.8,3,1c1-0.7,2.1-1.4,3.1-2.1c0.9-0.7,1.3-1.5,0.2-2.4c-1.2-0.9-1.3-2-1.5-3.4
	c-0.2-1.7,1-2.7,1.2-4.1c0.1-0.8,1.5-0.6,1.9,0.2c0.4,0.8,0.6,1.7,1,2.6c0.5,1.1,1.3,1,2-0.1c2.5-4.1,4.2-8.4,4-13.3
	C139.6,56.4,139.6,54.6,139.6,52.8z"/>
<path class="st0" d="M102.2,86.4c-2.8,0-3.3-0.6-3.6-3.3c-0.5-4-1.2-8-1-12.1c0-1.1-0.5-2.7-1.3-3.3c-1.4-1.1-3.3-1.9-5-2.2
	c-1.7-0.3-3.8-0.4-5.3,0.3c-2.8,1.4-3.6,4.7-5.3,7.2c0.9,2.6-1.8,4-2.2,6.1C78,81.3,75,82.3,75.6,85c-1.6,1.2-2.9,2.7-4.3,4.1
	c-1.7,1.7-5.5-0.6-5.7-3.2c-0.1-2.8,0.7-5.3,2.5-7.5c1.6-1.9,3.1-3.8,3.7-6.5c0.4-1.9,1.9-3.5,3.1-5.2c1.1-1.5,0.9-3.6,2.7-4.9
	c1-0.7,1.4-2.3,2-3.6c1.2-2.5,1.8-5.3,3.4-7.5c2.6-3.6,4.2-7.6,5.6-11.7c1-2.9,1.5-6.1,4.1-8.3c0.4-0.4,0.7-1.1,0.8-1.6
	c0.2-2.7,2.1-4.2,3.8-5.9c1-1,2.8-0.6,3.1,0.7c0.3,1.5-0.1,3.2,1.1,4.5c-0.7,3.9,1.2,7.7,1,11.6c-0.1,1.8-0.7,4.1,0.2,5.4
	c1,1.6-1.4,3.3,0.7,4.4c-2.2,1.9,0.7,3.6,0.3,5.6c-0.4,1.9-0.5,4.1,0,6c1.7,6.5,0.6,13.1,0.9,19.6c0,0.8,0,1.7,0.4,2.3
	c0.5,0.8,1,1.4,0.2,2.1c-0.6,0.5-1.3,0.8-2,1.1C102.9,86.5,102.5,86.4,102.2,86.4z M90.9,59.4c1.3,0,1.6,0,2,0
	c3.7-0.1,3.8-0.1,3.8-4c0-2.9-1.7-5.5-1-8.5c0-0.1-0.3-0.3-0.3-0.3c-0.3,0.1-0.5,0.2-0.7,0.4c-0.4,0.5-0.6,1.1-1,1.6
	c-1.9,2.1-1.5,5.4-3.9,7.4c-0.7,0.6-0.8,1.9-1.1,3C89.7,59.1,90.7,59.4,90.9,59.4z"/>
<path class="st0" d="M164.6,65.2c1.1,0.1,2,0.2,2.8,0.4c0.3,0.1,1.1,0.3,0.4,0.8c0.5,0.6,0.5,1.3,1.2,1.9c0.8,0.7,0.6,1.2,0,1.8
	c-1,0.9-2,1.1-3,0.7c-0.2-0.1-0.4-0.2-0.2-0.6c0.2-0.6,0-1.3-0.4-1.9c-0.2-0.3-0.9-0.4-1.5-0.4c-0.2,0-0.5,0.5-0.6,0.8
	c-0.3,0.8,0.3,1.6,0.6,2.3c0.6,1.6,1.2,3.2,1.1,4.8c0,1.3,0.4,2.6,1,3.8c0.4,0.8,0.7,1.6,0.7,2.4c0.1,1.8,0.8,3.5,0.5,5.2
	c-0.3,1.4,0.4,2.6,0.5,4c0.1,1.4-0.3,3.5-1.3,4.7c-0.2,0.2-0.4,0.5-0.5,0.7c-0.6,1.5-2.3,1.8-3.8,2.4c-0.2,0.1-0.6,0.1-0.9,0
	c-1.8-0.8-3.5-1.8-4-3.6c-0.1-0.4,0.7-0.8,0-1.1c-0.1-1.2-0.8-2.3-0.6-3.6c0-0.2,0-0.5,0.2-0.6c0.2-0.2,0.6-0.3,0.9-0.4
	c0.4-0.1,0.5,0.1,0.7,0.4c0.5,1,1.3,1.9,1.6,2.9c0.3,1,0.8,2,1.1,3.1c0,0.1,0.2,0.3,0.2,0.4c0.2-0.1,0.5-0.3,0.4-0.4
	c0-0.8,0.8-1.2,1.1-1.8c0.8-1.5,1-3.1,0.2-4.7c-0.3-0.6-0.5-1.1-0.8-1.7c-0.1-0.2-0.3-0.5-0.2-0.6c0.4-0.6,0.1-1.3-0.1-1.9
	c-0.5-1.2-0.1-2.6-1.1-3.8c-0.2-0.2-0.2-0.6-0.1-0.8c0.1-0.7-0.2-1.2-0.5-1.8c-0.1-0.1-0.3-0.4-0.3-0.4c0.8-0.5,0.1-1-0.1-1.5
	c-0.2-0.5,0.3-1.2-0.5-1.6c0.1-1.2-0.2-2.4-0.9-3.5c-0.1-0.2-0.1-0.7,0-0.9c0.4-0.4,0.5-0.7,0-1c-0.1-0.1-0.1-0.3-0.1-0.5
	c0-0.1,0-0.3,0.1-0.3c1.2-0.4,0.4-1.6,1.2-2.1c0.7-0.5,1.2-1.2,1.9-1.5C162.6,65.4,163.7,65.4,164.6,65.2z"/>
</svg>
