<?xml version="1.0" encoding="utf-8"?>
<!-- Generator: Adobe Illustrator 16.0.0, SVG Export Plug-In . SVG Version: 6.00 Build 0)  -->
<!DOCTYPE svg PUBLIC "-//W3C//DTD SVG 1.1//EN" "http://www.w3.org/Graphics/SVG/1.1/DTD/svg11.dtd">
<svg version="1.1" id="Layer_1" xmlns="http://www.w3.org/2000/svg" xmlns:xlink="http://www.w3.org/1999/xlink" x="0px" y="0px"
	 width="6px" height="6px" viewBox="0 0 6 6" enable-background="new 0 0 6 6" xml:space="preserve">
<path d="M0.896,4.146C0.89,4.144,0.855,4.135,0.858,4.131c0.016-0.074-0.046-0.064-0.083-0.09C0.756,4.029,0.71,3.982,0.753,3.914
	C0.8,3.846,0.812,3.75,0.821,3.666C0.828,3.61,0.843,3.561,0.855,3.508c0.012-0.046-0.013-0.096,0.019-0.148
	C0.886,3.338,0.852,3.285,0.84,3.245C0.815,3.173,0.837,3.13,0.905,3.083c0.034-0.024,0.068-0.043,0.084-0.102
	C1.01,2.901,1.026,2.811,1.075,2.74c0.038-0.053,0.028-0.078-0.012-0.112C1.047,2.616,1.032,2.6,1.017,2.594
	C0.97,2.572,0.911,2.538,0.927,2.492S0.995,2.393,1.042,2.38C1.134,2.358,1.175,2.3,1.208,2.229C1.212,2.219,1.23,2.213,1.23,2.207
	C1.227,2.129,1.308,2.142,1.339,2.098C1.373,2.16,1.454,2.095,1.488,2.151c0.043,0.074,0.114,0.071,0.189,0.068
	c0.046,0,0.093,0.006,0.139,0C1.943,2.2,2.064,2.256,2.191,2.253C2.234,2.25,2.259,2.3,2.256,2.355
	C2.253,2.411,2.266,2.47,2.204,2.504C2.194,2.51,2.188,2.52,2.182,2.526c-0.006,0.006-0.205,0.003-0.22,0.003
	c-0.118,0-0.239-0.003-0.356,0.003c-0.022,0-0.053,0.034-0.059,0.056C1.516,2.678,1.497,2.774,1.454,2.86
	C1.438,2.889,1.469,2.913,1.497,2.901c0.068-0.037,0.143-0.022,0.214-0.05c0.056-0.019,0.121-0.012,0.18-0.012
	c0.059,0,0.059,0,0.04,0.065C1.925,2.922,1.918,2.941,1.921,2.96c0.003,0.043-0.006,0.056-0.056,0.065
	c-0.074,0.016-0.121,0.102-0.211,0.09c-0.062,0.108-0.18,0.087-0.276,0.121C1.345,3.248,1.327,3.251,1.33,3.292
	C1.339,3.363,1.32,3.428,1.283,3.49C1.265,3.521,1.274,3.567,1.265,3.607C1.258,3.642,1.246,3.672,1.233,3.703
	c-0.037,0.1-0.019,0.215-0.093,0.305C1.097,4.061,0.976,4.144,0.896,4.146z"/>
<path d="M4.212,2.061c0.065,0,0.108,0.012,0.124,0.087c0.006,0.04,0.027,0.083,0.056,0.114c0.021,0.028,0.053,0.043,0.077,0.075
	C4.543,2.436,4.58,2.542,4.58,2.662c0,0.034-0.012,0.071,0.025,0.099c0.006,0.003,0.01,0.022,0.003,0.028
	C4.547,2.901,4.59,3.019,4.578,3.133C4.564,3.27,4.527,3.4,4.484,3.527C4.46,3.596,4.441,3.67,4.389,3.719
	C4.339,3.762,4.42,3.797,4.379,3.83C4.323,3.877,4.385,3.896,4.404,3.927c0.012,0.019,0.021,0.044,0.033,0.062
	c0.016,0.028,0.074,0.044,0.035,0.084C4.441,4.104,4.342,4.075,4.33,4.032c-0.01-0.034,0-0.075-0.037-0.093
	C4.277,3.933,4.242,3.933,4.242,3.936c-0.006,0.059-0.055,0.074-0.099,0.1c-0.019,0.01-0.021,0.043-0.034,0.062
	C4.088,4.125,4.066,4.144,4.023,4.146c-0.121,0.006-0.121,0.01-0.131,0.127c0,0.016,0,0.031-0.006,0.044
	C3.883,4.323,3.871,4.326,3.861,4.33c-0.01,0-0.021-0.004-0.024-0.01C3.83,4.314,3.83,4.302,3.83,4.293
	c0.004-0.057-0.033-0.125-0.062-0.165c-0.046-0.077-0.111-0.143-0.13-0.241C3.619,3.797,3.61,3.71,3.613,3.619
	c0.004-0.046,0.025-0.092,0.028-0.142c0.007-0.05,0-0.103,0-0.155c0-0.009-0.003-0.025,0-0.031C3.729,3.164,3.744,3.012,3.777,2.87
	c0.028-0.108,0.074-0.208,0.084-0.322c0.006-0.071,0.057-0.139,0.084-0.21c0.016-0.034,0.025-0.071,0.037-0.108
	C3.994,2.188,3.998,2.126,4.025,2.11C4.082,2.08,4.15,2.077,4.212,2.061z M4.326,2.917c0-0.103,0.004-0.208,0-0.31
	c0-0.05-0.1-0.174-0.108-0.158c-0.03,0.043-0.059,0.09-0.074,0.14c-0.019,0.059-0.034,0.127-0.03,0.189
	C4.115,2.845,4.094,2.91,4.066,2.96C4.02,3.05,4.004,3.152,3.955,3.239C3.902,3.332,3.908,3.443,3.867,3.543
	C3.843,3.604,3.858,3.686,3.861,3.756c0.004,0.037,0.062,0.057,0.094,0.031c0.03-0.021,0.064-0.043,0.096-0.064
	C4.078,3.7,4.091,3.676,4.057,3.648C4.02,3.619,4.017,3.586,4.01,3.543C4.004,3.49,4.041,3.458,4.047,3.416
	c0.004-0.025,0.047-0.019,0.06,0.006s0.019,0.053,0.03,0.081c0.016,0.034,0.041,0.031,0.062-0.003
	c0.078-0.127,0.131-0.26,0.124-0.412C4.326,3.028,4.326,2.972,4.326,2.917z"/>
<path d="M3.167,3.957c-0.087,0-0.103-0.018-0.112-0.102C3.04,3.731,3.019,3.607,3.025,3.48c0-0.034-0.016-0.084-0.041-0.103
	C2.941,3.344,2.882,3.319,2.83,3.31S2.712,3.297,2.665,3.319C2.579,3.363,2.554,3.465,2.501,3.543
	c0.028,0.08-0.056,0.123-0.068,0.188C2.417,3.8,2.324,3.83,2.343,3.914C2.293,3.951,2.253,3.998,2.21,4.041
	C2.157,4.094,2.039,4.023,2.033,3.942C2.03,3.855,2.055,3.777,2.11,3.71c0.05-0.06,0.096-0.118,0.115-0.202
	C2.238,3.449,2.284,3.4,2.321,3.347c0.034-0.046,0.028-0.112,0.083-0.152c0.031-0.022,0.043-0.071,0.062-0.112
	c0.037-0.077,0.056-0.164,0.105-0.232c0.081-0.111,0.13-0.235,0.174-0.362C2.777,2.399,2.792,2.3,2.873,2.231
	c0.012-0.012,0.021-0.034,0.025-0.05c0.006-0.083,0.065-0.13,0.118-0.183C3.046,1.968,3.102,1.98,3.111,2.021
	c0.01,0.047-0.003,0.099,0.034,0.14C3.124,2.281,3.183,2.399,3.177,2.52C3.173,2.575,3.155,2.646,3.183,2.687
	C3.214,2.736,3.14,2.789,3.205,2.823C3.136,2.882,3.226,2.935,3.214,2.997c-0.012,0.059-0.016,0.127,0,0.186
	c0.053,0.202,0.019,0.406,0.028,0.608c0,0.023,0,0.052,0.012,0.07C3.27,3.887,3.285,3.904,3.26,3.927
	C3.242,3.942,3.22,3.951,3.198,3.961C3.189,3.961,3.177,3.957,3.167,3.957z M2.817,3.121c0.04,0,0.049,0,0.062,0
	c0.115-0.003,0.118-0.003,0.118-0.124c0-0.09-0.053-0.17-0.031-0.264c0-0.003-0.009-0.009-0.009-0.009
	C2.947,2.728,2.941,2.73,2.935,2.736c-0.013,0.016-0.019,0.034-0.031,0.05C2.845,2.851,2.857,2.954,2.783,3.016
	C2.761,3.034,2.758,3.074,2.749,3.108C2.78,3.111,2.811,3.121,2.817,3.121z"/>
<path d="M5.102,3.301c0.033,0.003,0.062,0.006,0.086,0.012C5.197,3.316,5.223,3.322,5.2,3.338c0.016,0.019,0.016,0.04,0.038,0.059
	c0.023,0.022,0.018,0.038,0,0.056C5.207,3.48,5.176,3.486,5.145,3.474C5.139,3.471,5.133,3.468,5.139,3.456
	c0.006-0.019,0-0.04-0.013-0.059C5.119,3.387,5.098,3.384,5.08,3.384c-0.007,0-0.016,0.016-0.02,0.025
	C5.052,3.434,5.07,3.458,5.08,3.48c0.018,0.049,0.037,0.1,0.033,0.148c0,0.041,0.013,0.081,0.031,0.118
	c0.013,0.024,0.021,0.05,0.021,0.074C5.17,3.877,5.191,3.93,5.182,3.982c-0.01,0.043,0.013,0.08,0.016,0.124s-0.01,0.108-0.04,0.146
	C5.15,4.258,5.145,4.268,5.142,4.273C5.123,4.32,5.07,4.33,5.023,4.348c-0.006,0.004-0.018,0.004-0.027,0
	C4.939,4.323,4.887,4.293,4.872,4.236c-0.003-0.012,0.021-0.024,0-0.033C4.869,4.166,4.848,4.131,4.854,4.091
	c0-0.006,0-0.016,0.006-0.019c0.006-0.006,0.019-0.01,0.027-0.012C4.9,4.057,4.902,4.062,4.909,4.072
	c0.016,0.031,0.04,0.059,0.05,0.09c0.009,0.031,0.024,0.062,0.033,0.096c0,0.004,0.007,0.01,0.007,0.013
	c0.007-0.003,0.016-0.009,0.013-0.013c0-0.024,0.024-0.037,0.033-0.055C5.07,4.156,5.076,4.106,5.052,4.057
	C5.043,4.038,5.036,4.023,5.027,4.004c-0.004-0.006-0.01-0.016-0.007-0.019c0.013-0.019,0.003-0.04-0.003-0.059
	C5.002,3.89,5.015,3.846,4.983,3.809C4.977,3.803,4.977,3.791,4.98,3.784c0.003-0.022-0.006-0.037-0.016-0.056
	c-0.003-0.004-0.01-0.013-0.01-0.013C4.98,3.7,4.959,3.686,4.953,3.67C4.946,3.654,4.962,3.633,4.938,3.619
	c0.002-0.037-0.007-0.074-0.028-0.107c-0.003-0.006-0.003-0.022,0-0.028c0.013-0.012,0.016-0.021,0-0.031
	C4.906,3.449,4.906,3.443,4.906,3.437c0-0.003,0-0.009,0.003-0.009c0.037-0.012,0.013-0.05,0.037-0.065
	c0.021-0.016,0.037-0.038,0.06-0.047C5.039,3.307,5.073,3.307,5.102,3.301z"/>
</svg>
